G04 EAGLE Gerber RS-274X export*
G75*
%MOMM*%
%FSLAX34Y34*%
%LPD*%
%INTop Copper*%
%IPPOS*%
%AMOC8*
5,1,8,0,0,1.08239X$1,22.5*%
G01*
%ADD10C,0.550000*%
%ADD11R,0.550000X1.270000*%
%ADD12R,1.270000X0.550000*%
%ADD13C,1.422400*%
%ADD14P,1.539592X8X292.500000*%
%ADD15R,1.500000X1.300000*%
%ADD16P,1.429621X8X112.500000*%
%ADD17R,2.286000X2.286000*%
%ADD18C,2.000000*%
%ADD19P,1.429621X8X202.500000*%
%ADD20R,1.930400X5.334000*%
%ADD21R,1.300000X1.500000*%
%ADD22P,1.429621X8X22.500000*%
%ADD23P,1.429621X8X292.500000*%
%ADD24C,1.117600*%
%ADD25P,1.539592X8X202.500000*%
%ADD26R,2.000000X2.000000*%
%ADD27R,1.108000X1.108000*%
%ADD28R,1.270000X0.635000*%
%ADD29R,1.508000X1.508000*%
%ADD30C,1.508000*%
%ADD31C,1.320800*%
%ADD32C,0.508000*%
%ADD33C,0.756400*%
%ADD34C,0.381000*%
%ADD35C,0.304800*%
%ADD36C,0.384000*%
%ADD37C,0.254000*%

G36*
X84084Y10166D02*
X84084Y10166D01*
X84134Y10163D01*
X84278Y10186D01*
X84422Y10201D01*
X84470Y10216D01*
X84519Y10223D01*
X84655Y10275D01*
X84794Y10319D01*
X84837Y10343D01*
X84884Y10361D01*
X85007Y10439D01*
X85133Y10510D01*
X85171Y10543D01*
X85213Y10569D01*
X85318Y10671D01*
X85427Y10766D01*
X85457Y10806D01*
X85493Y10841D01*
X85575Y10961D01*
X85662Y11077D01*
X85684Y11122D01*
X85712Y11163D01*
X85767Y11298D01*
X85829Y11429D01*
X85841Y11477D01*
X85860Y11524D01*
X85887Y11667D01*
X85921Y11808D01*
X85923Y11858D01*
X85932Y11907D01*
X85929Y12052D01*
X85934Y12198D01*
X85926Y12247D01*
X85925Y12297D01*
X85902Y12383D01*
X85867Y12582D01*
X85815Y12715D01*
X85794Y12794D01*
X83759Y17705D01*
X83759Y22695D01*
X85668Y27304D01*
X89196Y30832D01*
X93805Y32741D01*
X118795Y32741D01*
X123404Y30832D01*
X126932Y27304D01*
X128841Y22695D01*
X128841Y17705D01*
X126806Y12794D01*
X126792Y12746D01*
X126771Y12701D01*
X126736Y12559D01*
X126695Y12420D01*
X126690Y12371D01*
X126679Y12322D01*
X126674Y12177D01*
X126662Y12032D01*
X126667Y11982D01*
X126666Y11932D01*
X126691Y11789D01*
X126708Y11645D01*
X126724Y11598D01*
X126733Y11548D01*
X126786Y11414D01*
X126833Y11275D01*
X126858Y11232D01*
X126876Y11186D01*
X126956Y11065D01*
X127030Y10939D01*
X127063Y10902D01*
X127091Y10860D01*
X127194Y10758D01*
X127291Y10650D01*
X127331Y10621D01*
X127367Y10585D01*
X127489Y10506D01*
X127606Y10420D01*
X127651Y10400D01*
X127693Y10372D01*
X127829Y10319D01*
X127961Y10259D01*
X128010Y10248D01*
X128056Y10230D01*
X128145Y10218D01*
X128341Y10174D01*
X128484Y10172D01*
X128565Y10161D01*
X963987Y10161D01*
X964037Y10166D01*
X964087Y10163D01*
X964231Y10186D01*
X964375Y10201D01*
X964423Y10216D01*
X964472Y10223D01*
X964608Y10275D01*
X964747Y10319D01*
X964790Y10343D01*
X964837Y10361D01*
X964960Y10439D01*
X965086Y10510D01*
X965124Y10543D01*
X965166Y10569D01*
X965270Y10671D01*
X965380Y10766D01*
X965410Y10806D01*
X965446Y10841D01*
X965527Y10961D01*
X965615Y11077D01*
X965637Y11122D01*
X965665Y11163D01*
X965720Y11298D01*
X965782Y11429D01*
X965794Y11478D01*
X965813Y11524D01*
X965840Y11667D01*
X965874Y11808D01*
X965876Y11858D01*
X965885Y11907D01*
X965882Y12052D01*
X965887Y12198D01*
X965878Y12247D01*
X965878Y12297D01*
X965855Y12383D01*
X965820Y12582D01*
X965767Y12715D01*
X965747Y12794D01*
X964839Y14984D01*
X964839Y21016D01*
X967147Y26588D01*
X971412Y30853D01*
X976984Y33161D01*
X983016Y33161D01*
X987206Y31425D01*
X987254Y31411D01*
X987299Y31389D01*
X987440Y31355D01*
X987580Y31313D01*
X987629Y31309D01*
X987678Y31297D01*
X987823Y31293D01*
X987968Y31280D01*
X988018Y31286D01*
X988068Y31285D01*
X988211Y31309D01*
X988355Y31327D01*
X988402Y31343D01*
X988452Y31351D01*
X988587Y31405D01*
X988725Y31451D01*
X988768Y31477D01*
X988814Y31495D01*
X988935Y31575D01*
X989061Y31648D01*
X989098Y31682D01*
X989140Y31709D01*
X989242Y31812D01*
X989350Y31910D01*
X989379Y31950D01*
X989415Y31985D01*
X989494Y32107D01*
X989580Y32225D01*
X989600Y32270D01*
X989628Y32312D01*
X989681Y32447D01*
X989741Y32580D01*
X989752Y32628D01*
X989770Y32675D01*
X989782Y32763D01*
X989826Y32960D01*
X989828Y33103D01*
X989839Y33184D01*
X989839Y469987D01*
X989834Y470037D01*
X989837Y470087D01*
X989814Y470231D01*
X989799Y470375D01*
X989784Y470423D01*
X989777Y470472D01*
X989725Y470608D01*
X989681Y470747D01*
X989657Y470790D01*
X989639Y470837D01*
X989561Y470960D01*
X989490Y471086D01*
X989457Y471124D01*
X989431Y471166D01*
X989329Y471270D01*
X989234Y471380D01*
X989194Y471410D01*
X989159Y471446D01*
X989039Y471527D01*
X988923Y471615D01*
X988878Y471637D01*
X988837Y471665D01*
X988702Y471720D01*
X988571Y471782D01*
X988522Y471794D01*
X988476Y471813D01*
X988333Y471840D01*
X988192Y471874D01*
X988142Y471876D01*
X988093Y471885D01*
X987948Y471882D01*
X987802Y471887D01*
X987753Y471878D01*
X987703Y471878D01*
X987617Y471855D01*
X987418Y471820D01*
X987285Y471767D01*
X987206Y471747D01*
X985016Y470839D01*
X978984Y470839D01*
X973412Y473147D01*
X969147Y477412D01*
X966839Y482984D01*
X966839Y487935D01*
X966832Y488001D01*
X966835Y488068D01*
X966813Y488195D01*
X966799Y488323D01*
X966779Y488386D01*
X966768Y488452D01*
X966720Y488571D01*
X966681Y488694D01*
X966649Y488752D01*
X966624Y488814D01*
X966553Y488921D01*
X966490Y489034D01*
X966446Y489084D01*
X966410Y489140D01*
X966319Y489231D01*
X966234Y489328D01*
X966181Y489368D01*
X966134Y489415D01*
X966026Y489485D01*
X965923Y489563D01*
X965863Y489591D01*
X965807Y489628D01*
X965687Y489675D01*
X965571Y489730D01*
X965506Y489746D01*
X965444Y489770D01*
X965358Y489782D01*
X965192Y489822D01*
X965022Y489827D01*
X964935Y489839D01*
X424595Y489839D01*
X424529Y489832D01*
X424462Y489835D01*
X424335Y489813D01*
X424207Y489799D01*
X424144Y489779D01*
X424078Y489768D01*
X423959Y489720D01*
X423836Y489681D01*
X423778Y489649D01*
X423716Y489624D01*
X423609Y489553D01*
X423496Y489490D01*
X423446Y489446D01*
X423390Y489410D01*
X423299Y489319D01*
X423202Y489234D01*
X423162Y489181D01*
X423115Y489134D01*
X423045Y489026D01*
X422967Y488923D01*
X422939Y488863D01*
X422902Y488807D01*
X422855Y488687D01*
X422800Y488571D01*
X422784Y488506D01*
X422760Y488444D01*
X422748Y488358D01*
X422708Y488192D01*
X422703Y488022D01*
X422691Y487935D01*
X422691Y487304D01*
X413800Y487304D01*
X404909Y487304D01*
X404909Y487935D01*
X404902Y488001D01*
X404905Y488068D01*
X404883Y488195D01*
X404869Y488323D01*
X404849Y488386D01*
X404838Y488452D01*
X404790Y488571D01*
X404751Y488694D01*
X404719Y488752D01*
X404694Y488814D01*
X404623Y488921D01*
X404560Y489034D01*
X404516Y489084D01*
X404480Y489140D01*
X404389Y489231D01*
X404304Y489328D01*
X404251Y489368D01*
X404204Y489415D01*
X404096Y489485D01*
X403993Y489563D01*
X403933Y489591D01*
X403877Y489628D01*
X403757Y489675D01*
X403641Y489730D01*
X403576Y489746D01*
X403514Y489770D01*
X403428Y489782D01*
X403262Y489822D01*
X403092Y489827D01*
X403005Y489839D01*
X366595Y489839D01*
X366529Y489832D01*
X366462Y489835D01*
X366335Y489813D01*
X366207Y489799D01*
X366144Y489779D01*
X366078Y489768D01*
X365959Y489720D01*
X365836Y489681D01*
X365778Y489649D01*
X365716Y489624D01*
X365609Y489553D01*
X365496Y489490D01*
X365446Y489446D01*
X365390Y489410D01*
X365299Y489319D01*
X365202Y489234D01*
X365162Y489181D01*
X365115Y489134D01*
X365045Y489026D01*
X364967Y488923D01*
X364939Y488863D01*
X364902Y488807D01*
X364855Y488687D01*
X364800Y488571D01*
X364784Y488506D01*
X364760Y488444D01*
X364748Y488358D01*
X364708Y488192D01*
X364703Y488022D01*
X364691Y487935D01*
X364691Y487304D01*
X355800Y487304D01*
X346909Y487304D01*
X346909Y487935D01*
X346902Y488001D01*
X346905Y488068D01*
X346883Y488195D01*
X346869Y488323D01*
X346849Y488386D01*
X346838Y488452D01*
X346790Y488571D01*
X346751Y488694D01*
X346719Y488752D01*
X346694Y488814D01*
X346623Y488921D01*
X346560Y489034D01*
X346516Y489084D01*
X346480Y489140D01*
X346389Y489231D01*
X346304Y489328D01*
X346251Y489368D01*
X346204Y489415D01*
X346096Y489485D01*
X345993Y489563D01*
X345933Y489591D01*
X345877Y489628D01*
X345757Y489675D01*
X345641Y489730D01*
X345576Y489746D01*
X345514Y489770D01*
X345428Y489782D01*
X345262Y489822D01*
X345092Y489827D01*
X345005Y489839D01*
X190797Y489839D01*
X190731Y489832D01*
X190664Y489835D01*
X190537Y489813D01*
X190409Y489799D01*
X190346Y489779D01*
X190280Y489768D01*
X190161Y489720D01*
X190038Y489681D01*
X189980Y489649D01*
X189918Y489624D01*
X189811Y489553D01*
X189698Y489490D01*
X189648Y489446D01*
X189592Y489410D01*
X189501Y489319D01*
X189404Y489234D01*
X189364Y489181D01*
X189317Y489134D01*
X189247Y489026D01*
X189169Y488923D01*
X189141Y488863D01*
X189104Y488807D01*
X189057Y488687D01*
X189002Y488571D01*
X188986Y488506D01*
X188962Y488444D01*
X188950Y488358D01*
X188910Y488192D01*
X188905Y488022D01*
X188893Y487935D01*
X188893Y454343D01*
X188903Y454244D01*
X188903Y454145D01*
X188923Y454051D01*
X188933Y453956D01*
X188963Y453861D01*
X188983Y453763D01*
X189022Y453675D01*
X189051Y453584D01*
X189100Y453497D01*
X189139Y453406D01*
X189184Y453348D01*
X189242Y453244D01*
X189400Y453063D01*
X189450Y452997D01*
X215544Y426903D01*
X215621Y426841D01*
X215692Y426770D01*
X215772Y426718D01*
X215846Y426658D01*
X215934Y426612D01*
X216018Y426557D01*
X216107Y426522D01*
X216192Y426478D01*
X216288Y426451D01*
X216381Y426415D01*
X216453Y426405D01*
X216568Y426373D01*
X216808Y426357D01*
X216890Y426346D01*
X233055Y426346D01*
X233121Y426353D01*
X233188Y426350D01*
X233315Y426372D01*
X233443Y426386D01*
X233506Y426406D01*
X233572Y426417D01*
X233691Y426465D01*
X233814Y426504D01*
X233872Y426536D01*
X233934Y426561D01*
X234041Y426632D01*
X234154Y426695D01*
X234204Y426739D01*
X234260Y426775D01*
X234351Y426866D01*
X234448Y426951D01*
X234488Y427004D01*
X234535Y427051D01*
X234605Y427159D01*
X234683Y427262D01*
X234711Y427322D01*
X234748Y427378D01*
X234795Y427498D01*
X234850Y427614D01*
X234866Y427679D01*
X234890Y427741D01*
X234902Y427827D01*
X234942Y427993D01*
X234947Y428163D01*
X234959Y428250D01*
X234959Y429452D01*
X236448Y430941D01*
X253552Y430941D01*
X255042Y429451D01*
X255048Y429399D01*
X255045Y429332D01*
X255067Y429205D01*
X255081Y429077D01*
X255101Y429014D01*
X255112Y428948D01*
X255160Y428829D01*
X255199Y428706D01*
X255231Y428648D01*
X255256Y428586D01*
X255327Y428479D01*
X255390Y428366D01*
X255434Y428316D01*
X255470Y428260D01*
X255561Y428169D01*
X255646Y428072D01*
X255699Y428032D01*
X255746Y427985D01*
X255854Y427915D01*
X255957Y427837D01*
X256017Y427809D01*
X256073Y427772D01*
X256193Y427725D01*
X256309Y427670D01*
X256374Y427654D01*
X256436Y427630D01*
X256522Y427618D01*
X256688Y427578D01*
X256858Y427573D01*
X256945Y427561D01*
X258752Y427561D01*
X260386Y426884D01*
X261904Y425366D01*
X261904Y425365D01*
X274497Y412772D01*
X276016Y411254D01*
X276693Y409620D01*
X276693Y398927D01*
X276696Y398893D01*
X276694Y398860D01*
X276716Y398700D01*
X276733Y398539D01*
X276743Y398507D01*
X276747Y398474D01*
X276802Y398321D01*
X276851Y398167D01*
X276867Y398138D01*
X276878Y398107D01*
X276962Y397969D01*
X277042Y397828D01*
X277064Y397803D01*
X277081Y397774D01*
X277192Y397656D01*
X277298Y397534D01*
X277325Y397514D01*
X277348Y397490D01*
X277480Y397397D01*
X277609Y397299D01*
X277639Y397284D01*
X277666Y397265D01*
X277815Y397201D01*
X277961Y397132D01*
X277993Y397124D01*
X278024Y397111D01*
X278183Y397078D01*
X278340Y397040D01*
X278373Y397039D01*
X278406Y397032D01*
X278568Y397032D01*
X278730Y397027D01*
X278762Y397033D01*
X278796Y397033D01*
X278954Y397066D01*
X279114Y397094D01*
X279145Y397106D01*
X279177Y397113D01*
X279325Y397178D01*
X279476Y397237D01*
X279504Y397256D01*
X279534Y397269D01*
X279601Y397319D01*
X279801Y397452D01*
X279885Y397536D01*
X279944Y397580D01*
X280116Y397753D01*
X283477Y399145D01*
X300323Y399145D01*
X303684Y397753D01*
X306257Y395180D01*
X307649Y391819D01*
X307649Y388181D01*
X306257Y384820D01*
X303684Y382247D01*
X300323Y380855D01*
X286700Y380855D01*
X286666Y380852D01*
X286633Y380854D01*
X286473Y380832D01*
X286312Y380815D01*
X286280Y380805D01*
X286247Y380801D01*
X286095Y380746D01*
X285940Y380697D01*
X285911Y380681D01*
X285880Y380670D01*
X285742Y380586D01*
X285601Y380506D01*
X285575Y380484D01*
X285547Y380467D01*
X285429Y380356D01*
X285307Y380250D01*
X285287Y380223D01*
X285263Y380201D01*
X285169Y380068D01*
X285072Y379939D01*
X285057Y379909D01*
X285038Y379882D01*
X284974Y379733D01*
X284905Y379587D01*
X284897Y379555D01*
X284884Y379524D01*
X284851Y379365D01*
X284813Y379208D01*
X284812Y379175D01*
X284805Y379142D01*
X284805Y378980D01*
X284800Y378818D01*
X284806Y378786D01*
X284806Y378752D01*
X284839Y378594D01*
X284867Y378434D01*
X284879Y378404D01*
X284886Y378371D01*
X284951Y378222D01*
X285010Y378072D01*
X285029Y378044D01*
X285042Y378014D01*
X285092Y377947D01*
X285225Y377747D01*
X285309Y377663D01*
X285353Y377605D01*
X301005Y361953D01*
X301030Y361932D01*
X301052Y361907D01*
X301181Y361809D01*
X301307Y361707D01*
X301336Y361692D01*
X301363Y361672D01*
X301509Y361602D01*
X301653Y361528D01*
X301685Y361519D01*
X301715Y361505D01*
X301872Y361466D01*
X302028Y361423D01*
X302062Y361421D01*
X302094Y361413D01*
X302256Y361407D01*
X302417Y361396D01*
X302450Y361401D01*
X302484Y361400D01*
X302643Y361428D01*
X302803Y361450D01*
X302835Y361461D01*
X302868Y361467D01*
X303018Y361526D01*
X303171Y361581D01*
X303199Y361598D01*
X303230Y361610D01*
X303365Y361699D01*
X303503Y361784D01*
X303528Y361806D01*
X303556Y361825D01*
X303670Y361939D01*
X303788Y362050D01*
X303807Y362077D01*
X303831Y362101D01*
X303919Y362236D01*
X304012Y362369D01*
X304025Y362399D01*
X304044Y362427D01*
X304103Y362578D01*
X304167Y362727D01*
X304174Y362759D01*
X304186Y362790D01*
X304197Y362873D01*
X304246Y363108D01*
X304245Y363227D01*
X304255Y363300D01*
X304255Y369188D01*
X309612Y374545D01*
X317188Y374545D01*
X322545Y369188D01*
X322545Y361612D01*
X317188Y356255D01*
X311300Y356255D01*
X311266Y356252D01*
X311233Y356254D01*
X311073Y356232D01*
X310912Y356215D01*
X310880Y356205D01*
X310847Y356201D01*
X310695Y356146D01*
X310540Y356097D01*
X310511Y356081D01*
X310480Y356070D01*
X310342Y355986D01*
X310201Y355906D01*
X310175Y355884D01*
X310147Y355867D01*
X310029Y355756D01*
X309907Y355650D01*
X309887Y355623D01*
X309863Y355601D01*
X309769Y355468D01*
X309672Y355339D01*
X309657Y355309D01*
X309638Y355282D01*
X309574Y355133D01*
X309505Y354987D01*
X309497Y354955D01*
X309484Y354924D01*
X309451Y354765D01*
X309413Y354608D01*
X309412Y354575D01*
X309405Y354542D01*
X309405Y354380D01*
X309400Y354218D01*
X309406Y354186D01*
X309406Y354152D01*
X309439Y353994D01*
X309467Y353834D01*
X309479Y353804D01*
X309486Y353771D01*
X309551Y353622D01*
X309610Y353472D01*
X309629Y353444D01*
X309642Y353414D01*
X309693Y353347D01*
X309825Y353147D01*
X309909Y353063D01*
X309953Y353005D01*
X336954Y326003D01*
X337031Y325941D01*
X337102Y325870D01*
X337182Y325818D01*
X337256Y325758D01*
X337345Y325712D01*
X337428Y325657D01*
X337518Y325622D01*
X337603Y325578D01*
X337698Y325551D01*
X337791Y325515D01*
X337864Y325505D01*
X337978Y325473D01*
X338218Y325457D01*
X338301Y325446D01*
X430432Y325446D01*
X430448Y325447D01*
X430465Y325446D01*
X430643Y325467D01*
X430820Y325486D01*
X430835Y325491D01*
X430852Y325493D01*
X431021Y325550D01*
X431191Y325604D01*
X431206Y325612D01*
X431221Y325617D01*
X431375Y325707D01*
X431531Y325795D01*
X431543Y325806D01*
X431558Y325814D01*
X431690Y325934D01*
X431824Y326051D01*
X431834Y326064D01*
X431847Y326076D01*
X431952Y326220D01*
X432060Y326362D01*
X432067Y326377D01*
X432077Y326390D01*
X432150Y326553D01*
X432227Y326714D01*
X432231Y326730D01*
X432238Y326745D01*
X432277Y326919D01*
X432319Y327093D01*
X432319Y327110D01*
X432323Y327126D01*
X432326Y327304D01*
X432331Y327483D01*
X432329Y327499D01*
X432329Y327516D01*
X432295Y327691D01*
X432265Y327867D01*
X432259Y327882D01*
X432255Y327898D01*
X432187Y328063D01*
X432121Y328229D01*
X432112Y328243D01*
X432106Y328258D01*
X432005Y328406D01*
X431907Y328554D01*
X431895Y328566D01*
X431886Y328580D01*
X431757Y328704D01*
X431631Y328830D01*
X431617Y328839D01*
X431605Y328850D01*
X431551Y328881D01*
X431304Y329043D01*
X431215Y329078D01*
X431161Y329109D01*
X430003Y329589D01*
X428515Y331077D01*
X428239Y331744D01*
X428199Y331817D01*
X428169Y331894D01*
X428107Y331988D01*
X428053Y332087D01*
X428000Y332150D01*
X427954Y332220D01*
X427874Y332299D01*
X427802Y332385D01*
X427737Y332436D01*
X427678Y332495D01*
X427584Y332556D01*
X427496Y332625D01*
X427421Y332662D01*
X427352Y332708D01*
X427247Y332749D01*
X427146Y332799D01*
X427066Y332820D01*
X426989Y332850D01*
X426908Y332861D01*
X426769Y332897D01*
X426568Y332907D01*
X426479Y332919D01*
X401635Y332919D01*
X401520Y332907D01*
X401403Y332905D01*
X401343Y332889D01*
X401247Y332879D01*
X400966Y332790D01*
X400906Y332774D01*
X398258Y331677D01*
X395742Y331677D01*
X393418Y332640D01*
X391640Y334418D01*
X390677Y336742D01*
X390677Y339258D01*
X391640Y341582D01*
X393418Y343360D01*
X395742Y344323D01*
X398258Y344323D01*
X400906Y343226D01*
X401018Y343192D01*
X401126Y343150D01*
X401188Y343142D01*
X401280Y343114D01*
X401574Y343089D01*
X401635Y343081D01*
X426749Y343081D01*
X426832Y343089D01*
X426915Y343088D01*
X427025Y343109D01*
X427137Y343121D01*
X427216Y343146D01*
X427298Y343161D01*
X427402Y343205D01*
X427509Y343239D01*
X427581Y343279D01*
X427658Y343311D01*
X427750Y343375D01*
X427848Y343430D01*
X427911Y343484D01*
X427979Y343531D01*
X428057Y343612D01*
X428142Y343686D01*
X428192Y343752D01*
X428250Y343812D01*
X428291Y343883D01*
X428377Y343997D01*
X428464Y344179D01*
X428509Y344256D01*
X428515Y344271D01*
X429147Y344903D01*
X429168Y344929D01*
X429193Y344951D01*
X429291Y345080D01*
X429393Y345206D01*
X429409Y345235D01*
X429429Y345262D01*
X429498Y345408D01*
X429573Y345552D01*
X429581Y345584D01*
X429596Y345614D01*
X429634Y345771D01*
X429678Y345927D01*
X429680Y345961D01*
X429688Y345993D01*
X429693Y346155D01*
X429704Y346316D01*
X429699Y346349D01*
X429700Y346383D01*
X429673Y346542D01*
X429651Y346702D01*
X429639Y346734D01*
X429634Y346767D01*
X429574Y346917D01*
X429520Y347070D01*
X429502Y347098D01*
X429490Y347129D01*
X429401Y347264D01*
X429317Y347402D01*
X429294Y347427D01*
X429276Y347455D01*
X429161Y347569D01*
X429050Y347687D01*
X429023Y347706D01*
X429000Y347730D01*
X428864Y347818D01*
X428732Y347911D01*
X428701Y347925D01*
X428673Y347943D01*
X428523Y348002D01*
X428374Y348066D01*
X428341Y348073D01*
X428310Y348085D01*
X428228Y348096D01*
X427992Y348145D01*
X427873Y348144D01*
X427801Y348154D01*
X427110Y348154D01*
X427011Y348144D01*
X426912Y348144D01*
X426818Y348124D01*
X426722Y348114D01*
X426628Y348084D01*
X426530Y348064D01*
X426442Y348025D01*
X426351Y347996D01*
X426264Y347947D01*
X426173Y347908D01*
X426115Y347863D01*
X426011Y347805D01*
X425830Y347647D01*
X425764Y347597D01*
X425476Y347309D01*
X410672Y347309D01*
X409183Y348798D01*
X409183Y371610D01*
X409175Y371693D01*
X409176Y371776D01*
X409155Y371886D01*
X409143Y371998D01*
X409118Y372077D01*
X409103Y372159D01*
X409059Y372263D01*
X409025Y372370D01*
X408985Y372442D01*
X408953Y372519D01*
X408889Y372611D01*
X408834Y372709D01*
X408780Y372772D01*
X408733Y372840D01*
X408652Y372918D01*
X408578Y373003D01*
X408512Y373053D01*
X408452Y373111D01*
X408381Y373152D01*
X408267Y373238D01*
X408085Y373325D01*
X408008Y373370D01*
X407364Y373636D01*
X405846Y375155D01*
X386712Y394288D01*
X386634Y394352D01*
X386591Y394395D01*
X386568Y394410D01*
X386505Y394468D01*
X386455Y394498D01*
X386410Y394534D01*
X386288Y394597D01*
X386171Y394668D01*
X386115Y394687D01*
X386064Y394714D01*
X385932Y394750D01*
X385802Y394795D01*
X385744Y394803D01*
X385688Y394819D01*
X385552Y394828D01*
X385416Y394845D01*
X385358Y394841D01*
X385299Y394845D01*
X385164Y394826D01*
X385027Y394816D01*
X384971Y394800D01*
X384913Y394792D01*
X384784Y394746D01*
X384653Y394708D01*
X384601Y394680D01*
X384546Y394661D01*
X384429Y394589D01*
X384308Y394525D01*
X384263Y394488D01*
X384213Y394458D01*
X384113Y394364D01*
X384008Y394277D01*
X383971Y394231D01*
X383929Y394191D01*
X383850Y394079D01*
X383764Y393972D01*
X383738Y393920D01*
X383704Y393873D01*
X383650Y393747D01*
X383588Y393625D01*
X383573Y393568D01*
X383550Y393515D01*
X383522Y393381D01*
X383486Y393248D01*
X383483Y393190D01*
X383471Y393133D01*
X383471Y392996D01*
X383463Y392859D01*
X383472Y392812D01*
X383472Y392743D01*
X383529Y392472D01*
X383542Y392398D01*
X383547Y392384D01*
X383552Y392362D01*
X383554Y392357D01*
X383555Y392353D01*
X383624Y392141D01*
X383641Y392031D01*
X370131Y392031D01*
X370131Y399145D01*
X375424Y399145D01*
X376845Y398920D01*
X377057Y398851D01*
X377191Y398822D01*
X377323Y398785D01*
X377382Y398781D01*
X377438Y398769D01*
X377575Y398768D01*
X377712Y398759D01*
X377770Y398767D01*
X377828Y398766D01*
X377963Y398793D01*
X378098Y398812D01*
X378153Y398832D01*
X378210Y398843D01*
X378336Y398897D01*
X378465Y398943D01*
X378515Y398973D01*
X378569Y398996D01*
X378681Y399074D01*
X378798Y399146D01*
X378841Y399186D01*
X378889Y399219D01*
X378983Y399318D01*
X379083Y399412D01*
X379116Y399460D01*
X379156Y399502D01*
X379228Y399619D01*
X379307Y399731D01*
X379330Y399784D01*
X379361Y399834D01*
X379407Y399963D01*
X379462Y400089D01*
X379474Y400146D01*
X379493Y400201D01*
X379513Y400336D01*
X379541Y400471D01*
X379540Y400529D01*
X379549Y400587D01*
X379540Y400723D01*
X379540Y400860D01*
X379528Y400917D01*
X379524Y400976D01*
X379488Y401108D01*
X379460Y401242D01*
X379436Y401295D01*
X379421Y401351D01*
X379358Y401473D01*
X379304Y401599D01*
X379275Y401637D01*
X379243Y401698D01*
X378999Y402002D01*
X378995Y402005D01*
X378992Y402008D01*
X352031Y428969D01*
X351354Y430604D01*
X351354Y438780D01*
X351347Y438846D01*
X351350Y438913D01*
X351328Y439040D01*
X351314Y439168D01*
X351294Y439231D01*
X351283Y439297D01*
X351235Y439416D01*
X351196Y439539D01*
X351164Y439597D01*
X351139Y439659D01*
X351068Y439766D01*
X351005Y439879D01*
X350961Y439929D01*
X350925Y439985D01*
X350834Y440076D01*
X350749Y440173D01*
X350696Y440213D01*
X350649Y440260D01*
X350541Y440330D01*
X350438Y440408D01*
X350378Y440436D01*
X350322Y440473D01*
X350202Y440520D01*
X350086Y440575D01*
X350021Y440591D01*
X349959Y440615D01*
X349873Y440627D01*
X349707Y440667D01*
X349537Y440672D01*
X349450Y440684D01*
X348398Y440684D01*
X347685Y441397D01*
X347608Y441459D01*
X347538Y441530D01*
X347457Y441582D01*
X347383Y441642D01*
X347295Y441688D01*
X347211Y441743D01*
X347122Y441778D01*
X347037Y441822D01*
X346941Y441849D01*
X346848Y441885D01*
X346776Y441895D01*
X346661Y441927D01*
X346421Y441943D01*
X346339Y441954D01*
X334345Y441954D01*
X334279Y441947D01*
X334212Y441950D01*
X334085Y441928D01*
X333957Y441914D01*
X333894Y441894D01*
X333828Y441883D01*
X333709Y441835D01*
X333586Y441796D01*
X333528Y441764D01*
X333466Y441739D01*
X333359Y441668D01*
X333246Y441605D01*
X333196Y441561D01*
X333140Y441525D01*
X333049Y441434D01*
X332952Y441349D01*
X332912Y441296D01*
X332865Y441249D01*
X332795Y441141D01*
X332717Y441038D01*
X332689Y440978D01*
X332652Y440922D01*
X332605Y440802D01*
X332550Y440686D01*
X332534Y440621D01*
X332510Y440559D01*
X332498Y440473D01*
X332458Y440307D01*
X332453Y440137D01*
X332441Y440050D01*
X332441Y437848D01*
X330952Y436359D01*
X315848Y436359D01*
X315247Y436960D01*
X315195Y437002D01*
X315150Y437051D01*
X315044Y437125D01*
X314944Y437206D01*
X314885Y437237D01*
X314831Y437275D01*
X314713Y437326D01*
X314598Y437386D01*
X314534Y437404D01*
X314473Y437430D01*
X314347Y437456D01*
X314223Y437491D01*
X314156Y437495D01*
X314091Y437508D01*
X313962Y437508D01*
X313834Y437517D01*
X313768Y437508D01*
X313701Y437508D01*
X313575Y437481D01*
X313448Y437464D01*
X313385Y437441D01*
X313320Y437428D01*
X313202Y437376D01*
X313080Y437333D01*
X313024Y437298D01*
X312963Y437271D01*
X312893Y437218D01*
X312748Y437130D01*
X312623Y437013D01*
X312554Y436960D01*
X311952Y436359D01*
X296848Y436359D01*
X295359Y437848D01*
X295359Y439415D01*
X295352Y439481D01*
X295355Y439548D01*
X295333Y439675D01*
X295319Y439803D01*
X295299Y439866D01*
X295288Y439932D01*
X295240Y440051D01*
X295201Y440174D01*
X295169Y440232D01*
X295144Y440294D01*
X295073Y440401D01*
X295010Y440514D01*
X294966Y440564D01*
X294930Y440620D01*
X294839Y440711D01*
X294754Y440808D01*
X294701Y440848D01*
X294654Y440895D01*
X294546Y440965D01*
X294443Y441043D01*
X294383Y441071D01*
X294327Y441108D01*
X294207Y441155D01*
X294091Y441210D01*
X294026Y441226D01*
X293964Y441250D01*
X293878Y441262D01*
X293712Y441302D01*
X293542Y441307D01*
X293455Y441319D01*
X255701Y441319D01*
X255602Y441309D01*
X255503Y441309D01*
X255409Y441289D01*
X255313Y441279D01*
X255219Y441249D01*
X255121Y441229D01*
X255033Y441190D01*
X254942Y441161D01*
X254855Y441113D01*
X254764Y441073D01*
X254706Y441028D01*
X254602Y440970D01*
X254421Y440812D01*
X254355Y440762D01*
X253152Y439559D01*
X236048Y439559D01*
X234245Y441362D01*
X234168Y441424D01*
X234098Y441495D01*
X234017Y441547D01*
X233943Y441607D01*
X233855Y441653D01*
X233771Y441708D01*
X233682Y441743D01*
X233597Y441787D01*
X233501Y441814D01*
X233408Y441850D01*
X233336Y441860D01*
X233221Y441892D01*
X232981Y441908D01*
X232899Y441919D01*
X226635Y441919D01*
X226520Y441907D01*
X226403Y441905D01*
X226343Y441889D01*
X226247Y441879D01*
X225966Y441790D01*
X225906Y441774D01*
X223258Y440677D01*
X220742Y440677D01*
X218418Y441640D01*
X216640Y443418D01*
X215677Y445742D01*
X215677Y448258D01*
X216640Y450582D01*
X218418Y452360D01*
X220742Y453323D01*
X223258Y453323D01*
X225906Y452226D01*
X226018Y452192D01*
X226126Y452150D01*
X226188Y452142D01*
X226280Y452114D01*
X226574Y452089D01*
X226635Y452081D01*
X232655Y452081D01*
X232721Y452088D01*
X232788Y452085D01*
X232915Y452107D01*
X233043Y452121D01*
X233106Y452141D01*
X233172Y452152D01*
X233291Y452200D01*
X233414Y452239D01*
X233472Y452271D01*
X233534Y452296D01*
X233641Y452367D01*
X233754Y452430D01*
X233804Y452474D01*
X233860Y452510D01*
X233951Y452601D01*
X234048Y452686D01*
X234088Y452739D01*
X234135Y452786D01*
X234205Y452894D01*
X234283Y452997D01*
X234311Y453057D01*
X234348Y453113D01*
X234395Y453233D01*
X234450Y453349D01*
X234466Y453414D01*
X234490Y453476D01*
X234502Y453562D01*
X234542Y453728D01*
X234547Y453898D01*
X234559Y453985D01*
X234559Y456152D01*
X235160Y456754D01*
X235202Y456805D01*
X235251Y456851D01*
X235325Y456956D01*
X235406Y457056D01*
X235437Y457115D01*
X235475Y457169D01*
X235526Y457288D01*
X235586Y457402D01*
X235603Y457466D01*
X235630Y457527D01*
X235656Y457653D01*
X235691Y457777D01*
X235695Y457844D01*
X235708Y457909D01*
X235708Y458038D01*
X235717Y458166D01*
X235708Y458232D01*
X235708Y458299D01*
X235681Y458425D01*
X235664Y458552D01*
X235641Y458615D01*
X235628Y458680D01*
X235576Y458798D01*
X235533Y458920D01*
X235498Y458976D01*
X235471Y459037D01*
X235418Y459107D01*
X235330Y459252D01*
X235213Y459377D01*
X235160Y459447D01*
X234559Y460048D01*
X234559Y475152D01*
X236048Y476641D01*
X253152Y476641D01*
X254641Y475152D01*
X254641Y473950D01*
X254648Y473884D01*
X254645Y473817D01*
X254667Y473690D01*
X254681Y473562D01*
X254701Y473499D01*
X254712Y473433D01*
X254760Y473314D01*
X254799Y473191D01*
X254831Y473133D01*
X254856Y473071D01*
X254927Y472964D01*
X254990Y472851D01*
X255034Y472801D01*
X255070Y472745D01*
X255161Y472654D01*
X255246Y472557D01*
X255299Y472517D01*
X255346Y472470D01*
X255454Y472400D01*
X255557Y472322D01*
X255617Y472294D01*
X255673Y472257D01*
X255793Y472210D01*
X255909Y472155D01*
X255974Y472139D01*
X256036Y472115D01*
X256122Y472103D01*
X256288Y472063D01*
X256458Y472058D01*
X256545Y472046D01*
X431993Y472046D01*
X433627Y471369D01*
X468769Y436227D01*
X469446Y434593D01*
X469446Y434321D01*
X469453Y434255D01*
X469450Y434188D01*
X469472Y434061D01*
X469486Y433933D01*
X469506Y433870D01*
X469517Y433804D01*
X469565Y433685D01*
X469604Y433562D01*
X469636Y433504D01*
X469661Y433442D01*
X469732Y433335D01*
X469795Y433222D01*
X469839Y433172D01*
X469875Y433116D01*
X469966Y433025D01*
X470051Y432928D01*
X470104Y432888D01*
X470151Y432841D01*
X470259Y432771D01*
X470362Y432693D01*
X470422Y432665D01*
X470478Y432628D01*
X470598Y432581D01*
X470714Y432526D01*
X470779Y432510D01*
X470841Y432486D01*
X470927Y432474D01*
X471093Y432434D01*
X471263Y432429D01*
X471350Y432417D01*
X474650Y432417D01*
X474716Y432424D01*
X474783Y432421D01*
X474910Y432443D01*
X475038Y432457D01*
X475101Y432477D01*
X475167Y432488D01*
X475286Y432536D01*
X475409Y432575D01*
X475467Y432607D01*
X475529Y432632D01*
X475636Y432703D01*
X475749Y432766D01*
X475799Y432810D01*
X475855Y432846D01*
X475946Y432937D01*
X476043Y433022D01*
X476083Y433075D01*
X476130Y433122D01*
X476200Y433230D01*
X476278Y433333D01*
X476306Y433393D01*
X476343Y433449D01*
X476390Y433569D01*
X476445Y433685D01*
X476461Y433750D01*
X476485Y433812D01*
X476497Y433898D01*
X476537Y434064D01*
X476542Y434234D01*
X476554Y434321D01*
X476554Y434715D01*
X476544Y434814D01*
X476544Y434914D01*
X476524Y435008D01*
X476514Y435103D01*
X476484Y435198D01*
X476464Y435295D01*
X476425Y435383D01*
X476396Y435474D01*
X476347Y435561D01*
X476308Y435652D01*
X476263Y435711D01*
X476205Y435814D01*
X476047Y435995D01*
X475997Y436062D01*
X475640Y436418D01*
X474677Y438742D01*
X474677Y441258D01*
X475640Y443582D01*
X475997Y443938D01*
X476059Y444015D01*
X476130Y444086D01*
X476182Y444166D01*
X476242Y444241D01*
X476288Y444329D01*
X476343Y444412D01*
X476378Y444502D01*
X476422Y444587D01*
X476449Y444683D01*
X476485Y444775D01*
X476495Y444848D01*
X476527Y444962D01*
X476543Y445202D01*
X476554Y445285D01*
X476554Y465884D01*
X477231Y467518D01*
X478749Y469037D01*
X478750Y469037D01*
X492963Y483250D01*
X492963Y483251D01*
X494482Y484769D01*
X496116Y485446D01*
X624884Y485446D01*
X626518Y484769D01*
X672921Y438367D01*
X672946Y438346D01*
X672968Y438321D01*
X673097Y438223D01*
X673223Y438121D01*
X673252Y438105D01*
X673279Y438085D01*
X673425Y438016D01*
X673569Y437941D01*
X673601Y437933D01*
X673631Y437918D01*
X673788Y437880D01*
X673944Y437836D01*
X673978Y437834D01*
X674010Y437826D01*
X674172Y437821D01*
X674333Y437810D01*
X674366Y437815D01*
X674400Y437814D01*
X674559Y437841D01*
X674719Y437863D01*
X674751Y437875D01*
X674784Y437880D01*
X674934Y437940D01*
X675087Y437994D01*
X675115Y438012D01*
X675146Y438024D01*
X675281Y438113D01*
X675419Y438197D01*
X675444Y438220D01*
X675472Y438238D01*
X675586Y438353D01*
X675704Y438464D01*
X675723Y438491D01*
X675747Y438514D01*
X675835Y438650D01*
X675928Y438782D01*
X675941Y438813D01*
X675960Y438841D01*
X676019Y438991D01*
X676083Y439140D01*
X676090Y439173D01*
X676102Y439204D01*
X676113Y439286D01*
X676162Y439522D01*
X676161Y439641D01*
X676171Y439713D01*
X676171Y442617D01*
X677409Y445605D01*
X679695Y447891D01*
X682683Y449129D01*
X685917Y449129D01*
X688905Y447891D01*
X691191Y445605D01*
X692429Y442617D01*
X692429Y439383D01*
X691191Y436395D01*
X688905Y434109D01*
X685917Y432871D01*
X683013Y432871D01*
X682980Y432868D01*
X682947Y432870D01*
X682786Y432848D01*
X682625Y432831D01*
X682594Y432821D01*
X682561Y432817D01*
X682408Y432762D01*
X682254Y432713D01*
X682225Y432697D01*
X682194Y432686D01*
X682055Y432602D01*
X681914Y432522D01*
X681889Y432500D01*
X681861Y432483D01*
X681742Y432372D01*
X681621Y432266D01*
X681601Y432239D01*
X681576Y432217D01*
X681483Y432084D01*
X681385Y431955D01*
X681371Y431925D01*
X681352Y431898D01*
X681288Y431749D01*
X681218Y431603D01*
X681210Y431571D01*
X681197Y431540D01*
X681165Y431381D01*
X681126Y431224D01*
X681125Y431191D01*
X681119Y431158D01*
X681119Y430996D01*
X681114Y430834D01*
X681119Y430802D01*
X681119Y430768D01*
X681153Y430610D01*
X681180Y430450D01*
X681193Y430420D01*
X681199Y430387D01*
X681264Y430238D01*
X681324Y430088D01*
X681342Y430060D01*
X681356Y430030D01*
X681406Y429963D01*
X681538Y429763D01*
X681623Y429679D01*
X681667Y429621D01*
X688142Y423145D01*
X688143Y423144D01*
X688207Y423068D01*
X688263Y422986D01*
X688332Y422919D01*
X688394Y422846D01*
X688472Y422785D01*
X688544Y422716D01*
X688607Y422679D01*
X688700Y422606D01*
X688879Y422517D01*
X691191Y420205D01*
X692429Y417217D01*
X692429Y413983D01*
X691191Y410995D01*
X688905Y408709D01*
X685917Y407471D01*
X682683Y407471D01*
X679695Y408709D01*
X677409Y410995D01*
X676171Y413983D01*
X676171Y417217D01*
X677244Y419806D01*
X677268Y419886D01*
X677301Y419962D01*
X677323Y420072D01*
X677355Y420180D01*
X677362Y420263D01*
X677379Y420344D01*
X677379Y420456D01*
X677389Y420568D01*
X677379Y420651D01*
X677378Y420734D01*
X677355Y420844D01*
X677342Y420955D01*
X677315Y421034D01*
X677298Y421115D01*
X677253Y421218D01*
X677217Y421325D01*
X677175Y421396D01*
X677142Y421472D01*
X677093Y421537D01*
X677020Y421661D01*
X676885Y421811D01*
X676831Y421882D01*
X647763Y450950D01*
X647622Y451064D01*
X647482Y451182D01*
X647470Y451188D01*
X647461Y451196D01*
X647299Y451279D01*
X647138Y451366D01*
X647126Y451369D01*
X647115Y451375D01*
X646939Y451424D01*
X646764Y451476D01*
X646751Y451477D01*
X646739Y451480D01*
X646558Y451492D01*
X646375Y451507D01*
X646363Y451505D01*
X646350Y451506D01*
X646170Y451481D01*
X645989Y451459D01*
X645977Y451455D01*
X645964Y451453D01*
X645792Y451392D01*
X645620Y451333D01*
X645609Y451326D01*
X645597Y451322D01*
X645442Y451227D01*
X645284Y451134D01*
X645275Y451126D01*
X645264Y451119D01*
X645131Y450994D01*
X644996Y450872D01*
X644989Y450861D01*
X644980Y450853D01*
X644875Y450704D01*
X644768Y450556D01*
X644762Y450544D01*
X644755Y450534D01*
X644683Y450366D01*
X644608Y450200D01*
X644606Y450188D01*
X644601Y450176D01*
X644564Y449997D01*
X644525Y449819D01*
X644525Y449809D01*
X644522Y449794D01*
X644523Y449405D01*
X644527Y449385D01*
X630285Y449385D01*
X630285Y456753D01*
X635872Y456753D01*
X637317Y456524D01*
X637500Y456514D01*
X637682Y456501D01*
X637694Y456503D01*
X637707Y456503D01*
X637888Y456530D01*
X638068Y456555D01*
X638079Y456559D01*
X638092Y456561D01*
X638263Y456625D01*
X638435Y456686D01*
X638446Y456692D01*
X638457Y456697D01*
X638611Y456793D01*
X638768Y456889D01*
X638777Y456897D01*
X638787Y456904D01*
X638918Y457030D01*
X639052Y457155D01*
X639059Y457165D01*
X639068Y457174D01*
X639171Y457324D01*
X639276Y457474D01*
X639281Y457485D01*
X639289Y457496D01*
X639359Y457665D01*
X639431Y457832D01*
X639434Y457844D01*
X639439Y457856D01*
X639473Y458034D01*
X639510Y458213D01*
X639510Y458226D01*
X639512Y458238D01*
X639509Y458420D01*
X639509Y458603D01*
X639506Y458616D01*
X639506Y458628D01*
X639466Y458806D01*
X639429Y458985D01*
X639424Y458996D01*
X639421Y459008D01*
X639346Y459174D01*
X639273Y459342D01*
X639266Y459350D01*
X639260Y459364D01*
X639031Y459678D01*
X638987Y459718D01*
X638962Y459751D01*
X622716Y475997D01*
X622639Y476059D01*
X622568Y476130D01*
X622488Y476182D01*
X622414Y476242D01*
X622326Y476288D01*
X622242Y476343D01*
X622153Y476378D01*
X622068Y476422D01*
X621972Y476449D01*
X621879Y476485D01*
X621807Y476495D01*
X621692Y476527D01*
X621452Y476543D01*
X621370Y476554D01*
X597206Y476554D01*
X597173Y476551D01*
X597140Y476553D01*
X596979Y476531D01*
X596818Y476514D01*
X596787Y476504D01*
X596754Y476500D01*
X596601Y476445D01*
X596447Y476396D01*
X596418Y476380D01*
X596386Y476369D01*
X596248Y476284D01*
X596107Y476205D01*
X596082Y476183D01*
X596054Y476166D01*
X595935Y476055D01*
X595813Y475949D01*
X595793Y475922D01*
X595769Y475900D01*
X595676Y475767D01*
X595578Y475638D01*
X595564Y475608D01*
X595545Y475581D01*
X595481Y475432D01*
X595411Y475286D01*
X595403Y475254D01*
X595390Y475223D01*
X595357Y475064D01*
X595319Y474907D01*
X595318Y474874D01*
X595311Y474841D01*
X595312Y474679D01*
X595306Y474517D01*
X595312Y474485D01*
X595312Y474451D01*
X595346Y474293D01*
X595373Y474133D01*
X595385Y474103D01*
X595392Y474070D01*
X595457Y473921D01*
X595517Y473771D01*
X595535Y473743D01*
X595548Y473713D01*
X595599Y473646D01*
X595731Y473446D01*
X595815Y473362D01*
X595860Y473303D01*
X597283Y471880D01*
X598753Y468332D01*
X598753Y450268D01*
X597283Y446720D01*
X594568Y444005D01*
X591020Y442535D01*
X587180Y442535D01*
X583632Y444005D01*
X580917Y446720D01*
X579447Y450268D01*
X579447Y468332D01*
X580917Y471880D01*
X582340Y473303D01*
X582362Y473329D01*
X582387Y473351D01*
X582484Y473480D01*
X582586Y473606D01*
X582602Y473635D01*
X582622Y473662D01*
X582691Y473808D01*
X582766Y473952D01*
X582775Y473984D01*
X582789Y474014D01*
X582827Y474171D01*
X582871Y474327D01*
X582873Y474361D01*
X582881Y474393D01*
X582886Y474554D01*
X582897Y474716D01*
X582893Y474749D01*
X582894Y474783D01*
X582866Y474942D01*
X582844Y475102D01*
X582833Y475134D01*
X582827Y475167D01*
X582767Y475317D01*
X582713Y475470D01*
X582695Y475498D01*
X582683Y475529D01*
X582594Y475664D01*
X582510Y475802D01*
X582487Y475827D01*
X582469Y475855D01*
X582354Y475969D01*
X582244Y476087D01*
X582216Y476106D01*
X582193Y476130D01*
X582057Y476218D01*
X581925Y476311D01*
X581894Y476325D01*
X581866Y476343D01*
X581716Y476402D01*
X581567Y476466D01*
X581534Y476473D01*
X581503Y476485D01*
X581421Y476496D01*
X581185Y476545D01*
X581066Y476544D01*
X580994Y476554D01*
X571806Y476554D01*
X571773Y476551D01*
X571740Y476553D01*
X571579Y476531D01*
X571418Y476514D01*
X571387Y476504D01*
X571354Y476500D01*
X571201Y476445D01*
X571047Y476396D01*
X571018Y476380D01*
X570986Y476369D01*
X570848Y476284D01*
X570707Y476205D01*
X570682Y476183D01*
X570654Y476166D01*
X570535Y476055D01*
X570413Y475949D01*
X570393Y475922D01*
X570369Y475900D01*
X570276Y475767D01*
X570178Y475638D01*
X570164Y475608D01*
X570145Y475581D01*
X570081Y475432D01*
X570011Y475286D01*
X570003Y475254D01*
X569990Y475223D01*
X569957Y475064D01*
X569919Y474907D01*
X569918Y474874D01*
X569911Y474841D01*
X569912Y474679D01*
X569906Y474517D01*
X569912Y474485D01*
X569912Y474451D01*
X569946Y474293D01*
X569973Y474133D01*
X569985Y474103D01*
X569992Y474070D01*
X570057Y473921D01*
X570117Y473771D01*
X570135Y473743D01*
X570148Y473713D01*
X570199Y473646D01*
X570331Y473446D01*
X570415Y473362D01*
X570460Y473303D01*
X571883Y471880D01*
X573353Y468332D01*
X573353Y450268D01*
X571883Y446720D01*
X570018Y444855D01*
X569956Y444778D01*
X569885Y444708D01*
X569833Y444627D01*
X569773Y444553D01*
X569727Y444465D01*
X569672Y444381D01*
X569637Y444292D01*
X569593Y444207D01*
X569566Y444111D01*
X569530Y444018D01*
X569520Y443946D01*
X569488Y443832D01*
X569472Y443592D01*
X569461Y443509D01*
X569461Y431837D01*
X569454Y431758D01*
X569446Y431698D01*
X569446Y431116D01*
X568769Y429482D01*
X536118Y396831D01*
X534484Y396154D01*
X514721Y396154D01*
X514655Y396147D01*
X514588Y396150D01*
X514461Y396128D01*
X514333Y396114D01*
X514270Y396094D01*
X514204Y396083D01*
X514085Y396035D01*
X513962Y395996D01*
X513904Y395964D01*
X513842Y395939D01*
X513735Y395868D01*
X513622Y395805D01*
X513572Y395761D01*
X513516Y395725D01*
X513425Y395634D01*
X513328Y395549D01*
X513288Y395496D01*
X513241Y395449D01*
X513171Y395341D01*
X513093Y395238D01*
X513065Y395178D01*
X513028Y395122D01*
X512981Y395002D01*
X512926Y394886D01*
X512910Y394821D01*
X512886Y394759D01*
X512874Y394673D01*
X512834Y394507D01*
X512829Y394337D01*
X512817Y394250D01*
X512817Y382950D01*
X512824Y382884D01*
X512821Y382817D01*
X512843Y382690D01*
X512857Y382562D01*
X512877Y382499D01*
X512888Y382433D01*
X512936Y382314D01*
X512975Y382191D01*
X513007Y382133D01*
X513032Y382071D01*
X513103Y381964D01*
X513166Y381851D01*
X513210Y381801D01*
X513246Y381745D01*
X513337Y381654D01*
X513422Y381557D01*
X513475Y381517D01*
X513522Y381470D01*
X513630Y381400D01*
X513733Y381322D01*
X513793Y381294D01*
X513849Y381257D01*
X513969Y381210D01*
X514085Y381155D01*
X514150Y381139D01*
X514212Y381115D01*
X514298Y381103D01*
X514464Y381063D01*
X514634Y381058D01*
X514721Y381046D01*
X519284Y381046D01*
X520918Y380369D01*
X575284Y326003D01*
X575361Y325941D01*
X575432Y325870D01*
X575512Y325818D01*
X575586Y325758D01*
X575674Y325712D01*
X575758Y325657D01*
X575847Y325622D01*
X575932Y325578D01*
X576028Y325551D01*
X576121Y325515D01*
X576193Y325505D01*
X576308Y325473D01*
X576548Y325457D01*
X576630Y325446D01*
X700370Y325446D01*
X700469Y325456D01*
X700568Y325456D01*
X700662Y325476D01*
X700757Y325486D01*
X700852Y325516D01*
X700950Y325536D01*
X701038Y325575D01*
X701129Y325604D01*
X701216Y325653D01*
X701307Y325692D01*
X701365Y325737D01*
X701469Y325795D01*
X701650Y325953D01*
X701716Y326003D01*
X711963Y336250D01*
X711963Y336251D01*
X716736Y341023D01*
X716809Y341113D01*
X716890Y341197D01*
X716891Y341200D01*
X718273Y342582D01*
X719913Y343261D01*
X729139Y343261D01*
X729238Y343271D01*
X729338Y343271D01*
X729432Y343291D01*
X729527Y343301D01*
X729622Y343331D01*
X729719Y343351D01*
X729807Y343390D01*
X729899Y343419D01*
X729985Y343468D01*
X730077Y343507D01*
X730135Y343552D01*
X730238Y343610D01*
X730420Y343768D01*
X730486Y343818D01*
X734612Y347945D01*
X742188Y347945D01*
X747545Y342588D01*
X747545Y335012D01*
X742188Y329655D01*
X734612Y329655D01*
X730486Y333782D01*
X730409Y333844D01*
X730338Y333915D01*
X730258Y333967D01*
X730183Y334027D01*
X730095Y334073D01*
X730012Y334128D01*
X729922Y334163D01*
X729837Y334207D01*
X729741Y334234D01*
X729649Y334270D01*
X729576Y334280D01*
X729462Y334312D01*
X729222Y334328D01*
X729139Y334339D01*
X723415Y334339D01*
X723316Y334329D01*
X723217Y334329D01*
X723123Y334309D01*
X723028Y334299D01*
X722933Y334269D01*
X722835Y334249D01*
X722747Y334210D01*
X722656Y334181D01*
X722569Y334132D01*
X722478Y334093D01*
X722420Y334048D01*
X722316Y333990D01*
X722135Y333832D01*
X722069Y333782D01*
X718251Y329963D01*
X718250Y329963D01*
X716984Y328696D01*
X716963Y328671D01*
X716938Y328649D01*
X716840Y328520D01*
X716738Y328394D01*
X716722Y328365D01*
X716702Y328338D01*
X716633Y328192D01*
X716558Y328048D01*
X716550Y328016D01*
X716535Y327986D01*
X716497Y327829D01*
X716453Y327673D01*
X716451Y327639D01*
X716443Y327607D01*
X716438Y327445D01*
X716427Y327284D01*
X716432Y327251D01*
X716431Y327217D01*
X716458Y327058D01*
X716480Y326898D01*
X716492Y326866D01*
X716497Y326833D01*
X716557Y326683D01*
X716611Y326530D01*
X716629Y326502D01*
X716641Y326471D01*
X716730Y326336D01*
X716814Y326198D01*
X716837Y326173D01*
X716855Y326145D01*
X716970Y326031D01*
X717081Y325913D01*
X717108Y325894D01*
X717131Y325870D01*
X717267Y325782D01*
X717399Y325689D01*
X717430Y325676D01*
X717458Y325657D01*
X717609Y325598D01*
X717757Y325534D01*
X717790Y325527D01*
X717821Y325515D01*
X717903Y325504D01*
X718139Y325455D01*
X718258Y325456D01*
X718330Y325446D01*
X774370Y325446D01*
X774469Y325456D01*
X774568Y325456D01*
X774662Y325476D01*
X774757Y325486D01*
X774852Y325516D01*
X774950Y325536D01*
X775038Y325575D01*
X775129Y325604D01*
X775216Y325653D01*
X775307Y325692D01*
X775365Y325736D01*
X775469Y325795D01*
X775650Y325953D01*
X775716Y326003D01*
X781574Y331861D01*
X781688Y332002D01*
X781806Y332142D01*
X781812Y332153D01*
X781819Y332163D01*
X781903Y332325D01*
X781989Y332486D01*
X781993Y332498D01*
X781999Y332509D01*
X782048Y332685D01*
X782099Y332860D01*
X782100Y332873D01*
X782104Y332885D01*
X782116Y333066D01*
X782131Y333249D01*
X782129Y333261D01*
X782130Y333274D01*
X782105Y333454D01*
X782083Y333635D01*
X782078Y333647D01*
X782077Y333660D01*
X782015Y333832D01*
X781956Y334004D01*
X781950Y334015D01*
X781946Y334027D01*
X781852Y334181D01*
X781758Y334340D01*
X781749Y334349D01*
X781743Y334360D01*
X781619Y334492D01*
X781495Y334628D01*
X781485Y334635D01*
X781477Y334644D01*
X781327Y334749D01*
X781180Y334856D01*
X781168Y334861D01*
X781158Y334869D01*
X780990Y334941D01*
X780824Y335016D01*
X780812Y335018D01*
X780800Y335023D01*
X780621Y335060D01*
X780443Y335099D01*
X780432Y335099D01*
X780418Y335102D01*
X780028Y335101D01*
X779970Y335089D01*
X779929Y335088D01*
X779672Y335047D01*
X774085Y335047D01*
X774085Y344319D01*
X774078Y344385D01*
X774081Y344451D01*
X774059Y344578D01*
X774045Y344707D01*
X774042Y344717D01*
X774068Y344824D01*
X774073Y344994D01*
X774085Y345081D01*
X774085Y354353D01*
X779672Y354353D01*
X781172Y354115D01*
X782617Y353646D01*
X783971Y352956D01*
X784531Y352549D01*
X784599Y352510D01*
X784662Y352462D01*
X784767Y352412D01*
X784868Y352354D01*
X784943Y352329D01*
X785014Y352295D01*
X785127Y352267D01*
X785238Y352231D01*
X785316Y352222D01*
X785393Y352203D01*
X785509Y352199D01*
X785625Y352186D01*
X785704Y352193D01*
X785783Y352190D01*
X785897Y352210D01*
X786013Y352220D01*
X786089Y352243D01*
X786167Y352257D01*
X786275Y352300D01*
X786386Y352334D01*
X786456Y352371D01*
X786529Y352400D01*
X786626Y352464D01*
X786728Y352520D01*
X786789Y352571D01*
X786855Y352615D01*
X786937Y352697D01*
X787025Y352773D01*
X787074Y352835D01*
X787130Y352891D01*
X787193Y352988D01*
X787265Y353080D01*
X787300Y353151D01*
X787343Y353217D01*
X787385Y353326D01*
X787436Y353430D01*
X787456Y353507D01*
X787485Y353580D01*
X787496Y353663D01*
X787533Y353808D01*
X787542Y354001D01*
X787554Y354090D01*
X787554Y360494D01*
X787551Y360527D01*
X787553Y360560D01*
X787531Y360721D01*
X787514Y360882D01*
X787504Y360913D01*
X787500Y360947D01*
X787445Y361099D01*
X787396Y361253D01*
X787380Y361282D01*
X787369Y361314D01*
X787285Y361452D01*
X787205Y361593D01*
X787183Y361618D01*
X787166Y361647D01*
X787055Y361764D01*
X786949Y361887D01*
X786922Y361907D01*
X786899Y361931D01*
X786767Y362024D01*
X786638Y362122D01*
X786608Y362136D01*
X786581Y362155D01*
X786432Y362220D01*
X786286Y362289D01*
X786254Y362297D01*
X786223Y362310D01*
X786064Y362343D01*
X785907Y362381D01*
X785874Y362382D01*
X785841Y362389D01*
X785679Y362388D01*
X785517Y362394D01*
X785485Y362388D01*
X785451Y362388D01*
X785293Y362355D01*
X785133Y362327D01*
X785102Y362315D01*
X785070Y362308D01*
X784921Y362243D01*
X784771Y362183D01*
X784743Y362165D01*
X784713Y362152D01*
X784646Y362101D01*
X784446Y361969D01*
X784403Y361927D01*
X780832Y360447D01*
X762768Y360447D01*
X759220Y361917D01*
X756505Y364632D01*
X755035Y368180D01*
X755035Y372020D01*
X756505Y375568D01*
X759220Y378283D01*
X762768Y379753D01*
X780832Y379753D01*
X784380Y378283D01*
X787095Y375568D01*
X787230Y375241D01*
X787254Y375197D01*
X787271Y375150D01*
X787347Y375026D01*
X787416Y374898D01*
X787448Y374860D01*
X787474Y374818D01*
X787573Y374711D01*
X787667Y374600D01*
X787706Y374570D01*
X787740Y374533D01*
X787859Y374449D01*
X787974Y374360D01*
X788018Y374337D01*
X788059Y374309D01*
X788192Y374251D01*
X788323Y374186D01*
X788371Y374174D01*
X788417Y374154D01*
X788559Y374125D01*
X788700Y374088D01*
X788750Y374085D01*
X788799Y374075D01*
X788944Y374076D01*
X789089Y374068D01*
X789138Y374076D01*
X789188Y374076D01*
X789331Y374106D01*
X789474Y374128D01*
X789521Y374146D01*
X789570Y374156D01*
X789703Y374215D01*
X789839Y374266D01*
X789881Y374292D01*
X789927Y374312D01*
X789998Y374366D01*
X790168Y374474D01*
X790271Y374574D01*
X790336Y374623D01*
X795252Y379539D01*
X795314Y379616D01*
X795385Y379687D01*
X795437Y379767D01*
X795497Y379841D01*
X795543Y379929D01*
X795598Y380013D01*
X795633Y380102D01*
X795677Y380187D01*
X795704Y380283D01*
X795740Y380376D01*
X795750Y380448D01*
X795782Y380563D01*
X795798Y380802D01*
X795809Y380885D01*
X795809Y381827D01*
X797298Y383316D01*
X812102Y383316D01*
X812815Y382603D01*
X812892Y382541D01*
X812962Y382470D01*
X813043Y382418D01*
X813117Y382358D01*
X813205Y382312D01*
X813289Y382257D01*
X813378Y382222D01*
X813463Y382178D01*
X813559Y382151D01*
X813652Y382115D01*
X813724Y382105D01*
X813839Y382073D01*
X814079Y382057D01*
X814161Y382046D01*
X853239Y382046D01*
X853338Y382056D01*
X853437Y382056D01*
X853531Y382076D01*
X853627Y382086D01*
X853721Y382116D01*
X853819Y382136D01*
X853907Y382175D01*
X853998Y382204D01*
X854085Y382253D01*
X854176Y382292D01*
X854234Y382337D01*
X854338Y382395D01*
X854519Y382553D01*
X854585Y382603D01*
X855298Y383316D01*
X870102Y383316D01*
X871591Y381827D01*
X871591Y373373D01*
X870102Y371884D01*
X855298Y371884D01*
X854585Y372597D01*
X854508Y372659D01*
X854438Y372730D01*
X854357Y372782D01*
X854283Y372842D01*
X854195Y372888D01*
X854111Y372943D01*
X854022Y372978D01*
X853937Y373022D01*
X853841Y373049D01*
X853748Y373085D01*
X853676Y373095D01*
X853561Y373127D01*
X853321Y373143D01*
X853239Y373154D01*
X814161Y373154D01*
X814062Y373144D01*
X813963Y373144D01*
X813869Y373124D01*
X813773Y373114D01*
X813679Y373084D01*
X813581Y373064D01*
X813493Y373025D01*
X813402Y372996D01*
X813315Y372947D01*
X813224Y372908D01*
X813166Y372863D01*
X813062Y372805D01*
X812881Y372647D01*
X812815Y372597D01*
X812102Y371884D01*
X800960Y371884D01*
X800861Y371874D01*
X800762Y371874D01*
X800668Y371854D01*
X800573Y371844D01*
X800478Y371814D01*
X800380Y371794D01*
X800292Y371755D01*
X800201Y371726D01*
X800114Y371677D01*
X800023Y371638D01*
X799965Y371593D01*
X799861Y371535D01*
X799680Y371377D01*
X799614Y371327D01*
X797003Y368716D01*
X796941Y368639D01*
X796870Y368568D01*
X796818Y368488D01*
X796758Y368414D01*
X796712Y368326D01*
X796657Y368242D01*
X796622Y368153D01*
X796578Y368068D01*
X796551Y367972D01*
X796515Y367879D01*
X796505Y367807D01*
X796473Y367692D01*
X796457Y367452D01*
X796446Y367370D01*
X796446Y346220D01*
X796453Y346154D01*
X796450Y346087D01*
X796472Y345960D01*
X796486Y345832D01*
X796506Y345769D01*
X796517Y345703D01*
X796565Y345584D01*
X796604Y345461D01*
X796636Y345403D01*
X796661Y345341D01*
X796732Y345234D01*
X796795Y345121D01*
X796839Y345071D01*
X796875Y345015D01*
X796966Y344924D01*
X797051Y344827D01*
X797104Y344787D01*
X797151Y344740D01*
X797259Y344670D01*
X797362Y344592D01*
X797422Y344564D01*
X797478Y344527D01*
X797598Y344480D01*
X797714Y344425D01*
X797779Y344409D01*
X797841Y344385D01*
X797927Y344373D01*
X798093Y344333D01*
X798263Y344328D01*
X798350Y344316D01*
X802796Y344316D01*
X802796Y338600D01*
X802796Y332884D01*
X798016Y332884D01*
X797369Y333057D01*
X797351Y333068D01*
X797340Y333073D01*
X797330Y333080D01*
X797163Y333152D01*
X796996Y333227D01*
X796983Y333230D01*
X796972Y333235D01*
X796793Y333272D01*
X796615Y333311D01*
X796602Y333311D01*
X796590Y333313D01*
X796407Y333313D01*
X796225Y333315D01*
X796213Y333313D01*
X796200Y333313D01*
X796021Y333275D01*
X795843Y333240D01*
X795831Y333235D01*
X795819Y333233D01*
X795652Y333159D01*
X795483Y333088D01*
X795473Y333081D01*
X795462Y333076D01*
X795420Y333045D01*
X795163Y332867D01*
X795100Y332801D01*
X795053Y332765D01*
X783684Y321396D01*
X783663Y321371D01*
X783638Y321349D01*
X783540Y321220D01*
X783438Y321094D01*
X783422Y321065D01*
X783402Y321038D01*
X783333Y320892D01*
X783258Y320748D01*
X783250Y320716D01*
X783235Y320686D01*
X783197Y320529D01*
X783153Y320373D01*
X783151Y320339D01*
X783143Y320307D01*
X783138Y320145D01*
X783127Y319984D01*
X783132Y319951D01*
X783131Y319917D01*
X783158Y319758D01*
X783180Y319598D01*
X783192Y319566D01*
X783197Y319533D01*
X783257Y319383D01*
X783311Y319230D01*
X783329Y319202D01*
X783341Y319171D01*
X783430Y319036D01*
X783514Y318898D01*
X783537Y318873D01*
X783555Y318845D01*
X783670Y318731D01*
X783781Y318613D01*
X783808Y318594D01*
X783831Y318570D01*
X783967Y318482D01*
X784099Y318389D01*
X784130Y318376D01*
X784158Y318357D01*
X784309Y318298D01*
X784457Y318234D01*
X784490Y318227D01*
X784521Y318215D01*
X784603Y318204D01*
X784839Y318155D01*
X784958Y318156D01*
X785030Y318146D01*
X871070Y318146D01*
X871169Y318156D01*
X871268Y318156D01*
X871362Y318176D01*
X871457Y318186D01*
X871552Y318216D01*
X871650Y318236D01*
X871738Y318275D01*
X871829Y318304D01*
X871916Y318353D01*
X872007Y318392D01*
X872065Y318437D01*
X872169Y318495D01*
X872350Y318653D01*
X872416Y318703D01*
X883997Y330284D01*
X884059Y330361D01*
X884130Y330432D01*
X884182Y330512D01*
X884242Y330586D01*
X884288Y330674D01*
X884343Y330758D01*
X884378Y330847D01*
X884422Y330932D01*
X884449Y331028D01*
X884485Y331121D01*
X884495Y331193D01*
X884527Y331308D01*
X884543Y331548D01*
X884554Y331630D01*
X884554Y457884D01*
X885231Y459518D01*
X904482Y478769D01*
X906116Y479446D01*
X930715Y479446D01*
X930814Y479456D01*
X930914Y479456D01*
X931008Y479476D01*
X931103Y479486D01*
X931198Y479516D01*
X931295Y479536D01*
X931383Y479575D01*
X931474Y479604D01*
X931561Y479653D01*
X931652Y479692D01*
X931711Y479737D01*
X931814Y479795D01*
X931995Y479953D01*
X932062Y480003D01*
X932418Y480360D01*
X934742Y481323D01*
X937258Y481323D01*
X939582Y480360D01*
X941360Y478582D01*
X942323Y476258D01*
X942323Y473742D01*
X942009Y472986D01*
X941995Y472938D01*
X941974Y472893D01*
X941939Y472752D01*
X941898Y472612D01*
X941894Y472563D01*
X941882Y472514D01*
X941877Y472369D01*
X941865Y472224D01*
X941871Y472174D01*
X941869Y472124D01*
X941894Y471981D01*
X941911Y471837D01*
X941927Y471790D01*
X941936Y471740D01*
X941989Y471605D01*
X942036Y471467D01*
X942061Y471424D01*
X942079Y471378D01*
X942159Y471257D01*
X942233Y471131D01*
X942266Y471094D01*
X942294Y471052D01*
X942397Y470950D01*
X942494Y470842D01*
X942534Y470813D01*
X942570Y470777D01*
X942692Y470698D01*
X942809Y470612D01*
X942854Y470592D01*
X942896Y470564D01*
X943032Y470511D01*
X943164Y470451D01*
X943213Y470440D01*
X943259Y470422D01*
X943348Y470410D01*
X943544Y470366D01*
X943688Y470364D01*
X943769Y470353D01*
X951698Y470353D01*
X957353Y464698D01*
X957353Y456702D01*
X951698Y451047D01*
X943702Y451047D01*
X938047Y456702D01*
X938047Y464698D01*
X938776Y465426D01*
X938797Y465452D01*
X938822Y465474D01*
X938919Y465603D01*
X939021Y465729D01*
X939037Y465758D01*
X939057Y465785D01*
X939126Y465931D01*
X939201Y466075D01*
X939210Y466107D01*
X939224Y466137D01*
X939262Y466294D01*
X939306Y466450D01*
X939308Y466484D01*
X939316Y466516D01*
X939321Y466678D01*
X939332Y466839D01*
X939328Y466872D01*
X939329Y466906D01*
X939301Y467065D01*
X939279Y467225D01*
X939268Y467257D01*
X939262Y467290D01*
X939202Y467440D01*
X939148Y467593D01*
X939131Y467621D01*
X939118Y467652D01*
X939029Y467787D01*
X938945Y467925D01*
X938922Y467950D01*
X938904Y467978D01*
X938789Y468092D01*
X938679Y468210D01*
X938651Y468229D01*
X938628Y468253D01*
X938492Y468341D01*
X938360Y468434D01*
X938329Y468448D01*
X938301Y468466D01*
X938151Y468525D01*
X938002Y468589D01*
X937969Y468596D01*
X937938Y468608D01*
X937856Y468619D01*
X937620Y468668D01*
X937501Y468667D01*
X937429Y468677D01*
X934742Y468677D01*
X932418Y469640D01*
X932062Y469997D01*
X931985Y470059D01*
X931914Y470130D01*
X931834Y470182D01*
X931759Y470242D01*
X931671Y470288D01*
X931588Y470343D01*
X931498Y470378D01*
X931413Y470422D01*
X931317Y470449D01*
X931225Y470485D01*
X931152Y470495D01*
X931038Y470527D01*
X930798Y470543D01*
X930715Y470554D01*
X930694Y470554D01*
X930669Y470552D01*
X930649Y470553D01*
X930642Y470552D01*
X930628Y470553D01*
X930467Y470531D01*
X930306Y470514D01*
X930275Y470504D01*
X930242Y470500D01*
X930089Y470445D01*
X929935Y470396D01*
X929906Y470380D01*
X929874Y470369D01*
X929736Y470285D01*
X929595Y470205D01*
X929570Y470183D01*
X929542Y470166D01*
X929423Y470055D01*
X929301Y469949D01*
X929281Y469922D01*
X929257Y469900D01*
X929164Y469767D01*
X929066Y469638D01*
X929052Y469608D01*
X929033Y469581D01*
X928968Y469432D01*
X928899Y469286D01*
X928891Y469254D01*
X928878Y469223D01*
X928845Y469064D01*
X928807Y468907D01*
X928806Y468874D01*
X928799Y468841D01*
X928800Y468679D01*
X928794Y468517D01*
X928800Y468485D01*
X928800Y468451D01*
X928833Y468293D01*
X928861Y468133D01*
X928873Y468103D01*
X928880Y468070D01*
X928945Y467921D01*
X929005Y467771D01*
X929023Y467743D01*
X929036Y467713D01*
X929087Y467646D01*
X929219Y467446D01*
X929303Y467362D01*
X929347Y467304D01*
X931953Y464698D01*
X931953Y456702D01*
X926298Y451047D01*
X918302Y451047D01*
X912992Y456357D01*
X912940Y456399D01*
X912895Y456448D01*
X912789Y456522D01*
X912689Y456603D01*
X912630Y456634D01*
X912576Y456672D01*
X912458Y456723D01*
X912343Y456782D01*
X912279Y456800D01*
X912218Y456827D01*
X912092Y456853D01*
X911968Y456887D01*
X911902Y456892D01*
X911837Y456905D01*
X911708Y456905D01*
X911579Y456914D01*
X911513Y456905D01*
X911447Y456905D01*
X911320Y456878D01*
X911193Y456860D01*
X911130Y456838D01*
X911065Y456824D01*
X910947Y456773D01*
X910826Y456729D01*
X910769Y456695D01*
X910708Y456668D01*
X910638Y456615D01*
X910493Y456527D01*
X910369Y456410D01*
X910299Y456357D01*
X908582Y454640D01*
X906258Y453677D01*
X905753Y453677D01*
X905654Y453667D01*
X905555Y453667D01*
X905461Y453647D01*
X905366Y453637D01*
X905271Y453607D01*
X905173Y453587D01*
X905085Y453548D01*
X904994Y453519D01*
X904907Y453470D01*
X904816Y453431D01*
X904758Y453386D01*
X904654Y453328D01*
X904473Y453170D01*
X904407Y453120D01*
X901003Y449716D01*
X900941Y449639D01*
X900870Y449568D01*
X900818Y449488D01*
X900758Y449414D01*
X900712Y449326D01*
X900657Y449242D01*
X900622Y449153D01*
X900578Y449068D01*
X900551Y448972D01*
X900515Y448879D01*
X900505Y448807D01*
X900473Y448692D01*
X900457Y448452D01*
X900446Y448370D01*
X900446Y440985D01*
X900449Y440952D01*
X900447Y440918D01*
X900469Y440758D01*
X900486Y440597D01*
X900496Y440565D01*
X900500Y440532D01*
X900555Y440379D01*
X900604Y440225D01*
X900620Y440196D01*
X900631Y440165D01*
X900716Y440027D01*
X900795Y439886D01*
X900817Y439861D01*
X900834Y439832D01*
X900945Y439714D01*
X901051Y439592D01*
X901078Y439572D01*
X901100Y439548D01*
X901233Y439455D01*
X901362Y439357D01*
X901392Y439343D01*
X901419Y439323D01*
X901568Y439259D01*
X901714Y439190D01*
X901747Y439182D01*
X901777Y439169D01*
X901935Y439136D01*
X902093Y439098D01*
X902126Y439097D01*
X902159Y439090D01*
X902321Y439090D01*
X902483Y439085D01*
X902515Y439091D01*
X902549Y439091D01*
X902707Y439124D01*
X902867Y439152D01*
X902897Y439164D01*
X902930Y439171D01*
X903079Y439236D01*
X903229Y439295D01*
X903257Y439314D01*
X903287Y439327D01*
X903354Y439378D01*
X903554Y439510D01*
X903638Y439594D01*
X903697Y439638D01*
X904418Y440360D01*
X906742Y441323D01*
X909258Y441323D01*
X911910Y440224D01*
X911990Y440200D01*
X912066Y440167D01*
X912176Y440145D01*
X912284Y440112D01*
X912367Y440105D01*
X912448Y440089D01*
X912560Y440089D01*
X912672Y440079D01*
X912755Y440089D01*
X912838Y440089D01*
X912948Y440112D01*
X913059Y440126D01*
X913138Y440152D01*
X913219Y440169D01*
X913322Y440215D01*
X913429Y440250D01*
X913500Y440292D01*
X913576Y440326D01*
X913642Y440375D01*
X913765Y440447D01*
X913915Y440583D01*
X913986Y440637D01*
X918302Y444953D01*
X926298Y444953D01*
X931953Y439298D01*
X931953Y431302D01*
X926298Y425647D01*
X918302Y425647D01*
X914292Y429657D01*
X914240Y429699D01*
X914195Y429748D01*
X914089Y429822D01*
X913989Y429903D01*
X913930Y429934D01*
X913876Y429972D01*
X913758Y430023D01*
X913643Y430082D01*
X913579Y430100D01*
X913518Y430127D01*
X913392Y430153D01*
X913268Y430187D01*
X913202Y430192D01*
X913136Y430205D01*
X913008Y430205D01*
X912879Y430214D01*
X912813Y430205D01*
X912747Y430204D01*
X912621Y430178D01*
X912493Y430160D01*
X912430Y430138D01*
X912365Y430124D01*
X912247Y430073D01*
X912126Y430029D01*
X912069Y429995D01*
X912008Y429968D01*
X911938Y429915D01*
X911793Y429827D01*
X911669Y429710D01*
X911599Y429657D01*
X911581Y429640D01*
X909107Y428615D01*
X909005Y428560D01*
X908899Y428513D01*
X908849Y428475D01*
X908764Y428430D01*
X908539Y428240D01*
X908489Y428202D01*
X908003Y427716D01*
X907941Y427639D01*
X907870Y427568D01*
X907818Y427488D01*
X907757Y427414D01*
X907712Y427325D01*
X907657Y427242D01*
X907622Y427153D01*
X907578Y427068D01*
X907551Y426972D01*
X907515Y426879D01*
X907505Y426807D01*
X907473Y426692D01*
X907457Y426452D01*
X907446Y426370D01*
X907446Y322116D01*
X906769Y320482D01*
X883518Y297231D01*
X881884Y296554D01*
X560642Y296554D01*
X559008Y297231D01*
X509487Y346752D01*
X509410Y346814D01*
X509339Y346885D01*
X509259Y346937D01*
X509185Y346997D01*
X509097Y347043D01*
X509013Y347098D01*
X508924Y347133D01*
X508839Y347177D01*
X508743Y347204D01*
X508650Y347240D01*
X508578Y347250D01*
X508463Y347282D01*
X508223Y347298D01*
X508141Y347309D01*
X496195Y347309D01*
X496129Y347302D01*
X496062Y347305D01*
X495935Y347283D01*
X495807Y347269D01*
X495744Y347249D01*
X495678Y347238D01*
X495559Y347190D01*
X495436Y347151D01*
X495378Y347119D01*
X495316Y347094D01*
X495209Y347023D01*
X495096Y346960D01*
X495046Y346916D01*
X494990Y346880D01*
X494899Y346789D01*
X494802Y346704D01*
X494762Y346651D01*
X494715Y346604D01*
X494645Y346496D01*
X494567Y346393D01*
X494539Y346333D01*
X494502Y346277D01*
X494455Y346157D01*
X494400Y346041D01*
X494384Y345976D01*
X494360Y345914D01*
X494348Y345828D01*
X494308Y345662D01*
X494303Y345492D01*
X494291Y345405D01*
X494291Y330272D01*
X494003Y329984D01*
X493941Y329907D01*
X493870Y329837D01*
X493818Y329756D01*
X493758Y329682D01*
X493712Y329594D01*
X493657Y329510D01*
X493622Y329421D01*
X493578Y329336D01*
X493551Y329240D01*
X493515Y329147D01*
X493505Y329075D01*
X493473Y328960D01*
X493457Y328720D01*
X493446Y328638D01*
X493446Y323781D01*
X492769Y322147D01*
X491250Y320628D01*
X482681Y312059D01*
X482639Y312008D01*
X482591Y311962D01*
X482516Y311856D01*
X482435Y311757D01*
X482405Y311698D01*
X482366Y311643D01*
X482315Y311525D01*
X482256Y311410D01*
X482238Y311346D01*
X482212Y311285D01*
X482186Y311159D01*
X482151Y311035D01*
X482146Y310969D01*
X482133Y310904D01*
X482133Y310775D01*
X482125Y310646D01*
X482134Y310580D01*
X482134Y310514D01*
X482160Y310388D01*
X482178Y310260D01*
X482200Y310197D01*
X482214Y310132D01*
X482266Y310014D01*
X482309Y309893D01*
X482343Y309836D01*
X482370Y309775D01*
X482423Y309705D01*
X482512Y309560D01*
X482628Y309436D01*
X482681Y309366D01*
X489111Y302936D01*
X492561Y294607D01*
X492561Y285593D01*
X489111Y277264D01*
X482736Y270889D01*
X474407Y267439D01*
X466710Y267439D01*
X466624Y267430D01*
X466536Y267431D01*
X466430Y267410D01*
X466323Y267399D01*
X466239Y267373D01*
X466154Y267356D01*
X466054Y267314D01*
X465951Y267281D01*
X465875Y267238D01*
X465795Y267205D01*
X465706Y267143D01*
X465611Y267090D01*
X465546Y267033D01*
X465519Y267014D01*
X465500Y267040D01*
X465402Y267189D01*
X465390Y267201D01*
X465381Y267215D01*
X465253Y267338D01*
X465126Y267465D01*
X465112Y267474D01*
X465100Y267485D01*
X465047Y267516D01*
X464800Y267678D01*
X464710Y267713D01*
X464656Y267744D01*
X457064Y270889D01*
X450689Y277264D01*
X447209Y285665D01*
X447199Y285761D01*
X447184Y285808D01*
X447177Y285858D01*
X447125Y285994D01*
X447081Y286132D01*
X447057Y286176D01*
X447039Y286223D01*
X446961Y286345D01*
X446890Y286472D01*
X446857Y286510D01*
X446831Y286552D01*
X446729Y286656D01*
X446634Y286766D01*
X446594Y286796D01*
X446559Y286832D01*
X446439Y286913D01*
X446323Y287001D01*
X446278Y287022D01*
X446237Y287050D01*
X446102Y287106D01*
X445971Y287168D01*
X445923Y287180D01*
X445876Y287199D01*
X445733Y287226D01*
X445592Y287260D01*
X445542Y287262D01*
X445493Y287271D01*
X445348Y287268D01*
X445202Y287273D01*
X445153Y287264D01*
X445103Y287263D01*
X445017Y287240D01*
X444818Y287206D01*
X444685Y287153D01*
X444606Y287132D01*
X441523Y285855D01*
X424677Y285855D01*
X421316Y287247D01*
X418743Y289820D01*
X417351Y293181D01*
X417351Y296819D01*
X418743Y300180D01*
X421316Y302753D01*
X424677Y304145D01*
X441523Y304145D01*
X444884Y302753D01*
X446920Y300717D01*
X446959Y300685D01*
X446992Y300648D01*
X447110Y300562D01*
X447222Y300471D01*
X447266Y300448D01*
X447307Y300418D01*
X447439Y300358D01*
X447568Y300292D01*
X447616Y300278D01*
X447662Y300257D01*
X447804Y300226D01*
X447944Y300187D01*
X447994Y300183D01*
X448042Y300172D01*
X448187Y300170D01*
X448333Y300160D01*
X448382Y300167D01*
X448432Y300166D01*
X448575Y300194D01*
X448719Y300214D01*
X448766Y300230D01*
X448815Y300240D01*
X448949Y300296D01*
X449086Y300344D01*
X449129Y300370D01*
X449175Y300390D01*
X449295Y300472D01*
X449419Y300547D01*
X449455Y300581D01*
X449496Y300610D01*
X449597Y300714D01*
X449703Y300814D01*
X449732Y300854D01*
X449767Y300890D01*
X449812Y300968D01*
X449928Y301132D01*
X449985Y301264D01*
X450026Y301335D01*
X450689Y302936D01*
X454721Y306969D01*
X454742Y306994D01*
X454767Y307016D01*
X454865Y307145D01*
X454967Y307271D01*
X454983Y307300D01*
X455003Y307327D01*
X455072Y307473D01*
X455147Y307617D01*
X455156Y307649D01*
X455170Y307679D01*
X455208Y307836D01*
X455252Y307992D01*
X455254Y308026D01*
X455262Y308058D01*
X455267Y308220D01*
X455278Y308381D01*
X455273Y308414D01*
X455275Y308448D01*
X455247Y308607D01*
X455225Y308767D01*
X455213Y308799D01*
X455208Y308832D01*
X455148Y308982D01*
X455094Y309135D01*
X455076Y309163D01*
X455064Y309194D01*
X454975Y309329D01*
X454891Y309467D01*
X454868Y309492D01*
X454850Y309520D01*
X454735Y309634D01*
X454624Y309752D01*
X454597Y309771D01*
X454574Y309795D01*
X454438Y309883D01*
X454306Y309976D01*
X454275Y309989D01*
X454247Y310008D01*
X454097Y310067D01*
X453948Y310131D01*
X453915Y310138D01*
X453884Y310150D01*
X453802Y310161D01*
X453566Y310210D01*
X453447Y310209D01*
X453375Y310219D01*
X337471Y310219D01*
X337438Y310216D01*
X337405Y310218D01*
X337244Y310196D01*
X337083Y310179D01*
X337052Y310169D01*
X337019Y310165D01*
X336866Y310110D01*
X336712Y310061D01*
X336683Y310045D01*
X336651Y310034D01*
X336513Y309949D01*
X336372Y309870D01*
X336347Y309848D01*
X336319Y309831D01*
X336200Y309720D01*
X336079Y309614D01*
X336059Y309587D01*
X336034Y309565D01*
X335941Y309432D01*
X335843Y309303D01*
X335829Y309273D01*
X335810Y309246D01*
X335746Y309097D01*
X335676Y308951D01*
X335668Y308919D01*
X335655Y308888D01*
X335622Y308729D01*
X335584Y308572D01*
X335583Y308539D01*
X335576Y308506D01*
X335577Y308344D01*
X335571Y308182D01*
X335577Y308150D01*
X335577Y308116D01*
X335611Y307958D01*
X335638Y307798D01*
X335651Y307768D01*
X335657Y307735D01*
X335722Y307586D01*
X335782Y307436D01*
X335800Y307408D01*
X335813Y307378D01*
X335864Y307311D01*
X335996Y307111D01*
X336080Y307027D01*
X336125Y306968D01*
X337541Y305552D01*
X337541Y297119D01*
X337545Y297074D01*
X337543Y297028D01*
X337565Y296880D01*
X337581Y296732D01*
X337594Y296688D01*
X337601Y296643D01*
X337653Y296502D01*
X337699Y296360D01*
X337721Y296320D01*
X337737Y296277D01*
X337817Y296151D01*
X337890Y296020D01*
X337920Y295986D01*
X337944Y295947D01*
X338048Y295839D01*
X338146Y295727D01*
X338183Y295699D01*
X338215Y295666D01*
X338338Y295582D01*
X338457Y295491D01*
X338498Y295472D01*
X338536Y295446D01*
X338674Y295388D01*
X338809Y295324D01*
X338854Y295314D01*
X338896Y295296D01*
X339043Y295268D01*
X339188Y295233D01*
X339234Y295231D01*
X339279Y295222D01*
X339429Y295225D01*
X339578Y295220D01*
X339623Y295228D01*
X339669Y295228D01*
X339815Y295261D01*
X339962Y295287D01*
X340004Y295303D01*
X340049Y295313D01*
X340185Y295375D01*
X340324Y295430D01*
X340362Y295455D01*
X340404Y295474D01*
X340525Y295562D01*
X340649Y295644D01*
X340682Y295677D01*
X340719Y295704D01*
X340819Y295815D01*
X340925Y295921D01*
X340950Y295959D01*
X340980Y295993D01*
X341056Y296122D01*
X341138Y296247D01*
X341154Y296290D01*
X341178Y296329D01*
X341203Y296414D01*
X341280Y296610D01*
X341294Y296718D01*
X341326Y296822D01*
X341376Y297141D01*
X341821Y298510D01*
X342475Y299793D01*
X343321Y300957D01*
X344339Y301975D01*
X345503Y302821D01*
X346786Y303475D01*
X348154Y303920D01*
X349576Y304145D01*
X354869Y304145D01*
X354869Y295127D01*
X354876Y295061D01*
X354873Y294995D01*
X354880Y294956D01*
X354869Y294873D01*
X354869Y285855D01*
X349576Y285855D01*
X348154Y286080D01*
X346786Y286525D01*
X345503Y287179D01*
X344339Y288025D01*
X343321Y289043D01*
X342475Y290207D01*
X341821Y291490D01*
X341376Y292859D01*
X341326Y293178D01*
X341314Y293223D01*
X341309Y293268D01*
X341264Y293411D01*
X341226Y293555D01*
X341205Y293596D01*
X341191Y293640D01*
X341118Y293770D01*
X341051Y293904D01*
X341023Y293940D01*
X341000Y293980D01*
X340902Y294092D01*
X340809Y294209D01*
X340774Y294239D01*
X340744Y294273D01*
X340625Y294363D01*
X340510Y294459D01*
X340470Y294481D01*
X340433Y294509D01*
X340298Y294573D01*
X340166Y294643D01*
X340122Y294656D01*
X340081Y294676D01*
X339936Y294711D01*
X339792Y294753D01*
X339747Y294757D01*
X339702Y294767D01*
X339553Y294772D01*
X339404Y294784D01*
X339358Y294779D01*
X339312Y294780D01*
X339165Y294755D01*
X339017Y294736D01*
X338974Y294721D01*
X338928Y294713D01*
X338790Y294659D01*
X338648Y294610D01*
X338608Y294587D01*
X338566Y294570D01*
X338442Y294488D01*
X338313Y294412D01*
X338279Y294381D01*
X338240Y294356D01*
X338135Y294250D01*
X338025Y294149D01*
X337998Y294112D01*
X337965Y294079D01*
X337884Y293954D01*
X337796Y293833D01*
X337777Y293791D01*
X337752Y293753D01*
X337698Y293614D01*
X337637Y293478D01*
X337627Y293433D01*
X337610Y293390D01*
X337598Y293302D01*
X337553Y293097D01*
X337555Y292988D01*
X337541Y292881D01*
X337541Y288448D01*
X336052Y286959D01*
X334850Y286959D01*
X334784Y286952D01*
X334717Y286955D01*
X334590Y286933D01*
X334462Y286919D01*
X334399Y286899D01*
X334333Y286888D01*
X334214Y286840D01*
X334091Y286801D01*
X334033Y286769D01*
X333971Y286744D01*
X333864Y286673D01*
X333751Y286610D01*
X333701Y286566D01*
X333645Y286530D01*
X333554Y286439D01*
X333457Y286354D01*
X333417Y286301D01*
X333370Y286254D01*
X333300Y286146D01*
X333222Y286043D01*
X333194Y285983D01*
X333157Y285927D01*
X333110Y285807D01*
X333055Y285691D01*
X333039Y285626D01*
X333015Y285564D01*
X333003Y285478D01*
X332963Y285312D01*
X332958Y285142D01*
X332946Y285055D01*
X332946Y254130D01*
X332956Y254031D01*
X332956Y253932D01*
X332976Y253838D01*
X332986Y253743D01*
X333016Y253648D01*
X333036Y253550D01*
X333075Y253462D01*
X333104Y253371D01*
X333153Y253284D01*
X333192Y253193D01*
X333237Y253135D01*
X333295Y253031D01*
X333453Y252850D01*
X333503Y252784D01*
X382284Y204003D01*
X382361Y203941D01*
X382432Y203870D01*
X382512Y203818D01*
X382586Y203758D01*
X382674Y203712D01*
X382758Y203657D01*
X382847Y203622D01*
X382932Y203578D01*
X383028Y203551D01*
X383121Y203515D01*
X383193Y203505D01*
X383308Y203473D01*
X383548Y203457D01*
X383630Y203446D01*
X388715Y203446D01*
X388814Y203456D01*
X388914Y203456D01*
X389008Y203476D01*
X389103Y203486D01*
X389198Y203516D01*
X389295Y203536D01*
X389383Y203575D01*
X389474Y203604D01*
X389561Y203653D01*
X389652Y203692D01*
X389711Y203737D01*
X389814Y203795D01*
X389995Y203953D01*
X390062Y204003D01*
X390418Y204360D01*
X392742Y205323D01*
X395258Y205323D01*
X397582Y204360D01*
X399303Y202638D01*
X399329Y202617D01*
X399351Y202592D01*
X399480Y202494D01*
X399606Y202392D01*
X399635Y202377D01*
X399662Y202357D01*
X399808Y202287D01*
X399952Y202213D01*
X399984Y202204D01*
X400014Y202190D01*
X400171Y202152D01*
X400327Y202108D01*
X400361Y202106D01*
X400393Y202098D01*
X400555Y202093D01*
X400716Y202082D01*
X400749Y202086D01*
X400783Y202085D01*
X400942Y202113D01*
X401102Y202135D01*
X401134Y202146D01*
X401167Y202152D01*
X401317Y202211D01*
X401470Y202266D01*
X401498Y202283D01*
X401529Y202295D01*
X401664Y202384D01*
X401802Y202469D01*
X401827Y202492D01*
X401855Y202510D01*
X401969Y202625D01*
X402087Y202735D01*
X402106Y202762D01*
X402130Y202786D01*
X402218Y202922D01*
X402311Y203054D01*
X402325Y203085D01*
X402343Y203112D01*
X402402Y203263D01*
X402466Y203412D01*
X402473Y203444D01*
X402485Y203475D01*
X402496Y203558D01*
X402545Y203793D01*
X402544Y203912D01*
X402554Y203985D01*
X402554Y245884D01*
X403231Y247518D01*
X415998Y260285D01*
X416060Y260362D01*
X416131Y260432D01*
X416183Y260513D01*
X416243Y260587D01*
X416289Y260675D01*
X416344Y260759D01*
X416379Y260848D01*
X416423Y260933D01*
X416450Y261029D01*
X416486Y261122D01*
X416496Y261194D01*
X416528Y261309D01*
X416544Y261549D01*
X416555Y261631D01*
X416555Y263488D01*
X421912Y268845D01*
X429488Y268845D01*
X434845Y263488D01*
X434845Y255912D01*
X429488Y250555D01*
X421912Y250555D01*
X421724Y250744D01*
X421672Y250785D01*
X421627Y250834D01*
X421521Y250908D01*
X421421Y250990D01*
X421362Y251020D01*
X421308Y251058D01*
X421190Y251110D01*
X421075Y251169D01*
X421011Y251187D01*
X420950Y251213D01*
X420824Y251239D01*
X420700Y251274D01*
X420634Y251278D01*
X420568Y251292D01*
X420440Y251291D01*
X420311Y251300D01*
X420245Y251291D01*
X420179Y251291D01*
X420052Y251264D01*
X419925Y251247D01*
X419862Y251224D01*
X419797Y251211D01*
X419679Y251159D01*
X419558Y251116D01*
X419501Y251081D01*
X419440Y251055D01*
X419370Y251002D01*
X419225Y250913D01*
X419101Y250797D01*
X419031Y250744D01*
X412003Y243716D01*
X411941Y243639D01*
X411870Y243568D01*
X411818Y243488D01*
X411758Y243414D01*
X411712Y243326D01*
X411657Y243242D01*
X411622Y243153D01*
X411578Y243068D01*
X411551Y242972D01*
X411515Y242879D01*
X411505Y242807D01*
X411473Y242692D01*
X411457Y242452D01*
X411446Y242370D01*
X411446Y209016D01*
X411449Y208983D01*
X411447Y208950D01*
X411469Y208789D01*
X411486Y208628D01*
X411496Y208597D01*
X411500Y208564D01*
X411555Y208411D01*
X411604Y208257D01*
X411620Y208228D01*
X411631Y208196D01*
X411715Y208058D01*
X411795Y207917D01*
X411817Y207892D01*
X411834Y207864D01*
X411945Y207746D01*
X412051Y207624D01*
X412078Y207603D01*
X412101Y207579D01*
X412233Y207486D01*
X412362Y207388D01*
X412392Y207374D01*
X412419Y207355D01*
X412568Y207290D01*
X412714Y207221D01*
X412746Y207213D01*
X412777Y207200D01*
X412936Y207167D01*
X413093Y207129D01*
X413126Y207128D01*
X413159Y207121D01*
X413321Y207122D01*
X413483Y207116D01*
X413515Y207122D01*
X413549Y207122D01*
X413707Y207156D01*
X413867Y207183D01*
X413897Y207196D01*
X413930Y207202D01*
X414079Y207267D01*
X414229Y207327D01*
X414257Y207345D01*
X414287Y207359D01*
X414317Y207381D01*
X427592Y207381D01*
X429081Y205892D01*
X429081Y192449D01*
X429076Y192434D01*
X429050Y192373D01*
X429024Y192247D01*
X428989Y192123D01*
X428985Y192056D01*
X428971Y191991D01*
X428972Y191862D01*
X428963Y191734D01*
X428972Y191668D01*
X428972Y191601D01*
X428999Y191475D01*
X429016Y191348D01*
X429039Y191285D01*
X429052Y191220D01*
X429081Y191155D01*
X429081Y177449D01*
X429077Y177434D01*
X429050Y177373D01*
X429024Y177247D01*
X428989Y177123D01*
X428985Y177056D01*
X428972Y176991D01*
X428972Y176862D01*
X428963Y176734D01*
X428972Y176668D01*
X428972Y176601D01*
X428999Y176475D01*
X429016Y176348D01*
X429039Y176285D01*
X429052Y176220D01*
X429081Y176155D01*
X429081Y162449D01*
X429076Y162434D01*
X429050Y162373D01*
X429024Y162247D01*
X428989Y162123D01*
X428985Y162056D01*
X428971Y161991D01*
X428972Y161862D01*
X428963Y161734D01*
X428972Y161668D01*
X428972Y161601D01*
X428999Y161475D01*
X429016Y161348D01*
X429039Y161285D01*
X429052Y161220D01*
X429081Y161155D01*
X429081Y147449D01*
X429076Y147434D01*
X429050Y147373D01*
X429024Y147247D01*
X428989Y147123D01*
X428985Y147056D01*
X428971Y146991D01*
X428972Y146862D01*
X428963Y146734D01*
X428972Y146668D01*
X428972Y146601D01*
X428999Y146475D01*
X429016Y146348D01*
X429039Y146285D01*
X429052Y146220D01*
X429081Y146155D01*
X429081Y145650D01*
X429088Y145584D01*
X429085Y145517D01*
X429107Y145390D01*
X429121Y145262D01*
X429141Y145199D01*
X429152Y145133D01*
X429200Y145014D01*
X429239Y144891D01*
X429271Y144833D01*
X429296Y144771D01*
X429367Y144664D01*
X429430Y144551D01*
X429474Y144501D01*
X429510Y144445D01*
X429601Y144354D01*
X429686Y144257D01*
X429739Y144217D01*
X429786Y144170D01*
X429894Y144100D01*
X429997Y144022D01*
X430057Y143994D01*
X430113Y143957D01*
X430233Y143910D01*
X430349Y143855D01*
X430414Y143839D01*
X430476Y143815D01*
X430562Y143803D01*
X430728Y143763D01*
X430898Y143758D01*
X430985Y143746D01*
X441470Y143746D01*
X441569Y143756D01*
X441668Y143756D01*
X441762Y143776D01*
X441857Y143786D01*
X441952Y143816D01*
X442050Y143836D01*
X442138Y143875D01*
X442229Y143904D01*
X442316Y143953D01*
X442407Y143992D01*
X442465Y144037D01*
X442569Y144095D01*
X442750Y144253D01*
X442816Y144303D01*
X446743Y148231D01*
X446796Y148295D01*
X446855Y148353D01*
X446918Y148446D01*
X446989Y148533D01*
X447027Y148607D01*
X447074Y148675D01*
X447117Y148779D01*
X447169Y148879D01*
X447191Y148959D01*
X447223Y149036D01*
X447243Y149146D01*
X447274Y149254D01*
X447279Y149337D01*
X447294Y149419D01*
X447292Y149531D01*
X447300Y149643D01*
X447289Y149726D01*
X447287Y149809D01*
X447266Y149888D01*
X447247Y150030D01*
X447179Y150219D01*
X447156Y150306D01*
X447119Y150395D01*
X447119Y154405D01*
X448654Y158110D01*
X451490Y160946D01*
X455195Y162481D01*
X459205Y162481D01*
X462910Y160946D01*
X465746Y158110D01*
X467281Y154405D01*
X467281Y150395D01*
X465746Y146690D01*
X462910Y143854D01*
X459205Y142319D01*
X455195Y142319D01*
X455106Y142356D01*
X455026Y142380D01*
X454950Y142413D01*
X454840Y142436D01*
X454732Y142468D01*
X454650Y142475D01*
X454568Y142491D01*
X454456Y142491D01*
X454344Y142501D01*
X454262Y142491D01*
X454178Y142491D01*
X454068Y142468D01*
X453957Y142454D01*
X453878Y142428D01*
X453797Y142411D01*
X453694Y142366D01*
X453588Y142330D01*
X453516Y142288D01*
X453440Y142254D01*
X453375Y142205D01*
X453251Y142133D01*
X453102Y141997D01*
X453031Y141943D01*
X449969Y138881D01*
X449958Y138868D01*
X449945Y138858D01*
X449835Y138718D01*
X449723Y138579D01*
X449715Y138564D01*
X449705Y138551D01*
X449626Y138392D01*
X449543Y138233D01*
X449539Y138217D01*
X449531Y138202D01*
X449486Y138029D01*
X449438Y137857D01*
X449437Y137841D01*
X449433Y137825D01*
X449424Y137646D01*
X449412Y137469D01*
X449414Y137452D01*
X449413Y137435D01*
X449441Y137259D01*
X449465Y137082D01*
X449471Y137067D01*
X449473Y137050D01*
X449536Y136883D01*
X449596Y136715D01*
X449605Y136701D01*
X449611Y136685D01*
X449707Y136534D01*
X449799Y136382D01*
X449810Y136370D01*
X449819Y136356D01*
X449944Y136227D01*
X450066Y136098D01*
X450079Y136088D01*
X450091Y136076D01*
X450239Y135976D01*
X450384Y135874D01*
X450400Y135867D01*
X450413Y135858D01*
X450579Y135789D01*
X450742Y135719D01*
X450758Y135715D01*
X450774Y135709D01*
X450949Y135676D01*
X451124Y135640D01*
X451141Y135640D01*
X451157Y135637D01*
X451335Y135641D01*
X451514Y135641D01*
X451530Y135644D01*
X451547Y135645D01*
X451606Y135660D01*
X451895Y135721D01*
X451983Y135760D01*
X452044Y135776D01*
X455195Y137081D01*
X459205Y137081D01*
X462910Y135546D01*
X465746Y132710D01*
X467281Y129005D01*
X467281Y124995D01*
X465746Y121290D01*
X462910Y118454D01*
X459205Y116919D01*
X455195Y116919D01*
X451490Y118454D01*
X448654Y121290D01*
X447119Y124995D01*
X447119Y129005D01*
X448727Y132886D01*
X448736Y132918D01*
X448751Y132948D01*
X448792Y133104D01*
X448838Y133259D01*
X448841Y133292D01*
X448849Y133325D01*
X448858Y133486D01*
X448871Y133648D01*
X448867Y133681D01*
X448869Y133714D01*
X448844Y133874D01*
X448825Y134035D01*
X448814Y134066D01*
X448809Y134099D01*
X448752Y134251D01*
X448700Y134404D01*
X448683Y134433D01*
X448672Y134464D01*
X448585Y134601D01*
X448503Y134740D01*
X448481Y134765D01*
X448463Y134793D01*
X448350Y134909D01*
X448242Y135030D01*
X448215Y135049D01*
X448192Y135073D01*
X448057Y135164D01*
X447927Y135259D01*
X447897Y135273D01*
X447869Y135292D01*
X447719Y135354D01*
X447572Y135420D01*
X447539Y135428D01*
X447509Y135440D01*
X447349Y135470D01*
X447192Y135506D01*
X447158Y135506D01*
X447126Y135512D01*
X446964Y135509D01*
X446802Y135512D01*
X446769Y135505D01*
X446736Y135505D01*
X446655Y135483D01*
X446419Y135438D01*
X446309Y135392D01*
X446239Y135374D01*
X444984Y134854D01*
X430985Y134854D01*
X430919Y134847D01*
X430852Y134850D01*
X430725Y134828D01*
X430597Y134814D01*
X430534Y134794D01*
X430468Y134783D01*
X430349Y134735D01*
X430226Y134696D01*
X430168Y134664D01*
X430106Y134639D01*
X429999Y134568D01*
X429886Y134505D01*
X429836Y134461D01*
X429780Y134425D01*
X429689Y134334D01*
X429592Y134249D01*
X429552Y134196D01*
X429505Y134149D01*
X429435Y134041D01*
X429357Y133938D01*
X429329Y133878D01*
X429292Y133822D01*
X429245Y133702D01*
X429190Y133586D01*
X429174Y133521D01*
X429150Y133459D01*
X429138Y133373D01*
X429098Y133207D01*
X429093Y133037D01*
X429081Y132950D01*
X429081Y132449D01*
X429076Y132434D01*
X429050Y132373D01*
X429024Y132247D01*
X428989Y132123D01*
X428985Y132056D01*
X428971Y131991D01*
X428972Y131862D01*
X428963Y131734D01*
X428972Y131668D01*
X428972Y131601D01*
X428999Y131475D01*
X429016Y131348D01*
X429039Y131285D01*
X429052Y131220D01*
X429081Y131155D01*
X429081Y125080D01*
X429089Y124997D01*
X429088Y124914D01*
X429109Y124804D01*
X429121Y124692D01*
X429146Y124613D01*
X429161Y124531D01*
X429205Y124427D01*
X429239Y124320D01*
X429279Y124248D01*
X429311Y124171D01*
X429375Y124079D01*
X429430Y123981D01*
X429484Y123918D01*
X429531Y123850D01*
X429612Y123772D01*
X429686Y123687D01*
X429752Y123637D01*
X429812Y123579D01*
X429883Y123538D01*
X429997Y123452D01*
X430179Y123365D01*
X430256Y123320D01*
X430900Y123054D01*
X437769Y116185D01*
X438446Y114550D01*
X438446Y74630D01*
X438456Y74531D01*
X438456Y74432D01*
X438476Y74338D01*
X438486Y74243D01*
X438516Y74148D01*
X438536Y74050D01*
X438575Y73962D01*
X438604Y73871D01*
X438653Y73784D01*
X438692Y73693D01*
X438737Y73635D01*
X438795Y73531D01*
X438953Y73350D01*
X439003Y73284D01*
X443889Y68398D01*
X443966Y68336D01*
X444037Y68265D01*
X444117Y68213D01*
X444191Y68153D01*
X444279Y68107D01*
X444363Y68052D01*
X444452Y68017D01*
X444537Y67973D01*
X444633Y67946D01*
X444726Y67910D01*
X444798Y67900D01*
X444913Y67868D01*
X445153Y67852D01*
X445235Y67841D01*
X447076Y67841D01*
X447154Y67849D01*
X447233Y67847D01*
X447348Y67869D01*
X447463Y67881D01*
X447539Y67905D01*
X447616Y67919D01*
X447724Y67963D01*
X447835Y67999D01*
X447904Y68037D01*
X447977Y68068D01*
X448073Y68133D01*
X448175Y68190D01*
X448234Y68242D01*
X448300Y68286D01*
X448381Y68370D01*
X448468Y68446D01*
X448516Y68509D01*
X448571Y68566D01*
X448633Y68664D01*
X448703Y68757D01*
X448737Y68829D01*
X448780Y68895D01*
X448821Y69004D01*
X448871Y69109D01*
X448889Y69186D01*
X448917Y69260D01*
X448935Y69375D01*
X448962Y69488D01*
X448965Y69567D01*
X448977Y69645D01*
X448971Y69761D01*
X448975Y69878D01*
X448962Y69955D01*
X448958Y70034D01*
X448928Y70147D01*
X448908Y70262D01*
X448879Y70335D01*
X448859Y70412D01*
X448820Y70485D01*
X448765Y70624D01*
X448658Y70786D01*
X448616Y70864D01*
X448578Y70917D01*
X447858Y72330D01*
X447413Y73701D01*
X456605Y73701D01*
X456671Y73708D01*
X456737Y73705D01*
X456864Y73727D01*
X456993Y73741D01*
X457056Y73761D01*
X457121Y73772D01*
X457195Y73801D01*
X457224Y73794D01*
X457286Y73770D01*
X457373Y73758D01*
X457538Y73718D01*
X457708Y73713D01*
X457795Y73701D01*
X466987Y73701D01*
X466542Y72330D01*
X465822Y70917D01*
X465784Y70864D01*
X465744Y70796D01*
X465697Y70733D01*
X465647Y70628D01*
X465588Y70527D01*
X465563Y70452D01*
X465529Y70381D01*
X465502Y70268D01*
X465465Y70157D01*
X465456Y70079D01*
X465438Y70002D01*
X465434Y69886D01*
X465420Y69770D01*
X465427Y69691D01*
X465425Y69612D01*
X465445Y69498D01*
X465455Y69382D01*
X465478Y69306D01*
X465492Y69228D01*
X465534Y69120D01*
X465568Y69009D01*
X465606Y68939D01*
X465635Y68866D01*
X465699Y68769D01*
X465755Y68667D01*
X465806Y68607D01*
X465849Y68540D01*
X465932Y68458D01*
X466007Y68370D01*
X466070Y68321D01*
X466126Y68265D01*
X466223Y68202D01*
X466315Y68130D01*
X466386Y68096D01*
X466452Y68052D01*
X466560Y68010D01*
X466665Y67959D01*
X466741Y67939D01*
X466815Y67910D01*
X466897Y67899D01*
X467042Y67862D01*
X467236Y67853D01*
X467324Y67841D01*
X472301Y67841D01*
X472351Y67846D01*
X472401Y67843D01*
X472545Y67866D01*
X472689Y67881D01*
X472737Y67896D01*
X472786Y67903D01*
X472922Y67955D01*
X473061Y67999D01*
X473104Y68023D01*
X473151Y68041D01*
X473274Y68119D01*
X473400Y68190D01*
X473438Y68223D01*
X473480Y68249D01*
X473584Y68351D01*
X473694Y68446D01*
X473724Y68486D01*
X473760Y68521D01*
X473841Y68641D01*
X473929Y68757D01*
X473951Y68802D01*
X473979Y68843D01*
X474034Y68978D01*
X474096Y69109D01*
X474108Y69157D01*
X474127Y69204D01*
X474154Y69347D01*
X474188Y69488D01*
X474190Y69538D01*
X474199Y69587D01*
X474196Y69732D01*
X474201Y69878D01*
X474192Y69927D01*
X474191Y69977D01*
X474169Y70063D01*
X474134Y70262D01*
X474081Y70395D01*
X474061Y70474D01*
X472519Y74195D01*
X472519Y78205D01*
X474054Y81910D01*
X476890Y84746D01*
X480595Y86281D01*
X484605Y86281D01*
X488310Y84746D01*
X491146Y81910D01*
X492681Y78205D01*
X492681Y74195D01*
X491268Y70785D01*
X491259Y70753D01*
X491244Y70723D01*
X491203Y70566D01*
X491157Y70411D01*
X491154Y70378D01*
X491146Y70346D01*
X491137Y70184D01*
X491124Y70023D01*
X491128Y69990D01*
X491126Y69957D01*
X491151Y69797D01*
X491170Y69636D01*
X491181Y69605D01*
X491186Y69572D01*
X491243Y69420D01*
X491295Y69267D01*
X491312Y69238D01*
X491323Y69207D01*
X491410Y69070D01*
X491492Y68930D01*
X491514Y68906D01*
X491532Y68878D01*
X491645Y68761D01*
X491753Y68641D01*
X491780Y68622D01*
X491803Y68598D01*
X491937Y68507D01*
X492068Y68411D01*
X492098Y68398D01*
X492126Y68379D01*
X492276Y68317D01*
X492423Y68250D01*
X492456Y68243D01*
X492486Y68230D01*
X492646Y68201D01*
X492803Y68165D01*
X492837Y68165D01*
X492869Y68159D01*
X493031Y68162D01*
X493193Y68159D01*
X493226Y68165D01*
X493259Y68166D01*
X493340Y68187D01*
X493576Y68233D01*
X493686Y68278D01*
X493756Y68297D01*
X494116Y68446D01*
X522851Y68446D01*
X522917Y68453D01*
X522984Y68450D01*
X523111Y68472D01*
X523239Y68486D01*
X523302Y68506D01*
X523368Y68517D01*
X523487Y68565D01*
X523610Y68604D01*
X523668Y68636D01*
X523730Y68661D01*
X523837Y68732D01*
X523950Y68795D01*
X524000Y68839D01*
X524056Y68875D01*
X524147Y68966D01*
X524244Y69051D01*
X524284Y69104D01*
X524331Y69151D01*
X524401Y69259D01*
X524479Y69362D01*
X524507Y69422D01*
X524544Y69478D01*
X524591Y69598D01*
X524646Y69714D01*
X524662Y69779D01*
X524686Y69841D01*
X524698Y69927D01*
X524738Y70093D01*
X524743Y70263D01*
X524755Y70350D01*
X524755Y75488D01*
X530112Y80845D01*
X537688Y80845D01*
X543045Y75488D01*
X543045Y67912D01*
X537688Y62555D01*
X531831Y62555D01*
X531732Y62545D01*
X531633Y62545D01*
X531539Y62525D01*
X531444Y62515D01*
X531349Y62485D01*
X531251Y62465D01*
X531163Y62426D01*
X531072Y62397D01*
X530985Y62348D01*
X530894Y62309D01*
X530836Y62264D01*
X530732Y62206D01*
X530551Y62048D01*
X530485Y61998D01*
X528718Y60231D01*
X527084Y59554D01*
X494116Y59554D01*
X492933Y60044D01*
X492821Y60078D01*
X492713Y60120D01*
X492651Y60128D01*
X492559Y60156D01*
X492265Y60181D01*
X492204Y60189D01*
X486455Y60189D01*
X486422Y60186D01*
X486389Y60188D01*
X486228Y60166D01*
X486067Y60149D01*
X486036Y60139D01*
X486003Y60135D01*
X485850Y60080D01*
X485696Y60031D01*
X485667Y60015D01*
X485636Y60004D01*
X485497Y59920D01*
X485356Y59840D01*
X485331Y59818D01*
X485303Y59801D01*
X485184Y59690D01*
X485063Y59584D01*
X485043Y59557D01*
X485018Y59535D01*
X484925Y59402D01*
X484827Y59273D01*
X484813Y59243D01*
X484794Y59216D01*
X484730Y59067D01*
X484660Y58921D01*
X484652Y58889D01*
X484639Y58858D01*
X484606Y58699D01*
X484568Y58542D01*
X484567Y58509D01*
X484560Y58476D01*
X484561Y58314D01*
X484555Y58152D01*
X484561Y58120D01*
X484561Y58086D01*
X484595Y57928D01*
X484622Y57768D01*
X484635Y57738D01*
X484641Y57705D01*
X484706Y57556D01*
X484766Y57406D01*
X484784Y57378D01*
X484797Y57348D01*
X484848Y57281D01*
X484980Y57081D01*
X485064Y56997D01*
X485109Y56939D01*
X489111Y52936D01*
X492561Y44607D01*
X492561Y35593D01*
X489111Y27264D01*
X482736Y20889D01*
X474407Y17439D01*
X465393Y17439D01*
X457064Y20889D01*
X450689Y27264D01*
X447239Y35593D01*
X447239Y44607D01*
X450689Y52936D01*
X454721Y56969D01*
X454742Y56994D01*
X454767Y57016D01*
X454865Y57145D01*
X454967Y57271D01*
X454983Y57300D01*
X455003Y57327D01*
X455072Y57473D01*
X455147Y57617D01*
X455156Y57649D01*
X455170Y57679D01*
X455208Y57836D01*
X455252Y57992D01*
X455254Y58026D01*
X455262Y58058D01*
X455267Y58220D01*
X455278Y58381D01*
X455273Y58414D01*
X455275Y58448D01*
X455247Y58607D01*
X455225Y58767D01*
X455213Y58799D01*
X455208Y58832D01*
X455148Y58982D01*
X455094Y59135D01*
X455076Y59163D01*
X455064Y59194D01*
X454975Y59329D01*
X454891Y59467D01*
X454868Y59492D01*
X454850Y59520D01*
X454735Y59634D01*
X454624Y59752D01*
X454597Y59771D01*
X454574Y59795D01*
X454438Y59883D01*
X454306Y59976D01*
X454275Y59989D01*
X454247Y60008D01*
X454097Y60067D01*
X453948Y60131D01*
X453915Y60138D01*
X453884Y60150D01*
X453802Y60161D01*
X453566Y60210D01*
X453447Y60209D01*
X453375Y60219D01*
X444797Y60219D01*
X444681Y60207D01*
X444565Y60205D01*
X444504Y60189D01*
X444409Y60179D01*
X444128Y60090D01*
X444068Y60074D01*
X442863Y59575D01*
X441095Y59575D01*
X439461Y60252D01*
X430231Y69482D01*
X429887Y70312D01*
X429822Y70433D01*
X429764Y70557D01*
X429730Y70604D01*
X429702Y70655D01*
X429614Y70760D01*
X429532Y70870D01*
X429488Y70909D01*
X429451Y70953D01*
X429343Y71038D01*
X429241Y71129D01*
X429190Y71158D01*
X429144Y71194D01*
X429021Y71255D01*
X428903Y71323D01*
X428847Y71341D01*
X428795Y71367D01*
X428662Y71402D01*
X428532Y71444D01*
X428474Y71451D01*
X428418Y71466D01*
X428281Y71473D01*
X428145Y71488D01*
X428098Y71482D01*
X428028Y71485D01*
X427643Y71425D01*
X427639Y71423D01*
X427635Y71423D01*
X426874Y71219D01*
X422904Y71219D01*
X422904Y79300D01*
X422898Y79366D01*
X422900Y79432D01*
X422878Y79559D01*
X422864Y79687D01*
X422844Y79751D01*
X422833Y79816D01*
X422786Y79936D01*
X422746Y80059D01*
X422714Y80117D01*
X422689Y80179D01*
X422619Y80286D01*
X422555Y80399D01*
X422512Y80449D01*
X422475Y80504D01*
X422475Y80505D01*
X422384Y80595D01*
X422299Y80692D01*
X422298Y80693D01*
X422246Y80733D01*
X422198Y80780D01*
X422090Y80850D01*
X421988Y80928D01*
X421928Y80956D01*
X421872Y80993D01*
X421752Y81040D01*
X421636Y81095D01*
X421571Y81111D01*
X421509Y81135D01*
X421422Y81147D01*
X421257Y81187D01*
X421087Y81193D01*
X421000Y81204D01*
X412919Y81204D01*
X412919Y85174D01*
X413127Y85949D01*
X413148Y85997D01*
X413151Y86009D01*
X413156Y86021D01*
X413192Y86198D01*
X413232Y86378D01*
X413232Y86390D01*
X413235Y86403D01*
X413234Y86585D01*
X413236Y86767D01*
X413234Y86780D01*
X413234Y86793D01*
X413196Y86971D01*
X413161Y87150D01*
X413156Y87162D01*
X413154Y87174D01*
X413081Y87341D01*
X413010Y87509D01*
X413003Y87520D01*
X412998Y87531D01*
X412966Y87573D01*
X412919Y87640D01*
X412919Y101151D01*
X412924Y101166D01*
X412950Y101227D01*
X412976Y101353D01*
X413011Y101477D01*
X413015Y101544D01*
X413029Y101609D01*
X413028Y101738D01*
X413037Y101866D01*
X413028Y101932D01*
X413028Y101999D01*
X413001Y102125D01*
X412984Y102252D01*
X412961Y102315D01*
X412948Y102380D01*
X412919Y102445D01*
X412919Y116145D01*
X412928Y116163D01*
X412934Y116191D01*
X412950Y116227D01*
X412976Y116353D01*
X413011Y116477D01*
X413013Y116516D01*
X413019Y116542D01*
X413020Y116569D01*
X413028Y116609D01*
X413028Y116738D01*
X413037Y116866D01*
X413031Y116906D01*
X413032Y116931D01*
X413028Y116957D01*
X413028Y116999D01*
X413001Y117125D01*
X412984Y117252D01*
X412970Y117292D01*
X412965Y117315D01*
X412956Y117338D01*
X412948Y117380D01*
X412919Y117445D01*
X412919Y131151D01*
X412923Y131166D01*
X412950Y131227D01*
X412976Y131353D01*
X413011Y131477D01*
X413015Y131544D01*
X413028Y131609D01*
X413028Y131738D01*
X413037Y131866D01*
X413028Y131932D01*
X413028Y131999D01*
X413001Y132125D01*
X412984Y132252D01*
X412961Y132315D01*
X412948Y132380D01*
X412919Y132445D01*
X412919Y146151D01*
X412923Y146166D01*
X412950Y146227D01*
X412976Y146353D01*
X413011Y146477D01*
X413015Y146544D01*
X413028Y146609D01*
X413028Y146738D01*
X413037Y146866D01*
X413028Y146932D01*
X413028Y146999D01*
X413001Y147125D01*
X412984Y147252D01*
X412961Y147315D01*
X412948Y147380D01*
X412919Y147445D01*
X412919Y161151D01*
X412923Y161166D01*
X412950Y161227D01*
X412976Y161353D01*
X413011Y161477D01*
X413015Y161544D01*
X413028Y161609D01*
X413028Y161738D01*
X413037Y161866D01*
X413028Y161932D01*
X413028Y161999D01*
X413001Y162125D01*
X412984Y162252D01*
X412961Y162315D01*
X412948Y162380D01*
X412919Y162445D01*
X412919Y176151D01*
X412924Y176166D01*
X412950Y176227D01*
X412976Y176353D01*
X413011Y176477D01*
X413015Y176544D01*
X413029Y176609D01*
X413028Y176738D01*
X413037Y176866D01*
X413028Y176932D01*
X413028Y176999D01*
X413001Y177125D01*
X412984Y177252D01*
X412961Y177315D01*
X412948Y177380D01*
X412919Y177445D01*
X412919Y191151D01*
X412923Y191166D01*
X412950Y191227D01*
X412976Y191353D01*
X413011Y191477D01*
X413015Y191544D01*
X413028Y191609D01*
X413028Y191738D01*
X413037Y191866D01*
X413028Y191932D01*
X413028Y191999D01*
X413001Y192125D01*
X412984Y192252D01*
X412961Y192315D01*
X412948Y192380D01*
X412919Y192445D01*
X412919Y193035D01*
X412916Y193068D01*
X412918Y193101D01*
X412896Y193262D01*
X412879Y193423D01*
X412869Y193454D01*
X412865Y193487D01*
X412810Y193640D01*
X412761Y193794D01*
X412745Y193823D01*
X412734Y193854D01*
X412650Y193993D01*
X412570Y194134D01*
X412548Y194159D01*
X412531Y194187D01*
X412420Y194305D01*
X412314Y194427D01*
X412287Y194447D01*
X412264Y194472D01*
X412132Y194565D01*
X412003Y194663D01*
X411973Y194677D01*
X411946Y194696D01*
X411797Y194760D01*
X411651Y194830D01*
X411619Y194838D01*
X411588Y194851D01*
X411429Y194884D01*
X411272Y194922D01*
X411239Y194923D01*
X411206Y194929D01*
X411044Y194929D01*
X410882Y194934D01*
X410850Y194929D01*
X410816Y194929D01*
X410658Y194895D01*
X410498Y194868D01*
X410467Y194855D01*
X410435Y194849D01*
X410286Y194784D01*
X410136Y194724D01*
X410108Y194706D01*
X410078Y194692D01*
X410011Y194642D01*
X409811Y194510D01*
X409727Y194425D01*
X409668Y194381D01*
X409250Y193963D01*
X364518Y149231D01*
X362884Y148554D01*
X286116Y148554D01*
X284482Y149231D01*
X266231Y167482D01*
X265554Y169116D01*
X265554Y195370D01*
X265544Y195469D01*
X265544Y195568D01*
X265524Y195662D01*
X265514Y195757D01*
X265484Y195852D01*
X265464Y195950D01*
X265425Y196038D01*
X265396Y196129D01*
X265347Y196216D01*
X265308Y196307D01*
X265264Y196365D01*
X265205Y196469D01*
X265047Y196650D01*
X264997Y196716D01*
X257331Y204381D01*
X257306Y204402D01*
X257284Y204427D01*
X257155Y204525D01*
X257029Y204627D01*
X257000Y204643D01*
X256973Y204663D01*
X256827Y204732D01*
X256683Y204807D01*
X256651Y204815D01*
X256621Y204830D01*
X256464Y204868D01*
X256308Y204912D01*
X256274Y204914D01*
X256242Y204922D01*
X256080Y204927D01*
X255919Y204938D01*
X255886Y204933D01*
X255852Y204934D01*
X255693Y204907D01*
X255533Y204885D01*
X255501Y204873D01*
X255468Y204868D01*
X255318Y204808D01*
X255165Y204754D01*
X255137Y204736D01*
X255106Y204724D01*
X254971Y204635D01*
X254833Y204551D01*
X254808Y204528D01*
X254780Y204510D01*
X254666Y204395D01*
X254548Y204284D01*
X254529Y204257D01*
X254505Y204234D01*
X254417Y204098D01*
X254324Y203966D01*
X254311Y203935D01*
X254292Y203907D01*
X254233Y203756D01*
X254169Y203608D01*
X254162Y203575D01*
X254150Y203544D01*
X254139Y203462D01*
X254090Y203226D01*
X254091Y203107D01*
X254081Y203035D01*
X254081Y201204D01*
X247904Y201204D01*
X247904Y207381D01*
X249735Y207381D01*
X249768Y207384D01*
X249801Y207382D01*
X249962Y207404D01*
X250123Y207421D01*
X250154Y207431D01*
X250187Y207435D01*
X250340Y207490D01*
X250494Y207539D01*
X250523Y207555D01*
X250554Y207566D01*
X250693Y207650D01*
X250834Y207730D01*
X250859Y207752D01*
X250887Y207769D01*
X251006Y207880D01*
X251127Y207986D01*
X251147Y208013D01*
X251172Y208035D01*
X251265Y208168D01*
X251363Y208297D01*
X251377Y208327D01*
X251396Y208354D01*
X251460Y208503D01*
X251530Y208649D01*
X251538Y208681D01*
X251551Y208712D01*
X251583Y208871D01*
X251622Y209028D01*
X251623Y209061D01*
X251629Y209094D01*
X251629Y209256D01*
X251634Y209418D01*
X251629Y209450D01*
X251629Y209484D01*
X251595Y209642D01*
X251568Y209802D01*
X251555Y209832D01*
X251549Y209865D01*
X251484Y210014D01*
X251424Y210164D01*
X251406Y210192D01*
X251392Y210222D01*
X251342Y210289D01*
X251210Y210489D01*
X251125Y210573D01*
X251081Y210631D01*
X236716Y224997D01*
X236639Y225059D01*
X236568Y225130D01*
X236488Y225182D01*
X236414Y225242D01*
X236326Y225288D01*
X236242Y225343D01*
X236153Y225378D01*
X236068Y225422D01*
X235972Y225449D01*
X235879Y225485D01*
X235807Y225495D01*
X235692Y225527D01*
X235452Y225543D01*
X235370Y225554D01*
X171316Y225554D01*
X169682Y226231D01*
X156215Y239698D01*
X156138Y239760D01*
X156067Y239831D01*
X155987Y239883D01*
X155913Y239943D01*
X155825Y239989D01*
X155741Y240044D01*
X155652Y240079D01*
X155567Y240123D01*
X155471Y240150D01*
X155378Y240186D01*
X155306Y240196D01*
X155191Y240228D01*
X154951Y240244D01*
X154869Y240255D01*
X149012Y240255D01*
X143655Y245612D01*
X143655Y253188D01*
X149012Y258545D01*
X156588Y258545D01*
X161945Y253188D01*
X161945Y247331D01*
X161955Y247232D01*
X161955Y247133D01*
X161975Y247039D01*
X161985Y246944D01*
X162015Y246849D01*
X162035Y246751D01*
X162074Y246663D01*
X162103Y246572D01*
X162152Y246485D01*
X162191Y246394D01*
X162236Y246336D01*
X162294Y246232D01*
X162452Y246051D01*
X162502Y245985D01*
X173484Y235003D01*
X173561Y234941D01*
X173632Y234870D01*
X173712Y234818D01*
X173786Y234758D01*
X173874Y234712D01*
X173958Y234657D01*
X174047Y234622D01*
X174132Y234578D01*
X174228Y234551D01*
X174321Y234515D01*
X174393Y234505D01*
X174508Y234473D01*
X174748Y234457D01*
X174830Y234446D01*
X238884Y234446D01*
X240518Y233769D01*
X273769Y200518D01*
X274446Y198884D01*
X274446Y176029D01*
X274447Y176013D01*
X274446Y175996D01*
X274467Y175819D01*
X274486Y175642D01*
X274491Y175626D01*
X274493Y175609D01*
X274550Y175440D01*
X274604Y175270D01*
X274612Y175256D01*
X274617Y175240D01*
X274707Y175086D01*
X274795Y174930D01*
X274806Y174918D01*
X274814Y174903D01*
X274934Y174771D01*
X275051Y174637D01*
X275064Y174627D01*
X275076Y174614D01*
X275220Y174509D01*
X275362Y174401D01*
X275377Y174394D01*
X275390Y174385D01*
X275553Y174311D01*
X275714Y174234D01*
X275730Y174230D01*
X275745Y174224D01*
X275919Y174185D01*
X276093Y174143D01*
X276110Y174142D01*
X276126Y174138D01*
X276304Y174136D01*
X276483Y174130D01*
X276499Y174133D01*
X276516Y174132D01*
X276691Y174166D01*
X276867Y174197D01*
X276882Y174203D01*
X276898Y174206D01*
X277064Y174275D01*
X277229Y174340D01*
X277243Y174349D01*
X277258Y174356D01*
X277406Y174457D01*
X277554Y174554D01*
X277566Y174566D01*
X277580Y174576D01*
X277704Y174704D01*
X277830Y174831D01*
X277839Y174845D01*
X277850Y174857D01*
X277881Y174910D01*
X278043Y175157D01*
X278078Y175247D01*
X278109Y175301D01*
X278640Y176582D01*
X280418Y178360D01*
X283067Y179457D01*
X283169Y179512D01*
X283276Y179559D01*
X283325Y179597D01*
X283410Y179642D01*
X283636Y179833D01*
X283685Y179870D01*
X298862Y195047D01*
X298924Y195124D01*
X298995Y195195D01*
X299047Y195275D01*
X299107Y195349D01*
X299153Y195437D01*
X299208Y195521D01*
X299243Y195610D01*
X299287Y195695D01*
X299314Y195791D01*
X299350Y195884D01*
X299360Y195956D01*
X299392Y196071D01*
X299408Y196311D01*
X299419Y196393D01*
X299419Y280442D01*
X299401Y280616D01*
X299387Y280789D01*
X299382Y280809D01*
X299379Y280830D01*
X299327Y280996D01*
X299278Y281163D01*
X299268Y281182D01*
X299261Y281202D01*
X299176Y281353D01*
X299094Y281507D01*
X299080Y281523D01*
X299070Y281541D01*
X298956Y281672D01*
X298844Y281806D01*
X298828Y281819D01*
X298814Y281835D01*
X298675Y281940D01*
X298538Y282048D01*
X298520Y282058D01*
X298503Y282070D01*
X298346Y282145D01*
X298190Y282223D01*
X298170Y282228D01*
X298151Y282237D01*
X297982Y282278D01*
X297813Y282323D01*
X297792Y282324D01*
X297772Y282329D01*
X297598Y282335D01*
X297424Y282344D01*
X297403Y282341D01*
X297382Y282342D01*
X297211Y282312D01*
X297039Y282286D01*
X297022Y282279D01*
X296998Y282275D01*
X296636Y282132D01*
X296595Y282105D01*
X296563Y282091D01*
X296331Y281957D01*
X295684Y281784D01*
X290904Y281784D01*
X290904Y287500D01*
X290904Y293216D01*
X295684Y293216D01*
X296331Y293043D01*
X296953Y292683D01*
X297127Y292605D01*
X297301Y292526D01*
X297305Y292525D01*
X297309Y292524D01*
X297498Y292482D01*
X297681Y292441D01*
X297686Y292441D01*
X297690Y292440D01*
X297883Y292438D01*
X298071Y292435D01*
X298075Y292436D01*
X298080Y292436D01*
X298269Y292473D01*
X298454Y292509D01*
X298458Y292510D01*
X298462Y292511D01*
X298639Y292586D01*
X298814Y292658D01*
X298817Y292661D01*
X298821Y292663D01*
X298979Y292772D01*
X299136Y292878D01*
X299139Y292882D01*
X299142Y292884D01*
X299275Y293023D01*
X299406Y293159D01*
X299408Y293163D01*
X299411Y293166D01*
X299617Y293497D01*
X299641Y293562D01*
X299665Y293603D01*
X300314Y295171D01*
X300348Y295283D01*
X300390Y295391D01*
X300398Y295453D01*
X300426Y295545D01*
X300451Y295839D01*
X300459Y295900D01*
X300459Y305597D01*
X300510Y305660D01*
X300541Y305719D01*
X300579Y305773D01*
X300630Y305891D01*
X300690Y306006D01*
X300707Y306070D01*
X300734Y306131D01*
X300760Y306257D01*
X300795Y306381D01*
X300799Y306448D01*
X300812Y306513D01*
X300812Y306642D01*
X300821Y306770D01*
X300812Y306836D01*
X300812Y306903D01*
X300785Y307029D01*
X300768Y307156D01*
X300745Y307219D01*
X300732Y307284D01*
X300680Y307402D01*
X300637Y307523D01*
X300602Y307580D01*
X300575Y307641D01*
X300522Y307711D01*
X300434Y307856D01*
X300317Y307981D01*
X300264Y308050D01*
X288088Y320227D01*
X288011Y320289D01*
X287940Y320360D01*
X287860Y320412D01*
X287786Y320472D01*
X287698Y320518D01*
X287614Y320573D01*
X287525Y320608D01*
X287440Y320652D01*
X287344Y320679D01*
X287251Y320715D01*
X287179Y320725D01*
X287064Y320757D01*
X286824Y320773D01*
X286742Y320784D01*
X281598Y320784D01*
X281520Y320861D01*
X281443Y320924D01*
X281373Y320995D01*
X281292Y321047D01*
X281218Y321107D01*
X281130Y321153D01*
X281046Y321208D01*
X280957Y321243D01*
X280872Y321287D01*
X280776Y321314D01*
X280683Y321350D01*
X280611Y321360D01*
X280497Y321392D01*
X280256Y321408D01*
X280174Y321419D01*
X239826Y321419D01*
X239727Y321409D01*
X239627Y321409D01*
X239533Y321389D01*
X239438Y321379D01*
X239344Y321349D01*
X239246Y321329D01*
X239158Y321290D01*
X239067Y321261D01*
X238980Y321213D01*
X238889Y321173D01*
X238831Y321128D01*
X238727Y321070D01*
X238546Y320912D01*
X238480Y320861D01*
X238402Y320784D01*
X223598Y320784D01*
X222109Y322273D01*
X222109Y330727D01*
X223598Y332216D01*
X238402Y332216D01*
X238480Y332139D01*
X238557Y332076D01*
X238627Y332005D01*
X238708Y331953D01*
X238782Y331893D01*
X238870Y331847D01*
X238954Y331792D01*
X239043Y331757D01*
X239128Y331713D01*
X239224Y331686D01*
X239317Y331650D01*
X239389Y331640D01*
X239503Y331608D01*
X239744Y331592D01*
X239826Y331581D01*
X280174Y331581D01*
X280273Y331591D01*
X280373Y331591D01*
X280467Y331611D01*
X280562Y331621D01*
X280656Y331651D01*
X280754Y331671D01*
X280842Y331710D01*
X280933Y331739D01*
X281020Y331787D01*
X281111Y331827D01*
X281169Y331872D01*
X281273Y331930D01*
X281454Y332088D01*
X281520Y332139D01*
X281598Y332216D01*
X296402Y332216D01*
X297891Y330727D01*
X297891Y325583D01*
X297901Y325484D01*
X297901Y325385D01*
X297921Y325291D01*
X297931Y325196D01*
X297961Y325101D01*
X297981Y325003D01*
X298020Y324915D01*
X298049Y324824D01*
X298098Y324737D01*
X298137Y324646D01*
X298182Y324588D01*
X298240Y324484D01*
X298398Y324303D01*
X298448Y324237D01*
X313807Y308878D01*
X314081Y308216D01*
X314121Y308143D01*
X314151Y308066D01*
X314213Y307972D01*
X314267Y307873D01*
X314320Y307810D01*
X314366Y307740D01*
X314445Y307661D01*
X314518Y307575D01*
X314583Y307524D01*
X314642Y307465D01*
X314736Y307404D01*
X314824Y307335D01*
X314899Y307298D01*
X314968Y307252D01*
X315073Y307211D01*
X315174Y307161D01*
X315254Y307140D01*
X315331Y307110D01*
X315412Y307099D01*
X315551Y307063D01*
X315752Y307053D01*
X315841Y307041D01*
X317052Y307041D01*
X317653Y306440D01*
X317705Y306398D01*
X317750Y306349D01*
X317856Y306275D01*
X317956Y306194D01*
X318015Y306163D01*
X318069Y306125D01*
X318187Y306074D01*
X318302Y306014D01*
X318366Y305996D01*
X318427Y305970D01*
X318553Y305944D01*
X318677Y305909D01*
X318744Y305905D01*
X318809Y305892D01*
X318938Y305892D01*
X319066Y305883D01*
X319132Y305892D01*
X319199Y305892D01*
X319325Y305919D01*
X319452Y305936D01*
X319515Y305959D01*
X319580Y305972D01*
X319698Y306024D01*
X319820Y306067D01*
X319876Y306102D01*
X319937Y306129D01*
X320007Y306182D01*
X320152Y306270D01*
X320277Y306387D01*
X320346Y306440D01*
X320948Y307041D01*
X327551Y307041D01*
X327568Y307042D01*
X327584Y307041D01*
X327762Y307062D01*
X327939Y307081D01*
X327955Y307086D01*
X327971Y307088D01*
X328141Y307145D01*
X328310Y307199D01*
X328325Y307207D01*
X328341Y307212D01*
X328495Y307302D01*
X328650Y307390D01*
X328663Y307401D01*
X328677Y307409D01*
X328809Y307529D01*
X328944Y307646D01*
X328954Y307659D01*
X328966Y307671D01*
X329071Y307815D01*
X329179Y307957D01*
X329186Y307972D01*
X329196Y307985D01*
X329270Y308148D01*
X329346Y308309D01*
X329350Y308325D01*
X329357Y308341D01*
X329396Y308516D01*
X329438Y308688D01*
X329438Y308704D01*
X329442Y308721D01*
X329445Y308900D01*
X329451Y309078D01*
X329448Y309094D01*
X329448Y309111D01*
X329414Y309286D01*
X329384Y309462D01*
X329378Y309477D01*
X329375Y309493D01*
X329306Y309659D01*
X329240Y309824D01*
X329231Y309838D01*
X329225Y309853D01*
X329124Y310001D01*
X329026Y310149D01*
X329014Y310161D01*
X329005Y310175D01*
X328876Y310299D01*
X328750Y310425D01*
X328736Y310434D01*
X328724Y310445D01*
X328670Y310476D01*
X328423Y310638D01*
X328334Y310673D01*
X328280Y310704D01*
X327817Y310896D01*
X267316Y371397D01*
X267239Y371459D01*
X267168Y371530D01*
X267088Y371582D01*
X267014Y371642D01*
X266926Y371688D01*
X266842Y371743D01*
X266753Y371778D01*
X266668Y371822D01*
X266572Y371849D01*
X266479Y371885D01*
X266407Y371895D01*
X266292Y371927D01*
X266052Y371943D01*
X265970Y371954D01*
X256945Y371954D01*
X256879Y371947D01*
X256812Y371950D01*
X256685Y371928D01*
X256557Y371914D01*
X256494Y371894D01*
X256428Y371883D01*
X256309Y371835D01*
X256186Y371796D01*
X256128Y371764D01*
X256066Y371739D01*
X255959Y371668D01*
X255846Y371605D01*
X255796Y371561D01*
X255740Y371525D01*
X255649Y371434D01*
X255552Y371349D01*
X255512Y371296D01*
X255465Y371249D01*
X255395Y371141D01*
X255317Y371038D01*
X255289Y370978D01*
X255252Y370922D01*
X255205Y370802D01*
X255150Y370686D01*
X255134Y370621D01*
X255110Y370559D01*
X255098Y370473D01*
X255058Y370307D01*
X255053Y370137D01*
X255041Y370050D01*
X255041Y368848D01*
X254440Y368247D01*
X254398Y368195D01*
X254349Y368149D01*
X254275Y368044D01*
X254194Y367944D01*
X254163Y367885D01*
X254125Y367831D01*
X254074Y367712D01*
X254014Y367598D01*
X253996Y367534D01*
X253970Y367473D01*
X253944Y367347D01*
X253909Y367223D01*
X253905Y367156D01*
X253892Y367091D01*
X253892Y366962D01*
X253883Y366834D01*
X253892Y366768D01*
X253892Y366701D01*
X253919Y366575D01*
X253936Y366448D01*
X253959Y366385D01*
X253972Y366320D01*
X254024Y366201D01*
X254067Y366080D01*
X254102Y366024D01*
X254129Y365963D01*
X254182Y365893D01*
X254270Y365748D01*
X254387Y365623D01*
X254440Y365553D01*
X254533Y365460D01*
X254868Y364881D01*
X255041Y364234D01*
X255041Y360649D01*
X246345Y360649D01*
X246279Y360642D01*
X246213Y360645D01*
X246086Y360623D01*
X245957Y360609D01*
X245894Y360589D01*
X245829Y360578D01*
X245709Y360530D01*
X245586Y360491D01*
X245528Y360459D01*
X245466Y360434D01*
X245359Y360363D01*
X245246Y360300D01*
X245196Y360256D01*
X245141Y360220D01*
X245050Y360129D01*
X245000Y360085D01*
X244954Y360138D01*
X244901Y360178D01*
X244854Y360225D01*
X244746Y360295D01*
X244643Y360373D01*
X244583Y360401D01*
X244527Y360438D01*
X244407Y360485D01*
X244291Y360540D01*
X244226Y360556D01*
X244164Y360580D01*
X244077Y360592D01*
X243912Y360632D01*
X243742Y360637D01*
X243655Y360649D01*
X234959Y360649D01*
X234959Y364234D01*
X235132Y364881D01*
X235467Y365460D01*
X235560Y365553D01*
X235602Y365605D01*
X235651Y365651D01*
X235725Y365756D01*
X235806Y365856D01*
X235837Y365915D01*
X235875Y365969D01*
X235926Y366088D01*
X235986Y366202D01*
X236003Y366266D01*
X236030Y366327D01*
X236056Y366453D01*
X236091Y366577D01*
X236095Y366644D01*
X236108Y366709D01*
X236108Y366838D01*
X236117Y366966D01*
X236108Y367032D01*
X236108Y367099D01*
X236081Y367225D01*
X236064Y367352D01*
X236041Y367415D01*
X236028Y367480D01*
X235976Y367598D01*
X235933Y367720D01*
X235898Y367776D01*
X235871Y367837D01*
X235818Y367907D01*
X235730Y368052D01*
X235613Y368177D01*
X235560Y368247D01*
X234959Y368848D01*
X234959Y370050D01*
X234952Y370116D01*
X234955Y370183D01*
X234933Y370310D01*
X234919Y370438D01*
X234899Y370501D01*
X234888Y370567D01*
X234840Y370686D01*
X234801Y370809D01*
X234769Y370867D01*
X234744Y370929D01*
X234673Y371036D01*
X234610Y371149D01*
X234566Y371199D01*
X234530Y371255D01*
X234439Y371346D01*
X234354Y371443D01*
X234301Y371483D01*
X234254Y371530D01*
X234146Y371600D01*
X234043Y371678D01*
X233983Y371706D01*
X233927Y371743D01*
X233807Y371790D01*
X233691Y371845D01*
X233626Y371861D01*
X233564Y371885D01*
X233478Y371897D01*
X233312Y371937D01*
X233142Y371942D01*
X233055Y371954D01*
X192790Y371954D01*
X192691Y371944D01*
X192592Y371944D01*
X192498Y371924D01*
X192403Y371914D01*
X192308Y371884D01*
X192210Y371864D01*
X192122Y371825D01*
X192031Y371796D01*
X191944Y371747D01*
X191853Y371708D01*
X191795Y371663D01*
X191691Y371605D01*
X191510Y371447D01*
X191444Y371397D01*
X189450Y369403D01*
X189388Y369326D01*
X189317Y369255D01*
X189265Y369175D01*
X189205Y369101D01*
X189159Y369013D01*
X189104Y368929D01*
X189069Y368840D01*
X189025Y368755D01*
X188998Y368659D01*
X188962Y368566D01*
X188952Y368494D01*
X188920Y368379D01*
X188904Y368139D01*
X188893Y368057D01*
X188893Y335218D01*
X187404Y333729D01*
X165996Y333729D01*
X164507Y335218D01*
X164507Y390662D01*
X165996Y392151D01*
X187404Y392151D01*
X188893Y390662D01*
X188893Y382750D01*
X188900Y382684D01*
X188897Y382617D01*
X188919Y382490D01*
X188933Y382362D01*
X188953Y382299D01*
X188964Y382233D01*
X189012Y382114D01*
X189051Y381991D01*
X189083Y381933D01*
X189108Y381871D01*
X189179Y381764D01*
X189242Y381651D01*
X189286Y381601D01*
X189322Y381545D01*
X189413Y381454D01*
X189498Y381357D01*
X189551Y381317D01*
X189598Y381270D01*
X189706Y381200D01*
X189809Y381122D01*
X189869Y381094D01*
X189925Y381057D01*
X190045Y381010D01*
X190161Y380955D01*
X190226Y380939D01*
X190288Y380915D01*
X190374Y380903D01*
X190540Y380863D01*
X190710Y380858D01*
X190797Y380846D01*
X233055Y380846D01*
X233121Y380853D01*
X233188Y380850D01*
X233315Y380872D01*
X233443Y380886D01*
X233506Y380906D01*
X233572Y380917D01*
X233691Y380965D01*
X233814Y381004D01*
X233872Y381036D01*
X233934Y381061D01*
X234041Y381132D01*
X234154Y381195D01*
X234204Y381239D01*
X234260Y381275D01*
X234351Y381366D01*
X234448Y381451D01*
X234488Y381504D01*
X234535Y381551D01*
X234605Y381659D01*
X234683Y381762D01*
X234711Y381822D01*
X234748Y381878D01*
X234795Y381998D01*
X234850Y382114D01*
X234866Y382179D01*
X234890Y382241D01*
X234902Y382327D01*
X234942Y382493D01*
X234947Y382663D01*
X234959Y382750D01*
X234959Y383952D01*
X236448Y385441D01*
X253552Y385441D01*
X255041Y383952D01*
X255041Y382750D01*
X255048Y382684D01*
X255045Y382617D01*
X255067Y382490D01*
X255081Y382362D01*
X255101Y382299D01*
X255112Y382233D01*
X255160Y382114D01*
X255199Y381991D01*
X255231Y381933D01*
X255256Y381871D01*
X255327Y381764D01*
X255390Y381651D01*
X255434Y381601D01*
X255470Y381545D01*
X255561Y381454D01*
X255646Y381357D01*
X255699Y381317D01*
X255746Y381270D01*
X255854Y381200D01*
X255957Y381122D01*
X256017Y381094D01*
X256073Y381057D01*
X256193Y381010D01*
X256309Y380955D01*
X256374Y380939D01*
X256436Y380915D01*
X256522Y380903D01*
X256688Y380863D01*
X256858Y380858D01*
X256945Y380846D01*
X266067Y380846D01*
X266117Y380851D01*
X266166Y380848D01*
X266310Y380871D01*
X266455Y380886D01*
X266502Y380901D01*
X266552Y380908D01*
X266688Y380960D01*
X266826Y381004D01*
X266870Y381028D01*
X266916Y381046D01*
X267039Y381123D01*
X267166Y381195D01*
X267204Y381228D01*
X267246Y381254D01*
X267350Y381355D01*
X267460Y381451D01*
X267490Y381491D01*
X267525Y381526D01*
X267607Y381646D01*
X267695Y381762D01*
X267716Y381807D01*
X267744Y381848D01*
X267800Y381983D01*
X267862Y382114D01*
X267874Y382163D01*
X267893Y382209D01*
X267920Y382352D01*
X267954Y382493D01*
X267955Y382543D01*
X267965Y382592D01*
X267962Y382738D01*
X267967Y382883D01*
X267958Y382932D01*
X267957Y382982D01*
X267934Y383068D01*
X267900Y383267D01*
X267847Y383400D01*
X267826Y383479D01*
X267801Y383539D01*
X267801Y406105D01*
X267791Y406204D01*
X267791Y406304D01*
X267771Y406398D01*
X267761Y406493D01*
X267731Y406588D01*
X267711Y406685D01*
X267672Y406773D01*
X267643Y406864D01*
X267594Y406951D01*
X267555Y407042D01*
X267510Y407100D01*
X267452Y407204D01*
X267294Y407385D01*
X267244Y407451D01*
X258291Y416404D01*
X258266Y416425D01*
X258244Y416450D01*
X258115Y416547D01*
X257989Y416650D01*
X257960Y416665D01*
X257933Y416685D01*
X257787Y416754D01*
X257643Y416829D01*
X257611Y416838D01*
X257581Y416852D01*
X257424Y416890D01*
X257268Y416934D01*
X257234Y416936D01*
X257202Y416944D01*
X257040Y416949D01*
X256879Y416960D01*
X256846Y416956D01*
X256812Y416957D01*
X256653Y416929D01*
X256493Y416907D01*
X256461Y416896D01*
X256428Y416890D01*
X256278Y416830D01*
X256125Y416776D01*
X256097Y416759D01*
X256066Y416746D01*
X255931Y416657D01*
X255793Y416573D01*
X255768Y416550D01*
X255740Y416532D01*
X255626Y416417D01*
X255508Y416307D01*
X255489Y416279D01*
X255465Y416256D01*
X255377Y416120D01*
X255284Y415988D01*
X255271Y415957D01*
X255252Y415929D01*
X255193Y415779D01*
X255129Y415630D01*
X255122Y415597D01*
X255110Y415566D01*
X255099Y415484D01*
X255050Y415248D01*
X255051Y415129D01*
X255041Y415057D01*
X255041Y414348D01*
X254440Y413747D01*
X254398Y413695D01*
X254349Y413649D01*
X254275Y413544D01*
X254194Y413444D01*
X254163Y413385D01*
X254125Y413331D01*
X254074Y413212D01*
X254014Y413098D01*
X253996Y413034D01*
X253970Y412973D01*
X253944Y412847D01*
X253909Y412723D01*
X253905Y412656D01*
X253892Y412591D01*
X253892Y412462D01*
X253883Y412334D01*
X253892Y412268D01*
X253892Y412201D01*
X253919Y412075D01*
X253936Y411948D01*
X253959Y411885D01*
X253972Y411820D01*
X254024Y411701D01*
X254067Y411580D01*
X254102Y411524D01*
X254129Y411463D01*
X254182Y411393D01*
X254270Y411248D01*
X254387Y411123D01*
X254440Y411053D01*
X254533Y410960D01*
X254868Y410381D01*
X255041Y409734D01*
X255041Y406149D01*
X246345Y406149D01*
X246279Y406142D01*
X246213Y406145D01*
X246086Y406123D01*
X245957Y406109D01*
X245894Y406089D01*
X245829Y406078D01*
X245709Y406030D01*
X245586Y405991D01*
X245528Y405959D01*
X245466Y405934D01*
X245359Y405863D01*
X245246Y405800D01*
X245196Y405756D01*
X245141Y405720D01*
X245050Y405629D01*
X245000Y405585D01*
X244954Y405638D01*
X244901Y405678D01*
X244854Y405725D01*
X244746Y405795D01*
X244643Y405873D01*
X244583Y405901D01*
X244527Y405938D01*
X244407Y405985D01*
X244291Y406040D01*
X244226Y406056D01*
X244164Y406080D01*
X244077Y406092D01*
X243912Y406132D01*
X243742Y406137D01*
X243655Y406149D01*
X234959Y406149D01*
X234959Y409734D01*
X235132Y410381D01*
X235467Y410960D01*
X235560Y411053D01*
X235602Y411105D01*
X235651Y411151D01*
X235725Y411256D01*
X235806Y411356D01*
X235837Y411415D01*
X235875Y411469D01*
X235926Y411588D01*
X235986Y411702D01*
X236003Y411766D01*
X236030Y411827D01*
X236056Y411953D01*
X236091Y412077D01*
X236095Y412144D01*
X236108Y412209D01*
X236108Y412338D01*
X236117Y412466D01*
X236108Y412532D01*
X236108Y412599D01*
X236081Y412725D01*
X236064Y412852D01*
X236041Y412915D01*
X236028Y412980D01*
X235976Y413098D01*
X235933Y413220D01*
X235898Y413276D01*
X235871Y413337D01*
X235818Y413407D01*
X235730Y413552D01*
X235613Y413677D01*
X235560Y413747D01*
X234959Y414348D01*
X234959Y415550D01*
X234952Y415616D01*
X234955Y415683D01*
X234933Y415810D01*
X234919Y415938D01*
X234899Y416001D01*
X234888Y416067D01*
X234840Y416186D01*
X234801Y416309D01*
X234769Y416367D01*
X234744Y416429D01*
X234673Y416536D01*
X234610Y416649D01*
X234566Y416699D01*
X234530Y416755D01*
X234439Y416846D01*
X234354Y416943D01*
X234301Y416983D01*
X234254Y417030D01*
X234146Y417100D01*
X234043Y417178D01*
X233983Y417206D01*
X233927Y417243D01*
X233807Y417290D01*
X233691Y417345D01*
X233626Y417361D01*
X233564Y417385D01*
X233478Y417397D01*
X233312Y417437D01*
X233142Y417442D01*
X233055Y417454D01*
X213376Y417454D01*
X211742Y418131D01*
X210223Y419650D01*
X192143Y437729D01*
X192118Y437750D01*
X192096Y437775D01*
X191967Y437873D01*
X191841Y437975D01*
X191812Y437991D01*
X191785Y438011D01*
X191639Y438080D01*
X191495Y438155D01*
X191463Y438163D01*
X191433Y438178D01*
X191276Y438216D01*
X191120Y438260D01*
X191086Y438262D01*
X191054Y438270D01*
X190892Y438275D01*
X190731Y438286D01*
X190698Y438281D01*
X190664Y438282D01*
X190505Y438255D01*
X190345Y438233D01*
X190313Y438221D01*
X190280Y438216D01*
X190130Y438156D01*
X189977Y438102D01*
X189949Y438084D01*
X189918Y438072D01*
X189783Y437983D01*
X189645Y437899D01*
X189620Y437876D01*
X189592Y437858D01*
X189478Y437743D01*
X189360Y437632D01*
X189341Y437605D01*
X189317Y437582D01*
X189229Y437446D01*
X189136Y437314D01*
X189123Y437283D01*
X189104Y437255D01*
X189045Y437104D01*
X188981Y436956D01*
X188974Y436923D01*
X188962Y436892D01*
X188951Y436810D01*
X188902Y436574D01*
X188903Y436455D01*
X188893Y436383D01*
X188893Y431738D01*
X187404Y430249D01*
X165996Y430249D01*
X164507Y431738D01*
X164507Y487935D01*
X164500Y488001D01*
X164503Y488068D01*
X164481Y488195D01*
X164467Y488323D01*
X164447Y488386D01*
X164436Y488452D01*
X164388Y488571D01*
X164349Y488694D01*
X164317Y488752D01*
X164292Y488814D01*
X164221Y488921D01*
X164158Y489034D01*
X164114Y489084D01*
X164078Y489140D01*
X163987Y489231D01*
X163902Y489328D01*
X163849Y489368D01*
X163802Y489415D01*
X163694Y489485D01*
X163591Y489563D01*
X163531Y489591D01*
X163475Y489628D01*
X163355Y489675D01*
X163239Y489730D01*
X163174Y489746D01*
X163112Y489770D01*
X163026Y489782D01*
X162860Y489822D01*
X162690Y489827D01*
X162603Y489839D01*
X30065Y489839D01*
X29999Y489832D01*
X29932Y489835D01*
X29805Y489813D01*
X29677Y489799D01*
X29614Y489779D01*
X29548Y489768D01*
X29429Y489720D01*
X29306Y489681D01*
X29248Y489649D01*
X29186Y489624D01*
X29079Y489553D01*
X28966Y489490D01*
X28916Y489446D01*
X28860Y489410D01*
X28769Y489319D01*
X28672Y489234D01*
X28632Y489181D01*
X28585Y489134D01*
X28515Y489026D01*
X28437Y488923D01*
X28409Y488863D01*
X28372Y488807D01*
X28325Y488687D01*
X28270Y488571D01*
X28254Y488506D01*
X28230Y488444D01*
X28218Y488358D01*
X28178Y488192D01*
X28173Y488022D01*
X28161Y487935D01*
X28161Y481984D01*
X25853Y476412D01*
X21588Y472147D01*
X16016Y469839D01*
X12065Y469839D01*
X11999Y469832D01*
X11932Y469835D01*
X11805Y469813D01*
X11677Y469799D01*
X11614Y469779D01*
X11548Y469768D01*
X11429Y469720D01*
X11306Y469681D01*
X11248Y469649D01*
X11186Y469624D01*
X11079Y469553D01*
X10966Y469490D01*
X10916Y469446D01*
X10860Y469410D01*
X10769Y469319D01*
X10672Y469234D01*
X10632Y469181D01*
X10585Y469134D01*
X10515Y469026D01*
X10437Y468923D01*
X10409Y468863D01*
X10372Y468807D01*
X10325Y468687D01*
X10270Y468571D01*
X10254Y468506D01*
X10230Y468444D01*
X10218Y468358D01*
X10178Y468192D01*
X10173Y468022D01*
X10161Y467935D01*
X10161Y299795D01*
X10179Y299622D01*
X10193Y299448D01*
X10199Y299428D01*
X10201Y299407D01*
X10253Y299242D01*
X10303Y299074D01*
X10312Y299055D01*
X10319Y299036D01*
X10404Y298884D01*
X10486Y298730D01*
X10500Y298714D01*
X10510Y298696D01*
X10624Y298565D01*
X10736Y298431D01*
X10753Y298418D01*
X10766Y298403D01*
X10905Y298297D01*
X11042Y298189D01*
X11061Y298180D01*
X11077Y298167D01*
X11235Y298092D01*
X11391Y298014D01*
X11410Y298009D01*
X11429Y298000D01*
X11599Y297959D01*
X11767Y297914D01*
X11788Y297913D01*
X11808Y297908D01*
X11982Y297903D01*
X12157Y297893D01*
X12177Y297896D01*
X12198Y297896D01*
X12369Y297925D01*
X12542Y297952D01*
X12558Y297958D01*
X12582Y297962D01*
X12651Y297990D01*
X13476Y298211D01*
X20811Y298211D01*
X20811Y286765D01*
X20818Y286699D01*
X20815Y286633D01*
X20837Y286506D01*
X20851Y286377D01*
X20871Y286314D01*
X20882Y286249D01*
X20930Y286129D01*
X20969Y286006D01*
X21001Y285948D01*
X21026Y285886D01*
X21096Y285779D01*
X21160Y285666D01*
X21163Y285663D01*
X21087Y285563D01*
X21059Y285503D01*
X21022Y285447D01*
X20975Y285327D01*
X20920Y285211D01*
X20904Y285146D01*
X20880Y285084D01*
X20868Y284997D01*
X20828Y284832D01*
X20823Y284662D01*
X20811Y284575D01*
X20811Y273129D01*
X13476Y273129D01*
X12715Y273333D01*
X12701Y273340D01*
X12681Y273345D01*
X12662Y273353D01*
X12491Y273391D01*
X12322Y273432D01*
X12302Y273432D01*
X12281Y273437D01*
X12106Y273439D01*
X11932Y273444D01*
X11912Y273441D01*
X11892Y273441D01*
X11720Y273408D01*
X11548Y273378D01*
X11529Y273370D01*
X11509Y273366D01*
X11348Y273298D01*
X11186Y273234D01*
X11169Y273223D01*
X11150Y273215D01*
X11006Y273115D01*
X10860Y273020D01*
X10846Y273005D01*
X10829Y272993D01*
X10709Y272867D01*
X10585Y272744D01*
X10574Y272726D01*
X10560Y272711D01*
X10468Y272563D01*
X10372Y272417D01*
X10365Y272398D01*
X10354Y272381D01*
X10294Y272217D01*
X10230Y272054D01*
X10228Y272037D01*
X10220Y272015D01*
X10163Y271629D01*
X10165Y271580D01*
X10161Y271545D01*
X10161Y145175D01*
X10168Y145109D01*
X10165Y145042D01*
X10187Y144915D01*
X10201Y144787D01*
X10221Y144724D01*
X10232Y144658D01*
X10280Y144539D01*
X10319Y144416D01*
X10351Y144358D01*
X10376Y144296D01*
X10447Y144189D01*
X10510Y144076D01*
X10554Y144026D01*
X10590Y143970D01*
X10681Y143879D01*
X10766Y143782D01*
X10819Y143742D01*
X10866Y143695D01*
X10974Y143625D01*
X11077Y143547D01*
X11137Y143519D01*
X11193Y143482D01*
X11313Y143435D01*
X11429Y143380D01*
X11494Y143364D01*
X11556Y143340D01*
X11642Y143328D01*
X11808Y143288D01*
X11978Y143283D01*
X12065Y143271D01*
X34862Y143271D01*
X36351Y141782D01*
X36351Y119678D01*
X34862Y118189D01*
X12065Y118189D01*
X11999Y118182D01*
X11932Y118185D01*
X11805Y118163D01*
X11677Y118149D01*
X11614Y118129D01*
X11548Y118118D01*
X11429Y118070D01*
X11306Y118031D01*
X11248Y117999D01*
X11186Y117974D01*
X11079Y117903D01*
X10966Y117840D01*
X10916Y117796D01*
X10860Y117760D01*
X10769Y117669D01*
X10672Y117584D01*
X10632Y117531D01*
X10585Y117484D01*
X10515Y117376D01*
X10437Y117273D01*
X10409Y117213D01*
X10372Y117157D01*
X10325Y117037D01*
X10270Y116921D01*
X10254Y116856D01*
X10230Y116794D01*
X10218Y116708D01*
X10178Y116542D01*
X10173Y116372D01*
X10161Y116285D01*
X10161Y12065D01*
X10168Y11999D01*
X10165Y11932D01*
X10187Y11805D01*
X10201Y11677D01*
X10221Y11614D01*
X10232Y11548D01*
X10280Y11429D01*
X10319Y11306D01*
X10351Y11248D01*
X10376Y11186D01*
X10447Y11079D01*
X10510Y10966D01*
X10554Y10916D01*
X10590Y10860D01*
X10681Y10769D01*
X10766Y10672D01*
X10819Y10632D01*
X10866Y10585D01*
X10974Y10515D01*
X11077Y10437D01*
X11137Y10409D01*
X11193Y10372D01*
X11313Y10325D01*
X11429Y10270D01*
X11494Y10254D01*
X11556Y10230D01*
X11642Y10218D01*
X11808Y10178D01*
X11978Y10173D01*
X12065Y10161D01*
X84035Y10161D01*
X84084Y10166D01*
G37*
G36*
X449066Y335777D02*
X449066Y335777D01*
X449132Y335775D01*
X449133Y335775D01*
X449260Y335797D01*
X449388Y335810D01*
X449451Y335830D01*
X449517Y335841D01*
X449636Y335889D01*
X449759Y335928D01*
X449817Y335961D01*
X449879Y335985D01*
X449987Y336056D01*
X450099Y336119D01*
X450149Y336163D01*
X450205Y336199D01*
X450296Y336291D01*
X450393Y336376D01*
X450433Y336428D01*
X450480Y336476D01*
X450550Y336584D01*
X450628Y336686D01*
X450656Y336746D01*
X450693Y336802D01*
X450740Y336922D01*
X450795Y337038D01*
X450811Y337103D01*
X450835Y337165D01*
X450847Y337252D01*
X450887Y337417D01*
X450893Y337587D01*
X450904Y337674D01*
X450904Y346565D01*
X452173Y346565D01*
X452202Y346559D01*
X452244Y346559D01*
X452285Y346552D01*
X452439Y346559D01*
X452592Y346560D01*
X452617Y346565D01*
X461451Y346565D01*
X461590Y346549D01*
X461624Y346554D01*
X461673Y346550D01*
X461777Y346565D01*
X463096Y346565D01*
X463096Y337674D01*
X463102Y337612D01*
X463100Y337559D01*
X463101Y337556D01*
X463100Y337542D01*
X463122Y337415D01*
X463135Y337287D01*
X463156Y337223D01*
X463167Y337158D01*
X463214Y337038D01*
X463253Y336915D01*
X463286Y336857D01*
X463311Y336795D01*
X463381Y336688D01*
X463445Y336575D01*
X463488Y336525D01*
X463525Y336470D01*
X463616Y336379D01*
X463701Y336282D01*
X463754Y336242D01*
X463801Y336195D01*
X463909Y336124D01*
X464012Y336046D01*
X464072Y336018D01*
X464127Y335982D01*
X464248Y335935D01*
X464364Y335879D01*
X464429Y335864D01*
X464490Y335839D01*
X464577Y335828D01*
X464743Y335788D01*
X464913Y335782D01*
X465000Y335770D01*
X465066Y335777D01*
X465132Y335775D01*
X465133Y335775D01*
X465260Y335797D01*
X465388Y335810D01*
X465451Y335830D01*
X465517Y335841D01*
X465636Y335889D01*
X465759Y335928D01*
X465817Y335961D01*
X465879Y335985D01*
X465987Y336056D01*
X466099Y336119D01*
X466149Y336163D01*
X466205Y336199D01*
X466296Y336291D01*
X466393Y336376D01*
X466433Y336428D01*
X466480Y336476D01*
X466550Y336584D01*
X466628Y336686D01*
X466656Y336746D01*
X466693Y336802D01*
X466740Y336922D01*
X466795Y337038D01*
X466811Y337103D01*
X466835Y337165D01*
X466847Y337252D01*
X466887Y337417D01*
X466893Y337587D01*
X466904Y337674D01*
X466904Y346565D01*
X468173Y346565D01*
X468202Y346559D01*
X468244Y346559D01*
X468285Y346552D01*
X468439Y346559D01*
X468592Y346560D01*
X468617Y346565D01*
X493131Y346565D01*
X493197Y346572D01*
X493264Y346569D01*
X493391Y346591D01*
X493519Y346605D01*
X493582Y346625D01*
X493648Y346636D01*
X493767Y346684D01*
X493890Y346723D01*
X493948Y346755D01*
X494010Y346780D01*
X494117Y346851D01*
X494230Y346914D01*
X494280Y346958D01*
X494336Y346994D01*
X494427Y347085D01*
X494524Y347170D01*
X494564Y347223D01*
X494611Y347270D01*
X494681Y347378D01*
X494759Y347481D01*
X494787Y347541D01*
X494824Y347597D01*
X494871Y347717D01*
X494926Y347833D01*
X494942Y347898D01*
X494966Y347960D01*
X494978Y348046D01*
X495018Y348212D01*
X495023Y348382D01*
X495035Y348469D01*
X495035Y412731D01*
X495028Y412797D01*
X495031Y412864D01*
X495009Y412991D01*
X494995Y413119D01*
X494975Y413182D01*
X494964Y413248D01*
X494916Y413367D01*
X494877Y413490D01*
X494845Y413548D01*
X494820Y413610D01*
X494749Y413717D01*
X494686Y413830D01*
X494642Y413880D01*
X494606Y413936D01*
X494515Y414027D01*
X494430Y414124D01*
X494377Y414164D01*
X494330Y414211D01*
X494222Y414281D01*
X494119Y414359D01*
X494059Y414387D01*
X494003Y414424D01*
X493883Y414471D01*
X493767Y414526D01*
X493702Y414542D01*
X493640Y414566D01*
X493554Y414578D01*
X493388Y414618D01*
X493218Y414623D01*
X493131Y414635D01*
X460549Y414635D01*
X460410Y414651D01*
X460376Y414646D01*
X460327Y414650D01*
X460223Y414635D01*
X458904Y414635D01*
X458904Y423526D01*
X458904Y432728D01*
X458899Y432782D01*
X458901Y432836D01*
X458879Y432975D01*
X458864Y433116D01*
X458848Y433167D01*
X458839Y433221D01*
X458789Y433353D01*
X458746Y433487D01*
X458720Y433534D01*
X458700Y433585D01*
X458650Y433659D01*
X458555Y433827D01*
X458457Y433940D01*
X458409Y434009D01*
X458350Y434062D01*
X458301Y434118D01*
X458299Y434121D01*
X458206Y434191D01*
X458119Y434269D01*
X458051Y434309D01*
X457988Y434356D01*
X457882Y434406D01*
X457781Y434465D01*
X457707Y434489D01*
X457636Y434523D01*
X457522Y434551D01*
X457411Y434587D01*
X457333Y434596D01*
X457282Y434609D01*
X457268Y434678D01*
X457240Y434838D01*
X457228Y434868D01*
X457221Y434901D01*
X457156Y435049D01*
X457096Y435200D01*
X457078Y435228D01*
X457065Y435258D01*
X457014Y435325D01*
X456882Y435525D01*
X456798Y435609D01*
X456754Y435667D01*
X429824Y462597D01*
X429747Y462659D01*
X429677Y462730D01*
X429596Y462782D01*
X429522Y462842D01*
X429434Y462888D01*
X429350Y462943D01*
X429261Y462978D01*
X429176Y463022D01*
X429080Y463049D01*
X428987Y463085D01*
X428915Y463095D01*
X428801Y463127D01*
X428561Y463143D01*
X428478Y463154D01*
X256545Y463154D01*
X256479Y463147D01*
X256412Y463150D01*
X256285Y463128D01*
X256157Y463114D01*
X256094Y463094D01*
X256028Y463083D01*
X255909Y463035D01*
X255786Y462996D01*
X255728Y462964D01*
X255666Y462939D01*
X255559Y462868D01*
X255446Y462805D01*
X255396Y462761D01*
X255340Y462725D01*
X255249Y462634D01*
X255152Y462549D01*
X255112Y462496D01*
X255065Y462449D01*
X254995Y462341D01*
X254917Y462238D01*
X254889Y462178D01*
X254852Y462122D01*
X254805Y462002D01*
X254750Y461886D01*
X254734Y461821D01*
X254710Y461759D01*
X254698Y461673D01*
X254658Y461507D01*
X254653Y461337D01*
X254641Y461250D01*
X254641Y460048D01*
X254040Y459447D01*
X253998Y459395D01*
X253949Y459350D01*
X253875Y459244D01*
X253794Y459144D01*
X253763Y459085D01*
X253725Y459031D01*
X253674Y458913D01*
X253614Y458798D01*
X253596Y458734D01*
X253570Y458673D01*
X253544Y458547D01*
X253509Y458423D01*
X253505Y458356D01*
X253492Y458291D01*
X253492Y458162D01*
X253483Y458034D01*
X253492Y457968D01*
X253492Y457901D01*
X253519Y457775D01*
X253536Y457648D01*
X253559Y457585D01*
X253572Y457520D01*
X253624Y457402D01*
X253667Y457280D01*
X253702Y457224D01*
X253729Y457163D01*
X253782Y457093D01*
X253870Y456948D01*
X253987Y456823D01*
X254040Y456754D01*
X254641Y456152D01*
X254641Y453385D01*
X254648Y453319D01*
X254645Y453252D01*
X254667Y453125D01*
X254681Y452997D01*
X254701Y452934D01*
X254712Y452868D01*
X254760Y452749D01*
X254799Y452626D01*
X254831Y452568D01*
X254856Y452506D01*
X254927Y452399D01*
X254990Y452286D01*
X255034Y452236D01*
X255070Y452180D01*
X255161Y452089D01*
X255246Y451992D01*
X255299Y451952D01*
X255346Y451905D01*
X255454Y451835D01*
X255557Y451757D01*
X255617Y451729D01*
X255673Y451692D01*
X255793Y451645D01*
X255909Y451590D01*
X255974Y451574D01*
X256036Y451550D01*
X256122Y451538D01*
X256288Y451498D01*
X256458Y451493D01*
X256545Y451481D01*
X293455Y451481D01*
X293521Y451488D01*
X293588Y451485D01*
X293715Y451507D01*
X293843Y451521D01*
X293906Y451541D01*
X293972Y451552D01*
X294091Y451600D01*
X294214Y451639D01*
X294272Y451671D01*
X294334Y451696D01*
X294441Y451767D01*
X294554Y451830D01*
X294604Y451874D01*
X294660Y451910D01*
X294751Y452001D01*
X294848Y452086D01*
X294888Y452139D01*
X294935Y452186D01*
X295005Y452294D01*
X295083Y452397D01*
X295111Y452457D01*
X295148Y452513D01*
X295195Y452633D01*
X295250Y452749D01*
X295266Y452814D01*
X295290Y452876D01*
X295302Y452962D01*
X295342Y453128D01*
X295347Y453298D01*
X295359Y453385D01*
X295359Y454952D01*
X296848Y456441D01*
X311952Y456441D01*
X312554Y455840D01*
X312605Y455798D01*
X312651Y455749D01*
X312756Y455675D01*
X312856Y455594D01*
X312915Y455563D01*
X312969Y455525D01*
X313088Y455474D01*
X313202Y455414D01*
X313266Y455397D01*
X313327Y455370D01*
X313453Y455344D01*
X313577Y455309D01*
X313644Y455305D01*
X313709Y455292D01*
X313838Y455292D01*
X313966Y455283D01*
X314032Y455292D01*
X314099Y455292D01*
X314225Y455319D01*
X314352Y455336D01*
X314415Y455359D01*
X314480Y455372D01*
X314598Y455424D01*
X314720Y455467D01*
X314776Y455502D01*
X314837Y455529D01*
X314907Y455582D01*
X315052Y455670D01*
X315177Y455787D01*
X315247Y455840D01*
X315848Y456441D01*
X330952Y456441D01*
X332441Y454952D01*
X332441Y452750D01*
X332448Y452684D01*
X332445Y452617D01*
X332467Y452490D01*
X332481Y452362D01*
X332501Y452299D01*
X332512Y452233D01*
X332560Y452114D01*
X332599Y451991D01*
X332631Y451933D01*
X332656Y451871D01*
X332727Y451764D01*
X332790Y451651D01*
X332834Y451601D01*
X332870Y451545D01*
X332961Y451454D01*
X333046Y451357D01*
X333099Y451317D01*
X333146Y451270D01*
X333254Y451200D01*
X333357Y451122D01*
X333417Y451094D01*
X333473Y451057D01*
X333593Y451010D01*
X333709Y450955D01*
X333774Y450939D01*
X333836Y450915D01*
X333922Y450903D01*
X334088Y450863D01*
X334258Y450858D01*
X334345Y450846D01*
X346339Y450846D01*
X346438Y450856D01*
X346537Y450856D01*
X346631Y450876D01*
X346727Y450886D01*
X346821Y450916D01*
X346919Y450936D01*
X347007Y450975D01*
X347098Y451004D01*
X347185Y451053D01*
X347276Y451092D01*
X347334Y451137D01*
X347438Y451195D01*
X347619Y451353D01*
X347685Y451403D01*
X348398Y452116D01*
X363202Y452116D01*
X363915Y451403D01*
X363992Y451341D01*
X364062Y451270D01*
X364143Y451218D01*
X364217Y451158D01*
X364305Y451112D01*
X364389Y451057D01*
X364478Y451022D01*
X364563Y450978D01*
X364659Y450951D01*
X364752Y450915D01*
X364824Y450905D01*
X364939Y450873D01*
X365179Y450857D01*
X365261Y450846D01*
X404339Y450846D01*
X404438Y450856D01*
X404537Y450856D01*
X404631Y450876D01*
X404727Y450886D01*
X404821Y450916D01*
X404919Y450936D01*
X405007Y450975D01*
X405098Y451004D01*
X405185Y451053D01*
X405276Y451092D01*
X405334Y451137D01*
X405438Y451195D01*
X405619Y451353D01*
X405685Y451403D01*
X406398Y452116D01*
X421202Y452116D01*
X422315Y451003D01*
X422392Y450941D01*
X422462Y450870D01*
X422543Y450818D01*
X422617Y450758D01*
X422705Y450712D01*
X422789Y450657D01*
X422878Y450622D01*
X422963Y450578D01*
X423059Y450551D01*
X423152Y450515D01*
X423224Y450505D01*
X423339Y450473D01*
X423579Y450457D01*
X423661Y450446D01*
X424715Y450446D01*
X424814Y450456D01*
X424914Y450456D01*
X425008Y450476D01*
X425103Y450486D01*
X425198Y450516D01*
X425295Y450536D01*
X425383Y450575D01*
X425474Y450604D01*
X425561Y450653D01*
X425652Y450692D01*
X425711Y450737D01*
X425814Y450795D01*
X425995Y450953D01*
X426062Y451003D01*
X426418Y451360D01*
X428742Y452323D01*
X431258Y452323D01*
X433582Y451360D01*
X435360Y449582D01*
X436323Y447258D01*
X436323Y444742D01*
X435360Y442418D01*
X433582Y440640D01*
X431258Y439677D01*
X428742Y439677D01*
X426418Y440640D01*
X426062Y440997D01*
X425985Y441059D01*
X425914Y441130D01*
X425834Y441182D01*
X425759Y441242D01*
X425671Y441288D01*
X425588Y441343D01*
X425498Y441378D01*
X425413Y441422D01*
X425317Y441449D01*
X425225Y441485D01*
X425152Y441495D01*
X425038Y441527D01*
X424798Y441543D01*
X424715Y441554D01*
X422861Y441554D01*
X422762Y441544D01*
X422663Y441544D01*
X422569Y441524D01*
X422473Y441514D01*
X422379Y441484D01*
X422281Y441464D01*
X422193Y441425D01*
X422102Y441396D01*
X422015Y441347D01*
X421924Y441308D01*
X421866Y441263D01*
X421762Y441205D01*
X421581Y441047D01*
X421515Y440997D01*
X421202Y440684D01*
X406398Y440684D01*
X405685Y441397D01*
X405608Y441459D01*
X405538Y441530D01*
X405457Y441582D01*
X405383Y441642D01*
X405295Y441688D01*
X405211Y441743D01*
X405122Y441778D01*
X405037Y441822D01*
X404941Y441849D01*
X404848Y441885D01*
X404776Y441895D01*
X404661Y441927D01*
X404421Y441943D01*
X404339Y441954D01*
X365261Y441954D01*
X365162Y441944D01*
X365063Y441944D01*
X364969Y441924D01*
X364873Y441914D01*
X364779Y441884D01*
X364681Y441864D01*
X364593Y441825D01*
X364502Y441796D01*
X364415Y441747D01*
X364324Y441708D01*
X364266Y441663D01*
X364162Y441605D01*
X363981Y441447D01*
X363915Y441397D01*
X363202Y440684D01*
X362150Y440684D01*
X362084Y440677D01*
X362017Y440680D01*
X361890Y440658D01*
X361762Y440644D01*
X361699Y440624D01*
X361633Y440613D01*
X361514Y440565D01*
X361391Y440526D01*
X361333Y440494D01*
X361271Y440469D01*
X361164Y440398D01*
X361051Y440335D01*
X361001Y440291D01*
X360945Y440255D01*
X360854Y440164D01*
X360757Y440079D01*
X360717Y440026D01*
X360670Y439979D01*
X360600Y439871D01*
X360522Y439768D01*
X360494Y439708D01*
X360457Y439652D01*
X360410Y439532D01*
X360355Y439416D01*
X360339Y439351D01*
X360315Y439289D01*
X360303Y439203D01*
X360263Y439037D01*
X360258Y438867D01*
X360246Y438780D01*
X360246Y434118D01*
X360256Y434019D01*
X360256Y433919D01*
X360276Y433826D01*
X360286Y433730D01*
X360316Y433635D01*
X360336Y433538D01*
X360375Y433450D01*
X360404Y433359D01*
X360453Y433272D01*
X360492Y433181D01*
X360537Y433123D01*
X360595Y433019D01*
X360753Y432838D01*
X360803Y432772D01*
X405933Y387643D01*
X405958Y387622D01*
X405980Y387596D01*
X406109Y387499D01*
X406235Y387397D01*
X406264Y387381D01*
X406291Y387361D01*
X406438Y387292D01*
X406581Y387217D01*
X406613Y387208D01*
X406643Y387194D01*
X406800Y387156D01*
X406956Y387112D01*
X406990Y387110D01*
X407022Y387102D01*
X407184Y387097D01*
X407345Y387086D01*
X407378Y387090D01*
X407412Y387089D01*
X407571Y387117D01*
X407731Y387139D01*
X407763Y387150D01*
X407796Y387156D01*
X407946Y387216D01*
X408099Y387270D01*
X408127Y387288D01*
X408158Y387300D01*
X408293Y387389D01*
X408431Y387473D01*
X408456Y387496D01*
X408484Y387514D01*
X408598Y387629D01*
X408716Y387739D01*
X408735Y387767D01*
X408759Y387790D01*
X408847Y387926D01*
X408940Y388058D01*
X408953Y388089D01*
X408972Y388117D01*
X409031Y388268D01*
X409095Y388416D01*
X409102Y388449D01*
X409114Y388480D01*
X409125Y388562D01*
X409174Y388798D01*
X409173Y388917D01*
X409183Y388989D01*
X409183Y412402D01*
X410672Y413891D01*
X425805Y413891D01*
X425871Y413898D01*
X425938Y413895D01*
X426065Y413917D01*
X426193Y413931D01*
X426256Y413951D01*
X426322Y413962D01*
X426441Y414010D01*
X426564Y414049D01*
X426622Y414081D01*
X426684Y414106D01*
X426791Y414177D01*
X426904Y414240D01*
X426954Y414284D01*
X427010Y414320D01*
X427101Y414411D01*
X427198Y414496D01*
X427238Y414549D01*
X427285Y414596D01*
X427355Y414704D01*
X427433Y414807D01*
X427461Y414867D01*
X427498Y414923D01*
X427545Y415043D01*
X427600Y415159D01*
X427616Y415224D01*
X427640Y415286D01*
X427652Y415372D01*
X427692Y415538D01*
X427697Y415708D01*
X427709Y415795D01*
X427709Y430928D01*
X429198Y432417D01*
X453451Y432417D01*
X453589Y432401D01*
X453623Y432406D01*
X453671Y432402D01*
X453777Y432417D01*
X455096Y432417D01*
X455096Y423526D01*
X455096Y414635D01*
X453826Y414635D01*
X453796Y414641D01*
X453756Y414641D01*
X453716Y414648D01*
X453561Y414641D01*
X453406Y414640D01*
X453383Y414635D01*
X447350Y414635D01*
X447284Y414628D01*
X447217Y414631D01*
X447090Y414609D01*
X446962Y414595D01*
X446899Y414575D01*
X446833Y414564D01*
X446714Y414516D01*
X446591Y414477D01*
X446533Y414445D01*
X446471Y414420D01*
X446364Y414349D01*
X446251Y414286D01*
X446201Y414242D01*
X446145Y414206D01*
X446054Y414115D01*
X445957Y414030D01*
X445917Y413977D01*
X445870Y413930D01*
X445800Y413822D01*
X445722Y413719D01*
X445694Y413659D01*
X445657Y413603D01*
X445610Y413483D01*
X445555Y413367D01*
X445539Y413302D01*
X445515Y413240D01*
X445503Y413154D01*
X445463Y412988D01*
X445458Y412818D01*
X445446Y412731D01*
X445446Y411285D01*
X445456Y411186D01*
X445456Y411086D01*
X445476Y410992D01*
X445486Y410897D01*
X445516Y410802D01*
X445536Y410705D01*
X445575Y410617D01*
X445604Y410526D01*
X445653Y410439D01*
X445692Y410348D01*
X445737Y410289D01*
X445795Y410186D01*
X445953Y410005D01*
X446003Y409938D01*
X446360Y409582D01*
X447323Y407258D01*
X447323Y404742D01*
X446360Y402418D01*
X444582Y400640D01*
X442258Y399677D01*
X439742Y399677D01*
X437418Y400640D01*
X435640Y402418D01*
X434677Y404742D01*
X434677Y407258D01*
X435640Y409582D01*
X435997Y409938D01*
X436059Y410015D01*
X436130Y410086D01*
X436182Y410166D01*
X436242Y410241D01*
X436288Y410329D01*
X436343Y410412D01*
X436378Y410502D01*
X436422Y410587D01*
X436449Y410683D01*
X436485Y410775D01*
X436495Y410848D01*
X436527Y410962D01*
X436543Y411202D01*
X436554Y411285D01*
X436554Y412731D01*
X436547Y412797D01*
X436550Y412864D01*
X436528Y412991D01*
X436514Y413119D01*
X436494Y413182D01*
X436483Y413248D01*
X436435Y413367D01*
X436396Y413490D01*
X436364Y413548D01*
X436339Y413610D01*
X436268Y413717D01*
X436205Y413830D01*
X436161Y413880D01*
X436125Y413936D01*
X436034Y414027D01*
X435949Y414124D01*
X435896Y414164D01*
X435849Y414211D01*
X435741Y414281D01*
X435638Y414359D01*
X435578Y414387D01*
X435522Y414424D01*
X435402Y414471D01*
X435286Y414526D01*
X435221Y414542D01*
X435159Y414566D01*
X435073Y414578D01*
X434907Y414618D01*
X434737Y414623D01*
X434650Y414635D01*
X428869Y414635D01*
X428803Y414628D01*
X428736Y414631D01*
X428609Y414609D01*
X428481Y414595D01*
X428418Y414575D01*
X428352Y414564D01*
X428233Y414516D01*
X428110Y414477D01*
X428052Y414445D01*
X427990Y414420D01*
X427883Y414349D01*
X427770Y414286D01*
X427720Y414242D01*
X427664Y414206D01*
X427573Y414115D01*
X427476Y414030D01*
X427436Y413977D01*
X427389Y413930D01*
X427319Y413822D01*
X427241Y413719D01*
X427213Y413659D01*
X427176Y413603D01*
X427129Y413483D01*
X427074Y413367D01*
X427058Y413302D01*
X427034Y413240D01*
X427022Y413154D01*
X426982Y412988D01*
X426977Y412818D01*
X426965Y412731D01*
X426965Y382504D01*
X426968Y382471D01*
X426966Y382437D01*
X426988Y382277D01*
X427005Y382116D01*
X427015Y382084D01*
X427019Y382051D01*
X427074Y381899D01*
X427123Y381744D01*
X427139Y381715D01*
X427150Y381684D01*
X427235Y381545D01*
X427314Y381405D01*
X427336Y381380D01*
X427353Y381351D01*
X427464Y381233D01*
X427570Y381111D01*
X427597Y381091D01*
X427620Y381067D01*
X427752Y380974D01*
X427881Y380876D01*
X427911Y380862D01*
X427938Y380842D01*
X428087Y380778D01*
X428233Y380709D01*
X428265Y380701D01*
X428296Y380688D01*
X428455Y380655D01*
X428612Y380617D01*
X428645Y380616D01*
X428678Y380609D01*
X428840Y380609D01*
X429002Y380604D01*
X429034Y380610D01*
X429068Y380610D01*
X429226Y380643D01*
X429386Y380671D01*
X429417Y380683D01*
X429449Y380690D01*
X429597Y380755D01*
X429748Y380814D01*
X429776Y380833D01*
X429806Y380846D01*
X429873Y380897D01*
X430073Y381029D01*
X430157Y381113D01*
X430216Y381157D01*
X430418Y381360D01*
X432742Y382323D01*
X435258Y382323D01*
X437582Y381360D01*
X439360Y379582D01*
X440323Y377258D01*
X440323Y374742D01*
X440048Y374079D01*
X440034Y374031D01*
X440012Y373986D01*
X439978Y373845D01*
X439936Y373705D01*
X439932Y373656D01*
X439920Y373607D01*
X439916Y373462D01*
X439903Y373317D01*
X439909Y373267D01*
X439908Y373217D01*
X439932Y373074D01*
X439950Y372930D01*
X439966Y372883D01*
X439974Y372833D01*
X440028Y372698D01*
X440074Y372560D01*
X440100Y372517D01*
X440118Y372471D01*
X440198Y372350D01*
X440271Y372224D01*
X440305Y372187D01*
X440332Y372145D01*
X440435Y372043D01*
X440533Y371935D01*
X440573Y371906D01*
X440608Y371870D01*
X440730Y371791D01*
X440848Y371705D01*
X440893Y371685D01*
X440935Y371657D01*
X441070Y371604D01*
X441203Y371544D01*
X441251Y371533D01*
X441298Y371515D01*
X441386Y371503D01*
X441583Y371459D01*
X441726Y371457D01*
X441807Y371446D01*
X450715Y371446D01*
X450814Y371456D01*
X450914Y371456D01*
X451008Y371476D01*
X451103Y371486D01*
X451198Y371516D01*
X451295Y371536D01*
X451383Y371575D01*
X451474Y371604D01*
X451561Y371653D01*
X451652Y371692D01*
X451711Y371737D01*
X451814Y371795D01*
X451995Y371953D01*
X452062Y372003D01*
X452418Y372360D01*
X454742Y373323D01*
X457258Y373323D01*
X459582Y372360D01*
X461360Y370582D01*
X462323Y368258D01*
X462323Y366862D01*
X462326Y366829D01*
X462324Y366795D01*
X462346Y366635D01*
X462363Y366474D01*
X462373Y366442D01*
X462377Y366409D01*
X462432Y366257D01*
X462481Y366102D01*
X462497Y366073D01*
X462508Y366042D01*
X462592Y365904D01*
X462672Y365763D01*
X462694Y365738D01*
X462711Y365709D01*
X462822Y365591D01*
X462928Y365469D01*
X462955Y365449D01*
X462978Y365425D01*
X463110Y365331D01*
X463239Y365234D01*
X463269Y365219D01*
X463296Y365200D01*
X463445Y365136D01*
X463591Y365067D01*
X463624Y365059D01*
X463654Y365046D01*
X463813Y365013D01*
X463970Y364975D01*
X464003Y364974D01*
X464036Y364967D01*
X464198Y364967D01*
X464360Y364962D01*
X464392Y364968D01*
X464426Y364968D01*
X464584Y365001D01*
X464744Y365029D01*
X464775Y365041D01*
X464807Y365048D01*
X464956Y365113D01*
X465106Y365172D01*
X465134Y365191D01*
X465164Y365204D01*
X465231Y365255D01*
X465345Y365330D01*
X467742Y366323D01*
X470258Y366323D01*
X472582Y365360D01*
X474360Y363582D01*
X475323Y361258D01*
X475323Y358742D01*
X474360Y356418D01*
X472582Y354640D01*
X470258Y353677D01*
X468560Y353677D01*
X468445Y353665D01*
X468328Y353663D01*
X468268Y353647D01*
X468172Y353637D01*
X467911Y353554D01*
X443630Y353554D01*
X443531Y353544D01*
X443432Y353544D01*
X443338Y353524D01*
X443243Y353514D01*
X443148Y353484D01*
X443050Y353464D01*
X442962Y353425D01*
X442871Y353396D01*
X442784Y353347D01*
X442693Y353308D01*
X442635Y353264D01*
X442531Y353205D01*
X442350Y353047D01*
X442284Y352997D01*
X439103Y349815D01*
X439082Y349790D01*
X439057Y349768D01*
X438959Y349639D01*
X438857Y349513D01*
X438841Y349484D01*
X438821Y349457D01*
X438752Y349311D01*
X438677Y349167D01*
X438669Y349135D01*
X438654Y349105D01*
X438616Y348948D01*
X438572Y348792D01*
X438570Y348758D01*
X438562Y348726D01*
X438557Y348564D01*
X438546Y348403D01*
X438551Y348370D01*
X438550Y348336D01*
X438577Y348177D01*
X438599Y348017D01*
X438611Y347985D01*
X438616Y347952D01*
X438676Y347802D01*
X438730Y347649D01*
X438748Y347621D01*
X438760Y347590D01*
X438849Y347455D01*
X438933Y347317D01*
X438956Y347292D01*
X438974Y347264D01*
X439089Y347150D01*
X439200Y347032D01*
X439227Y347013D01*
X439250Y346989D01*
X439386Y346901D01*
X439518Y346808D01*
X439549Y346795D01*
X439577Y346776D01*
X439728Y346717D01*
X439876Y346653D01*
X439909Y346646D01*
X439940Y346634D01*
X440022Y346623D01*
X440258Y346574D01*
X440377Y346575D01*
X440449Y346565D01*
X445451Y346565D01*
X445590Y346549D01*
X445624Y346554D01*
X445673Y346550D01*
X445777Y346565D01*
X447096Y346565D01*
X447096Y337674D01*
X447102Y337612D01*
X447100Y337559D01*
X447101Y337556D01*
X447100Y337542D01*
X447122Y337415D01*
X447135Y337287D01*
X447156Y337223D01*
X447167Y337158D01*
X447214Y337038D01*
X447253Y336915D01*
X447286Y336857D01*
X447311Y336795D01*
X447381Y336688D01*
X447445Y336575D01*
X447488Y336525D01*
X447525Y336470D01*
X447616Y336379D01*
X447701Y336282D01*
X447754Y336242D01*
X447801Y336195D01*
X447909Y336124D01*
X448012Y336046D01*
X448072Y336018D01*
X448127Y335982D01*
X448248Y335935D01*
X448364Y335879D01*
X448429Y335864D01*
X448490Y335839D01*
X448577Y335828D01*
X448743Y335788D01*
X448913Y335782D01*
X449000Y335770D01*
X449066Y335777D01*
G37*
%LPC*%
G36*
X847612Y394255D02*
X847612Y394255D01*
X842255Y399612D01*
X842255Y407188D01*
X847612Y412545D01*
X853531Y412545D01*
X853597Y412552D01*
X853664Y412549D01*
X853791Y412571D01*
X853919Y412585D01*
X853982Y412605D01*
X854048Y412616D01*
X854167Y412664D01*
X854290Y412703D01*
X854348Y412735D01*
X854410Y412760D01*
X854517Y412831D01*
X854630Y412894D01*
X854680Y412938D01*
X854736Y412974D01*
X854827Y413065D01*
X854924Y413150D01*
X854964Y413203D01*
X855011Y413250D01*
X855081Y413358D01*
X855159Y413461D01*
X855187Y413521D01*
X855224Y413577D01*
X855271Y413697D01*
X855326Y413813D01*
X855342Y413878D01*
X855366Y413940D01*
X855378Y414026D01*
X855418Y414192D01*
X855423Y414362D01*
X855435Y414449D01*
X855435Y424980D01*
X855428Y425046D01*
X855431Y425113D01*
X855409Y425240D01*
X855395Y425368D01*
X855375Y425431D01*
X855364Y425497D01*
X855316Y425616D01*
X855277Y425739D01*
X855245Y425797D01*
X855220Y425859D01*
X855149Y425966D01*
X855086Y426079D01*
X855042Y426129D01*
X855006Y426185D01*
X854915Y426276D01*
X854830Y426373D01*
X854777Y426413D01*
X854730Y426460D01*
X854622Y426530D01*
X854519Y426608D01*
X854459Y426636D01*
X854403Y426673D01*
X854283Y426720D01*
X854167Y426775D01*
X854102Y426791D01*
X854040Y426815D01*
X853954Y426827D01*
X853788Y426867D01*
X853618Y426872D01*
X853531Y426884D01*
X852098Y426884D01*
X852020Y426962D01*
X851943Y427024D01*
X851873Y427095D01*
X851792Y427147D01*
X851718Y427207D01*
X851630Y427253D01*
X851546Y427308D01*
X851457Y427343D01*
X851372Y427387D01*
X851276Y427414D01*
X851183Y427450D01*
X851111Y427460D01*
X850996Y427492D01*
X850756Y427508D01*
X850674Y427519D01*
X810326Y427519D01*
X810227Y427509D01*
X810128Y427509D01*
X810034Y427489D01*
X809938Y427479D01*
X809844Y427449D01*
X809746Y427429D01*
X809658Y427390D01*
X809567Y427361D01*
X809480Y427312D01*
X809389Y427273D01*
X809331Y427228D01*
X809227Y427170D01*
X809046Y427012D01*
X808980Y426962D01*
X808902Y426884D01*
X794098Y426884D01*
X792609Y428373D01*
X792609Y430833D01*
X792608Y430849D01*
X792609Y430866D01*
X792588Y431043D01*
X792569Y431220D01*
X792564Y431236D01*
X792562Y431253D01*
X792505Y431422D01*
X792451Y431592D01*
X792443Y431606D01*
X792438Y431622D01*
X792348Y431776D01*
X792260Y431932D01*
X792249Y431944D01*
X792241Y431958D01*
X792121Y432091D01*
X792004Y432225D01*
X791991Y432235D01*
X791979Y432248D01*
X791835Y432353D01*
X791693Y432460D01*
X791678Y432468D01*
X791665Y432477D01*
X791503Y432551D01*
X791341Y432628D01*
X791325Y432631D01*
X791309Y432638D01*
X791136Y432677D01*
X790962Y432719D01*
X790945Y432720D01*
X790929Y432724D01*
X790751Y432726D01*
X790572Y432732D01*
X790556Y432729D01*
X790539Y432730D01*
X790364Y432696D01*
X790188Y432665D01*
X790173Y432659D01*
X790157Y432656D01*
X789991Y432587D01*
X789826Y432522D01*
X789812Y432513D01*
X789797Y432506D01*
X789649Y432405D01*
X789501Y432307D01*
X789489Y432296D01*
X789475Y432286D01*
X789352Y432158D01*
X789225Y432031D01*
X789216Y432017D01*
X789205Y432005D01*
X789174Y431952D01*
X789012Y431705D01*
X788977Y431615D01*
X788946Y431561D01*
X788395Y430232D01*
X785680Y427517D01*
X782132Y426047D01*
X764068Y426047D01*
X760520Y427517D01*
X757805Y430232D01*
X756335Y433780D01*
X756335Y437620D01*
X757805Y441168D01*
X760520Y443883D01*
X764068Y445353D01*
X782132Y445353D01*
X785680Y443883D01*
X788395Y441168D01*
X789810Y437752D01*
X789834Y437708D01*
X789851Y437661D01*
X789926Y437537D01*
X789995Y437409D01*
X790028Y437371D01*
X790053Y437328D01*
X790153Y437222D01*
X790247Y437111D01*
X790286Y437080D01*
X790320Y437044D01*
X790439Y436960D01*
X790553Y436870D01*
X790598Y436848D01*
X790639Y436819D01*
X790772Y436762D01*
X790902Y436697D01*
X790951Y436684D01*
X790996Y436665D01*
X791139Y436635D01*
X791280Y436598D01*
X791329Y436596D01*
X791378Y436586D01*
X791524Y436586D01*
X791669Y436579D01*
X791718Y436587D01*
X791768Y436587D01*
X791911Y436617D01*
X792054Y436639D01*
X792101Y436657D01*
X792150Y436667D01*
X792283Y436725D01*
X792419Y436776D01*
X792461Y436803D01*
X792507Y436823D01*
X792578Y436877D01*
X792748Y436985D01*
X792851Y437085D01*
X792916Y437134D01*
X794098Y438316D01*
X808902Y438316D01*
X808980Y438238D01*
X809057Y438176D01*
X809127Y438105D01*
X809208Y438053D01*
X809282Y437993D01*
X809370Y437947D01*
X809454Y437892D01*
X809543Y437857D01*
X809628Y437813D01*
X809724Y437786D01*
X809817Y437750D01*
X809889Y437740D01*
X810004Y437708D01*
X810244Y437692D01*
X810326Y437681D01*
X850674Y437681D01*
X850773Y437691D01*
X850872Y437691D01*
X850966Y437711D01*
X851062Y437721D01*
X851156Y437751D01*
X851254Y437771D01*
X851342Y437810D01*
X851433Y437839D01*
X851520Y437888D01*
X851611Y437927D01*
X851669Y437972D01*
X851773Y438030D01*
X851954Y438188D01*
X852020Y438238D01*
X852098Y438316D01*
X866902Y438316D01*
X868391Y436827D01*
X868391Y428373D01*
X866902Y426884D01*
X865469Y426884D01*
X865403Y426877D01*
X865336Y426880D01*
X865209Y426858D01*
X865081Y426844D01*
X865018Y426824D01*
X864952Y426813D01*
X864833Y426765D01*
X864710Y426726D01*
X864652Y426694D01*
X864590Y426669D01*
X864483Y426598D01*
X864370Y426535D01*
X864320Y426491D01*
X864264Y426455D01*
X864173Y426364D01*
X864076Y426279D01*
X864036Y426226D01*
X863989Y426179D01*
X863919Y426071D01*
X863841Y425968D01*
X863813Y425908D01*
X863776Y425852D01*
X863729Y425732D01*
X863674Y425616D01*
X863658Y425551D01*
X863634Y425489D01*
X863622Y425403D01*
X863582Y425237D01*
X863577Y425067D01*
X863565Y424980D01*
X863565Y409816D01*
X861102Y407354D01*
X861040Y407277D01*
X860969Y407206D01*
X860917Y407126D01*
X860857Y407052D01*
X860811Y406963D01*
X860756Y406880D01*
X860721Y406791D01*
X860677Y406706D01*
X860650Y406610D01*
X860614Y406517D01*
X860604Y406445D01*
X860572Y406330D01*
X860556Y406090D01*
X860545Y406008D01*
X860545Y399612D01*
X855188Y394255D01*
X847612Y394255D01*
G37*
%LPD*%
%LPC*%
G36*
X246000Y126204D02*
X246000Y126204D01*
X237919Y126204D01*
X237919Y130174D01*
X238127Y130949D01*
X238148Y130997D01*
X238151Y131009D01*
X238156Y131021D01*
X238193Y131199D01*
X238232Y131378D01*
X238232Y131390D01*
X238235Y131403D01*
X238234Y131585D01*
X238236Y131767D01*
X238234Y131780D01*
X238234Y131793D01*
X238196Y131971D01*
X238161Y132150D01*
X238156Y132162D01*
X238154Y132174D01*
X238081Y132341D01*
X238010Y132509D01*
X238003Y132520D01*
X237998Y132531D01*
X237966Y132573D01*
X237919Y132640D01*
X237919Y146151D01*
X237923Y146166D01*
X237950Y146227D01*
X237976Y146353D01*
X238011Y146477D01*
X238015Y146544D01*
X238028Y146609D01*
X238028Y146738D01*
X238037Y146866D01*
X238028Y146932D01*
X238028Y146999D01*
X238001Y147125D01*
X237984Y147252D01*
X237961Y147315D01*
X237948Y147380D01*
X237919Y147445D01*
X237919Y161151D01*
X237923Y161166D01*
X237950Y161227D01*
X237976Y161353D01*
X238011Y161477D01*
X238015Y161544D01*
X238028Y161609D01*
X238028Y161738D01*
X238037Y161866D01*
X238028Y161932D01*
X238028Y161999D01*
X238001Y162125D01*
X237984Y162252D01*
X237961Y162315D01*
X237948Y162380D01*
X237919Y162445D01*
X237919Y176151D01*
X237924Y176166D01*
X237950Y176227D01*
X237976Y176353D01*
X238011Y176477D01*
X238015Y176544D01*
X238029Y176609D01*
X238028Y176738D01*
X238037Y176866D01*
X238028Y176932D01*
X238028Y176999D01*
X238001Y177125D01*
X237984Y177252D01*
X237961Y177315D01*
X237948Y177380D01*
X237919Y177445D01*
X237919Y190946D01*
X237932Y190962D01*
X237938Y190973D01*
X237946Y190983D01*
X238027Y191145D01*
X238112Y191308D01*
X238115Y191320D01*
X238121Y191332D01*
X238167Y191507D01*
X238217Y191683D01*
X238218Y191696D01*
X238221Y191708D01*
X238231Y191890D01*
X238243Y192072D01*
X238241Y192085D01*
X238242Y192098D01*
X238215Y192278D01*
X238190Y192458D01*
X238185Y192470D01*
X238184Y192483D01*
X238164Y192531D01*
X238144Y192587D01*
X237919Y193426D01*
X237919Y197396D01*
X246000Y197396D01*
X254081Y197396D01*
X254081Y193426D01*
X253873Y192651D01*
X253852Y192603D01*
X253849Y192591D01*
X253844Y192579D01*
X253807Y192401D01*
X253768Y192222D01*
X253768Y192210D01*
X253765Y192197D01*
X253766Y192015D01*
X253764Y191833D01*
X253766Y191820D01*
X253766Y191807D01*
X253804Y191629D01*
X253839Y191450D01*
X253844Y191438D01*
X253846Y191426D01*
X253919Y191259D01*
X253990Y191091D01*
X253997Y191080D01*
X254002Y191069D01*
X254034Y191027D01*
X254081Y190960D01*
X254081Y177449D01*
X254077Y177434D01*
X254050Y177373D01*
X254024Y177247D01*
X253989Y177123D01*
X253985Y177056D01*
X253972Y176991D01*
X253972Y176862D01*
X253963Y176734D01*
X253972Y176668D01*
X253972Y176601D01*
X253999Y176475D01*
X254016Y176348D01*
X254039Y176285D01*
X254052Y176220D01*
X254081Y176155D01*
X254081Y162449D01*
X254076Y162434D01*
X254050Y162373D01*
X254024Y162247D01*
X253989Y162123D01*
X253985Y162056D01*
X253971Y161991D01*
X253972Y161862D01*
X253963Y161734D01*
X253972Y161668D01*
X253972Y161601D01*
X253999Y161475D01*
X254016Y161348D01*
X254039Y161285D01*
X254052Y161220D01*
X254081Y161155D01*
X254081Y147449D01*
X254076Y147434D01*
X254050Y147373D01*
X254024Y147247D01*
X253989Y147123D01*
X253985Y147056D01*
X253971Y146991D01*
X253972Y146862D01*
X253963Y146734D01*
X253972Y146668D01*
X253972Y146601D01*
X253999Y146475D01*
X254016Y146348D01*
X254039Y146285D01*
X254052Y146220D01*
X254081Y146155D01*
X254081Y132654D01*
X254068Y132638D01*
X254062Y132627D01*
X254054Y132617D01*
X253972Y132454D01*
X253888Y132292D01*
X253885Y132280D01*
X253879Y132268D01*
X253833Y132093D01*
X253783Y131917D01*
X253782Y131904D01*
X253779Y131892D01*
X253769Y131710D01*
X253757Y131528D01*
X253759Y131515D01*
X253758Y131502D01*
X253785Y131322D01*
X253810Y131142D01*
X253815Y131130D01*
X253816Y131117D01*
X253836Y131069D01*
X253856Y131013D01*
X254081Y130174D01*
X254081Y126204D01*
X246000Y126204D01*
X246000Y126204D01*
G37*
%LPD*%
%LPC*%
G36*
X134805Y45659D02*
X134805Y45659D01*
X130196Y47568D01*
X126668Y51096D01*
X124759Y55705D01*
X124759Y80695D01*
X126668Y85304D01*
X130196Y88832D01*
X134805Y90741D01*
X139795Y90741D01*
X144404Y88832D01*
X147932Y85304D01*
X149841Y80695D01*
X149841Y55705D01*
X147932Y51096D01*
X144404Y47568D01*
X139795Y45659D01*
X134805Y45659D01*
G37*
%LPD*%
%LPC*%
G36*
X73805Y45659D02*
X73805Y45659D01*
X69196Y47568D01*
X65668Y51096D01*
X63759Y55705D01*
X63759Y80695D01*
X65668Y85304D01*
X69196Y88832D01*
X73805Y90741D01*
X78795Y90741D01*
X83404Y88832D01*
X86932Y85304D01*
X88841Y80695D01*
X88841Y55705D01*
X86932Y51096D01*
X83404Y47568D01*
X78795Y45659D01*
X73805Y45659D01*
G37*
%LPD*%
%LPC*%
G36*
X239408Y71219D02*
X239408Y71219D01*
X237919Y72708D01*
X237919Y86151D01*
X237923Y86166D01*
X237950Y86227D01*
X237976Y86353D01*
X238011Y86477D01*
X238015Y86544D01*
X238028Y86609D01*
X238028Y86738D01*
X238037Y86866D01*
X238028Y86932D01*
X238028Y86999D01*
X238001Y87125D01*
X237984Y87252D01*
X237961Y87315D01*
X237948Y87380D01*
X237919Y87445D01*
X237919Y101151D01*
X237923Y101166D01*
X237950Y101227D01*
X237976Y101353D01*
X238011Y101477D01*
X238015Y101544D01*
X238028Y101609D01*
X238028Y101738D01*
X238037Y101866D01*
X238028Y101932D01*
X238028Y101999D01*
X238001Y102125D01*
X237984Y102252D01*
X237961Y102315D01*
X237948Y102380D01*
X237919Y102445D01*
X237919Y115946D01*
X237932Y115962D01*
X237938Y115973D01*
X237946Y115983D01*
X238028Y116146D01*
X238112Y116308D01*
X238115Y116320D01*
X238121Y116332D01*
X238167Y116507D01*
X238217Y116683D01*
X238218Y116696D01*
X238221Y116708D01*
X238231Y116890D01*
X238243Y117072D01*
X238241Y117085D01*
X238242Y117098D01*
X238215Y117278D01*
X238190Y117458D01*
X238185Y117470D01*
X238184Y117483D01*
X238164Y117531D01*
X238144Y117587D01*
X237919Y118426D01*
X237919Y122396D01*
X246000Y122396D01*
X254081Y122396D01*
X254081Y118426D01*
X253873Y117651D01*
X253852Y117603D01*
X253849Y117591D01*
X253844Y117579D01*
X253807Y117401D01*
X253768Y117222D01*
X253768Y117210D01*
X253765Y117197D01*
X253766Y117015D01*
X253764Y116833D01*
X253766Y116820D01*
X253766Y116807D01*
X253804Y116629D01*
X253839Y116450D01*
X253844Y116438D01*
X253846Y116426D01*
X253919Y116259D01*
X253990Y116091D01*
X253997Y116080D01*
X254002Y116069D01*
X254034Y116027D01*
X254081Y115960D01*
X254081Y102449D01*
X254076Y102434D01*
X254050Y102373D01*
X254024Y102247D01*
X253989Y102123D01*
X253985Y102056D01*
X253971Y101991D01*
X253972Y101862D01*
X253963Y101734D01*
X253972Y101668D01*
X253972Y101601D01*
X253999Y101475D01*
X254016Y101348D01*
X254039Y101285D01*
X254052Y101220D01*
X254081Y101155D01*
X254081Y87449D01*
X254076Y87434D01*
X254050Y87373D01*
X254024Y87247D01*
X253989Y87123D01*
X253985Y87056D01*
X253971Y86991D01*
X253972Y86862D01*
X253963Y86734D01*
X253972Y86668D01*
X253972Y86601D01*
X253999Y86475D01*
X254016Y86348D01*
X254039Y86285D01*
X254052Y86220D01*
X254081Y86155D01*
X254081Y72708D01*
X252592Y71219D01*
X239408Y71219D01*
G37*
%LPD*%
%LPC*%
G36*
X178818Y28529D02*
X178818Y28529D01*
X177329Y30018D01*
X177329Y54982D01*
X178818Y56471D01*
X203782Y56471D01*
X205271Y54982D01*
X205271Y30018D01*
X203782Y28529D01*
X178818Y28529D01*
G37*
%LPD*%
%LPC*%
G36*
X178818Y180929D02*
X178818Y180929D01*
X177329Y182418D01*
X177329Y207382D01*
X178818Y208871D01*
X203782Y208871D01*
X205271Y207382D01*
X205271Y182418D01*
X203782Y180929D01*
X178818Y180929D01*
G37*
%LPD*%
%LPC*%
G36*
X145984Y143839D02*
X145984Y143839D01*
X140412Y146147D01*
X136147Y150412D01*
X133839Y155984D01*
X133839Y162016D01*
X136147Y167588D01*
X140412Y171853D01*
X145984Y174161D01*
X152016Y174161D01*
X157588Y171853D01*
X161853Y167588D01*
X164161Y162016D01*
X164161Y155984D01*
X161853Y150412D01*
X157588Y146147D01*
X152016Y143839D01*
X145984Y143839D01*
G37*
%LPD*%
%LPC*%
G36*
X106738Y118189D02*
X106738Y118189D01*
X105249Y119678D01*
X105249Y141782D01*
X106738Y143271D01*
X128842Y143271D01*
X130331Y141782D01*
X130331Y119678D01*
X128842Y118189D01*
X106738Y118189D01*
G37*
%LPD*%
%LPC*%
G36*
X106738Y273129D02*
X106738Y273129D01*
X105249Y274618D01*
X105249Y296722D01*
X106738Y298211D01*
X128842Y298211D01*
X130331Y296722D01*
X130331Y274618D01*
X128842Y273129D01*
X106738Y273129D01*
G37*
%LPD*%
%LPC*%
G36*
X288380Y23235D02*
X288380Y23235D01*
X284832Y24705D01*
X282117Y27420D01*
X280647Y30968D01*
X280647Y49032D01*
X282117Y52580D01*
X284832Y55295D01*
X288380Y56765D01*
X292220Y56765D01*
X295768Y55295D01*
X298483Y52580D01*
X299953Y49032D01*
X299953Y30968D01*
X298483Y27420D01*
X295768Y24705D01*
X292220Y23235D01*
X288380Y23235D01*
G37*
%LPD*%
%LPC*%
G36*
X391980Y23535D02*
X391980Y23535D01*
X388432Y25005D01*
X385717Y27720D01*
X384247Y31268D01*
X384247Y49332D01*
X385717Y52880D01*
X388432Y55595D01*
X391980Y57065D01*
X395820Y57065D01*
X399368Y55595D01*
X402083Y52880D01*
X403553Y49332D01*
X403553Y31268D01*
X402083Y27720D01*
X399368Y25005D01*
X395820Y23535D01*
X391980Y23535D01*
G37*
%LPD*%
%LPC*%
G36*
X618968Y412047D02*
X618968Y412047D01*
X615420Y413517D01*
X612705Y416232D01*
X611235Y419780D01*
X611235Y423620D01*
X612705Y427168D01*
X615420Y429883D01*
X618968Y431353D01*
X637032Y431353D01*
X640580Y429883D01*
X643295Y427168D01*
X644765Y423620D01*
X644765Y419780D01*
X643295Y416232D01*
X640580Y413517D01*
X637032Y412047D01*
X618968Y412047D01*
G37*
%LPD*%
%LPC*%
G36*
X618968Y386647D02*
X618968Y386647D01*
X615420Y388117D01*
X612705Y390832D01*
X611235Y394380D01*
X611235Y398220D01*
X612705Y401768D01*
X615420Y404483D01*
X618968Y405953D01*
X637032Y405953D01*
X640580Y404483D01*
X643295Y401768D01*
X644765Y398220D01*
X644765Y394380D01*
X643295Y390832D01*
X640580Y388117D01*
X637032Y386647D01*
X618968Y386647D01*
G37*
%LPD*%
%LPC*%
G36*
X313780Y23235D02*
X313780Y23235D01*
X310232Y24705D01*
X307517Y27420D01*
X306047Y30968D01*
X306047Y49032D01*
X307517Y52580D01*
X310232Y55295D01*
X313780Y56765D01*
X317620Y56765D01*
X321168Y55295D01*
X323883Y52580D01*
X325353Y49032D01*
X325353Y30968D01*
X323883Y27420D01*
X321168Y24705D01*
X317620Y23235D01*
X313780Y23235D01*
G37*
%LPD*%
%LPC*%
G36*
X339180Y23235D02*
X339180Y23235D01*
X335632Y24705D01*
X332917Y27420D01*
X331447Y30968D01*
X331447Y49032D01*
X332917Y52580D01*
X335632Y55295D01*
X339180Y56765D01*
X343020Y56765D01*
X346568Y55295D01*
X349283Y52580D01*
X350753Y49032D01*
X350753Y30968D01*
X349283Y27420D01*
X346568Y24705D01*
X343020Y23235D01*
X339180Y23235D01*
G37*
%LPD*%
%LPC*%
G36*
X618968Y361247D02*
X618968Y361247D01*
X615420Y362717D01*
X612705Y365432D01*
X611235Y368980D01*
X611235Y372820D01*
X612705Y376368D01*
X615420Y379083D01*
X618968Y380553D01*
X637032Y380553D01*
X640580Y379083D01*
X643295Y376368D01*
X644765Y372820D01*
X644765Y368980D01*
X643295Y365432D01*
X640580Y362717D01*
X637032Y361247D01*
X618968Y361247D01*
G37*
%LPD*%
%LPC*%
G36*
X480595Y116919D02*
X480595Y116919D01*
X476890Y118454D01*
X474054Y121290D01*
X472519Y124995D01*
X472519Y129005D01*
X474054Y132710D01*
X476890Y135546D01*
X480595Y137081D01*
X484605Y137081D01*
X488310Y135546D01*
X491146Y132710D01*
X492681Y129005D01*
X492681Y124995D01*
X491146Y121290D01*
X488310Y118454D01*
X484605Y116919D01*
X480595Y116919D01*
G37*
%LPD*%
%LPC*%
G36*
X480595Y142319D02*
X480595Y142319D01*
X476890Y143854D01*
X474054Y146690D01*
X472519Y150395D01*
X472519Y154405D01*
X474054Y158110D01*
X476890Y160946D01*
X480595Y162481D01*
X484605Y162481D01*
X488310Y160946D01*
X491146Y158110D01*
X492681Y154405D01*
X492681Y150395D01*
X491146Y146690D01*
X488310Y143854D01*
X484605Y142319D01*
X480595Y142319D01*
G37*
%LPD*%
%LPC*%
G36*
X455195Y167719D02*
X455195Y167719D01*
X451490Y169254D01*
X448654Y172090D01*
X447119Y175795D01*
X447119Y179805D01*
X448654Y183510D01*
X451490Y186346D01*
X455195Y187881D01*
X459205Y187881D01*
X462910Y186346D01*
X465746Y183510D01*
X467281Y179805D01*
X467281Y175795D01*
X465746Y172090D01*
X462910Y169254D01*
X459205Y167719D01*
X455195Y167719D01*
G37*
%LPD*%
%LPC*%
G36*
X480595Y167719D02*
X480595Y167719D01*
X476890Y169254D01*
X474054Y172090D01*
X472519Y175795D01*
X472519Y179805D01*
X474054Y183510D01*
X476890Y186346D01*
X480595Y187881D01*
X484605Y187881D01*
X488310Y186346D01*
X491146Y183510D01*
X492681Y179805D01*
X492681Y175795D01*
X491146Y172090D01*
X488310Y169254D01*
X484605Y167719D01*
X480595Y167719D01*
G37*
%LPD*%
%LPC*%
G36*
X480595Y193119D02*
X480595Y193119D01*
X476890Y194654D01*
X474054Y197490D01*
X472519Y201195D01*
X472519Y205205D01*
X474054Y208910D01*
X476890Y211746D01*
X480595Y213281D01*
X484605Y213281D01*
X488310Y211746D01*
X491146Y208910D01*
X492681Y205205D01*
X492681Y201195D01*
X491146Y197490D01*
X488310Y194654D01*
X484605Y193119D01*
X480595Y193119D01*
G37*
%LPD*%
%LPC*%
G36*
X455195Y193119D02*
X455195Y193119D01*
X451490Y194654D01*
X448654Y197490D01*
X447119Y201195D01*
X447119Y205205D01*
X448654Y208910D01*
X451490Y211746D01*
X455195Y213281D01*
X459205Y213281D01*
X462910Y211746D01*
X465746Y208910D01*
X467281Y205205D01*
X467281Y201195D01*
X465746Y197490D01*
X462910Y194654D01*
X459205Y193119D01*
X455195Y193119D01*
G37*
%LPD*%
%LPC*%
G36*
X480595Y91519D02*
X480595Y91519D01*
X476890Y93054D01*
X474054Y95890D01*
X472519Y99595D01*
X472519Y103605D01*
X474054Y107310D01*
X476890Y110146D01*
X480595Y111681D01*
X484605Y111681D01*
X488310Y110146D01*
X491146Y107310D01*
X492681Y103605D01*
X492681Y99595D01*
X491146Y95890D01*
X488310Y93054D01*
X484605Y91519D01*
X480595Y91519D01*
G37*
%LPD*%
%LPC*%
G36*
X480595Y218519D02*
X480595Y218519D01*
X476890Y220054D01*
X474054Y222890D01*
X472519Y226595D01*
X472519Y230605D01*
X474054Y234310D01*
X476890Y237146D01*
X480595Y238681D01*
X484605Y238681D01*
X488310Y237146D01*
X491146Y234310D01*
X492681Y230605D01*
X492681Y226595D01*
X491146Y222890D01*
X488310Y220054D01*
X484605Y218519D01*
X480595Y218519D01*
G37*
%LPD*%
%LPC*%
G36*
X480595Y243919D02*
X480595Y243919D01*
X476890Y245454D01*
X474054Y248290D01*
X472519Y251995D01*
X472519Y256005D01*
X474054Y259710D01*
X476890Y262546D01*
X480595Y264081D01*
X484605Y264081D01*
X488310Y262546D01*
X491146Y259710D01*
X492681Y256005D01*
X492681Y251995D01*
X491146Y248290D01*
X488310Y245454D01*
X484605Y243919D01*
X480595Y243919D01*
G37*
%LPD*%
%LPC*%
G36*
X455195Y218519D02*
X455195Y218519D01*
X451490Y220054D01*
X448654Y222890D01*
X447119Y226595D01*
X447119Y230605D01*
X448654Y234310D01*
X451490Y237146D01*
X455195Y238681D01*
X459205Y238681D01*
X462910Y237146D01*
X465746Y234310D01*
X467281Y230605D01*
X467281Y226595D01*
X465746Y222890D01*
X462910Y220054D01*
X459205Y218519D01*
X455195Y218519D01*
G37*
%LPD*%
%LPC*%
G36*
X455195Y91519D02*
X455195Y91519D01*
X451490Y93054D01*
X448654Y95890D01*
X447119Y99595D01*
X447119Y103605D01*
X448654Y107310D01*
X451490Y110146D01*
X455195Y111681D01*
X459205Y111681D01*
X462910Y110146D01*
X465746Y107310D01*
X467281Y103605D01*
X467281Y99595D01*
X465746Y95890D01*
X462910Y93054D01*
X459205Y91519D01*
X455195Y91519D01*
G37*
%LPD*%
%LPC*%
G36*
X108202Y344647D02*
X108202Y344647D01*
X102547Y350302D01*
X102547Y358298D01*
X108202Y363953D01*
X116198Y363953D01*
X121853Y358298D01*
X121853Y350302D01*
X116198Y344647D01*
X108202Y344647D01*
G37*
%LPD*%
%LPC*%
G36*
X918302Y374847D02*
X918302Y374847D01*
X912647Y380502D01*
X912647Y388498D01*
X918302Y394153D01*
X926298Y394153D01*
X931953Y388498D01*
X931953Y380502D01*
X926298Y374847D01*
X918302Y374847D01*
G37*
%LPD*%
%LPC*%
G36*
X943702Y400247D02*
X943702Y400247D01*
X938047Y405902D01*
X938047Y413898D01*
X943702Y419553D01*
X951698Y419553D01*
X957353Y413898D01*
X957353Y405902D01*
X951698Y400247D01*
X943702Y400247D01*
G37*
%LPD*%
%LPC*%
G36*
X918302Y400247D02*
X918302Y400247D01*
X912647Y405902D01*
X912647Y413898D01*
X918302Y419553D01*
X926298Y419553D01*
X931953Y413898D01*
X931953Y405902D01*
X926298Y400247D01*
X918302Y400247D01*
G37*
%LPD*%
%LPC*%
G36*
X57402Y344647D02*
X57402Y344647D01*
X51747Y350302D01*
X51747Y358298D01*
X57402Y363953D01*
X65398Y363953D01*
X71053Y358298D01*
X71053Y350302D01*
X65398Y344647D01*
X57402Y344647D01*
G37*
%LPD*%
%LPC*%
G36*
X32002Y344647D02*
X32002Y344647D01*
X26347Y350302D01*
X26347Y358298D01*
X32002Y363953D01*
X39998Y363953D01*
X45653Y358298D01*
X45653Y350302D01*
X39998Y344647D01*
X32002Y344647D01*
G37*
%LPD*%
%LPC*%
G36*
X82802Y344647D02*
X82802Y344647D01*
X77147Y350302D01*
X77147Y358298D01*
X82802Y363953D01*
X90798Y363953D01*
X96453Y358298D01*
X96453Y350302D01*
X90798Y344647D01*
X82802Y344647D01*
G37*
%LPD*%
%LPC*%
G36*
X943702Y425647D02*
X943702Y425647D01*
X938047Y431302D01*
X938047Y439298D01*
X943702Y444953D01*
X951698Y444953D01*
X957353Y439298D01*
X957353Y431302D01*
X951698Y425647D01*
X943702Y425647D01*
G37*
%LPD*%
%LPC*%
G36*
X734612Y405855D02*
X734612Y405855D01*
X729255Y411212D01*
X729255Y418788D01*
X734612Y424145D01*
X742188Y424145D01*
X747545Y418788D01*
X747545Y411212D01*
X742188Y405855D01*
X734612Y405855D01*
G37*
%LPD*%
%LPC*%
G36*
X771412Y394255D02*
X771412Y394255D01*
X766055Y399612D01*
X766055Y407188D01*
X771412Y412545D01*
X778988Y412545D01*
X784345Y407188D01*
X784345Y399612D01*
X778988Y394255D01*
X771412Y394255D01*
G37*
%LPD*%
%LPC*%
G36*
X225212Y240255D02*
X225212Y240255D01*
X219855Y245612D01*
X219855Y253188D01*
X225212Y258545D01*
X232788Y258545D01*
X238145Y253188D01*
X238145Y245612D01*
X232788Y240255D01*
X225212Y240255D01*
G37*
%LPD*%
%LPC*%
G36*
X192812Y280955D02*
X192812Y280955D01*
X187455Y286312D01*
X187455Y293888D01*
X192812Y299245D01*
X200388Y299245D01*
X205745Y293888D01*
X205745Y286312D01*
X200388Y280955D01*
X192812Y280955D01*
G37*
%LPD*%
%LPC*%
G36*
X345712Y250555D02*
X345712Y250555D01*
X340355Y255912D01*
X340355Y263488D01*
X345712Y268845D01*
X353288Y268845D01*
X358645Y263488D01*
X358645Y255912D01*
X353288Y250555D01*
X345712Y250555D01*
G37*
%LPD*%
%LPC*%
G36*
X385812Y356255D02*
X385812Y356255D01*
X380455Y361612D01*
X380455Y369188D01*
X385812Y374545D01*
X393388Y374545D01*
X398745Y369188D01*
X398745Y361612D01*
X393388Y356255D01*
X385812Y356255D01*
G37*
%LPD*%
%LPC*%
G36*
X613112Y63155D02*
X613112Y63155D01*
X607755Y68512D01*
X607755Y76088D01*
X613112Y81445D01*
X620688Y81445D01*
X626045Y76088D01*
X626045Y68512D01*
X620688Y63155D01*
X613112Y63155D01*
G37*
%LPD*%
%LPC*%
G36*
X613112Y139355D02*
X613112Y139355D01*
X607755Y144712D01*
X607755Y152288D01*
X613112Y157645D01*
X620688Y157645D01*
X626045Y152288D01*
X626045Y144712D01*
X620688Y139355D01*
X613112Y139355D01*
G37*
%LPD*%
%LPC*%
G36*
X572212Y70255D02*
X572212Y70255D01*
X566855Y75612D01*
X566855Y83188D01*
X572212Y88545D01*
X579788Y88545D01*
X585145Y83188D01*
X585145Y75612D01*
X579788Y70255D01*
X572212Y70255D01*
G37*
%LPD*%
%LPC*%
G36*
X26809Y288669D02*
X26809Y288669D01*
X26809Y298211D01*
X34144Y298211D01*
X34791Y298038D01*
X35370Y297703D01*
X35843Y297230D01*
X36178Y296651D01*
X36351Y296004D01*
X36351Y288669D01*
X26809Y288669D01*
G37*
%LPD*%
%LPC*%
G36*
X26809Y273129D02*
X26809Y273129D01*
X26809Y282671D01*
X36351Y282671D01*
X36351Y275336D01*
X36178Y274689D01*
X35843Y274110D01*
X35370Y273637D01*
X34791Y273302D01*
X34144Y273129D01*
X26809Y273129D01*
G37*
%LPD*%
%LPC*%
G36*
X267185Y42285D02*
X267185Y42285D01*
X267185Y56519D01*
X268605Y56058D01*
X269959Y55368D01*
X271188Y54475D01*
X272263Y53400D01*
X273156Y52171D01*
X273846Y50817D01*
X274315Y49372D01*
X274553Y47872D01*
X274553Y42285D01*
X267185Y42285D01*
G37*
%LPD*%
%LPC*%
G36*
X775385Y463385D02*
X775385Y463385D01*
X775385Y470753D01*
X780972Y470753D01*
X782472Y470515D01*
X783917Y470046D01*
X785271Y469356D01*
X786500Y468463D01*
X787575Y467388D01*
X788468Y466159D01*
X789158Y464805D01*
X789619Y463385D01*
X775385Y463385D01*
G37*
%LPD*%
%LPC*%
G36*
X421585Y42585D02*
X421585Y42585D01*
X421585Y56819D01*
X423005Y56358D01*
X424359Y55668D01*
X425588Y54775D01*
X426663Y53700D01*
X427556Y52471D01*
X428246Y51117D01*
X428715Y49672D01*
X428953Y48172D01*
X428953Y42585D01*
X421585Y42585D01*
G37*
%LPD*%
%LPC*%
G36*
X267185Y37715D02*
X267185Y37715D01*
X274553Y37715D01*
X274553Y32128D01*
X274315Y30628D01*
X273846Y29183D01*
X273156Y27829D01*
X272263Y26600D01*
X271188Y25525D01*
X269959Y24632D01*
X268605Y23942D01*
X267185Y23481D01*
X267185Y37715D01*
G37*
%LPD*%
%LPC*%
G36*
X421585Y38015D02*
X421585Y38015D01*
X428953Y38015D01*
X428953Y32428D01*
X428715Y30928D01*
X428246Y29483D01*
X427556Y28129D01*
X426663Y26900D01*
X425588Y25825D01*
X424359Y24932D01*
X423005Y24242D01*
X421585Y23781D01*
X421585Y38015D01*
G37*
%LPD*%
%LPC*%
G36*
X755281Y346985D02*
X755281Y346985D01*
X755742Y348405D01*
X756432Y349759D01*
X757325Y350988D01*
X758400Y352063D01*
X759629Y352956D01*
X760983Y353646D01*
X762428Y354115D01*
X763928Y354353D01*
X769515Y354353D01*
X769515Y346985D01*
X755281Y346985D01*
G37*
%LPD*%
%LPC*%
G36*
X756581Y463385D02*
X756581Y463385D01*
X757042Y464805D01*
X757732Y466159D01*
X758625Y467388D01*
X759700Y468463D01*
X760929Y469356D01*
X762283Y470046D01*
X763728Y470515D01*
X765228Y470753D01*
X770815Y470753D01*
X770815Y463385D01*
X756581Y463385D01*
G37*
%LPD*%
%LPC*%
G36*
X611481Y449385D02*
X611481Y449385D01*
X611942Y450805D01*
X612632Y452159D01*
X613525Y453388D01*
X614600Y454463D01*
X615829Y455356D01*
X617183Y456046D01*
X618628Y456515D01*
X620128Y456753D01*
X625715Y456753D01*
X625715Y449385D01*
X611481Y449385D01*
G37*
%LPD*%
%LPC*%
G36*
X630285Y437447D02*
X630285Y437447D01*
X630285Y444815D01*
X644519Y444815D01*
X644058Y443395D01*
X643368Y442041D01*
X642475Y440812D01*
X641400Y439737D01*
X640171Y438844D01*
X638817Y438154D01*
X637372Y437685D01*
X635872Y437447D01*
X630285Y437447D01*
G37*
%LPD*%
%LPC*%
G36*
X255247Y42285D02*
X255247Y42285D01*
X255247Y47872D01*
X255485Y49372D01*
X255954Y50817D01*
X256644Y52171D01*
X257537Y53400D01*
X258612Y54475D01*
X259841Y55368D01*
X261195Y56058D01*
X262615Y56519D01*
X262615Y42285D01*
X255247Y42285D01*
G37*
%LPD*%
%LPC*%
G36*
X409647Y42585D02*
X409647Y42585D01*
X409647Y48172D01*
X409885Y49672D01*
X410354Y51117D01*
X411044Y52471D01*
X411937Y53700D01*
X413012Y54775D01*
X414241Y55668D01*
X415595Y56358D01*
X417015Y56819D01*
X417015Y42585D01*
X409647Y42585D01*
G37*
%LPD*%
%LPC*%
G36*
X775385Y451447D02*
X775385Y451447D01*
X775385Y458815D01*
X789619Y458815D01*
X789158Y457395D01*
X788468Y456041D01*
X787575Y454812D01*
X786500Y453737D01*
X785271Y452844D01*
X783917Y452154D01*
X782472Y451685D01*
X780972Y451447D01*
X775385Y451447D01*
G37*
%LPD*%
%LPC*%
G36*
X763928Y335047D02*
X763928Y335047D01*
X762428Y335285D01*
X760983Y335754D01*
X759629Y336444D01*
X758400Y337337D01*
X757325Y338412D01*
X756432Y339641D01*
X755742Y340995D01*
X755281Y342415D01*
X769515Y342415D01*
X769515Y335047D01*
X763928Y335047D01*
G37*
%LPD*%
%LPC*%
G36*
X620128Y437447D02*
X620128Y437447D01*
X618628Y437685D01*
X617183Y438154D01*
X615829Y438844D01*
X614600Y439737D01*
X613525Y440812D01*
X612632Y442041D01*
X611942Y443395D01*
X611481Y444815D01*
X625715Y444815D01*
X625715Y437447D01*
X620128Y437447D01*
G37*
%LPD*%
%LPC*%
G36*
X261195Y23942D02*
X261195Y23942D01*
X259841Y24632D01*
X258612Y25525D01*
X257537Y26600D01*
X256644Y27829D01*
X255954Y29183D01*
X255485Y30628D01*
X255247Y32128D01*
X255247Y37715D01*
X262615Y37715D01*
X262615Y23481D01*
X261195Y23942D01*
G37*
%LPD*%
%LPC*%
G36*
X765228Y451447D02*
X765228Y451447D01*
X763728Y451685D01*
X762283Y452154D01*
X760929Y452844D01*
X759700Y453737D01*
X758625Y454812D01*
X757732Y456041D01*
X757042Y457395D01*
X756581Y458815D01*
X770815Y458815D01*
X770815Y451447D01*
X765228Y451447D01*
G37*
%LPD*%
%LPC*%
G36*
X415595Y24242D02*
X415595Y24242D01*
X414241Y24932D01*
X413012Y25825D01*
X411937Y26900D01*
X411044Y28129D01*
X410354Y29483D01*
X409885Y30928D01*
X409647Y32428D01*
X409647Y38015D01*
X417015Y38015D01*
X417015Y23781D01*
X415595Y24242D01*
G37*
%LPD*%
%LPC*%
G36*
X358931Y297031D02*
X358931Y297031D01*
X358931Y304145D01*
X364224Y304145D01*
X365646Y303920D01*
X367014Y303475D01*
X368297Y302821D01*
X369461Y301975D01*
X370479Y300957D01*
X371325Y299793D01*
X371979Y298510D01*
X372424Y297142D01*
X372441Y297031D01*
X358931Y297031D01*
G37*
%LPD*%
%LPC*%
G36*
X352559Y392031D02*
X352559Y392031D01*
X352576Y392142D01*
X353021Y393510D01*
X353675Y394793D01*
X354521Y395957D01*
X355539Y396975D01*
X356703Y397821D01*
X357986Y398475D01*
X359354Y398920D01*
X360776Y399145D01*
X366069Y399145D01*
X366069Y392031D01*
X352559Y392031D01*
G37*
%LPD*%
%LPC*%
G36*
X358931Y285855D02*
X358931Y285855D01*
X358931Y292969D01*
X372441Y292969D01*
X372424Y292858D01*
X371979Y291490D01*
X371325Y290207D01*
X370479Y289043D01*
X369461Y288025D01*
X368297Y287179D01*
X367014Y286525D01*
X365646Y286080D01*
X364224Y285855D01*
X358931Y285855D01*
G37*
%LPD*%
%LPC*%
G36*
X370131Y380855D02*
X370131Y380855D01*
X370131Y387969D01*
X383641Y387969D01*
X383624Y387858D01*
X383179Y386490D01*
X382525Y385207D01*
X381679Y384043D01*
X380661Y383025D01*
X379497Y382179D01*
X378214Y381525D01*
X376846Y381080D01*
X375424Y380855D01*
X370131Y380855D01*
G37*
%LPD*%
%LPC*%
G36*
X360776Y380855D02*
X360776Y380855D01*
X359354Y381080D01*
X357986Y381525D01*
X356703Y382179D01*
X355539Y383025D01*
X354521Y384043D01*
X353675Y385207D01*
X353021Y386490D01*
X352576Y387858D01*
X352559Y387969D01*
X366069Y387969D01*
X366069Y380855D01*
X360776Y380855D01*
G37*
%LPD*%
%LPC*%
G36*
X459699Y256499D02*
X459699Y256499D01*
X459699Y264081D01*
X463927Y264081D01*
X463944Y264082D01*
X463961Y264081D01*
X464138Y264102D01*
X464315Y264121D01*
X464331Y264126D01*
X464348Y264128D01*
X464517Y264185D01*
X464687Y264239D01*
X464701Y264247D01*
X464717Y264252D01*
X464871Y264342D01*
X465026Y264430D01*
X465039Y264441D01*
X465053Y264449D01*
X465111Y264502D01*
X465176Y264421D01*
X465235Y264331D01*
X465297Y264269D01*
X465352Y264201D01*
X465415Y264152D01*
X465512Y264055D01*
X465688Y263940D01*
X465758Y263886D01*
X466300Y263573D01*
X466773Y263100D01*
X467108Y262521D01*
X467281Y261874D01*
X467281Y256499D01*
X459699Y256499D01*
G37*
%LPD*%
%LPC*%
G36*
X447119Y256499D02*
X447119Y256499D01*
X447119Y261874D01*
X447292Y262521D01*
X447627Y263100D01*
X448100Y263573D01*
X448679Y263908D01*
X449326Y264081D01*
X454701Y264081D01*
X454701Y256499D01*
X447119Y256499D01*
G37*
%LPD*%
%LPC*%
G36*
X459699Y243919D02*
X459699Y243919D01*
X459699Y251501D01*
X467281Y251501D01*
X467281Y246126D01*
X467108Y245479D01*
X466773Y244900D01*
X466300Y244427D01*
X465721Y244092D01*
X465074Y243919D01*
X459699Y243919D01*
G37*
%LPD*%
%LPC*%
G36*
X449326Y243919D02*
X449326Y243919D01*
X448679Y244092D01*
X448100Y244427D01*
X447627Y244900D01*
X447292Y245479D01*
X447119Y246126D01*
X447119Y251501D01*
X454701Y251501D01*
X454701Y243919D01*
X449326Y243919D01*
G37*
%LPD*%
%LPC*%
G36*
X114485Y381985D02*
X114485Y381985D01*
X114485Y389353D01*
X116198Y389353D01*
X121853Y383698D01*
X121853Y381985D01*
X114485Y381985D01*
G37*
%LPD*%
%LPC*%
G36*
X38285Y381985D02*
X38285Y381985D01*
X38285Y389353D01*
X39998Y389353D01*
X45653Y383698D01*
X45653Y381985D01*
X38285Y381985D01*
G37*
%LPD*%
%LPC*%
G36*
X89085Y381985D02*
X89085Y381985D01*
X89085Y389353D01*
X90798Y389353D01*
X96453Y383698D01*
X96453Y381985D01*
X89085Y381985D01*
G37*
%LPD*%
%LPC*%
G36*
X63685Y381985D02*
X63685Y381985D01*
X63685Y389353D01*
X65398Y389353D01*
X71053Y383698D01*
X71053Y381985D01*
X63685Y381985D01*
G37*
%LPD*%
%LPC*%
G36*
X949985Y386785D02*
X949985Y386785D01*
X949985Y394153D01*
X951698Y394153D01*
X957353Y388498D01*
X957353Y386785D01*
X949985Y386785D01*
G37*
%LPD*%
%LPC*%
G36*
X114485Y370047D02*
X114485Y370047D01*
X114485Y377415D01*
X121853Y377415D01*
X121853Y375702D01*
X116198Y370047D01*
X114485Y370047D01*
G37*
%LPD*%
%LPC*%
G36*
X938047Y386785D02*
X938047Y386785D01*
X938047Y388498D01*
X943702Y394153D01*
X945415Y394153D01*
X945415Y386785D01*
X938047Y386785D01*
G37*
%LPD*%
%LPC*%
G36*
X102547Y381985D02*
X102547Y381985D01*
X102547Y383698D01*
X108202Y389353D01*
X109915Y389353D01*
X109915Y381985D01*
X102547Y381985D01*
G37*
%LPD*%
%LPC*%
G36*
X77147Y381985D02*
X77147Y381985D01*
X77147Y383698D01*
X82802Y389353D01*
X84515Y389353D01*
X84515Y381985D01*
X77147Y381985D01*
G37*
%LPD*%
%LPC*%
G36*
X51747Y381985D02*
X51747Y381985D01*
X51747Y383698D01*
X57402Y389353D01*
X59115Y389353D01*
X59115Y381985D01*
X51747Y381985D01*
G37*
%LPD*%
%LPC*%
G36*
X26347Y381985D02*
X26347Y381985D01*
X26347Y383698D01*
X32002Y389353D01*
X33715Y389353D01*
X33715Y381985D01*
X26347Y381985D01*
G37*
%LPD*%
%LPC*%
G36*
X949985Y374847D02*
X949985Y374847D01*
X949985Y382215D01*
X957353Y382215D01*
X957353Y380502D01*
X951698Y374847D01*
X949985Y374847D01*
G37*
%LPD*%
%LPC*%
G36*
X89085Y370047D02*
X89085Y370047D01*
X89085Y377415D01*
X96453Y377415D01*
X96453Y375702D01*
X90798Y370047D01*
X89085Y370047D01*
G37*
%LPD*%
%LPC*%
G36*
X63685Y370047D02*
X63685Y370047D01*
X63685Y377415D01*
X71053Y377415D01*
X71053Y375702D01*
X65398Y370047D01*
X63685Y370047D01*
G37*
%LPD*%
%LPC*%
G36*
X38285Y370047D02*
X38285Y370047D01*
X38285Y377415D01*
X45653Y377415D01*
X45653Y375702D01*
X39998Y370047D01*
X38285Y370047D01*
G37*
%LPD*%
%LPC*%
G36*
X943702Y374847D02*
X943702Y374847D01*
X938047Y380502D01*
X938047Y382215D01*
X945415Y382215D01*
X945415Y374847D01*
X943702Y374847D01*
G37*
%LPD*%
%LPC*%
G36*
X32002Y370047D02*
X32002Y370047D01*
X26347Y375702D01*
X26347Y377415D01*
X33715Y377415D01*
X33715Y370047D01*
X32002Y370047D01*
G37*
%LPD*%
%LPC*%
G36*
X57402Y370047D02*
X57402Y370047D01*
X51747Y375702D01*
X51747Y377415D01*
X59115Y377415D01*
X59115Y370047D01*
X57402Y370047D01*
G37*
%LPD*%
%LPC*%
G36*
X82802Y370047D02*
X82802Y370047D01*
X77147Y375702D01*
X77147Y377415D01*
X84515Y377415D01*
X84515Y370047D01*
X82802Y370047D01*
G37*
%LPD*%
%LPC*%
G36*
X108202Y370047D02*
X108202Y370047D01*
X102547Y375702D01*
X102547Y377415D01*
X109915Y377415D01*
X109915Y370047D01*
X108202Y370047D01*
G37*
%LPD*%
%LPC*%
G36*
X248249Y393859D02*
X248249Y393859D01*
X248249Y399651D01*
X255041Y399651D01*
X255041Y396066D01*
X254868Y395419D01*
X254533Y394840D01*
X254060Y394367D01*
X253481Y394032D01*
X252834Y393859D01*
X248249Y393859D01*
G37*
%LPD*%
%LPC*%
G36*
X248249Y348359D02*
X248249Y348359D01*
X248249Y354151D01*
X255041Y354151D01*
X255041Y350566D01*
X254868Y349919D01*
X254533Y349340D01*
X254060Y348867D01*
X253481Y348532D01*
X252834Y348359D01*
X248249Y348359D01*
G37*
%LPD*%
%LPC*%
G36*
X237166Y393859D02*
X237166Y393859D01*
X236519Y394032D01*
X235940Y394367D01*
X235467Y394840D01*
X235132Y395419D01*
X234959Y396066D01*
X234959Y399651D01*
X241751Y399651D01*
X241751Y393859D01*
X237166Y393859D01*
G37*
%LPD*%
%LPC*%
G36*
X237166Y348359D02*
X237166Y348359D01*
X236519Y348532D01*
X235940Y348867D01*
X235467Y349340D01*
X235132Y349919D01*
X234959Y350566D01*
X234959Y354151D01*
X241751Y354151D01*
X241751Y348359D01*
X237166Y348359D01*
G37*
%LPD*%
%LPC*%
G36*
X237919Y201204D02*
X237919Y201204D01*
X237919Y205174D01*
X238092Y205821D01*
X238427Y206400D01*
X238900Y206873D01*
X239479Y207208D01*
X240126Y207381D01*
X244096Y207381D01*
X244096Y201204D01*
X237919Y201204D01*
G37*
%LPD*%
%LPC*%
G36*
X415126Y71219D02*
X415126Y71219D01*
X414479Y71392D01*
X413900Y71727D01*
X413427Y72200D01*
X413092Y72779D01*
X412919Y73426D01*
X412919Y77396D01*
X419096Y77396D01*
X419096Y71219D01*
X415126Y71219D01*
G37*
%LPD*%
%LPC*%
G36*
X459699Y78699D02*
X459699Y78699D01*
X459699Y85987D01*
X461070Y85542D01*
X462484Y84822D01*
X463767Y83889D01*
X464889Y82767D01*
X465822Y81484D01*
X466542Y80070D01*
X466987Y78699D01*
X459699Y78699D01*
G37*
%LPD*%
%LPC*%
G36*
X447413Y78699D02*
X447413Y78699D01*
X447858Y80070D01*
X448578Y81484D01*
X449511Y82767D01*
X450633Y83889D01*
X451916Y84822D01*
X453330Y85542D01*
X454701Y85987D01*
X454701Y78699D01*
X447413Y78699D01*
G37*
%LPD*%
%LPC*%
G36*
X173231Y292131D02*
X173231Y292131D01*
X173231Y299245D01*
X174988Y299245D01*
X180345Y293888D01*
X180345Y292131D01*
X173231Y292131D01*
G37*
%LPD*%
%LPC*%
G36*
X535931Y149931D02*
X535931Y149931D01*
X535931Y157045D01*
X537688Y157045D01*
X543045Y151688D01*
X543045Y149931D01*
X535931Y149931D01*
G37*
%LPD*%
%LPC*%
G36*
X578031Y106831D02*
X578031Y106831D01*
X578031Y113945D01*
X579788Y113945D01*
X585145Y108588D01*
X585145Y106831D01*
X578031Y106831D01*
G37*
%LPD*%
%LPC*%
G36*
X578031Y102769D02*
X578031Y102769D01*
X585145Y102769D01*
X585145Y101012D01*
X579788Y95655D01*
X578031Y95655D01*
X578031Y102769D01*
G37*
%LPD*%
%LPC*%
G36*
X535931Y145869D02*
X535931Y145869D01*
X543045Y145869D01*
X543045Y144112D01*
X537688Y138755D01*
X535931Y138755D01*
X535931Y145869D01*
G37*
%LPD*%
%LPC*%
G36*
X524755Y149931D02*
X524755Y149931D01*
X524755Y151688D01*
X530112Y157045D01*
X531869Y157045D01*
X531869Y149931D01*
X524755Y149931D01*
G37*
%LPD*%
%LPC*%
G36*
X162055Y292131D02*
X162055Y292131D01*
X162055Y293888D01*
X167412Y299245D01*
X169169Y299245D01*
X169169Y292131D01*
X162055Y292131D01*
G37*
%LPD*%
%LPC*%
G36*
X566855Y106831D02*
X566855Y106831D01*
X566855Y108588D01*
X572212Y113945D01*
X573969Y113945D01*
X573969Y106831D01*
X566855Y106831D01*
G37*
%LPD*%
%LPC*%
G36*
X173231Y280955D02*
X173231Y280955D01*
X173231Y288069D01*
X180345Y288069D01*
X180345Y286312D01*
X174988Y280955D01*
X173231Y280955D01*
G37*
%LPD*%
%LPC*%
G36*
X167412Y280955D02*
X167412Y280955D01*
X162055Y286312D01*
X162055Y288069D01*
X169169Y288069D01*
X169169Y280955D01*
X167412Y280955D01*
G37*
%LPD*%
%LPC*%
G36*
X572212Y95655D02*
X572212Y95655D01*
X566855Y101012D01*
X566855Y102769D01*
X573969Y102769D01*
X573969Y95655D01*
X572212Y95655D01*
G37*
%LPD*%
%LPC*%
G36*
X530112Y138755D02*
X530112Y138755D01*
X524755Y144112D01*
X524755Y145869D01*
X531869Y145869D01*
X531869Y138755D01*
X530112Y138755D01*
G37*
%LPD*%
%LPC*%
G36*
X864604Y340504D02*
X864604Y340504D01*
X864604Y344316D01*
X869384Y344316D01*
X870031Y344143D01*
X870610Y343808D01*
X871083Y343335D01*
X871418Y342756D01*
X871591Y342109D01*
X871591Y340504D01*
X864604Y340504D01*
G37*
%LPD*%
%LPC*%
G36*
X806604Y340504D02*
X806604Y340504D01*
X806604Y344316D01*
X811384Y344316D01*
X812031Y344143D01*
X812610Y343808D01*
X813083Y343335D01*
X813418Y342756D01*
X813591Y342109D01*
X813591Y340504D01*
X806604Y340504D01*
G37*
%LPD*%
%LPC*%
G36*
X232904Y289404D02*
X232904Y289404D01*
X232904Y293216D01*
X237684Y293216D01*
X238331Y293043D01*
X238910Y292708D01*
X239383Y292235D01*
X239718Y291656D01*
X239891Y291009D01*
X239891Y289404D01*
X232904Y289404D01*
G37*
%LPD*%
%LPC*%
G36*
X803404Y473504D02*
X803404Y473504D01*
X803404Y477316D01*
X808184Y477316D01*
X808831Y477143D01*
X809410Y476808D01*
X809883Y476335D01*
X810218Y475756D01*
X810391Y475109D01*
X810391Y473504D01*
X803404Y473504D01*
G37*
%LPD*%
%LPC*%
G36*
X861404Y473504D02*
X861404Y473504D01*
X861404Y477316D01*
X866184Y477316D01*
X866831Y477143D01*
X867410Y476808D01*
X867883Y476335D01*
X868218Y475756D01*
X868391Y475109D01*
X868391Y473504D01*
X861404Y473504D01*
G37*
%LPD*%
%LPC*%
G36*
X853809Y340504D02*
X853809Y340504D01*
X853809Y342109D01*
X853982Y342756D01*
X854317Y343335D01*
X854790Y343808D01*
X855369Y344143D01*
X856016Y344316D01*
X860796Y344316D01*
X860796Y340504D01*
X853809Y340504D01*
G37*
%LPD*%
%LPC*%
G36*
X850609Y473504D02*
X850609Y473504D01*
X850609Y475109D01*
X850782Y475756D01*
X851117Y476335D01*
X851590Y476808D01*
X852169Y477143D01*
X852816Y477316D01*
X857596Y477316D01*
X857596Y473504D01*
X850609Y473504D01*
G37*
%LPD*%
%LPC*%
G36*
X792609Y473504D02*
X792609Y473504D01*
X792609Y475109D01*
X792782Y475756D01*
X793117Y476335D01*
X793590Y476808D01*
X794169Y477143D01*
X794816Y477316D01*
X799596Y477316D01*
X799596Y473504D01*
X792609Y473504D01*
G37*
%LPD*%
%LPC*%
G36*
X280109Y289404D02*
X280109Y289404D01*
X280109Y291009D01*
X280282Y291656D01*
X280617Y292235D01*
X281090Y292708D01*
X281669Y293043D01*
X282316Y293216D01*
X287096Y293216D01*
X287096Y289404D01*
X280109Y289404D01*
G37*
%LPD*%
%LPC*%
G36*
X222109Y289404D02*
X222109Y289404D01*
X222109Y291009D01*
X222282Y291656D01*
X222617Y292235D01*
X223090Y292708D01*
X223669Y293043D01*
X224316Y293216D01*
X229096Y293216D01*
X229096Y289404D01*
X222109Y289404D01*
G37*
%LPD*%
%LPC*%
G36*
X357704Y479684D02*
X357704Y479684D01*
X357704Y483496D01*
X364691Y483496D01*
X364691Y481891D01*
X364518Y481244D01*
X364183Y480665D01*
X363710Y480192D01*
X363131Y479857D01*
X362484Y479684D01*
X357704Y479684D01*
G37*
%LPD*%
%LPC*%
G36*
X806604Y332884D02*
X806604Y332884D01*
X806604Y336696D01*
X813591Y336696D01*
X813591Y335091D01*
X813418Y334444D01*
X813083Y333865D01*
X812610Y333392D01*
X812031Y333057D01*
X811384Y332884D01*
X806604Y332884D01*
G37*
%LPD*%
%LPC*%
G36*
X861404Y465884D02*
X861404Y465884D01*
X861404Y469696D01*
X868391Y469696D01*
X868391Y468091D01*
X868218Y467444D01*
X867883Y466865D01*
X867410Y466392D01*
X866831Y466057D01*
X866184Y465884D01*
X861404Y465884D01*
G37*
%LPD*%
%LPC*%
G36*
X803404Y465884D02*
X803404Y465884D01*
X803404Y469696D01*
X810391Y469696D01*
X810391Y468091D01*
X810218Y467444D01*
X809883Y466865D01*
X809410Y466392D01*
X808831Y466057D01*
X808184Y465884D01*
X803404Y465884D01*
G37*
%LPD*%
%LPC*%
G36*
X415704Y479684D02*
X415704Y479684D01*
X415704Y483496D01*
X422691Y483496D01*
X422691Y481891D01*
X422518Y481244D01*
X422183Y480665D01*
X421710Y480192D01*
X421131Y479857D01*
X420484Y479684D01*
X415704Y479684D01*
G37*
%LPD*%
%LPC*%
G36*
X864604Y332884D02*
X864604Y332884D01*
X864604Y336696D01*
X871591Y336696D01*
X871591Y335091D01*
X871418Y334444D01*
X871083Y333865D01*
X870610Y333392D01*
X870031Y333057D01*
X869384Y332884D01*
X864604Y332884D01*
G37*
%LPD*%
%LPC*%
G36*
X232904Y281784D02*
X232904Y281784D01*
X232904Y285596D01*
X239891Y285596D01*
X239891Y283991D01*
X239718Y283344D01*
X239383Y282765D01*
X238910Y282292D01*
X238331Y281957D01*
X237684Y281784D01*
X232904Y281784D01*
G37*
%LPD*%
%LPC*%
G36*
X856016Y332884D02*
X856016Y332884D01*
X855369Y333057D01*
X854790Y333392D01*
X854317Y333865D01*
X853982Y334444D01*
X853809Y335091D01*
X853809Y336696D01*
X860796Y336696D01*
X860796Y332884D01*
X856016Y332884D01*
G37*
%LPD*%
%LPC*%
G36*
X794816Y465884D02*
X794816Y465884D01*
X794169Y466057D01*
X793590Y466392D01*
X793117Y466865D01*
X792782Y467444D01*
X792609Y468091D01*
X792609Y469696D01*
X799596Y469696D01*
X799596Y465884D01*
X794816Y465884D01*
G37*
%LPD*%
%LPC*%
G36*
X852816Y465884D02*
X852816Y465884D01*
X852169Y466057D01*
X851590Y466392D01*
X851117Y466865D01*
X850782Y467444D01*
X850609Y468091D01*
X850609Y469696D01*
X857596Y469696D01*
X857596Y465884D01*
X852816Y465884D01*
G37*
%LPD*%
%LPC*%
G36*
X224316Y281784D02*
X224316Y281784D01*
X223669Y281957D01*
X223090Y282292D01*
X222617Y282765D01*
X222282Y283344D01*
X222109Y283991D01*
X222109Y285596D01*
X229096Y285596D01*
X229096Y281784D01*
X224316Y281784D01*
G37*
%LPD*%
%LPC*%
G36*
X349116Y479684D02*
X349116Y479684D01*
X348469Y479857D01*
X347890Y480192D01*
X347417Y480665D01*
X347082Y481244D01*
X346909Y481891D01*
X346909Y483496D01*
X353896Y483496D01*
X353896Y479684D01*
X349116Y479684D01*
G37*
%LPD*%
%LPC*%
G36*
X407116Y479684D02*
X407116Y479684D01*
X406469Y479857D01*
X405890Y480192D01*
X405417Y480665D01*
X405082Y481244D01*
X404909Y481891D01*
X404909Y483496D01*
X411896Y483496D01*
X411896Y479684D01*
X407116Y479684D01*
G37*
%LPD*%
%LPC*%
G36*
X282316Y281784D02*
X282316Y281784D01*
X281669Y281957D01*
X281090Y282292D01*
X280617Y282765D01*
X280282Y283344D01*
X280109Y283991D01*
X280109Y285596D01*
X287096Y285596D01*
X287096Y281784D01*
X282316Y281784D01*
G37*
%LPD*%
%LPC*%
G36*
X686204Y468304D02*
X686204Y468304D01*
X686204Y474309D01*
X686671Y474216D01*
X688150Y473604D01*
X689482Y472714D01*
X690614Y471582D01*
X691504Y470250D01*
X692116Y468771D01*
X692209Y468304D01*
X686204Y468304D01*
G37*
%LPD*%
%LPC*%
G36*
X676391Y468304D02*
X676391Y468304D01*
X676484Y468771D01*
X677096Y470250D01*
X677986Y471582D01*
X679118Y472714D01*
X680450Y473604D01*
X681929Y474216D01*
X682396Y474309D01*
X682396Y468304D01*
X676391Y468304D01*
G37*
%LPD*%
%LPC*%
G36*
X686204Y464496D02*
X686204Y464496D01*
X692209Y464496D01*
X692116Y464029D01*
X691504Y462550D01*
X690614Y461218D01*
X689482Y460086D01*
X688150Y459196D01*
X686671Y458584D01*
X686204Y458491D01*
X686204Y464496D01*
G37*
%LPD*%
%LPC*%
G36*
X681929Y458584D02*
X681929Y458584D01*
X680450Y459196D01*
X679118Y460086D01*
X677986Y461218D01*
X677096Y462550D01*
X676484Y464029D01*
X676391Y464496D01*
X682396Y464496D01*
X682396Y458491D01*
X681929Y458584D01*
G37*
%LPD*%
D10*
X433000Y334074D02*
X433000Y341274D01*
D11*
X441000Y337674D03*
X449000Y337674D03*
X457000Y337674D03*
X465000Y337674D03*
X473000Y337674D03*
X481000Y337674D03*
X489000Y337674D03*
D12*
X503926Y352600D03*
X503926Y360600D03*
X503926Y368600D03*
X503926Y376600D03*
X503926Y384600D03*
X503926Y392600D03*
X503926Y400600D03*
X503926Y408600D03*
D11*
X489000Y423526D03*
X481000Y423526D03*
X473000Y423526D03*
X465000Y423526D03*
X457000Y423526D03*
X449000Y423526D03*
X441000Y423526D03*
X433000Y423526D03*
D12*
X418074Y408600D03*
X418074Y400600D03*
X418074Y392600D03*
X418074Y384600D03*
X418074Y376600D03*
X418074Y368600D03*
X418074Y360600D03*
X418074Y352600D03*
D13*
X620888Y370900D02*
X635112Y370900D01*
X635112Y396300D02*
X620888Y396300D01*
X620888Y421700D02*
X635112Y421700D01*
X635112Y447100D02*
X620888Y447100D01*
D14*
X922300Y460700D03*
X947700Y460700D03*
X922300Y435300D03*
X947700Y435300D03*
X922300Y409900D03*
X947700Y409900D03*
X947700Y384500D03*
X922300Y384500D03*
D15*
X245000Y421900D03*
X245000Y402900D03*
X245000Y376400D03*
X245000Y357400D03*
X244600Y467600D03*
X244600Y448600D03*
D16*
X576000Y79400D03*
X576000Y104800D03*
D13*
X393900Y47412D02*
X393900Y33188D01*
X419300Y33188D02*
X419300Y47412D01*
X341100Y47112D02*
X341100Y32888D01*
X315700Y32888D02*
X315700Y47112D01*
X290300Y47112D02*
X290300Y32888D01*
X264900Y32888D02*
X264900Y47112D01*
D17*
X191300Y42500D03*
X191300Y194900D03*
D13*
X765988Y461100D02*
X780212Y461100D01*
X780212Y435700D02*
X765988Y435700D01*
D18*
X137300Y78200D02*
X137300Y58200D01*
X76300Y58200D02*
X76300Y78200D01*
X96300Y20200D02*
X116300Y20200D01*
D19*
X196600Y290100D03*
X171200Y290100D03*
D13*
X764688Y344700D02*
X778912Y344700D01*
X778912Y370100D02*
X764688Y370100D01*
D20*
X176700Y459460D03*
X176700Y362940D03*
D21*
X323400Y446400D03*
X304400Y446400D03*
D22*
X349500Y259700D03*
X425700Y259700D03*
D23*
X738400Y415000D03*
X738400Y338800D03*
D22*
X313400Y365400D03*
X389600Y365400D03*
D24*
X684300Y466400D03*
X684300Y441000D03*
X684300Y415600D03*
D19*
X229000Y249400D03*
X152800Y249400D03*
D22*
X775200Y403400D03*
X851400Y403400D03*
D23*
X533900Y147900D03*
X533900Y71700D03*
X616900Y148500D03*
X616900Y72300D03*
D25*
X112200Y379700D03*
X112200Y354300D03*
X86800Y379700D03*
X86800Y354300D03*
X61400Y379700D03*
X61400Y354300D03*
X36000Y354300D03*
X36000Y379700D03*
D13*
X589100Y452188D02*
X589100Y466412D01*
X563700Y466412D02*
X563700Y452188D01*
X538300Y452188D02*
X538300Y466412D01*
X512900Y466412D02*
X512900Y452188D01*
D26*
X23810Y130730D03*
X117790Y130730D03*
X117790Y285670D03*
X23810Y285670D03*
D27*
X246000Y79300D03*
X246000Y94300D03*
X246000Y109300D03*
X246000Y124300D03*
X246000Y139300D03*
X246000Y154300D03*
X246000Y184300D03*
X246000Y169300D03*
X246000Y199300D03*
X421000Y79300D03*
X421000Y94300D03*
X421000Y109300D03*
X421000Y124300D03*
X421000Y139300D03*
X421000Y154300D03*
X421000Y184300D03*
X421000Y169300D03*
X421000Y199300D03*
D28*
X859500Y432600D03*
X859500Y471600D03*
X801500Y471600D03*
X801500Y432600D03*
D29*
X457200Y254000D03*
D30*
X482600Y254000D03*
X457200Y228600D03*
X482600Y228600D03*
X457200Y203200D03*
X482600Y203200D03*
X457200Y177800D03*
X482600Y177800D03*
X457200Y152400D03*
X482600Y152400D03*
X457200Y127000D03*
X482600Y127000D03*
X457200Y101600D03*
X482600Y101600D03*
X457200Y76200D03*
X482600Y76200D03*
D28*
X804700Y377600D03*
X804700Y338600D03*
X862700Y338600D03*
X862700Y377600D03*
X355800Y485400D03*
X355800Y446400D03*
X413800Y446400D03*
X413800Y485400D03*
X289000Y287500D03*
X289000Y326500D03*
X231000Y326500D03*
X231000Y287500D03*
D21*
X309500Y297000D03*
X328500Y297000D03*
D31*
X426496Y295000D02*
X439704Y295000D01*
X363504Y295000D02*
X350296Y295000D01*
X298504Y390000D02*
X285296Y390000D01*
X361496Y390000D02*
X374704Y390000D01*
D32*
X289000Y287500D02*
X231000Y287500D01*
X355800Y485400D02*
X413800Y485400D01*
X801500Y471600D02*
X859500Y471600D01*
X231000Y287500D02*
X209000Y309500D01*
X224400Y357400D02*
X245000Y357400D01*
X209000Y342000D02*
X209000Y309500D01*
X209000Y342000D02*
X224400Y357400D01*
X209000Y342000D02*
X187000Y320000D01*
X171000Y320000D01*
D33*
X171000Y320000D03*
D32*
X152000Y339000D01*
X152000Y385000D01*
X169900Y402900D01*
X245000Y402900D01*
D33*
X262750Y404000D03*
D32*
X246100Y404000D01*
X245000Y402900D01*
D33*
X393000Y415000D03*
D34*
X413000Y435000D01*
X454000Y435000D01*
X457000Y432000D01*
X457000Y423526D01*
D33*
X513000Y286000D03*
X508000Y332000D03*
X321000Y420000D03*
D34*
X449000Y347000D02*
X449000Y337674D01*
X465000Y337674D02*
X465000Y346000D01*
X451000Y349000D02*
X449000Y347000D01*
X451000Y349000D02*
X462000Y349000D01*
X463500Y347500D01*
D33*
X487000Y353000D03*
D34*
X465000Y346000D02*
X463500Y347500D01*
X464500Y347500D01*
X484000Y350000D02*
X487000Y353000D01*
X484000Y350000D02*
X467000Y350000D01*
X464500Y347500D01*
D33*
X76000Y468000D03*
X65000Y310000D03*
X55000Y225000D03*
X95000Y182000D03*
X703000Y186000D03*
X356000Y340000D03*
X592000Y348000D03*
X681000Y354000D03*
X736000Y471000D03*
X853000Y258000D03*
X948000Y323000D03*
X698000Y41000D03*
X804000Y101000D03*
X946000Y36000D03*
D34*
X457000Y329000D02*
X457000Y337674D01*
X457000Y329000D02*
X459000Y327000D01*
X470000Y327000D01*
X473000Y330000D01*
X473000Y337674D01*
D32*
X304400Y446400D02*
X246800Y446400D01*
X244600Y448600D01*
D33*
X222000Y447000D03*
D32*
X243000Y447000D01*
X244600Y448600D01*
D33*
X481000Y440000D03*
D34*
X481000Y423526D01*
X481000Y440000D02*
X481000Y465000D01*
X497000Y481000D01*
X624000Y481000D01*
X684300Y420700D02*
X684300Y415600D01*
X684300Y420700D02*
X624000Y481000D01*
X172200Y230000D02*
X152800Y249400D01*
X172200Y230000D02*
X238000Y230000D01*
X270000Y198000D01*
X270000Y170000D01*
X287000Y153000D01*
X362000Y153000D01*
X407000Y198000D01*
X407000Y245000D01*
X421700Y259700D01*
X425700Y259700D01*
X268600Y376400D02*
X245000Y376400D01*
X330335Y314665D02*
X479000Y314665D01*
X489000Y324665D01*
X489000Y337674D01*
X330335Y314665D02*
X268600Y376400D01*
X245000Y376400D02*
X190160Y376400D01*
X176700Y362940D01*
X257867Y423115D02*
X272247Y408735D01*
X272247Y384423D01*
X335670Y321000D01*
X473508Y321000D01*
X214260Y421900D02*
X176700Y459460D01*
X214260Y421900D02*
X245000Y421900D01*
X473508Y321000D02*
X481465Y328957D01*
X246215Y423115D02*
X245000Y421900D01*
X246215Y423115D02*
X257867Y423115D01*
X481000Y337674D02*
X481465Y337209D01*
X481465Y328957D01*
X431108Y467600D02*
X244600Y467600D01*
X431108Y467600D02*
X465000Y433708D01*
X465000Y423526D01*
D33*
X441000Y406000D03*
D34*
X441000Y423526D01*
D32*
X801500Y432600D02*
X859500Y432600D01*
D34*
X435600Y352600D02*
X418074Y352600D01*
X467000Y358000D02*
X469000Y360000D01*
X467000Y358000D02*
X441000Y358000D01*
D33*
X469000Y360000D03*
D34*
X441000Y358000D02*
X435600Y352600D01*
D35*
X859500Y411500D02*
X859500Y432600D01*
X859500Y411500D02*
X851400Y403400D01*
D33*
X456000Y367000D03*
D34*
X436980Y367000D01*
X418879Y361405D02*
X418074Y360600D01*
X431385Y361405D02*
X436980Y367000D01*
X431385Y361405D02*
X418879Y361405D01*
X418074Y368600D02*
X429600Y368600D01*
X433000Y372000D01*
X433000Y375000D01*
X434000Y376000D01*
D33*
X434000Y376000D03*
D34*
X355800Y446400D02*
X323400Y446400D01*
X355800Y446400D02*
X355800Y431488D01*
X409883Y377405D01*
X417269Y377405D01*
X418074Y376600D01*
X413800Y446400D02*
X355800Y446400D01*
D33*
X430000Y446000D03*
D34*
X414200Y446000D01*
X413800Y446400D01*
X503926Y400600D02*
X533600Y400600D01*
X565000Y432000D02*
X565000Y433000D01*
X565000Y432000D02*
X533600Y400600D01*
D36*
X565000Y433000D02*
X565000Y458000D01*
X563700Y459300D01*
D34*
X530600Y408600D02*
X503926Y408600D01*
X539000Y417000D02*
X539000Y434000D01*
X539000Y417000D02*
X530600Y408600D01*
D36*
X539000Y434000D02*
X539000Y458600D01*
X538300Y459300D01*
D34*
X507526Y423526D02*
X489000Y423526D01*
X507526Y423526D02*
X513000Y429000D01*
X513000Y433000D01*
D36*
X513000Y459200D01*
X512900Y459300D01*
D34*
X328500Y297000D02*
X328500Y251500D01*
X381000Y199000D01*
X394000Y199000D01*
D33*
X394000Y199000D03*
X397000Y338000D03*
D32*
X432674Y338000D01*
X433000Y337674D01*
D34*
X503926Y360600D02*
X504731Y359795D01*
X513117Y359795D01*
X565562Y307350D01*
X877350Y307350D02*
X896000Y326000D01*
X896000Y451000D02*
X905000Y460000D01*
D33*
X905000Y460000D03*
D34*
X877350Y307350D02*
X565562Y307350D01*
X896000Y326000D02*
X896000Y451000D01*
X515293Y368600D02*
X503926Y368600D01*
X873700Y313700D02*
X889000Y329000D01*
X889000Y457000D02*
X907000Y475000D01*
X936000Y475000D01*
D33*
X936000Y475000D03*
D34*
X570193Y313700D02*
X515293Y368600D01*
X570193Y313700D02*
X873700Y313700D01*
X889000Y329000D02*
X889000Y457000D01*
X509926Y352600D02*
X503926Y352600D01*
X509926Y352600D02*
X561526Y301000D01*
X881000Y301000D01*
X903000Y323000D01*
X903000Y429000D02*
X908000Y434000D01*
X908000Y435000D01*
D33*
X908000Y435000D03*
D34*
X903000Y429000D02*
X903000Y323000D01*
X518400Y376600D02*
X503926Y376600D01*
X518400Y376600D02*
X574000Y321000D01*
X703000Y321000D01*
X716000Y334000D01*
X703000Y321000D02*
X777000Y321000D01*
X792000Y336000D02*
X792000Y370000D01*
X799600Y377600D01*
X804700Y377600D01*
X792000Y336000D02*
X777000Y321000D01*
X804700Y377600D02*
X862700Y377600D01*
X720800Y338800D02*
X716000Y334000D01*
D36*
X720800Y338800D02*
X738400Y338800D01*
D34*
X444100Y139300D02*
X421000Y139300D01*
X444100Y139300D02*
X457200Y152400D01*
X426015Y119285D02*
X421000Y124300D01*
X426015Y119285D02*
X428381Y119285D01*
X434000Y113666D01*
X434000Y72000D01*
X441979Y64021D01*
D37*
X441988Y64030D01*
X479812Y64030D01*
X479842Y64000D01*
X495000Y64000D01*
D34*
X526200Y64000D01*
X533900Y71700D01*
D32*
X289000Y326500D02*
X231000Y326500D01*
X289000Y326500D02*
X309500Y306000D01*
X309500Y297000D01*
X304500Y292000D01*
X304500Y193500D01*
D33*
X284000Y173000D03*
D32*
X304500Y193500D01*
M02*
