G04 EAGLE Gerber RS-274X export*
G75*
%MOMM*%
%FSLAX34Y34*%
%LPD*%
%INBottom Copper*%
%IPPOS*%
%AMOC8*
5,1,8,0,0,1.08239X$1,22.5*%
G01*
%ADD10C,1.422400*%
%ADD11P,1.539592X8X292.500000*%
%ADD12P,1.429621X8X112.500000*%
%ADD13R,2.286000X2.286000*%
%ADD14C,2.000000*%
%ADD15P,1.429621X8X202.500000*%
%ADD16P,1.429621X8X22.500000*%
%ADD17P,1.429621X8X292.500000*%
%ADD18C,1.117600*%
%ADD19P,1.539592X8X202.500000*%
%ADD20R,2.000000X2.000000*%
%ADD21R,1.108000X1.108000*%
%ADD22R,1.508000X1.508000*%
%ADD23C,1.508000*%
%ADD24C,1.320800*%
%ADD25C,0.508000*%
%ADD26C,0.756400*%
%ADD27C,0.381000*%

G36*
X84084Y10166D02*
X84084Y10166D01*
X84134Y10163D01*
X84278Y10186D01*
X84422Y10201D01*
X84470Y10216D01*
X84519Y10223D01*
X84655Y10275D01*
X84794Y10319D01*
X84837Y10343D01*
X84884Y10361D01*
X85007Y10439D01*
X85133Y10510D01*
X85171Y10543D01*
X85213Y10569D01*
X85318Y10671D01*
X85427Y10766D01*
X85457Y10806D01*
X85493Y10841D01*
X85575Y10961D01*
X85662Y11077D01*
X85684Y11122D01*
X85712Y11163D01*
X85767Y11298D01*
X85829Y11429D01*
X85841Y11477D01*
X85860Y11524D01*
X85887Y11667D01*
X85921Y11808D01*
X85923Y11858D01*
X85932Y11907D01*
X85929Y12052D01*
X85934Y12198D01*
X85926Y12247D01*
X85925Y12297D01*
X85902Y12383D01*
X85867Y12582D01*
X85815Y12715D01*
X85794Y12794D01*
X83759Y17705D01*
X83759Y22695D01*
X85668Y27304D01*
X89196Y30832D01*
X93805Y32741D01*
X118795Y32741D01*
X123404Y30832D01*
X126932Y27304D01*
X128841Y22695D01*
X128841Y17705D01*
X126806Y12794D01*
X126792Y12746D01*
X126771Y12701D01*
X126736Y12559D01*
X126695Y12420D01*
X126690Y12371D01*
X126679Y12322D01*
X126674Y12177D01*
X126662Y12032D01*
X126667Y11982D01*
X126666Y11932D01*
X126691Y11789D01*
X126708Y11645D01*
X126724Y11598D01*
X126733Y11548D01*
X126786Y11414D01*
X126833Y11275D01*
X126858Y11232D01*
X126876Y11186D01*
X126956Y11065D01*
X127030Y10939D01*
X127063Y10902D01*
X127091Y10860D01*
X127194Y10758D01*
X127291Y10650D01*
X127331Y10621D01*
X127367Y10585D01*
X127489Y10506D01*
X127606Y10420D01*
X127651Y10400D01*
X127693Y10372D01*
X127829Y10319D01*
X127961Y10259D01*
X128010Y10248D01*
X128056Y10230D01*
X128145Y10218D01*
X128341Y10174D01*
X128484Y10172D01*
X128565Y10161D01*
X372955Y10161D01*
X372988Y10164D01*
X373021Y10162D01*
X373182Y10184D01*
X373343Y10201D01*
X373374Y10211D01*
X373407Y10215D01*
X373560Y10270D01*
X373714Y10319D01*
X373743Y10335D01*
X373774Y10346D01*
X373913Y10430D01*
X374054Y10510D01*
X374079Y10532D01*
X374107Y10549D01*
X374226Y10660D01*
X374347Y10766D01*
X374367Y10793D01*
X374392Y10815D01*
X374485Y10948D01*
X374583Y11077D01*
X374597Y11107D01*
X374616Y11134D01*
X374680Y11283D01*
X374750Y11429D01*
X374758Y11461D01*
X374771Y11492D01*
X374803Y11651D01*
X374842Y11808D01*
X374843Y11841D01*
X374849Y11874D01*
X374849Y12036D01*
X374854Y12198D01*
X374849Y12230D01*
X374849Y12264D01*
X374815Y12422D01*
X374788Y12582D01*
X374775Y12612D01*
X374769Y12645D01*
X374704Y12794D01*
X374644Y12944D01*
X374626Y12972D01*
X374612Y13002D01*
X374562Y13069D01*
X374430Y13269D01*
X374345Y13353D01*
X374301Y13411D01*
X365231Y22482D01*
X364554Y24116D01*
X364554Y141772D01*
X364551Y141805D01*
X364553Y141838D01*
X364531Y141999D01*
X364514Y142160D01*
X364504Y142191D01*
X364500Y142224D01*
X364445Y142377D01*
X364396Y142531D01*
X364380Y142560D01*
X364369Y142591D01*
X364285Y142730D01*
X364205Y142871D01*
X364183Y142896D01*
X364166Y142924D01*
X364055Y143043D01*
X363949Y143164D01*
X363922Y143184D01*
X363900Y143209D01*
X363767Y143302D01*
X363638Y143400D01*
X363608Y143414D01*
X363581Y143433D01*
X363432Y143497D01*
X363286Y143567D01*
X363254Y143575D01*
X363223Y143588D01*
X363064Y143620D01*
X362907Y143659D01*
X362874Y143660D01*
X362841Y143666D01*
X362679Y143666D01*
X362517Y143671D01*
X362485Y143666D01*
X362451Y143666D01*
X362293Y143632D01*
X362133Y143605D01*
X362103Y143592D01*
X362070Y143586D01*
X361921Y143521D01*
X361771Y143461D01*
X361743Y143443D01*
X361713Y143429D01*
X361646Y143379D01*
X361446Y143247D01*
X361362Y143162D01*
X361304Y143118D01*
X346738Y128553D01*
X346676Y128476D01*
X346605Y128405D01*
X346553Y128325D01*
X346493Y128251D01*
X346447Y128163D01*
X346392Y128079D01*
X346357Y127990D01*
X346313Y127905D01*
X346286Y127809D01*
X346250Y127716D01*
X346240Y127644D01*
X346208Y127529D01*
X346192Y127289D01*
X346181Y127207D01*
X346181Y56471D01*
X346191Y56372D01*
X346191Y56272D01*
X346211Y56178D01*
X346221Y56083D01*
X346251Y55989D01*
X346271Y55891D01*
X346310Y55803D01*
X346339Y55712D01*
X346387Y55625D01*
X346427Y55534D01*
X346472Y55476D01*
X346530Y55372D01*
X346688Y55191D01*
X346738Y55125D01*
X349283Y52580D01*
X350753Y49032D01*
X350753Y30968D01*
X349283Y27420D01*
X346568Y24705D01*
X343020Y23235D01*
X339180Y23235D01*
X335632Y24705D01*
X332917Y27420D01*
X331447Y30968D01*
X331447Y49032D01*
X332917Y52580D01*
X335462Y55125D01*
X335524Y55202D01*
X335595Y55272D01*
X335647Y55353D01*
X335707Y55427D01*
X335753Y55515D01*
X335808Y55599D01*
X335843Y55688D01*
X335887Y55773D01*
X335914Y55869D01*
X335950Y55962D01*
X335960Y56034D01*
X335992Y56148D01*
X336008Y56388D01*
X336019Y56471D01*
X336019Y131111D01*
X336793Y132978D01*
X393379Y189564D01*
X393410Y189602D01*
X393447Y189636D01*
X393533Y189754D01*
X393625Y189866D01*
X393647Y189910D01*
X393677Y189951D01*
X393737Y190083D01*
X393804Y190212D01*
X393817Y190260D01*
X393838Y190306D01*
X393870Y190448D01*
X393909Y190588D01*
X393912Y190638D01*
X393923Y190686D01*
X393925Y190831D01*
X393935Y190977D01*
X393928Y191026D01*
X393929Y191076D01*
X393902Y191219D01*
X393882Y191363D01*
X393865Y191410D01*
X393856Y191459D01*
X393800Y191593D01*
X393751Y191730D01*
X393725Y191773D01*
X393706Y191819D01*
X393624Y191939D01*
X393548Y192063D01*
X393514Y192099D01*
X393486Y192140D01*
X393381Y192241D01*
X393282Y192347D01*
X393241Y192376D01*
X393205Y192411D01*
X393128Y192456D01*
X392963Y192572D01*
X392831Y192628D01*
X392761Y192670D01*
X390418Y193640D01*
X388640Y195418D01*
X387677Y197742D01*
X387677Y198847D01*
X387667Y198946D01*
X387667Y199045D01*
X387647Y199139D01*
X387637Y199235D01*
X387607Y199329D01*
X387587Y199427D01*
X387548Y199515D01*
X387519Y199606D01*
X387470Y199693D01*
X387431Y199784D01*
X387386Y199842D01*
X387328Y199946D01*
X387170Y200127D01*
X387120Y200193D01*
X345731Y241582D01*
X345054Y243216D01*
X345054Y250424D01*
X345044Y250523D01*
X345044Y250623D01*
X345024Y250717D01*
X345014Y250812D01*
X344984Y250907D01*
X344964Y251004D01*
X344925Y251092D01*
X344896Y251184D01*
X344847Y251270D01*
X344808Y251362D01*
X344763Y251420D01*
X344705Y251523D01*
X344547Y251705D01*
X344497Y251771D01*
X340355Y255912D01*
X340355Y263488D01*
X345712Y268845D01*
X351569Y268845D01*
X351668Y268855D01*
X351767Y268855D01*
X351861Y268875D01*
X351957Y268885D01*
X352051Y268915D01*
X352149Y268935D01*
X352237Y268974D01*
X352328Y269003D01*
X352415Y269052D01*
X352506Y269091D01*
X352564Y269136D01*
X352668Y269194D01*
X352849Y269352D01*
X352915Y269402D01*
X360763Y277250D01*
X360763Y277251D01*
X362282Y278769D01*
X363916Y279446D01*
X413370Y279446D01*
X413469Y279456D01*
X413568Y279456D01*
X413662Y279476D01*
X413757Y279486D01*
X413852Y279516D01*
X413950Y279536D01*
X414038Y279575D01*
X414129Y279604D01*
X414216Y279653D01*
X414307Y279692D01*
X414365Y279736D01*
X414469Y279795D01*
X414650Y279953D01*
X414716Y280003D01*
X420292Y285579D01*
X420333Y285630D01*
X420382Y285676D01*
X420456Y285781D01*
X420538Y285881D01*
X420568Y285940D01*
X420606Y285995D01*
X420657Y286113D01*
X420717Y286227D01*
X420735Y286291D01*
X420761Y286352D01*
X420787Y286479D01*
X420822Y286603D01*
X420826Y286669D01*
X420840Y286734D01*
X420839Y286863D01*
X420848Y286992D01*
X420839Y287057D01*
X420839Y287124D01*
X420812Y287250D01*
X420795Y287378D01*
X420773Y287440D01*
X420759Y287505D01*
X420707Y287624D01*
X420664Y287745D01*
X420629Y287802D01*
X420603Y287863D01*
X420550Y287932D01*
X420461Y288078D01*
X420345Y288202D01*
X420292Y288272D01*
X418743Y289820D01*
X417351Y293181D01*
X417351Y296819D01*
X418743Y300180D01*
X421316Y302753D01*
X424677Y304145D01*
X435269Y304145D01*
X435368Y304155D01*
X435467Y304155D01*
X435561Y304175D01*
X435656Y304185D01*
X435751Y304215D01*
X435849Y304235D01*
X435937Y304274D01*
X436028Y304303D01*
X436115Y304352D01*
X436206Y304391D01*
X436264Y304436D01*
X436368Y304494D01*
X436549Y304652D01*
X436615Y304702D01*
X450347Y318434D01*
X451981Y319111D01*
X527219Y319111D01*
X528853Y318434D01*
X620669Y226618D01*
X621346Y224984D01*
X621346Y157776D01*
X621356Y157677D01*
X621356Y157577D01*
X621376Y157483D01*
X621386Y157388D01*
X621416Y157293D01*
X621436Y157196D01*
X621475Y157108D01*
X621504Y157016D01*
X621553Y156930D01*
X621592Y156838D01*
X621637Y156780D01*
X621695Y156677D01*
X621853Y156495D01*
X621903Y156429D01*
X626045Y152288D01*
X626045Y144712D01*
X620688Y139355D01*
X613112Y139355D01*
X607755Y144712D01*
X607755Y152288D01*
X611897Y156429D01*
X611959Y156506D01*
X612030Y156577D01*
X612082Y156657D01*
X612142Y156732D01*
X612188Y156820D01*
X612243Y156903D01*
X612278Y156993D01*
X612322Y157078D01*
X612349Y157174D01*
X612385Y157266D01*
X612395Y157339D01*
X612427Y157453D01*
X612443Y157693D01*
X612454Y157776D01*
X612454Y221470D01*
X612444Y221569D01*
X612444Y221668D01*
X612424Y221762D01*
X612414Y221857D01*
X612384Y221952D01*
X612364Y222050D01*
X612325Y222138D01*
X612296Y222229D01*
X612247Y222316D01*
X612208Y222407D01*
X612163Y222465D01*
X612105Y222569D01*
X611974Y222719D01*
X611962Y222737D01*
X611940Y222759D01*
X611897Y222816D01*
X525051Y309662D01*
X524974Y309724D01*
X524903Y309795D01*
X524823Y309847D01*
X524749Y309907D01*
X524661Y309953D01*
X524577Y310008D01*
X524488Y310043D01*
X524403Y310087D01*
X524307Y310114D01*
X524214Y310150D01*
X524142Y310160D01*
X524027Y310192D01*
X523787Y310208D01*
X523705Y310219D01*
X486425Y310219D01*
X486392Y310216D01*
X486359Y310218D01*
X486198Y310196D01*
X486037Y310179D01*
X486006Y310169D01*
X485973Y310165D01*
X485820Y310110D01*
X485666Y310061D01*
X485637Y310045D01*
X485606Y310034D01*
X485467Y309950D01*
X485326Y309870D01*
X485301Y309848D01*
X485273Y309831D01*
X485154Y309720D01*
X485033Y309614D01*
X485013Y309587D01*
X484988Y309565D01*
X484895Y309432D01*
X484797Y309303D01*
X484783Y309273D01*
X484764Y309246D01*
X484700Y309097D01*
X484630Y308951D01*
X484622Y308919D01*
X484609Y308888D01*
X484576Y308729D01*
X484538Y308572D01*
X484537Y308539D01*
X484530Y308506D01*
X484531Y308344D01*
X484525Y308182D01*
X484531Y308150D01*
X484531Y308116D01*
X484565Y307958D01*
X484592Y307798D01*
X484605Y307768D01*
X484611Y307735D01*
X484676Y307586D01*
X484736Y307436D01*
X484754Y307408D01*
X484767Y307378D01*
X484818Y307311D01*
X484950Y307111D01*
X485034Y307027D01*
X485079Y306969D01*
X489111Y302936D01*
X492561Y294607D01*
X492561Y285593D01*
X489111Y277264D01*
X482736Y270889D01*
X474407Y267439D01*
X466710Y267439D01*
X466624Y267430D01*
X466536Y267431D01*
X466430Y267410D01*
X466323Y267399D01*
X466239Y267373D01*
X466154Y267356D01*
X466054Y267314D01*
X465951Y267281D01*
X465875Y267238D01*
X465795Y267205D01*
X465706Y267143D01*
X465611Y267090D01*
X465546Y267033D01*
X465519Y267014D01*
X465500Y267040D01*
X465402Y267189D01*
X465390Y267201D01*
X465381Y267215D01*
X465253Y267338D01*
X465126Y267465D01*
X465112Y267474D01*
X465100Y267485D01*
X465047Y267516D01*
X464800Y267678D01*
X464710Y267713D01*
X464656Y267744D01*
X457064Y270889D01*
X450689Y277264D01*
X448109Y283492D01*
X448101Y283507D01*
X448096Y283523D01*
X448009Y283678D01*
X447924Y283835D01*
X447913Y283848D01*
X447905Y283862D01*
X447788Y283996D01*
X447673Y284133D01*
X447660Y284143D01*
X447649Y284156D01*
X447507Y284263D01*
X447366Y284374D01*
X447351Y284381D01*
X447338Y284391D01*
X447177Y284468D01*
X447017Y284547D01*
X447001Y284551D01*
X446986Y284558D01*
X446813Y284600D01*
X446640Y284645D01*
X446623Y284646D01*
X446607Y284650D01*
X446429Y284656D01*
X446251Y284665D01*
X446234Y284662D01*
X446217Y284663D01*
X446042Y284633D01*
X445865Y284605D01*
X445850Y284599D01*
X445833Y284596D01*
X445668Y284531D01*
X445501Y284468D01*
X445486Y284459D01*
X445471Y284453D01*
X445322Y284355D01*
X445171Y284259D01*
X445159Y284247D01*
X445145Y284238D01*
X445019Y284112D01*
X444891Y283988D01*
X444882Y283974D01*
X444870Y283962D01*
X444773Y283813D01*
X444673Y283665D01*
X444666Y283650D01*
X444657Y283636D01*
X444592Y283470D01*
X444524Y283305D01*
X444521Y283288D01*
X444515Y283273D01*
X444507Y283211D01*
X444452Y282922D01*
X444454Y282825D01*
X444446Y282763D01*
X444446Y264516D01*
X444449Y264483D01*
X444447Y264450D01*
X444469Y264289D01*
X444486Y264128D01*
X444496Y264097D01*
X444500Y264064D01*
X444555Y263911D01*
X444604Y263757D01*
X444620Y263728D01*
X444631Y263696D01*
X444715Y263558D01*
X444795Y263417D01*
X444817Y263392D01*
X444834Y263364D01*
X444945Y263245D01*
X445051Y263124D01*
X445078Y263104D01*
X445100Y263079D01*
X445233Y262986D01*
X445362Y262888D01*
X445392Y262874D01*
X445419Y262855D01*
X445568Y262790D01*
X445714Y262721D01*
X445746Y262713D01*
X445777Y262700D01*
X445936Y262667D01*
X446093Y262629D01*
X446126Y262628D01*
X446159Y262622D01*
X446321Y262622D01*
X446483Y262617D01*
X446515Y262622D01*
X446549Y262622D01*
X446707Y262656D01*
X446867Y262683D01*
X446898Y262696D01*
X446930Y262702D01*
X447079Y262767D01*
X447229Y262827D01*
X447257Y262845D01*
X447287Y262859D01*
X447354Y262909D01*
X447554Y263041D01*
X447638Y263126D01*
X447697Y263170D01*
X448100Y263573D01*
X448679Y263908D01*
X449326Y264081D01*
X454701Y264081D01*
X454701Y254595D01*
X454708Y254529D01*
X454705Y254463D01*
X454727Y254336D01*
X454741Y254207D01*
X454761Y254144D01*
X454772Y254079D01*
X454801Y254005D01*
X454794Y253976D01*
X454770Y253914D01*
X454758Y253827D01*
X454718Y253662D01*
X454713Y253492D01*
X454701Y253405D01*
X454701Y243919D01*
X449326Y243919D01*
X448679Y244092D01*
X448100Y244427D01*
X447697Y244830D01*
X447671Y244851D01*
X447649Y244876D01*
X447520Y244974D01*
X447394Y245076D01*
X447365Y245092D01*
X447338Y245112D01*
X447191Y245181D01*
X447048Y245256D01*
X447016Y245265D01*
X446986Y245279D01*
X446829Y245317D01*
X446673Y245361D01*
X446639Y245363D01*
X446607Y245371D01*
X446445Y245376D01*
X446284Y245387D01*
X446251Y245382D01*
X446217Y245383D01*
X446058Y245356D01*
X445898Y245334D01*
X445866Y245322D01*
X445833Y245317D01*
X445683Y245257D01*
X445530Y245203D01*
X445502Y245185D01*
X445471Y245173D01*
X445336Y245084D01*
X445198Y245000D01*
X445173Y244977D01*
X445145Y244959D01*
X445031Y244844D01*
X444913Y244733D01*
X444894Y244706D01*
X444870Y244683D01*
X444782Y244547D01*
X444689Y244415D01*
X444676Y244384D01*
X444657Y244356D01*
X444598Y244206D01*
X444534Y244057D01*
X444527Y244024D01*
X444515Y243993D01*
X444504Y243911D01*
X444455Y243675D01*
X444456Y243556D01*
X444446Y243484D01*
X444446Y242630D01*
X444456Y242531D01*
X444456Y242432D01*
X444476Y242338D01*
X444486Y242243D01*
X444516Y242148D01*
X444536Y242050D01*
X444575Y241962D01*
X444604Y241871D01*
X444653Y241784D01*
X444692Y241693D01*
X444736Y241635D01*
X444795Y241531D01*
X444953Y241350D01*
X445003Y241284D01*
X448969Y237318D01*
X449021Y237276D01*
X449066Y237228D01*
X449093Y237208D01*
X449111Y237191D01*
X449184Y237143D01*
X449271Y237072D01*
X449331Y237042D01*
X449385Y237003D01*
X449425Y236986D01*
X449437Y236978D01*
X449503Y236952D01*
X449617Y236893D01*
X449682Y236875D01*
X449743Y236849D01*
X449795Y236838D01*
X449800Y236836D01*
X449814Y236834D01*
X449869Y236823D01*
X449993Y236788D01*
X450059Y236784D01*
X450125Y236770D01*
X450253Y236770D01*
X450308Y236767D01*
X450310Y236766D01*
X450311Y236766D01*
X450382Y236762D01*
X450448Y236771D01*
X450514Y236771D01*
X450640Y236797D01*
X450694Y236805D01*
X450709Y236806D01*
X450712Y236807D01*
X450768Y236815D01*
X450831Y236837D01*
X450896Y236851D01*
X451014Y236903D01*
X451025Y236907D01*
X451081Y236924D01*
X451091Y236930D01*
X451135Y236946D01*
X451192Y236981D01*
X451253Y237007D01*
X451323Y237060D01*
X451329Y237064D01*
X451420Y237116D01*
X451424Y237119D01*
X455195Y238681D01*
X459205Y238681D01*
X462910Y237146D01*
X465746Y234310D01*
X467281Y230605D01*
X467281Y226595D01*
X465746Y222890D01*
X462910Y220054D01*
X459205Y218519D01*
X455195Y218519D01*
X451490Y220054D01*
X448654Y222890D01*
X447265Y226243D01*
X447210Y226345D01*
X447163Y226451D01*
X447126Y226501D01*
X447080Y226586D01*
X446890Y226812D01*
X446852Y226860D01*
X436231Y237482D01*
X435554Y239116D01*
X435554Y252024D01*
X435551Y252058D01*
X435553Y252091D01*
X435549Y252119D01*
X435550Y252133D01*
X435538Y252200D01*
X435531Y252251D01*
X435514Y252412D01*
X435504Y252444D01*
X435500Y252477D01*
X435445Y252630D01*
X435396Y252784D01*
X435380Y252813D01*
X435369Y252844D01*
X435284Y252982D01*
X435205Y253123D01*
X435183Y253148D01*
X435166Y253177D01*
X435055Y253295D01*
X434949Y253417D01*
X434922Y253437D01*
X434900Y253461D01*
X434767Y253554D01*
X434638Y253652D01*
X434608Y253667D01*
X434581Y253686D01*
X434432Y253750D01*
X434286Y253819D01*
X434254Y253827D01*
X434223Y253840D01*
X434064Y253873D01*
X433907Y253911D01*
X433874Y253912D01*
X433841Y253919D01*
X433679Y253919D01*
X433517Y253924D01*
X433485Y253918D01*
X433451Y253918D01*
X433293Y253885D01*
X433133Y253857D01*
X433103Y253845D01*
X433070Y253838D01*
X432921Y253773D01*
X432771Y253714D01*
X432743Y253695D01*
X432713Y253682D01*
X432646Y253632D01*
X432554Y253571D01*
X432527Y253556D01*
X432515Y253545D01*
X432446Y253499D01*
X432362Y253415D01*
X432303Y253371D01*
X430703Y251771D01*
X430641Y251694D01*
X430570Y251623D01*
X430518Y251543D01*
X430457Y251468D01*
X430412Y251380D01*
X430357Y251297D01*
X430322Y251207D01*
X430278Y251122D01*
X430251Y251026D01*
X430215Y250934D01*
X430205Y250861D01*
X430173Y250747D01*
X430157Y250507D01*
X430146Y250424D01*
X430146Y231930D01*
X430156Y231831D01*
X430156Y231732D01*
X430176Y231638D01*
X430186Y231543D01*
X430216Y231448D01*
X430236Y231350D01*
X430275Y231262D01*
X430304Y231171D01*
X430353Y231084D01*
X430392Y230993D01*
X430437Y230935D01*
X430495Y230831D01*
X430653Y230650D01*
X430703Y230584D01*
X449212Y212075D01*
X449277Y212023D01*
X449334Y211963D01*
X449427Y211900D01*
X449515Y211829D01*
X449588Y211791D01*
X449657Y211744D01*
X449761Y211701D01*
X449861Y211650D01*
X449940Y211628D01*
X450017Y211596D01*
X450128Y211575D01*
X450236Y211545D01*
X450319Y211539D01*
X450401Y211524D01*
X450513Y211526D01*
X450625Y211518D01*
X450707Y211530D01*
X450790Y211531D01*
X450869Y211552D01*
X451011Y211572D01*
X451201Y211639D01*
X451287Y211662D01*
X455195Y213281D01*
X459205Y213281D01*
X462910Y211746D01*
X465746Y208910D01*
X467281Y205205D01*
X467281Y201195D01*
X465746Y197490D01*
X462910Y194654D01*
X459205Y193119D01*
X455195Y193119D01*
X451490Y194654D01*
X448654Y197490D01*
X446982Y201526D01*
X446927Y201628D01*
X446881Y201734D01*
X446843Y201784D01*
X446797Y201868D01*
X446607Y202094D01*
X446569Y202143D01*
X421931Y226782D01*
X421254Y228416D01*
X421254Y250424D01*
X421244Y250523D01*
X421244Y250623D01*
X421224Y250717D01*
X421214Y250812D01*
X421184Y250907D01*
X421164Y251004D01*
X421125Y251092D01*
X421096Y251184D01*
X421047Y251270D01*
X421008Y251362D01*
X420963Y251420D01*
X420905Y251523D01*
X420747Y251705D01*
X420697Y251771D01*
X416555Y255912D01*
X416555Y263488D01*
X421912Y268845D01*
X429488Y268845D01*
X432304Y266029D01*
X432329Y266008D01*
X432351Y265983D01*
X432480Y265885D01*
X432606Y265783D01*
X432635Y265768D01*
X432662Y265748D01*
X432808Y265678D01*
X432952Y265604D01*
X432984Y265595D01*
X433014Y265581D01*
X433171Y265543D01*
X433327Y265499D01*
X433361Y265497D01*
X433393Y265489D01*
X433555Y265483D01*
X433716Y265472D01*
X433749Y265477D01*
X433783Y265476D01*
X433942Y265504D01*
X434102Y265526D01*
X434134Y265537D01*
X434167Y265543D01*
X434317Y265602D01*
X434470Y265657D01*
X434498Y265674D01*
X434529Y265686D01*
X434664Y265775D01*
X434802Y265860D01*
X434827Y265882D01*
X434855Y265901D01*
X434969Y266016D01*
X435087Y266126D01*
X435106Y266153D01*
X435130Y266177D01*
X435218Y266313D01*
X435311Y266445D01*
X435324Y266475D01*
X435343Y266503D01*
X435402Y266654D01*
X435466Y266803D01*
X435473Y266835D01*
X435485Y266866D01*
X435496Y266949D01*
X435545Y267184D01*
X435544Y267303D01*
X435554Y267376D01*
X435554Y283670D01*
X435551Y283703D01*
X435553Y283736D01*
X435531Y283897D01*
X435514Y284058D01*
X435504Y284089D01*
X435500Y284122D01*
X435445Y284275D01*
X435396Y284429D01*
X435380Y284458D01*
X435369Y284489D01*
X435285Y284628D01*
X435205Y284769D01*
X435183Y284794D01*
X435166Y284822D01*
X435055Y284941D01*
X434949Y285062D01*
X434922Y285082D01*
X434900Y285107D01*
X434767Y285200D01*
X434638Y285298D01*
X434608Y285312D01*
X434581Y285331D01*
X434432Y285395D01*
X434286Y285465D01*
X434254Y285473D01*
X434223Y285486D01*
X434064Y285518D01*
X433907Y285557D01*
X433874Y285558D01*
X433841Y285564D01*
X433679Y285564D01*
X433517Y285569D01*
X433485Y285564D01*
X433451Y285564D01*
X433293Y285530D01*
X433133Y285503D01*
X433103Y285490D01*
X433070Y285484D01*
X432921Y285419D01*
X432771Y285359D01*
X432743Y285341D01*
X432713Y285327D01*
X432646Y285277D01*
X432446Y285145D01*
X432362Y285060D01*
X432304Y285016D01*
X418518Y271231D01*
X416884Y270554D01*
X367430Y270554D01*
X367331Y270544D01*
X367232Y270544D01*
X367138Y270524D01*
X367043Y270514D01*
X366948Y270484D01*
X366850Y270464D01*
X366762Y270425D01*
X366671Y270396D01*
X366584Y270347D01*
X366493Y270308D01*
X366435Y270264D01*
X366331Y270205D01*
X366150Y270047D01*
X366084Y269997D01*
X359202Y263115D01*
X359140Y263038D01*
X359069Y262968D01*
X359017Y262887D01*
X358957Y262813D01*
X358911Y262725D01*
X358856Y262641D01*
X358821Y262552D01*
X358777Y262467D01*
X358750Y262371D01*
X358714Y262278D01*
X358704Y262206D01*
X358672Y262091D01*
X358656Y261851D01*
X358645Y261769D01*
X358645Y255912D01*
X354503Y251771D01*
X354441Y251694D01*
X354370Y251623D01*
X354318Y251543D01*
X354258Y251468D01*
X354212Y251380D01*
X354157Y251297D01*
X354122Y251207D01*
X354078Y251122D01*
X354051Y251026D01*
X354015Y250934D01*
X354005Y250861D01*
X353973Y250747D01*
X353957Y250507D01*
X353946Y250424D01*
X353946Y246730D01*
X353956Y246631D01*
X353956Y246532D01*
X353976Y246438D01*
X353986Y246343D01*
X354016Y246248D01*
X354036Y246150D01*
X354075Y246062D01*
X354104Y245971D01*
X354153Y245884D01*
X354192Y245793D01*
X354237Y245735D01*
X354295Y245631D01*
X354453Y245450D01*
X354503Y245384D01*
X394007Y205880D01*
X394084Y205818D01*
X394154Y205747D01*
X394235Y205695D01*
X394309Y205635D01*
X394397Y205589D01*
X394481Y205534D01*
X394570Y205499D01*
X394655Y205455D01*
X394751Y205428D01*
X394844Y205392D01*
X394916Y205382D01*
X395031Y205350D01*
X395223Y205337D01*
X397582Y204360D01*
X397638Y204303D01*
X397715Y204241D01*
X397786Y204170D01*
X397866Y204118D01*
X397941Y204058D01*
X398029Y204012D01*
X398112Y203957D01*
X398202Y203922D01*
X398287Y203878D01*
X398383Y203851D01*
X398475Y203815D01*
X398548Y203805D01*
X398662Y203773D01*
X398902Y203757D01*
X398985Y203746D01*
X407378Y203746D01*
X407493Y203758D01*
X407609Y203760D01*
X407670Y203776D01*
X407765Y203786D01*
X408047Y203875D01*
X408106Y203891D01*
X409289Y204381D01*
X411015Y204381D01*
X411081Y204388D01*
X411148Y204385D01*
X411275Y204407D01*
X411403Y204421D01*
X411466Y204441D01*
X411532Y204452D01*
X411651Y204500D01*
X411774Y204539D01*
X411832Y204571D01*
X411894Y204596D01*
X412001Y204667D01*
X412114Y204730D01*
X412164Y204774D01*
X412220Y204810D01*
X412311Y204901D01*
X412408Y204986D01*
X412448Y205039D01*
X412495Y205086D01*
X412565Y205194D01*
X412643Y205297D01*
X412671Y205357D01*
X412708Y205413D01*
X412755Y205533D01*
X412810Y205649D01*
X412826Y205714D01*
X412850Y205776D01*
X412857Y205830D01*
X414408Y207381D01*
X427592Y207381D01*
X429081Y205892D01*
X429081Y192449D01*
X429076Y192434D01*
X429050Y192373D01*
X429024Y192247D01*
X428989Y192123D01*
X428985Y192056D01*
X428971Y191991D01*
X428972Y191862D01*
X428963Y191734D01*
X428972Y191668D01*
X428972Y191601D01*
X428999Y191475D01*
X429016Y191348D01*
X429039Y191285D01*
X429052Y191220D01*
X429081Y191155D01*
X429081Y177449D01*
X429077Y177434D01*
X429050Y177373D01*
X429024Y177247D01*
X428989Y177123D01*
X428985Y177056D01*
X428972Y176991D01*
X428972Y176862D01*
X428963Y176734D01*
X428972Y176668D01*
X428972Y176601D01*
X428999Y176475D01*
X429016Y176348D01*
X429039Y176285D01*
X429052Y176220D01*
X429081Y176155D01*
X429081Y174812D01*
X429089Y174730D01*
X429088Y174647D01*
X429109Y174536D01*
X429121Y174425D01*
X429146Y174346D01*
X429161Y174264D01*
X429205Y174160D01*
X429239Y174053D01*
X429279Y173981D01*
X429311Y173904D01*
X429375Y173811D01*
X429430Y173714D01*
X429484Y173651D01*
X429531Y173582D01*
X429612Y173505D01*
X429686Y173420D01*
X429752Y173370D01*
X429812Y173312D01*
X429883Y173271D01*
X429997Y173185D01*
X430179Y173098D01*
X430203Y173084D01*
X442119Y161168D01*
X442796Y159534D01*
X442796Y142630D01*
X442806Y142531D01*
X442806Y142432D01*
X442826Y142338D01*
X442836Y142243D01*
X442866Y142148D01*
X442886Y142050D01*
X442925Y141962D01*
X442954Y141871D01*
X443003Y141784D01*
X443042Y141693D01*
X443086Y141635D01*
X443145Y141531D01*
X443303Y141350D01*
X443353Y141284D01*
X448944Y135693D01*
X448996Y135651D01*
X449041Y135603D01*
X449147Y135528D01*
X449246Y135447D01*
X449305Y135417D01*
X449360Y135378D01*
X449478Y135327D01*
X449592Y135268D01*
X449657Y135250D01*
X449718Y135224D01*
X449844Y135198D01*
X449968Y135163D01*
X450034Y135159D01*
X450100Y135145D01*
X450228Y135145D01*
X450357Y135137D01*
X450423Y135146D01*
X450489Y135146D01*
X450615Y135172D01*
X450743Y135190D01*
X450805Y135212D01*
X450871Y135226D01*
X450989Y135278D01*
X451110Y135321D01*
X451167Y135356D01*
X451228Y135382D01*
X451298Y135435D01*
X451443Y135524D01*
X451448Y135529D01*
X455195Y137081D01*
X459205Y137081D01*
X462910Y135546D01*
X465746Y132710D01*
X467281Y129005D01*
X467281Y124995D01*
X465746Y121290D01*
X462910Y118454D01*
X459205Y116919D01*
X455195Y116919D01*
X451490Y118454D01*
X448654Y121290D01*
X447301Y124557D01*
X447245Y124660D01*
X447199Y124766D01*
X447161Y124816D01*
X447115Y124900D01*
X446925Y125126D01*
X446888Y125175D01*
X439696Y132366D01*
X439671Y132387D01*
X439649Y132412D01*
X439520Y132510D01*
X439394Y132612D01*
X439365Y132628D01*
X439338Y132648D01*
X439192Y132717D01*
X439048Y132792D01*
X439016Y132800D01*
X438986Y132815D01*
X438829Y132853D01*
X438673Y132897D01*
X438639Y132899D01*
X438607Y132907D01*
X438445Y132912D01*
X438284Y132923D01*
X438251Y132918D01*
X438217Y132919D01*
X438058Y132892D01*
X437898Y132870D01*
X437866Y132858D01*
X437833Y132853D01*
X437683Y132793D01*
X437530Y132739D01*
X437502Y132721D01*
X437471Y132709D01*
X437336Y132620D01*
X437198Y132536D01*
X437173Y132513D01*
X437145Y132495D01*
X437031Y132380D01*
X436913Y132269D01*
X436894Y132242D01*
X436870Y132219D01*
X436782Y132083D01*
X436689Y131951D01*
X436676Y131920D01*
X436657Y131892D01*
X436598Y131741D01*
X436534Y131593D01*
X436527Y131560D01*
X436515Y131529D01*
X436504Y131447D01*
X436455Y131211D01*
X436456Y131092D01*
X436446Y131020D01*
X436446Y127630D01*
X436456Y127531D01*
X436456Y127432D01*
X436476Y127338D01*
X436486Y127243D01*
X436516Y127148D01*
X436536Y127050D01*
X436575Y126962D01*
X436604Y126871D01*
X436653Y126784D01*
X436692Y126693D01*
X436737Y126635D01*
X436795Y126531D01*
X436953Y126350D01*
X437003Y126284D01*
X451758Y111529D01*
X451822Y111477D01*
X451880Y111417D01*
X451973Y111354D01*
X452060Y111283D01*
X452134Y111245D01*
X452203Y111199D01*
X452307Y111156D01*
X452406Y111104D01*
X452486Y111082D01*
X452563Y111050D01*
X452674Y111029D01*
X452782Y110999D01*
X452864Y110994D01*
X452946Y110978D01*
X453058Y110980D01*
X453171Y110973D01*
X453253Y110984D01*
X453336Y110986D01*
X453415Y111007D01*
X453557Y111026D01*
X453746Y111094D01*
X453833Y111117D01*
X455195Y111681D01*
X459205Y111681D01*
X462910Y110146D01*
X465746Y107310D01*
X467281Y103605D01*
X467281Y99595D01*
X465746Y95890D01*
X462910Y93054D01*
X459205Y91519D01*
X455195Y91519D01*
X451490Y93054D01*
X448654Y95890D01*
X447119Y99595D01*
X447119Y102805D01*
X447109Y102904D01*
X447109Y103003D01*
X447089Y103097D01*
X447079Y103193D01*
X447049Y103287D01*
X447029Y103385D01*
X446990Y103473D01*
X446961Y103564D01*
X446912Y103651D01*
X446873Y103742D01*
X446828Y103800D01*
X446770Y103904D01*
X446612Y104085D01*
X446562Y104151D01*
X432331Y118381D01*
X432306Y118402D01*
X432284Y118427D01*
X432155Y118525D01*
X432029Y118627D01*
X432000Y118643D01*
X431973Y118663D01*
X431827Y118732D01*
X431683Y118807D01*
X431651Y118815D01*
X431621Y118830D01*
X431464Y118868D01*
X431308Y118912D01*
X431274Y118914D01*
X431242Y118922D01*
X431080Y118927D01*
X430919Y118938D01*
X430886Y118933D01*
X430852Y118934D01*
X430693Y118907D01*
X430533Y118885D01*
X430501Y118873D01*
X430468Y118868D01*
X430318Y118808D01*
X430165Y118754D01*
X430137Y118736D01*
X430106Y118724D01*
X429971Y118635D01*
X429833Y118551D01*
X429808Y118528D01*
X429780Y118510D01*
X429666Y118395D01*
X429548Y118284D01*
X429529Y118257D01*
X429505Y118234D01*
X429417Y118098D01*
X429324Y117966D01*
X429311Y117935D01*
X429292Y117907D01*
X429251Y117802D01*
X429240Y117787D01*
X429230Y117766D01*
X429205Y117731D01*
X429154Y117612D01*
X429094Y117498D01*
X429083Y117456D01*
X429072Y117435D01*
X429067Y117412D01*
X429050Y117373D01*
X429024Y117247D01*
X428989Y117123D01*
X428987Y117080D01*
X428981Y117056D01*
X428980Y117031D01*
X428971Y116991D01*
X428972Y116862D01*
X428963Y116734D01*
X428969Y116693D01*
X428968Y116666D01*
X428972Y116641D01*
X428972Y116601D01*
X428999Y116475D01*
X429016Y116348D01*
X429030Y116310D01*
X429035Y116282D01*
X429045Y116257D01*
X429052Y116220D01*
X429081Y116155D01*
X429081Y102449D01*
X429076Y102434D01*
X429050Y102373D01*
X429024Y102247D01*
X428989Y102123D01*
X428985Y102056D01*
X428971Y101991D01*
X428972Y101862D01*
X428963Y101734D01*
X428972Y101668D01*
X428972Y101601D01*
X428999Y101475D01*
X429016Y101348D01*
X429039Y101285D01*
X429052Y101220D01*
X429081Y101155D01*
X429081Y87654D01*
X429068Y87638D01*
X429062Y87627D01*
X429054Y87617D01*
X428972Y87454D01*
X428888Y87292D01*
X428885Y87280D01*
X428879Y87268D01*
X428833Y87093D01*
X428783Y86917D01*
X428782Y86904D01*
X428779Y86892D01*
X428769Y86710D01*
X428757Y86528D01*
X428759Y86515D01*
X428758Y86502D01*
X428785Y86322D01*
X428810Y86142D01*
X428815Y86130D01*
X428816Y86117D01*
X428836Y86069D01*
X428856Y86013D01*
X429081Y85174D01*
X429081Y81204D01*
X421000Y81204D01*
X412919Y81204D01*
X412919Y85174D01*
X413127Y85949D01*
X413148Y85997D01*
X413151Y86009D01*
X413156Y86021D01*
X413192Y86198D01*
X413232Y86378D01*
X413232Y86390D01*
X413235Y86403D01*
X413234Y86586D01*
X413236Y86767D01*
X413234Y86780D01*
X413234Y86792D01*
X413196Y86972D01*
X413161Y87150D01*
X413156Y87162D01*
X413154Y87174D01*
X413081Y87340D01*
X413010Y87509D01*
X413003Y87520D01*
X412998Y87531D01*
X412966Y87573D01*
X412788Y87830D01*
X412723Y87893D01*
X412686Y87940D01*
X412572Y88054D01*
X412521Y88096D01*
X412475Y88145D01*
X412370Y88219D01*
X412270Y88300D01*
X412211Y88331D01*
X412157Y88369D01*
X412038Y88420D01*
X411924Y88480D01*
X411860Y88498D01*
X411799Y88524D01*
X411673Y88550D01*
X411549Y88585D01*
X411482Y88589D01*
X411417Y88603D01*
X411288Y88602D01*
X411160Y88611D01*
X411094Y88602D01*
X411027Y88602D01*
X410901Y88575D01*
X410773Y88558D01*
X410711Y88535D01*
X410646Y88522D01*
X410528Y88470D01*
X410406Y88427D01*
X410350Y88392D01*
X410289Y88366D01*
X410219Y88312D01*
X410074Y88224D01*
X409949Y88107D01*
X409879Y88054D01*
X399538Y77713D01*
X399476Y77636D01*
X399405Y77566D01*
X399353Y77485D01*
X399293Y77411D01*
X399247Y77323D01*
X399192Y77239D01*
X399157Y77150D01*
X399113Y77065D01*
X399086Y76969D01*
X399050Y76876D01*
X399040Y76804D01*
X399008Y76690D01*
X398992Y76450D01*
X398981Y76367D01*
X398981Y56771D01*
X398991Y56672D01*
X398991Y56572D01*
X399011Y56479D01*
X399021Y56383D01*
X399051Y56289D01*
X399071Y56191D01*
X399110Y56103D01*
X399139Y56012D01*
X399188Y55925D01*
X399227Y55834D01*
X399272Y55776D01*
X399330Y55672D01*
X399488Y55491D01*
X399538Y55425D01*
X402083Y52880D01*
X403553Y49332D01*
X403553Y31268D01*
X402083Y27720D01*
X399368Y25005D01*
X395820Y23535D01*
X391980Y23535D01*
X388432Y25005D01*
X385717Y27720D01*
X384247Y31268D01*
X384247Y49332D01*
X385717Y52880D01*
X388262Y55425D01*
X388324Y55502D01*
X388395Y55572D01*
X388447Y55653D01*
X388507Y55727D01*
X388553Y55815D01*
X388608Y55899D01*
X388643Y55988D01*
X388687Y56073D01*
X388714Y56169D01*
X388750Y56262D01*
X388760Y56334D01*
X388792Y56448D01*
X388808Y56688D01*
X388819Y56771D01*
X388819Y80271D01*
X389593Y82138D01*
X405952Y98497D01*
X407819Y99271D01*
X411015Y99271D01*
X411081Y99278D01*
X411148Y99275D01*
X411275Y99297D01*
X411403Y99311D01*
X411466Y99331D01*
X411532Y99342D01*
X411651Y99390D01*
X411774Y99429D01*
X411832Y99461D01*
X411894Y99486D01*
X412001Y99557D01*
X412114Y99620D01*
X412164Y99664D01*
X412220Y99700D01*
X412311Y99791D01*
X412408Y99876D01*
X412448Y99929D01*
X412495Y99976D01*
X412565Y100084D01*
X412643Y100187D01*
X412671Y100247D01*
X412708Y100303D01*
X412755Y100423D01*
X412810Y100539D01*
X412826Y100604D01*
X412850Y100666D01*
X412862Y100752D01*
X412902Y100918D01*
X412907Y101088D01*
X412913Y101128D01*
X412923Y101166D01*
X412950Y101227D01*
X412976Y101353D01*
X413011Y101477D01*
X413015Y101544D01*
X413028Y101609D01*
X413028Y101738D01*
X413037Y101866D01*
X413028Y101932D01*
X413028Y101999D01*
X413001Y102125D01*
X412984Y102252D01*
X412961Y102315D01*
X412948Y102380D01*
X412919Y102445D01*
X412919Y116145D01*
X412928Y116163D01*
X412934Y116191D01*
X412950Y116227D01*
X412976Y116353D01*
X413011Y116477D01*
X413013Y116516D01*
X413019Y116542D01*
X413020Y116569D01*
X413028Y116609D01*
X413028Y116738D01*
X413037Y116866D01*
X413031Y116906D01*
X413032Y116931D01*
X413028Y116957D01*
X413028Y116999D01*
X413001Y117125D01*
X412984Y117252D01*
X412970Y117292D01*
X412965Y117315D01*
X412956Y117338D01*
X412948Y117380D01*
X412919Y117445D01*
X412919Y131151D01*
X412923Y131166D01*
X412950Y131227D01*
X412976Y131353D01*
X413011Y131477D01*
X413015Y131544D01*
X413028Y131609D01*
X413028Y131738D01*
X413037Y131866D01*
X413028Y131932D01*
X413028Y131999D01*
X413001Y132125D01*
X412984Y132252D01*
X412961Y132315D01*
X412948Y132380D01*
X412919Y132445D01*
X412919Y146151D01*
X412923Y146166D01*
X412950Y146227D01*
X412976Y146353D01*
X413011Y146477D01*
X413015Y146544D01*
X413028Y146609D01*
X413028Y146738D01*
X413037Y146866D01*
X413028Y146932D01*
X413028Y146999D01*
X413001Y147125D01*
X412984Y147252D01*
X412961Y147315D01*
X412948Y147380D01*
X412919Y147445D01*
X412919Y161151D01*
X412923Y161166D01*
X412950Y161227D01*
X412976Y161353D01*
X413011Y161477D01*
X413015Y161544D01*
X413028Y161609D01*
X413028Y161738D01*
X413037Y161866D01*
X413028Y161932D01*
X413028Y161999D01*
X413001Y162125D01*
X412984Y162252D01*
X412961Y162315D01*
X412948Y162380D01*
X412919Y162445D01*
X412919Y176151D01*
X412924Y176166D01*
X412950Y176227D01*
X412976Y176353D01*
X413011Y176477D01*
X413015Y176544D01*
X413029Y176609D01*
X413028Y176738D01*
X413037Y176866D01*
X413028Y176932D01*
X413028Y176999D01*
X413001Y177125D01*
X412984Y177252D01*
X412961Y177315D01*
X412948Y177380D01*
X412919Y177445D01*
X412919Y177950D01*
X412912Y178016D01*
X412915Y178083D01*
X412893Y178210D01*
X412879Y178338D01*
X412859Y178401D01*
X412848Y178467D01*
X412800Y178586D01*
X412761Y178709D01*
X412729Y178767D01*
X412704Y178829D01*
X412633Y178936D01*
X412570Y179049D01*
X412526Y179099D01*
X412490Y179155D01*
X412399Y179246D01*
X412314Y179343D01*
X412261Y179383D01*
X412214Y179430D01*
X412106Y179500D01*
X412003Y179578D01*
X411943Y179606D01*
X411887Y179643D01*
X411767Y179690D01*
X411651Y179745D01*
X411586Y179761D01*
X411524Y179785D01*
X411438Y179797D01*
X411272Y179837D01*
X411138Y179841D01*
X411121Y179845D01*
X411086Y179845D01*
X411015Y179854D01*
X410930Y179854D01*
X410885Y179850D01*
X410882Y179850D01*
X410878Y179849D01*
X410831Y179844D01*
X410732Y179844D01*
X410638Y179824D01*
X410543Y179814D01*
X410448Y179784D01*
X410350Y179764D01*
X410262Y179725D01*
X410171Y179696D01*
X410084Y179647D01*
X409993Y179608D01*
X409935Y179563D01*
X409831Y179505D01*
X409650Y179347D01*
X409584Y179297D01*
X374003Y143716D01*
X373941Y143639D01*
X373870Y143568D01*
X373818Y143488D01*
X373758Y143414D01*
X373712Y143326D01*
X373657Y143242D01*
X373622Y143153D01*
X373578Y143068D01*
X373551Y142972D01*
X373515Y142879D01*
X373505Y142807D01*
X373473Y142692D01*
X373457Y142452D01*
X373446Y142370D01*
X373446Y27630D01*
X373456Y27531D01*
X373456Y27432D01*
X373476Y27338D01*
X373486Y27243D01*
X373516Y27148D01*
X373536Y27050D01*
X373575Y26962D01*
X373604Y26871D01*
X373653Y26784D01*
X373692Y26693D01*
X373737Y26635D01*
X373795Y26531D01*
X373953Y26350D01*
X374003Y26284D01*
X383219Y17068D01*
X383296Y17006D01*
X383367Y16935D01*
X383447Y16883D01*
X383521Y16823D01*
X383609Y16777D01*
X383693Y16722D01*
X383782Y16687D01*
X383867Y16643D01*
X383963Y16616D01*
X384056Y16580D01*
X384128Y16570D01*
X384243Y16538D01*
X384483Y16522D01*
X384565Y16511D01*
X458061Y16511D01*
X458077Y16512D01*
X458094Y16511D01*
X458272Y16532D01*
X458449Y16551D01*
X458464Y16556D01*
X458481Y16558D01*
X458650Y16615D01*
X458820Y16669D01*
X458835Y16677D01*
X458850Y16682D01*
X459004Y16772D01*
X459160Y16860D01*
X459172Y16871D01*
X459187Y16879D01*
X459320Y16999D01*
X459453Y17116D01*
X459463Y17129D01*
X459476Y17141D01*
X459581Y17285D01*
X459689Y17427D01*
X459696Y17442D01*
X459706Y17455D01*
X459779Y17617D01*
X459856Y17779D01*
X459860Y17795D01*
X459867Y17810D01*
X459906Y17984D01*
X459948Y18158D01*
X459948Y18175D01*
X459952Y18191D01*
X459955Y18369D01*
X459961Y18548D01*
X459958Y18564D01*
X459958Y18581D01*
X459924Y18756D01*
X459894Y18932D01*
X459888Y18947D01*
X459884Y18963D01*
X459816Y19129D01*
X459750Y19294D01*
X459741Y19308D01*
X459735Y19323D01*
X459634Y19471D01*
X459536Y19619D01*
X459524Y19631D01*
X459515Y19645D01*
X459386Y19769D01*
X459260Y19895D01*
X459246Y19904D01*
X459234Y19915D01*
X459180Y19946D01*
X458933Y20108D01*
X458844Y20143D01*
X458790Y20174D01*
X457064Y20889D01*
X450689Y27264D01*
X447239Y35593D01*
X447239Y44607D01*
X450689Y52936D01*
X457064Y59311D01*
X465393Y62761D01*
X474407Y62761D01*
X482736Y59311D01*
X489111Y52936D01*
X492561Y44607D01*
X492561Y35593D01*
X489111Y27264D01*
X482736Y20889D01*
X481010Y20174D01*
X480996Y20166D01*
X480980Y20161D01*
X480824Y20074D01*
X480667Y19989D01*
X480655Y19978D01*
X480640Y19970D01*
X480505Y19852D01*
X480369Y19738D01*
X480359Y19725D01*
X480347Y19714D01*
X480238Y19571D01*
X480129Y19431D01*
X480121Y19416D01*
X480111Y19403D01*
X480035Y19242D01*
X479956Y19082D01*
X479951Y19066D01*
X479944Y19051D01*
X479902Y18878D01*
X479857Y18705D01*
X479856Y18688D01*
X479852Y18672D01*
X479846Y18494D01*
X479837Y18316D01*
X479840Y18299D01*
X479839Y18282D01*
X479870Y18107D01*
X479898Y17930D01*
X479903Y17915D01*
X479906Y17898D01*
X479972Y17733D01*
X480035Y17566D01*
X480044Y17552D01*
X480050Y17536D01*
X480148Y17387D01*
X480243Y17236D01*
X480255Y17224D01*
X480264Y17210D01*
X480391Y17084D01*
X480515Y16957D01*
X480529Y16947D01*
X480540Y16935D01*
X480690Y16838D01*
X480837Y16738D01*
X480853Y16731D01*
X480867Y16722D01*
X481033Y16657D01*
X481198Y16589D01*
X481214Y16586D01*
X481230Y16580D01*
X481291Y16572D01*
X481581Y16517D01*
X481677Y16519D01*
X481739Y16511D01*
X506435Y16511D01*
X506534Y16521D01*
X506633Y16521D01*
X506727Y16541D01*
X506822Y16551D01*
X506917Y16581D01*
X507015Y16601D01*
X507103Y16640D01*
X507194Y16669D01*
X507281Y16718D01*
X507372Y16757D01*
X507430Y16802D01*
X507534Y16860D01*
X507715Y17018D01*
X507781Y17068D01*
X566298Y75585D01*
X566360Y75662D01*
X566431Y75733D01*
X566483Y75813D01*
X566543Y75887D01*
X566589Y75975D01*
X566644Y76059D01*
X566679Y76148D01*
X566723Y76233D01*
X566750Y76329D01*
X566786Y76422D01*
X566796Y76494D01*
X566828Y76609D01*
X566844Y76849D01*
X566855Y76931D01*
X566855Y83188D01*
X572212Y88545D01*
X579788Y88545D01*
X583929Y84403D01*
X584006Y84341D01*
X584077Y84270D01*
X584157Y84218D01*
X584232Y84158D01*
X584320Y84112D01*
X584403Y84057D01*
X584493Y84022D01*
X584578Y83978D01*
X584674Y83951D01*
X584766Y83915D01*
X584839Y83905D01*
X584953Y83873D01*
X585193Y83857D01*
X585276Y83846D01*
X610684Y83846D01*
X612318Y83169D01*
X613485Y82002D01*
X613562Y81940D01*
X613633Y81869D01*
X613713Y81817D01*
X613787Y81757D01*
X613875Y81711D01*
X613959Y81656D01*
X614048Y81621D01*
X614133Y81577D01*
X614229Y81550D01*
X614322Y81514D01*
X614394Y81504D01*
X614509Y81472D01*
X614749Y81456D01*
X614831Y81445D01*
X620688Y81445D01*
X626045Y76088D01*
X626045Y68512D01*
X620688Y63155D01*
X613112Y63155D01*
X607755Y68512D01*
X607755Y73050D01*
X607750Y73104D01*
X607751Y73134D01*
X607749Y73141D01*
X607751Y73183D01*
X607729Y73310D01*
X607715Y73438D01*
X607695Y73501D01*
X607684Y73567D01*
X607636Y73686D01*
X607597Y73809D01*
X607565Y73867D01*
X607540Y73929D01*
X607469Y74036D01*
X607406Y74149D01*
X607362Y74199D01*
X607326Y74255D01*
X607235Y74346D01*
X607150Y74443D01*
X607097Y74483D01*
X607050Y74530D01*
X606942Y74600D01*
X606839Y74678D01*
X606779Y74706D01*
X606723Y74743D01*
X606603Y74790D01*
X606487Y74845D01*
X606422Y74861D01*
X606360Y74885D01*
X606274Y74897D01*
X606108Y74937D01*
X605938Y74942D01*
X605851Y74954D01*
X585276Y74954D01*
X585177Y74944D01*
X585077Y74944D01*
X584983Y74924D01*
X584888Y74914D01*
X584793Y74884D01*
X584696Y74864D01*
X584608Y74825D01*
X584516Y74796D01*
X584430Y74747D01*
X584338Y74708D01*
X584280Y74663D01*
X584177Y74605D01*
X583995Y74447D01*
X583929Y74397D01*
X579788Y70255D01*
X574331Y70255D01*
X574232Y70245D01*
X574133Y70245D01*
X574039Y70225D01*
X573944Y70215D01*
X573849Y70185D01*
X573751Y70165D01*
X573663Y70126D01*
X573572Y70097D01*
X573485Y70048D01*
X573394Y70009D01*
X573336Y69964D01*
X573232Y69906D01*
X573051Y69748D01*
X572985Y69698D01*
X516699Y13411D01*
X516678Y13386D01*
X516653Y13364D01*
X516555Y13235D01*
X516453Y13109D01*
X516437Y13080D01*
X516417Y13053D01*
X516348Y12907D01*
X516273Y12763D01*
X516265Y12731D01*
X516250Y12701D01*
X516212Y12544D01*
X516168Y12388D01*
X516166Y12354D01*
X516158Y12322D01*
X516153Y12160D01*
X516142Y11999D01*
X516147Y11966D01*
X516146Y11932D01*
X516173Y11773D01*
X516195Y11613D01*
X516207Y11581D01*
X516212Y11548D01*
X516272Y11398D01*
X516326Y11245D01*
X516344Y11217D01*
X516356Y11186D01*
X516445Y11051D01*
X516529Y10913D01*
X516552Y10888D01*
X516570Y10860D01*
X516685Y10746D01*
X516796Y10628D01*
X516823Y10609D01*
X516846Y10585D01*
X516982Y10497D01*
X517114Y10404D01*
X517145Y10391D01*
X517173Y10372D01*
X517324Y10313D01*
X517472Y10249D01*
X517505Y10242D01*
X517536Y10230D01*
X517618Y10219D01*
X517854Y10170D01*
X517973Y10171D01*
X518045Y10161D01*
X963987Y10161D01*
X964037Y10166D01*
X964087Y10163D01*
X964231Y10186D01*
X964375Y10201D01*
X964423Y10216D01*
X964472Y10223D01*
X964608Y10275D01*
X964747Y10319D01*
X964790Y10343D01*
X964837Y10361D01*
X964960Y10439D01*
X965086Y10510D01*
X965124Y10543D01*
X965166Y10569D01*
X965270Y10671D01*
X965380Y10766D01*
X965410Y10806D01*
X965446Y10841D01*
X965527Y10961D01*
X965615Y11077D01*
X965637Y11122D01*
X965665Y11163D01*
X965720Y11298D01*
X965782Y11429D01*
X965794Y11478D01*
X965813Y11524D01*
X965840Y11667D01*
X965874Y11808D01*
X965876Y11858D01*
X965885Y11907D01*
X965882Y12052D01*
X965887Y12198D01*
X965878Y12247D01*
X965878Y12297D01*
X965855Y12383D01*
X965820Y12582D01*
X965767Y12715D01*
X965747Y12794D01*
X964839Y14984D01*
X964839Y21016D01*
X967147Y26588D01*
X971412Y30853D01*
X976984Y33161D01*
X983016Y33161D01*
X987206Y31425D01*
X987254Y31411D01*
X987299Y31389D01*
X987440Y31355D01*
X987580Y31313D01*
X987629Y31309D01*
X987678Y31297D01*
X987823Y31293D01*
X987968Y31280D01*
X988018Y31286D01*
X988068Y31285D01*
X988211Y31309D01*
X988355Y31327D01*
X988402Y31343D01*
X988452Y31351D01*
X988587Y31405D01*
X988725Y31451D01*
X988768Y31477D01*
X988814Y31495D01*
X988935Y31575D01*
X989061Y31648D01*
X989098Y31682D01*
X989140Y31709D01*
X989242Y31812D01*
X989350Y31910D01*
X989379Y31950D01*
X989415Y31985D01*
X989494Y32107D01*
X989580Y32225D01*
X989600Y32270D01*
X989628Y32312D01*
X989681Y32447D01*
X989741Y32580D01*
X989752Y32628D01*
X989770Y32675D01*
X989782Y32763D01*
X989826Y32960D01*
X989828Y33103D01*
X989839Y33184D01*
X989839Y469987D01*
X989834Y470037D01*
X989837Y470087D01*
X989814Y470231D01*
X989799Y470375D01*
X989784Y470423D01*
X989777Y470472D01*
X989725Y470608D01*
X989681Y470747D01*
X989657Y470790D01*
X989639Y470837D01*
X989561Y470960D01*
X989490Y471086D01*
X989457Y471124D01*
X989431Y471166D01*
X989329Y471270D01*
X989234Y471380D01*
X989194Y471410D01*
X989159Y471446D01*
X989039Y471527D01*
X988923Y471615D01*
X988878Y471637D01*
X988837Y471665D01*
X988702Y471720D01*
X988571Y471782D01*
X988522Y471794D01*
X988476Y471813D01*
X988333Y471840D01*
X988192Y471874D01*
X988142Y471876D01*
X988093Y471885D01*
X987948Y471882D01*
X987802Y471887D01*
X987753Y471878D01*
X987703Y471878D01*
X987617Y471855D01*
X987418Y471820D01*
X987285Y471767D01*
X987206Y471747D01*
X985016Y470839D01*
X978984Y470839D01*
X973412Y473147D01*
X969147Y477412D01*
X966839Y482984D01*
X966839Y487935D01*
X966832Y488001D01*
X966835Y488068D01*
X966813Y488195D01*
X966799Y488323D01*
X966779Y488386D01*
X966768Y488452D01*
X966720Y488571D01*
X966681Y488694D01*
X966649Y488752D01*
X966624Y488814D01*
X966553Y488921D01*
X966490Y489034D01*
X966446Y489084D01*
X966410Y489140D01*
X966319Y489231D01*
X966234Y489328D01*
X966181Y489368D01*
X966134Y489415D01*
X966026Y489485D01*
X965923Y489563D01*
X965863Y489591D01*
X965807Y489628D01*
X965687Y489675D01*
X965571Y489730D01*
X965506Y489746D01*
X965444Y489770D01*
X965358Y489782D01*
X965192Y489822D01*
X965022Y489827D01*
X964935Y489839D01*
X30065Y489839D01*
X29999Y489832D01*
X29932Y489835D01*
X29805Y489813D01*
X29677Y489799D01*
X29614Y489779D01*
X29548Y489768D01*
X29429Y489720D01*
X29306Y489681D01*
X29248Y489649D01*
X29186Y489624D01*
X29079Y489553D01*
X28966Y489490D01*
X28916Y489446D01*
X28860Y489410D01*
X28769Y489319D01*
X28672Y489234D01*
X28632Y489181D01*
X28585Y489134D01*
X28515Y489026D01*
X28437Y488923D01*
X28409Y488863D01*
X28372Y488807D01*
X28325Y488687D01*
X28270Y488571D01*
X28254Y488506D01*
X28230Y488444D01*
X28218Y488358D01*
X28178Y488192D01*
X28173Y488022D01*
X28161Y487935D01*
X28161Y481984D01*
X25853Y476412D01*
X21588Y472147D01*
X16016Y469839D01*
X12065Y469839D01*
X11999Y469832D01*
X11932Y469835D01*
X11805Y469813D01*
X11677Y469799D01*
X11614Y469779D01*
X11548Y469768D01*
X11429Y469720D01*
X11306Y469681D01*
X11248Y469649D01*
X11186Y469624D01*
X11079Y469553D01*
X10966Y469490D01*
X10916Y469446D01*
X10860Y469410D01*
X10769Y469319D01*
X10672Y469234D01*
X10632Y469181D01*
X10585Y469134D01*
X10515Y469026D01*
X10437Y468923D01*
X10409Y468863D01*
X10372Y468807D01*
X10325Y468687D01*
X10270Y468571D01*
X10254Y468506D01*
X10230Y468444D01*
X10218Y468358D01*
X10178Y468192D01*
X10173Y468022D01*
X10161Y467935D01*
X10161Y413943D01*
X10164Y413910D01*
X10162Y413877D01*
X10184Y413716D01*
X10201Y413555D01*
X10211Y413524D01*
X10215Y413491D01*
X10270Y413338D01*
X10319Y413184D01*
X10335Y413155D01*
X10346Y413124D01*
X10430Y412986D01*
X10510Y412844D01*
X10532Y412819D01*
X10549Y412791D01*
X10660Y412673D01*
X10766Y412551D01*
X10793Y412531D01*
X10815Y412506D01*
X10948Y412413D01*
X11077Y412315D01*
X11107Y412301D01*
X11134Y412282D01*
X11283Y412218D01*
X11429Y412148D01*
X11461Y412140D01*
X11492Y412127D01*
X11651Y412095D01*
X11808Y412056D01*
X11841Y412055D01*
X11874Y412049D01*
X12036Y412049D01*
X12198Y412044D01*
X12230Y412049D01*
X12264Y412049D01*
X12422Y412083D01*
X12582Y412110D01*
X12612Y412123D01*
X12645Y412129D01*
X12794Y412194D01*
X12944Y412254D01*
X12972Y412272D01*
X13002Y412286D01*
X13069Y412336D01*
X13269Y412468D01*
X13353Y412553D01*
X13411Y412597D01*
X50425Y449610D01*
X52122Y451307D01*
X53989Y452081D01*
X217365Y452081D01*
X217480Y452093D01*
X217597Y452095D01*
X217657Y452111D01*
X217753Y452121D01*
X218034Y452210D01*
X218094Y452226D01*
X220742Y453323D01*
X223258Y453323D01*
X225906Y452226D01*
X226018Y452192D01*
X226126Y452150D01*
X226188Y452142D01*
X226280Y452114D01*
X226574Y452089D01*
X226635Y452081D01*
X373107Y452081D01*
X373206Y452091D01*
X373305Y452091D01*
X373399Y452111D01*
X373495Y452121D01*
X373589Y452151D01*
X373687Y452171D01*
X373775Y452210D01*
X373866Y452239D01*
X373953Y452288D01*
X374044Y452327D01*
X374102Y452372D01*
X374206Y452430D01*
X374387Y452588D01*
X374453Y452638D01*
X382425Y460610D01*
X384122Y462307D01*
X385989Y463081D01*
X463011Y463081D01*
X464878Y462307D01*
X480305Y446880D01*
X480382Y446818D01*
X480453Y446747D01*
X480533Y446695D01*
X480607Y446635D01*
X480695Y446589D01*
X480779Y446534D01*
X480868Y446499D01*
X480953Y446455D01*
X481049Y446428D01*
X481142Y446392D01*
X481214Y446382D01*
X481329Y446350D01*
X481569Y446334D01*
X481651Y446323D01*
X482258Y446323D01*
X484582Y445360D01*
X486360Y443582D01*
X487323Y441258D01*
X487323Y438742D01*
X486360Y436418D01*
X484582Y434640D01*
X482258Y433677D01*
X479742Y433677D01*
X477418Y434640D01*
X475640Y436418D01*
X475250Y437360D01*
X475195Y437462D01*
X475148Y437568D01*
X475110Y437618D01*
X475065Y437703D01*
X474874Y437929D01*
X474837Y437978D01*
X460453Y452362D01*
X460376Y452424D01*
X460305Y452495D01*
X460225Y452547D01*
X460151Y452607D01*
X460063Y452653D01*
X459979Y452708D01*
X459890Y452743D01*
X459805Y452787D01*
X459709Y452814D01*
X459616Y452850D01*
X459544Y452860D01*
X459429Y452892D01*
X459189Y452908D01*
X459107Y452919D01*
X444965Y452919D01*
X444932Y452916D01*
X444899Y452918D01*
X444738Y452896D01*
X444577Y452879D01*
X444546Y452869D01*
X444513Y452865D01*
X444360Y452810D01*
X444206Y452761D01*
X444177Y452745D01*
X444146Y452734D01*
X444007Y452649D01*
X443866Y452570D01*
X443841Y452548D01*
X443813Y452531D01*
X443695Y452420D01*
X443573Y452314D01*
X443553Y452287D01*
X443528Y452265D01*
X443435Y452132D01*
X443337Y452003D01*
X443323Y451973D01*
X443304Y451946D01*
X443240Y451797D01*
X443170Y451651D01*
X443162Y451619D01*
X443149Y451588D01*
X443117Y451429D01*
X443078Y451272D01*
X443077Y451239D01*
X443071Y451206D01*
X443071Y451044D01*
X443066Y450882D01*
X443071Y450850D01*
X443071Y450816D01*
X443105Y450658D01*
X443132Y450498D01*
X443145Y450468D01*
X443151Y450435D01*
X443216Y450286D01*
X443276Y450136D01*
X443294Y450108D01*
X443308Y450078D01*
X443358Y450011D01*
X443490Y449811D01*
X443574Y449727D01*
X443619Y449668D01*
X445037Y448250D01*
X456769Y436518D01*
X457446Y434884D01*
X457446Y397630D01*
X457456Y397531D01*
X457456Y397432D01*
X457476Y397338D01*
X457486Y397243D01*
X457516Y397148D01*
X457536Y397050D01*
X457575Y396962D01*
X457604Y396871D01*
X457653Y396784D01*
X457692Y396693D01*
X457737Y396635D01*
X457795Y396531D01*
X457953Y396350D01*
X458003Y396284D01*
X460584Y393703D01*
X460661Y393641D01*
X460732Y393570D01*
X460812Y393518D01*
X460886Y393458D01*
X460974Y393412D01*
X461058Y393357D01*
X461147Y393322D01*
X461232Y393278D01*
X461328Y393251D01*
X461421Y393215D01*
X461493Y393205D01*
X461608Y393173D01*
X461848Y393157D01*
X461930Y393146D01*
X547070Y393146D01*
X547169Y393156D01*
X547268Y393156D01*
X547362Y393176D01*
X547457Y393186D01*
X547552Y393216D01*
X547650Y393236D01*
X547738Y393275D01*
X547829Y393304D01*
X547916Y393353D01*
X548007Y393392D01*
X548065Y393437D01*
X548169Y393495D01*
X548350Y393653D01*
X548416Y393703D01*
X584097Y429384D01*
X584159Y429461D01*
X584230Y429532D01*
X584282Y429612D01*
X584342Y429686D01*
X584388Y429774D01*
X584443Y429858D01*
X584478Y429947D01*
X584522Y430032D01*
X584549Y430128D01*
X584585Y430221D01*
X584595Y430293D01*
X584627Y430408D01*
X584643Y430648D01*
X584654Y430730D01*
X584654Y442309D01*
X584646Y442392D01*
X584647Y442475D01*
X584626Y442585D01*
X584614Y442697D01*
X584589Y442776D01*
X584574Y442858D01*
X584530Y442961D01*
X584496Y443068D01*
X584456Y443141D01*
X584424Y443218D01*
X584360Y443310D01*
X584305Y443408D01*
X584250Y443471D01*
X584204Y443539D01*
X584123Y443617D01*
X584049Y443702D01*
X583983Y443752D01*
X583923Y443809D01*
X583852Y443851D01*
X583738Y443937D01*
X583666Y443971D01*
X580917Y446720D01*
X579447Y450268D01*
X579447Y468332D01*
X580917Y471880D01*
X583632Y474595D01*
X587180Y476065D01*
X591020Y476065D01*
X594568Y474595D01*
X597283Y471880D01*
X598753Y468332D01*
X598753Y450268D01*
X597283Y446720D01*
X594543Y443980D01*
X594477Y443937D01*
X594379Y443883D01*
X594315Y443830D01*
X594245Y443784D01*
X594166Y443704D01*
X594080Y443632D01*
X594029Y443567D01*
X593970Y443508D01*
X593909Y443414D01*
X593840Y443326D01*
X593803Y443251D01*
X593757Y443181D01*
X593716Y443077D01*
X593666Y442976D01*
X593645Y442896D01*
X593615Y442818D01*
X593604Y442738D01*
X593568Y442599D01*
X593558Y442398D01*
X593546Y442309D01*
X593546Y434430D01*
X593549Y434397D01*
X593547Y434364D01*
X593569Y434203D01*
X593586Y434042D01*
X593596Y434011D01*
X593600Y433978D01*
X593655Y433825D01*
X593704Y433671D01*
X593720Y433642D01*
X593731Y433611D01*
X593815Y433472D01*
X593895Y433331D01*
X593917Y433306D01*
X593934Y433278D01*
X594045Y433159D01*
X594151Y433038D01*
X594178Y433018D01*
X594200Y432993D01*
X594333Y432900D01*
X594462Y432802D01*
X594492Y432788D01*
X594519Y432769D01*
X594668Y432705D01*
X594814Y432635D01*
X594846Y432627D01*
X594877Y432614D01*
X595036Y432582D01*
X595193Y432543D01*
X595226Y432542D01*
X595259Y432536D01*
X595421Y432536D01*
X595583Y432531D01*
X595615Y432536D01*
X595649Y432536D01*
X595807Y432570D01*
X595967Y432597D01*
X595997Y432610D01*
X596030Y432616D01*
X596179Y432681D01*
X596329Y432741D01*
X596357Y432759D01*
X596387Y432773D01*
X596454Y432823D01*
X596654Y432955D01*
X596738Y433040D01*
X596796Y433084D01*
X601482Y437769D01*
X603116Y438446D01*
X611507Y438446D01*
X611586Y438454D01*
X611665Y438452D01*
X611779Y438474D01*
X611895Y438486D01*
X611970Y438510D01*
X612048Y438524D01*
X612155Y438568D01*
X612266Y438604D01*
X612335Y438642D01*
X612408Y438672D01*
X612504Y438738D01*
X612606Y438795D01*
X612665Y438847D01*
X612731Y438891D01*
X612812Y438975D01*
X612900Y439051D01*
X612947Y439114D01*
X613002Y439171D01*
X613065Y439269D01*
X613135Y439362D01*
X613169Y439433D01*
X613211Y439500D01*
X613252Y439609D01*
X613302Y439714D01*
X613321Y439791D01*
X613348Y439865D01*
X613366Y439980D01*
X613394Y440093D01*
X613396Y440172D01*
X613409Y440250D01*
X613403Y440366D01*
X613407Y440483D01*
X613393Y440560D01*
X613389Y440639D01*
X613360Y440752D01*
X613340Y440867D01*
X613311Y440940D01*
X613291Y441016D01*
X613251Y441090D01*
X613196Y441229D01*
X613090Y441391D01*
X613048Y441469D01*
X612632Y442041D01*
X611942Y443395D01*
X611481Y444815D01*
X627619Y444815D01*
X627685Y444822D01*
X627751Y444819D01*
X627878Y444841D01*
X628007Y444855D01*
X628017Y444858D01*
X628124Y444832D01*
X628294Y444827D01*
X628381Y444815D01*
X644519Y444815D01*
X644058Y443395D01*
X643368Y442041D01*
X642952Y441469D01*
X642913Y441401D01*
X642865Y441338D01*
X642815Y441233D01*
X642757Y441132D01*
X642732Y441057D01*
X642698Y440986D01*
X642671Y440873D01*
X642634Y440762D01*
X642625Y440684D01*
X642606Y440607D01*
X642602Y440491D01*
X642589Y440375D01*
X642596Y440296D01*
X642593Y440217D01*
X642613Y440103D01*
X642624Y439987D01*
X642647Y439911D01*
X642660Y439833D01*
X642703Y439725D01*
X642737Y439614D01*
X642775Y439544D01*
X642804Y439471D01*
X642868Y439374D01*
X642924Y439272D01*
X642975Y439211D01*
X643018Y439145D01*
X643101Y439063D01*
X643176Y438975D01*
X643238Y438926D01*
X643294Y438870D01*
X643392Y438807D01*
X643484Y438735D01*
X643555Y438700D01*
X643621Y438657D01*
X643729Y438615D01*
X643834Y438564D01*
X643910Y438544D01*
X643984Y438515D01*
X644066Y438504D01*
X644211Y438467D01*
X644404Y438458D01*
X644493Y438446D01*
X674267Y438446D01*
X674333Y438453D01*
X674400Y438450D01*
X674527Y438472D01*
X674655Y438486D01*
X674718Y438506D01*
X674784Y438517D01*
X674903Y438565D01*
X675026Y438604D01*
X675084Y438636D01*
X675146Y438661D01*
X675253Y438732D01*
X675366Y438795D01*
X675416Y438839D01*
X675472Y438875D01*
X675563Y438966D01*
X675660Y439051D01*
X675700Y439104D01*
X675747Y439151D01*
X675817Y439259D01*
X675895Y439362D01*
X675923Y439422D01*
X675960Y439478D01*
X676007Y439598D01*
X676062Y439714D01*
X676078Y439779D01*
X676102Y439841D01*
X676114Y439927D01*
X676154Y440093D01*
X676159Y440263D01*
X676171Y440350D01*
X676171Y442617D01*
X677409Y445605D01*
X679695Y447891D01*
X682683Y449129D01*
X685917Y449129D01*
X688905Y447891D01*
X691191Y445605D01*
X692429Y442617D01*
X692429Y439383D01*
X691191Y436396D01*
X689492Y434697D01*
X689471Y434671D01*
X689446Y434649D01*
X689349Y434520D01*
X689246Y434394D01*
X689231Y434365D01*
X689211Y434338D01*
X689142Y434192D01*
X689067Y434048D01*
X689058Y434016D01*
X689044Y433986D01*
X689006Y433829D01*
X688962Y433673D01*
X688960Y433639D01*
X688952Y433607D01*
X688947Y433445D01*
X688936Y433284D01*
X688940Y433251D01*
X688939Y433217D01*
X688967Y433058D01*
X688989Y432898D01*
X689000Y432866D01*
X689006Y432833D01*
X689065Y432683D01*
X689120Y432530D01*
X689137Y432502D01*
X689149Y432471D01*
X689238Y432336D01*
X689323Y432198D01*
X689346Y432173D01*
X689364Y432145D01*
X689479Y432031D01*
X689589Y431913D01*
X689616Y431894D01*
X689640Y431870D01*
X689776Y431782D01*
X689908Y431689D01*
X689939Y431675D01*
X689966Y431657D01*
X690117Y431598D01*
X690266Y431534D01*
X690298Y431527D01*
X690329Y431515D01*
X690412Y431504D01*
X690648Y431455D01*
X690766Y431456D01*
X690839Y431446D01*
X754452Y431446D01*
X754502Y431451D01*
X754552Y431448D01*
X754696Y431471D01*
X754840Y431486D01*
X754888Y431501D01*
X754937Y431509D01*
X755073Y431560D01*
X755211Y431604D01*
X755255Y431628D01*
X755302Y431646D01*
X755425Y431724D01*
X755551Y431795D01*
X755589Y431828D01*
X755631Y431855D01*
X755735Y431956D01*
X755845Y432051D01*
X755875Y432091D01*
X755911Y432126D01*
X755992Y432246D01*
X756080Y432362D01*
X756102Y432407D01*
X756130Y432449D01*
X756185Y432583D01*
X756247Y432714D01*
X756259Y432763D01*
X756278Y432809D01*
X756305Y432952D01*
X756339Y433093D01*
X756341Y433143D01*
X756350Y433192D01*
X756347Y433338D01*
X756352Y433483D01*
X756343Y433532D01*
X756342Y433582D01*
X756335Y433609D01*
X756335Y437620D01*
X757805Y441168D01*
X760520Y443883D01*
X764068Y445353D01*
X782132Y445353D01*
X785680Y443883D01*
X788395Y441168D01*
X789865Y437620D01*
X789865Y433780D01*
X788395Y430232D01*
X787972Y429809D01*
X787930Y429757D01*
X787881Y429712D01*
X787807Y429606D01*
X787726Y429506D01*
X787695Y429447D01*
X787657Y429393D01*
X787606Y429275D01*
X787546Y429160D01*
X787528Y429096D01*
X787502Y429035D01*
X787476Y428909D01*
X787441Y428785D01*
X787437Y428718D01*
X787424Y428653D01*
X787424Y428524D01*
X787415Y428396D01*
X787424Y428330D01*
X787424Y428264D01*
X787451Y428137D01*
X787468Y428010D01*
X787491Y427947D01*
X787504Y427882D01*
X787556Y427764D01*
X787599Y427643D01*
X787634Y427586D01*
X787661Y427525D01*
X787714Y427455D01*
X787802Y427310D01*
X787919Y427185D01*
X787972Y427116D01*
X799084Y416003D01*
X799161Y415941D01*
X799232Y415870D01*
X799312Y415818D01*
X799386Y415758D01*
X799474Y415712D01*
X799558Y415657D01*
X799647Y415622D01*
X799732Y415578D01*
X799828Y415551D01*
X799921Y415515D01*
X799993Y415505D01*
X800108Y415473D01*
X800348Y415457D01*
X800430Y415446D01*
X844684Y415446D01*
X846318Y414769D01*
X847985Y413102D01*
X848062Y413040D01*
X848133Y412969D01*
X848213Y412917D01*
X848287Y412857D01*
X848375Y412811D01*
X848459Y412756D01*
X848548Y412721D01*
X848633Y412677D01*
X848729Y412650D01*
X848822Y412614D01*
X848894Y412604D01*
X849009Y412572D01*
X849249Y412556D01*
X849331Y412545D01*
X855188Y412545D01*
X860545Y407188D01*
X860545Y399612D01*
X855188Y394255D01*
X847612Y394255D01*
X842255Y399612D01*
X842255Y404650D01*
X842248Y404716D01*
X842251Y404783D01*
X842229Y404910D01*
X842215Y405038D01*
X842195Y405101D01*
X842184Y405167D01*
X842136Y405286D01*
X842097Y405409D01*
X842065Y405467D01*
X842040Y405529D01*
X841969Y405636D01*
X841906Y405749D01*
X841862Y405799D01*
X841826Y405855D01*
X841735Y405946D01*
X841650Y406043D01*
X841597Y406083D01*
X841550Y406130D01*
X841442Y406200D01*
X841339Y406278D01*
X841279Y406306D01*
X841223Y406343D01*
X841103Y406390D01*
X840987Y406445D01*
X840922Y406461D01*
X840860Y406485D01*
X840774Y406497D01*
X840608Y406537D01*
X840438Y406542D01*
X840351Y406554D01*
X820228Y406554D01*
X820195Y406551D01*
X820162Y406553D01*
X820001Y406531D01*
X819840Y406514D01*
X819809Y406504D01*
X819776Y406500D01*
X819623Y406445D01*
X819469Y406396D01*
X819440Y406380D01*
X819409Y406369D01*
X819270Y406285D01*
X819129Y406205D01*
X819104Y406183D01*
X819076Y406166D01*
X818957Y406055D01*
X818836Y405949D01*
X818816Y405922D01*
X818791Y405900D01*
X818698Y405767D01*
X818600Y405638D01*
X818586Y405608D01*
X818567Y405581D01*
X818503Y405432D01*
X818433Y405286D01*
X818425Y405254D01*
X818412Y405223D01*
X818380Y405064D01*
X818341Y404907D01*
X818340Y404874D01*
X818334Y404841D01*
X818334Y404679D01*
X818329Y404517D01*
X818334Y404485D01*
X818334Y404451D01*
X818368Y404293D01*
X818395Y404133D01*
X818408Y404103D01*
X818414Y404070D01*
X818479Y403921D01*
X818539Y403771D01*
X818557Y403743D01*
X818571Y403713D01*
X818621Y403646D01*
X818753Y403446D01*
X818838Y403362D01*
X818882Y403304D01*
X833547Y388638D01*
X833624Y388576D01*
X833695Y388505D01*
X833775Y388453D01*
X833849Y388393D01*
X833937Y388347D01*
X834021Y388292D01*
X834110Y388257D01*
X834195Y388213D01*
X834291Y388186D01*
X834384Y388150D01*
X834456Y388140D01*
X834571Y388108D01*
X834811Y388092D01*
X834893Y388081D01*
X911441Y388081D01*
X911540Y388091D01*
X911640Y388091D01*
X911733Y388111D01*
X911829Y388121D01*
X911924Y388151D01*
X912021Y388171D01*
X912109Y388210D01*
X912200Y388239D01*
X912287Y388288D01*
X912378Y388327D01*
X912436Y388372D01*
X912540Y388430D01*
X912721Y388588D01*
X912787Y388638D01*
X918302Y394153D01*
X926298Y394153D01*
X931953Y388498D01*
X931953Y380502D01*
X926298Y374847D01*
X918302Y374847D01*
X915787Y377362D01*
X915710Y377424D01*
X915640Y377495D01*
X915559Y377547D01*
X915485Y377607D01*
X915397Y377653D01*
X915313Y377708D01*
X915224Y377743D01*
X915139Y377787D01*
X915043Y377814D01*
X914950Y377850D01*
X914878Y377860D01*
X914764Y377892D01*
X914524Y377908D01*
X914441Y377919D01*
X830989Y377919D01*
X829122Y378693D01*
X810053Y397762D01*
X809976Y397824D01*
X809905Y397895D01*
X809825Y397947D01*
X809751Y398007D01*
X809663Y398053D01*
X809579Y398108D01*
X809490Y398143D01*
X809405Y398187D01*
X809309Y398214D01*
X809216Y398250D01*
X809144Y398260D01*
X809029Y398292D01*
X808789Y398308D01*
X808707Y398319D01*
X783841Y398319D01*
X783742Y398309D01*
X783642Y398309D01*
X783548Y398289D01*
X783453Y398279D01*
X783358Y398249D01*
X783261Y398229D01*
X783173Y398190D01*
X783081Y398161D01*
X782995Y398112D01*
X782903Y398073D01*
X782845Y398028D01*
X782742Y397970D01*
X782560Y397812D01*
X782494Y397762D01*
X778988Y394255D01*
X771412Y394255D01*
X766055Y399612D01*
X766055Y404571D01*
X766045Y404670D01*
X766045Y404769D01*
X766025Y404863D01*
X766015Y404958D01*
X765985Y405053D01*
X765965Y405151D01*
X765926Y405239D01*
X765897Y405330D01*
X765848Y405417D01*
X765809Y405508D01*
X765764Y405566D01*
X765706Y405670D01*
X765548Y405851D01*
X765498Y405917D01*
X762053Y409362D01*
X761976Y409424D01*
X761905Y409495D01*
X761825Y409547D01*
X761751Y409607D01*
X761663Y409653D01*
X761579Y409708D01*
X761490Y409743D01*
X761405Y409787D01*
X761309Y409814D01*
X761216Y409850D01*
X761144Y409860D01*
X761029Y409892D01*
X760789Y409908D01*
X760707Y409919D01*
X747041Y409919D01*
X746942Y409909D01*
X746842Y409909D01*
X746748Y409889D01*
X746653Y409879D01*
X746558Y409849D01*
X746461Y409829D01*
X746373Y409790D01*
X746281Y409761D01*
X746195Y409712D01*
X746103Y409673D01*
X746045Y409628D01*
X745942Y409570D01*
X745760Y409412D01*
X745694Y409362D01*
X742188Y405855D01*
X734612Y405855D01*
X730506Y409962D01*
X730429Y410024D01*
X730358Y410095D01*
X730278Y410147D01*
X730204Y410207D01*
X730115Y410253D01*
X730032Y410308D01*
X729943Y410343D01*
X729857Y410387D01*
X729761Y410414D01*
X729669Y410450D01*
X729596Y410460D01*
X729482Y410492D01*
X729242Y410508D01*
X729159Y410519D01*
X691504Y410519D01*
X691405Y410509D01*
X691305Y410509D01*
X691211Y410489D01*
X691116Y410479D01*
X691021Y410449D01*
X690924Y410429D01*
X690836Y410390D01*
X690745Y410361D01*
X690658Y410313D01*
X690567Y410273D01*
X690508Y410228D01*
X690405Y410170D01*
X690224Y410012D01*
X690157Y409962D01*
X688904Y408709D01*
X685917Y407471D01*
X684445Y407471D01*
X684346Y407461D01*
X684247Y407461D01*
X684153Y407441D01*
X684058Y407431D01*
X683963Y407401D01*
X683865Y407381D01*
X683777Y407342D01*
X683686Y407313D01*
X683599Y407264D01*
X683508Y407225D01*
X683450Y407180D01*
X683346Y407122D01*
X683165Y406964D01*
X683099Y406914D01*
X644749Y368564D01*
X644676Y368474D01*
X644596Y368390D01*
X644564Y368336D01*
X644503Y368262D01*
X644368Y368000D01*
X644337Y367946D01*
X643295Y365432D01*
X640580Y362717D01*
X637032Y361247D01*
X618968Y361247D01*
X615420Y362717D01*
X612705Y365432D01*
X611235Y368980D01*
X611235Y372820D01*
X612712Y376384D01*
X612784Y376480D01*
X612886Y376606D01*
X612902Y376635D01*
X612922Y376662D01*
X612991Y376808D01*
X613066Y376952D01*
X613075Y376984D01*
X613089Y377014D01*
X613127Y377171D01*
X613171Y377327D01*
X613173Y377361D01*
X613181Y377393D01*
X613186Y377555D01*
X613197Y377716D01*
X613193Y377749D01*
X613194Y377783D01*
X613166Y377942D01*
X613144Y378102D01*
X613133Y378134D01*
X613127Y378167D01*
X613067Y378317D01*
X613013Y378469D01*
X612995Y378498D01*
X612983Y378529D01*
X612894Y378664D01*
X612810Y378802D01*
X612787Y378827D01*
X612769Y378855D01*
X612654Y378969D01*
X612544Y379087D01*
X612516Y379106D01*
X612493Y379130D01*
X612357Y379218D01*
X612225Y379311D01*
X612194Y379324D01*
X612166Y379343D01*
X612016Y379402D01*
X611867Y379466D01*
X611834Y379473D01*
X611803Y379485D01*
X611721Y379496D01*
X611485Y379545D01*
X611366Y379544D01*
X611294Y379554D01*
X584085Y379554D01*
X583986Y379544D01*
X583886Y379544D01*
X583792Y379524D01*
X583697Y379514D01*
X583602Y379484D01*
X583505Y379464D01*
X583417Y379425D01*
X583326Y379396D01*
X583239Y379347D01*
X583148Y379308D01*
X583089Y379263D01*
X582986Y379205D01*
X582805Y379047D01*
X582738Y378997D01*
X564791Y361050D01*
X564791Y361049D01*
X563273Y359531D01*
X561639Y358854D01*
X476641Y358854D01*
X476559Y358846D01*
X476476Y358847D01*
X476366Y358826D01*
X476254Y358814D01*
X476175Y358789D01*
X476093Y358774D01*
X475989Y358730D01*
X475882Y358696D01*
X475810Y358656D01*
X475733Y358624D01*
X475641Y358560D01*
X475543Y358505D01*
X475480Y358451D01*
X475411Y358404D01*
X475334Y358323D01*
X475249Y358249D01*
X475199Y358183D01*
X475141Y358123D01*
X475100Y358052D01*
X475014Y357938D01*
X474927Y357756D01*
X474882Y357679D01*
X474360Y356418D01*
X472582Y354640D01*
X470258Y353677D01*
X467742Y353677D01*
X465418Y354640D01*
X463640Y356418D01*
X462677Y358742D01*
X462677Y360138D01*
X462674Y360171D01*
X462676Y360205D01*
X462654Y360365D01*
X462637Y360526D01*
X462627Y360558D01*
X462623Y360591D01*
X462568Y360743D01*
X462519Y360898D01*
X462503Y360927D01*
X462492Y360958D01*
X462408Y361096D01*
X462328Y361237D01*
X462306Y361262D01*
X462289Y361291D01*
X462178Y361409D01*
X462072Y361531D01*
X462045Y361551D01*
X462022Y361575D01*
X461890Y361669D01*
X461761Y361766D01*
X461731Y361781D01*
X461704Y361800D01*
X461555Y361864D01*
X461409Y361933D01*
X461376Y361941D01*
X461346Y361954D01*
X461187Y361987D01*
X461030Y362025D01*
X460997Y362026D01*
X460964Y362033D01*
X460802Y362033D01*
X460640Y362038D01*
X460608Y362032D01*
X460574Y362032D01*
X460416Y361999D01*
X460256Y361971D01*
X460225Y361959D01*
X460193Y361952D01*
X460044Y361887D01*
X459894Y361828D01*
X459866Y361809D01*
X459836Y361796D01*
X459769Y361745D01*
X459655Y361670D01*
X457258Y360677D01*
X454742Y360677D01*
X452418Y361640D01*
X450640Y363418D01*
X449677Y365742D01*
X449677Y368258D01*
X449952Y368921D01*
X449966Y368969D01*
X449988Y369014D01*
X450022Y369155D01*
X450064Y369295D01*
X450068Y369344D01*
X450080Y369393D01*
X450084Y369538D01*
X450097Y369683D01*
X450091Y369733D01*
X450092Y369783D01*
X450068Y369926D01*
X450050Y370070D01*
X450034Y370117D01*
X450026Y370167D01*
X449972Y370302D01*
X449926Y370440D01*
X449900Y370483D01*
X449882Y370529D01*
X449802Y370650D01*
X449729Y370776D01*
X449695Y370813D01*
X449668Y370855D01*
X449565Y370957D01*
X449467Y371065D01*
X449427Y371094D01*
X449392Y371130D01*
X449270Y371209D01*
X449152Y371295D01*
X449107Y371315D01*
X449065Y371343D01*
X448930Y371396D01*
X448797Y371456D01*
X448749Y371467D01*
X448702Y371485D01*
X448614Y371497D01*
X448417Y371541D01*
X448274Y371543D01*
X448193Y371554D01*
X439285Y371554D01*
X439186Y371544D01*
X439086Y371544D01*
X438992Y371524D01*
X438897Y371514D01*
X438802Y371484D01*
X438705Y371464D01*
X438617Y371425D01*
X438526Y371396D01*
X438439Y371347D01*
X438348Y371308D01*
X438289Y371263D01*
X438186Y371205D01*
X438005Y371047D01*
X437938Y370997D01*
X437582Y370640D01*
X435258Y369677D01*
X432742Y369677D01*
X430418Y370640D01*
X428640Y372418D01*
X427677Y374742D01*
X427677Y377258D01*
X428640Y379582D01*
X430418Y381360D01*
X432742Y382323D01*
X435258Y382323D01*
X437582Y381360D01*
X437938Y381003D01*
X438015Y380941D01*
X438086Y380870D01*
X438166Y380818D01*
X438241Y380758D01*
X438329Y380712D01*
X438412Y380657D01*
X438502Y380622D01*
X438587Y380578D01*
X438683Y380551D01*
X438775Y380515D01*
X438848Y380505D01*
X438962Y380473D01*
X439202Y380457D01*
X439285Y380446D01*
X444020Y380446D01*
X444053Y380449D01*
X444086Y380447D01*
X444247Y380469D01*
X444408Y380486D01*
X444439Y380496D01*
X444472Y380500D01*
X444625Y380555D01*
X444779Y380604D01*
X444808Y380620D01*
X444839Y380631D01*
X444978Y380715D01*
X445119Y380795D01*
X445144Y380817D01*
X445172Y380834D01*
X445291Y380945D01*
X445412Y381051D01*
X445432Y381078D01*
X445457Y381100D01*
X445550Y381233D01*
X445648Y381362D01*
X445662Y381392D01*
X445681Y381419D01*
X445745Y381568D01*
X445815Y381714D01*
X445823Y381746D01*
X445836Y381777D01*
X445868Y381936D01*
X445907Y382093D01*
X445908Y382126D01*
X445914Y382159D01*
X445914Y382321D01*
X445919Y382483D01*
X445914Y382515D01*
X445914Y382549D01*
X445880Y382707D01*
X445853Y382867D01*
X445840Y382897D01*
X445834Y382930D01*
X445769Y383079D01*
X445709Y383229D01*
X445691Y383257D01*
X445677Y383287D01*
X445627Y383354D01*
X445495Y383554D01*
X445410Y383638D01*
X445366Y383696D01*
X438750Y390313D01*
X437231Y391832D01*
X436554Y393466D01*
X436554Y400715D01*
X436544Y400814D01*
X436544Y400914D01*
X436524Y401008D01*
X436514Y401103D01*
X436484Y401198D01*
X436464Y401295D01*
X436425Y401383D01*
X436396Y401474D01*
X436347Y401561D01*
X436308Y401652D01*
X436263Y401711D01*
X436205Y401814D01*
X436047Y401995D01*
X435997Y402062D01*
X435640Y402418D01*
X434677Y404742D01*
X434677Y407258D01*
X435640Y409582D01*
X437418Y411360D01*
X439742Y412323D01*
X442258Y412323D01*
X444582Y411360D01*
X445303Y410638D01*
X445329Y410617D01*
X445351Y410592D01*
X445480Y410495D01*
X445606Y410392D01*
X445635Y410377D01*
X445662Y410357D01*
X445808Y410288D01*
X445952Y410213D01*
X445984Y410204D01*
X446014Y410190D01*
X446171Y410152D01*
X446327Y410108D01*
X446361Y410106D01*
X446393Y410098D01*
X446555Y410093D01*
X446716Y410082D01*
X446749Y410086D01*
X446783Y410085D01*
X446942Y410113D01*
X447102Y410135D01*
X447134Y410146D01*
X447167Y410152D01*
X447317Y410212D01*
X447470Y410266D01*
X447498Y410283D01*
X447529Y410295D01*
X447664Y410384D01*
X447802Y410469D01*
X447827Y410492D01*
X447855Y410510D01*
X447969Y410624D01*
X448087Y410735D01*
X448106Y410762D01*
X448130Y410786D01*
X448218Y410921D01*
X448311Y411054D01*
X448325Y411085D01*
X448343Y411112D01*
X448402Y411263D01*
X448466Y411412D01*
X448473Y411444D01*
X448485Y411475D01*
X448496Y411558D01*
X448545Y411793D01*
X448544Y411912D01*
X448554Y411985D01*
X448554Y431370D01*
X448544Y431469D01*
X448544Y431568D01*
X448524Y431662D01*
X448514Y431757D01*
X448484Y431852D01*
X448464Y431950D01*
X448425Y432038D01*
X448396Y432129D01*
X448347Y432216D01*
X448308Y432307D01*
X448263Y432365D01*
X448205Y432469D01*
X448047Y432650D01*
X447997Y432716D01*
X439716Y440997D01*
X439639Y441059D01*
X439568Y441130D01*
X439488Y441182D01*
X439414Y441242D01*
X439326Y441288D01*
X439242Y441343D01*
X439153Y441378D01*
X439068Y441422D01*
X438972Y441449D01*
X438879Y441485D01*
X438807Y441495D01*
X438692Y441527D01*
X438452Y441543D01*
X438370Y441554D01*
X435285Y441554D01*
X435186Y441544D01*
X435086Y441544D01*
X434992Y441524D01*
X434897Y441514D01*
X434802Y441484D01*
X434705Y441464D01*
X434617Y441425D01*
X434526Y441396D01*
X434439Y441347D01*
X434348Y441308D01*
X434289Y441263D01*
X434186Y441205D01*
X434005Y441047D01*
X433938Y440997D01*
X433582Y440640D01*
X431258Y439677D01*
X428742Y439677D01*
X426418Y440640D01*
X424640Y442418D01*
X423677Y444742D01*
X423677Y447258D01*
X424640Y449582D01*
X424727Y449668D01*
X424748Y449694D01*
X424773Y449716D01*
X424871Y449845D01*
X424973Y449971D01*
X424988Y450000D01*
X425008Y450027D01*
X425078Y450173D01*
X425152Y450317D01*
X425161Y450349D01*
X425175Y450379D01*
X425213Y450536D01*
X425257Y450692D01*
X425259Y450726D01*
X425267Y450758D01*
X425272Y450920D01*
X425283Y451081D01*
X425279Y451114D01*
X425280Y451148D01*
X425252Y451307D01*
X425230Y451467D01*
X425219Y451499D01*
X425213Y451532D01*
X425154Y451682D01*
X425099Y451835D01*
X425082Y451863D01*
X425070Y451894D01*
X424981Y452029D01*
X424896Y452167D01*
X424874Y452192D01*
X424855Y452220D01*
X424740Y452334D01*
X424630Y452452D01*
X424603Y452471D01*
X424579Y452495D01*
X424443Y452583D01*
X424311Y452676D01*
X424281Y452689D01*
X424253Y452708D01*
X424102Y452767D01*
X423953Y452831D01*
X423921Y452838D01*
X423890Y452850D01*
X423807Y452861D01*
X423572Y452910D01*
X423453Y452909D01*
X423380Y452919D01*
X389893Y452919D01*
X389794Y452909D01*
X389695Y452909D01*
X389601Y452889D01*
X389506Y452879D01*
X389411Y452849D01*
X389313Y452829D01*
X389225Y452790D01*
X389134Y452761D01*
X389047Y452712D01*
X388956Y452673D01*
X388898Y452629D01*
X388794Y452570D01*
X388613Y452412D01*
X388547Y452362D01*
X380575Y444390D01*
X378878Y442693D01*
X377011Y441919D01*
X226635Y441919D01*
X226520Y441907D01*
X226403Y441905D01*
X226343Y441889D01*
X226247Y441879D01*
X225966Y441790D01*
X225906Y441774D01*
X223258Y440677D01*
X220742Y440677D01*
X218094Y441774D01*
X217982Y441808D01*
X217874Y441850D01*
X217812Y441858D01*
X217720Y441886D01*
X217426Y441911D01*
X217365Y441919D01*
X57893Y441919D01*
X57794Y441909D01*
X57695Y441909D01*
X57601Y441889D01*
X57506Y441879D01*
X57411Y441849D01*
X57313Y441829D01*
X57225Y441790D01*
X57134Y441761D01*
X57047Y441712D01*
X56956Y441673D01*
X56898Y441628D01*
X56794Y441570D01*
X56613Y441412D01*
X56547Y441362D01*
X18638Y403453D01*
X18576Y403376D01*
X18505Y403305D01*
X18453Y403225D01*
X18393Y403151D01*
X18347Y403063D01*
X18292Y402979D01*
X18257Y402890D01*
X18213Y402805D01*
X18186Y402709D01*
X18150Y402616D01*
X18140Y402544D01*
X18108Y402429D01*
X18092Y402189D01*
X18081Y402107D01*
X18081Y368893D01*
X18091Y368794D01*
X18091Y368695D01*
X18111Y368601D01*
X18121Y368506D01*
X18151Y368411D01*
X18171Y368313D01*
X18210Y368225D01*
X18239Y368134D01*
X18288Y368047D01*
X18327Y367956D01*
X18371Y367898D01*
X18430Y367794D01*
X18588Y367613D01*
X18638Y367547D01*
X25771Y360415D01*
X25822Y360373D01*
X25868Y360324D01*
X25973Y360250D01*
X26073Y360169D01*
X26132Y360138D01*
X26186Y360100D01*
X26305Y360049D01*
X26419Y359989D01*
X26483Y359971D01*
X26544Y359945D01*
X26670Y359919D01*
X26795Y359884D01*
X26861Y359880D01*
X26926Y359866D01*
X27055Y359867D01*
X27183Y359858D01*
X27249Y359867D01*
X27316Y359867D01*
X27442Y359894D01*
X27570Y359911D01*
X27632Y359934D01*
X27697Y359947D01*
X27815Y359999D01*
X27937Y360042D01*
X27993Y360077D01*
X28054Y360103D01*
X28124Y360157D01*
X28270Y360245D01*
X28394Y360362D01*
X28464Y360415D01*
X32002Y363953D01*
X39998Y363953D01*
X44648Y359303D01*
X44725Y359241D01*
X44795Y359170D01*
X44876Y359118D01*
X44950Y359058D01*
X45038Y359012D01*
X45122Y358957D01*
X45211Y358922D01*
X45296Y358878D01*
X45392Y358851D01*
X45485Y358815D01*
X45557Y358805D01*
X45671Y358773D01*
X45911Y358757D01*
X45994Y358746D01*
X51406Y358746D01*
X51505Y358756D01*
X51605Y358756D01*
X51698Y358776D01*
X51794Y358786D01*
X51889Y358816D01*
X51986Y358836D01*
X52074Y358875D01*
X52165Y358904D01*
X52252Y358953D01*
X52343Y358992D01*
X52401Y359037D01*
X52505Y359095D01*
X52686Y359253D01*
X52752Y359303D01*
X57402Y363953D01*
X65398Y363953D01*
X69413Y359938D01*
X69490Y359876D01*
X69560Y359805D01*
X69641Y359753D01*
X69715Y359693D01*
X69803Y359647D01*
X69887Y359592D01*
X69976Y359557D01*
X70061Y359513D01*
X70157Y359486D01*
X70250Y359450D01*
X70322Y359440D01*
X70436Y359408D01*
X70676Y359392D01*
X70759Y359381D01*
X77441Y359381D01*
X77540Y359391D01*
X77640Y359391D01*
X77733Y359411D01*
X77829Y359421D01*
X77924Y359451D01*
X78021Y359471D01*
X78109Y359510D01*
X78200Y359539D01*
X78287Y359588D01*
X78378Y359627D01*
X78436Y359672D01*
X78540Y359730D01*
X78721Y359888D01*
X78787Y359938D01*
X82802Y363953D01*
X90798Y363953D01*
X94813Y359938D01*
X94890Y359876D01*
X94960Y359805D01*
X95041Y359753D01*
X95115Y359693D01*
X95203Y359647D01*
X95287Y359592D01*
X95376Y359557D01*
X95461Y359513D01*
X95557Y359486D01*
X95650Y359450D01*
X95722Y359440D01*
X95836Y359408D01*
X96076Y359392D01*
X96159Y359381D01*
X102841Y359381D01*
X102940Y359391D01*
X103040Y359391D01*
X103133Y359411D01*
X103229Y359421D01*
X103324Y359451D01*
X103421Y359471D01*
X103509Y359510D01*
X103600Y359539D01*
X103687Y359588D01*
X103778Y359627D01*
X103836Y359672D01*
X103940Y359730D01*
X104121Y359888D01*
X104187Y359938D01*
X108202Y363953D01*
X116198Y363953D01*
X121853Y358298D01*
X121853Y352557D01*
X121865Y352442D01*
X121867Y352325D01*
X121883Y352265D01*
X121893Y352169D01*
X121982Y351888D01*
X121998Y351828D01*
X122871Y349721D01*
X122871Y300115D01*
X122878Y300049D01*
X122875Y299982D01*
X122897Y299855D01*
X122911Y299727D01*
X122931Y299664D01*
X122942Y299598D01*
X122990Y299479D01*
X123029Y299356D01*
X123061Y299298D01*
X123086Y299236D01*
X123157Y299129D01*
X123220Y299016D01*
X123264Y298966D01*
X123300Y298910D01*
X123391Y298819D01*
X123476Y298722D01*
X123529Y298682D01*
X123576Y298635D01*
X123684Y298565D01*
X123787Y298487D01*
X123847Y298459D01*
X123903Y298422D01*
X124023Y298375D01*
X124139Y298320D01*
X124204Y298304D01*
X124266Y298280D01*
X124352Y298268D01*
X124518Y298228D01*
X124688Y298223D01*
X124775Y298211D01*
X128842Y298211D01*
X130331Y296722D01*
X130331Y279843D01*
X130341Y279744D01*
X130341Y279645D01*
X130361Y279551D01*
X130371Y279456D01*
X130401Y279361D01*
X130421Y279263D01*
X130460Y279175D01*
X130489Y279084D01*
X130538Y278997D01*
X130577Y278906D01*
X130622Y278848D01*
X130680Y278744D01*
X130838Y278563D01*
X130888Y278497D01*
X150283Y259102D01*
X150360Y259040D01*
X150431Y258969D01*
X150511Y258917D01*
X150585Y258857D01*
X150673Y258811D01*
X150757Y258756D01*
X150846Y258721D01*
X150931Y258677D01*
X151027Y258650D01*
X151120Y258614D01*
X151192Y258604D01*
X151307Y258572D01*
X151547Y258556D01*
X151629Y258545D01*
X156588Y258545D01*
X161945Y253188D01*
X161945Y245612D01*
X156588Y240255D01*
X149012Y240255D01*
X143655Y245612D01*
X143655Y250571D01*
X143645Y250670D01*
X143645Y250769D01*
X143625Y250863D01*
X143615Y250958D01*
X143585Y251053D01*
X143565Y251151D01*
X143526Y251239D01*
X143497Y251330D01*
X143448Y251417D01*
X143409Y251508D01*
X143364Y251566D01*
X143306Y251670D01*
X143148Y251851D01*
X143098Y251917D01*
X122443Y272572D01*
X122366Y272634D01*
X122295Y272705D01*
X122215Y272757D01*
X122141Y272817D01*
X122053Y272863D01*
X121969Y272918D01*
X121880Y272953D01*
X121795Y272997D01*
X121699Y273024D01*
X121606Y273060D01*
X121534Y273070D01*
X121419Y273102D01*
X121179Y273118D01*
X121097Y273129D01*
X106738Y273129D01*
X105249Y274618D01*
X105249Y296722D01*
X106738Y298211D01*
X110805Y298211D01*
X110871Y298218D01*
X110938Y298215D01*
X111065Y298237D01*
X111193Y298251D01*
X111256Y298271D01*
X111322Y298282D01*
X111441Y298330D01*
X111564Y298369D01*
X111622Y298401D01*
X111684Y298426D01*
X111791Y298497D01*
X111904Y298560D01*
X111954Y298604D01*
X112010Y298640D01*
X112101Y298731D01*
X112198Y298816D01*
X112238Y298869D01*
X112285Y298916D01*
X112355Y299024D01*
X112433Y299127D01*
X112461Y299187D01*
X112498Y299243D01*
X112545Y299363D01*
X112600Y299479D01*
X112616Y299544D01*
X112640Y299606D01*
X112652Y299692D01*
X112692Y299858D01*
X112697Y300028D01*
X112709Y300115D01*
X112709Y342743D01*
X112702Y342809D01*
X112705Y342876D01*
X112683Y343003D01*
X112669Y343131D01*
X112649Y343194D01*
X112638Y343260D01*
X112590Y343379D01*
X112551Y343502D01*
X112519Y343560D01*
X112494Y343622D01*
X112423Y343729D01*
X112360Y343842D01*
X112316Y343892D01*
X112280Y343948D01*
X112189Y344039D01*
X112104Y344136D01*
X112051Y344176D01*
X112004Y344223D01*
X111896Y344293D01*
X111793Y344371D01*
X111733Y344399D01*
X111677Y344436D01*
X111557Y344483D01*
X111441Y344538D01*
X111376Y344554D01*
X111314Y344578D01*
X111228Y344590D01*
X111062Y344630D01*
X110892Y344635D01*
X110805Y344647D01*
X108202Y344647D01*
X104187Y348662D01*
X104110Y348724D01*
X104040Y348795D01*
X103959Y348847D01*
X103885Y348907D01*
X103797Y348953D01*
X103713Y349008D01*
X103624Y349043D01*
X103539Y349087D01*
X103443Y349114D01*
X103350Y349150D01*
X103278Y349160D01*
X103164Y349192D01*
X102924Y349208D01*
X102841Y349219D01*
X96159Y349219D01*
X96060Y349209D01*
X95960Y349209D01*
X95867Y349189D01*
X95771Y349179D01*
X95676Y349149D01*
X95579Y349129D01*
X95491Y349090D01*
X95400Y349061D01*
X95313Y349012D01*
X95222Y348973D01*
X95164Y348928D01*
X95060Y348870D01*
X94879Y348712D01*
X94813Y348662D01*
X90798Y344647D01*
X82802Y344647D01*
X78787Y348662D01*
X78710Y348724D01*
X78640Y348795D01*
X78559Y348847D01*
X78485Y348907D01*
X78397Y348953D01*
X78313Y349008D01*
X78224Y349043D01*
X78139Y349087D01*
X78043Y349114D01*
X77950Y349150D01*
X77878Y349160D01*
X77764Y349192D01*
X77524Y349208D01*
X77441Y349219D01*
X70759Y349219D01*
X70660Y349209D01*
X70560Y349209D01*
X70467Y349189D01*
X70371Y349179D01*
X70276Y349149D01*
X70179Y349129D01*
X70091Y349090D01*
X70000Y349061D01*
X69913Y349012D01*
X69822Y348973D01*
X69764Y348928D01*
X69660Y348870D01*
X69479Y348712D01*
X69413Y348662D01*
X65398Y344647D01*
X57402Y344647D01*
X52752Y349297D01*
X52675Y349359D01*
X52605Y349430D01*
X52524Y349482D01*
X52450Y349542D01*
X52362Y349588D01*
X52278Y349643D01*
X52189Y349678D01*
X52104Y349722D01*
X52008Y349749D01*
X51915Y349785D01*
X51843Y349795D01*
X51729Y349827D01*
X51489Y349843D01*
X51406Y349854D01*
X45994Y349854D01*
X45895Y349844D01*
X45795Y349844D01*
X45702Y349824D01*
X45606Y349814D01*
X45511Y349784D01*
X45414Y349764D01*
X45326Y349725D01*
X45235Y349696D01*
X45148Y349647D01*
X45057Y349608D01*
X44999Y349563D01*
X44895Y349505D01*
X44714Y349347D01*
X44648Y349297D01*
X39998Y344647D01*
X32002Y344647D01*
X27987Y348662D01*
X27910Y348724D01*
X27840Y348795D01*
X27759Y348847D01*
X27685Y348907D01*
X27597Y348953D01*
X27513Y349008D01*
X27424Y349043D01*
X27339Y349087D01*
X27243Y349114D01*
X27150Y349150D01*
X27078Y349160D01*
X26964Y349192D01*
X26724Y349208D01*
X26641Y349219D01*
X23689Y349219D01*
X21822Y349993D01*
X13411Y358403D01*
X13386Y358424D01*
X13364Y358449D01*
X13235Y358547D01*
X13109Y358649D01*
X13080Y358665D01*
X13053Y358685D01*
X12907Y358754D01*
X12763Y358829D01*
X12731Y358837D01*
X12701Y358852D01*
X12544Y358890D01*
X12388Y358934D01*
X12354Y358936D01*
X12322Y358944D01*
X12160Y358949D01*
X11999Y358960D01*
X11966Y358955D01*
X11932Y358956D01*
X11773Y358929D01*
X11613Y358907D01*
X11581Y358895D01*
X11548Y358890D01*
X11398Y358830D01*
X11245Y358776D01*
X11217Y358758D01*
X11186Y358746D01*
X11051Y358657D01*
X10913Y358573D01*
X10888Y358550D01*
X10860Y358532D01*
X10746Y358417D01*
X10628Y358306D01*
X10609Y358279D01*
X10585Y358256D01*
X10497Y358120D01*
X10404Y357988D01*
X10391Y357957D01*
X10372Y357929D01*
X10313Y357778D01*
X10249Y357630D01*
X10242Y357597D01*
X10230Y357566D01*
X10219Y357484D01*
X10170Y357248D01*
X10171Y357129D01*
X10161Y357057D01*
X10161Y299795D01*
X10179Y299622D01*
X10193Y299448D01*
X10199Y299428D01*
X10201Y299407D01*
X10253Y299242D01*
X10303Y299074D01*
X10312Y299055D01*
X10319Y299036D01*
X10404Y298884D01*
X10486Y298730D01*
X10500Y298714D01*
X10510Y298696D01*
X10624Y298565D01*
X10736Y298431D01*
X10753Y298418D01*
X10766Y298403D01*
X10905Y298297D01*
X11042Y298189D01*
X11061Y298180D01*
X11077Y298167D01*
X11235Y298092D01*
X11391Y298014D01*
X11410Y298009D01*
X11429Y298000D01*
X11599Y297959D01*
X11767Y297914D01*
X11788Y297913D01*
X11808Y297908D01*
X11982Y297903D01*
X12157Y297893D01*
X12177Y297896D01*
X12198Y297896D01*
X12369Y297925D01*
X12542Y297952D01*
X12558Y297958D01*
X12582Y297962D01*
X12651Y297990D01*
X13476Y298211D01*
X20811Y298211D01*
X20811Y286765D01*
X20818Y286699D01*
X20815Y286633D01*
X20837Y286506D01*
X20851Y286377D01*
X20871Y286314D01*
X20882Y286249D01*
X20930Y286129D01*
X20969Y286006D01*
X21001Y285948D01*
X21026Y285886D01*
X21096Y285779D01*
X21160Y285666D01*
X21163Y285663D01*
X21087Y285563D01*
X21059Y285503D01*
X21022Y285447D01*
X20975Y285327D01*
X20920Y285211D01*
X20904Y285146D01*
X20880Y285084D01*
X20868Y284997D01*
X20828Y284832D01*
X20823Y284662D01*
X20811Y284575D01*
X20811Y273129D01*
X13476Y273129D01*
X12715Y273333D01*
X12701Y273340D01*
X12681Y273345D01*
X12662Y273353D01*
X12491Y273391D01*
X12322Y273432D01*
X12302Y273432D01*
X12281Y273437D01*
X12106Y273439D01*
X11932Y273444D01*
X11912Y273441D01*
X11892Y273441D01*
X11720Y273408D01*
X11548Y273378D01*
X11529Y273370D01*
X11509Y273366D01*
X11348Y273298D01*
X11186Y273234D01*
X11169Y273223D01*
X11150Y273215D01*
X11006Y273115D01*
X10860Y273020D01*
X10846Y273005D01*
X10829Y272993D01*
X10709Y272867D01*
X10585Y272744D01*
X10574Y272726D01*
X10560Y272711D01*
X10468Y272563D01*
X10372Y272417D01*
X10365Y272398D01*
X10354Y272381D01*
X10294Y272217D01*
X10230Y272054D01*
X10228Y272037D01*
X10220Y272015D01*
X10163Y271629D01*
X10165Y271580D01*
X10161Y271545D01*
X10161Y145175D01*
X10168Y145109D01*
X10165Y145042D01*
X10187Y144915D01*
X10201Y144787D01*
X10221Y144724D01*
X10232Y144658D01*
X10280Y144539D01*
X10319Y144416D01*
X10351Y144358D01*
X10376Y144296D01*
X10447Y144189D01*
X10510Y144076D01*
X10554Y144026D01*
X10590Y143970D01*
X10681Y143879D01*
X10766Y143782D01*
X10819Y143742D01*
X10866Y143695D01*
X10974Y143625D01*
X11077Y143547D01*
X11137Y143519D01*
X11193Y143482D01*
X11313Y143435D01*
X11429Y143380D01*
X11494Y143364D01*
X11556Y143340D01*
X11642Y143328D01*
X11808Y143288D01*
X11978Y143283D01*
X12065Y143271D01*
X34862Y143271D01*
X36351Y141782D01*
X36351Y137715D01*
X36357Y137656D01*
X36355Y137613D01*
X36356Y137608D01*
X36355Y137582D01*
X36377Y137455D01*
X36391Y137327D01*
X36411Y137264D01*
X36422Y137198D01*
X36470Y137079D01*
X36509Y136956D01*
X36541Y136898D01*
X36566Y136836D01*
X36637Y136729D01*
X36700Y136616D01*
X36744Y136566D01*
X36780Y136510D01*
X36871Y136419D01*
X36956Y136322D01*
X37009Y136282D01*
X37056Y136235D01*
X37164Y136165D01*
X37267Y136087D01*
X37327Y136059D01*
X37383Y136022D01*
X37503Y135975D01*
X37619Y135920D01*
X37684Y135904D01*
X37746Y135880D01*
X37832Y135868D01*
X37998Y135828D01*
X38168Y135823D01*
X38255Y135811D01*
X52781Y135811D01*
X54648Y135037D01*
X115847Y73838D01*
X115924Y73776D01*
X115995Y73705D01*
X116075Y73653D01*
X116149Y73593D01*
X116237Y73547D01*
X116321Y73492D01*
X116410Y73457D01*
X116495Y73413D01*
X116591Y73386D01*
X116684Y73350D01*
X116756Y73340D01*
X116871Y73308D01*
X117111Y73292D01*
X117193Y73281D01*
X122855Y73281D01*
X122921Y73288D01*
X122988Y73285D01*
X123115Y73307D01*
X123243Y73321D01*
X123306Y73341D01*
X123372Y73352D01*
X123491Y73400D01*
X123614Y73439D01*
X123672Y73471D01*
X123734Y73496D01*
X123841Y73567D01*
X123954Y73630D01*
X124004Y73674D01*
X124060Y73710D01*
X124151Y73801D01*
X124248Y73886D01*
X124288Y73939D01*
X124335Y73986D01*
X124405Y74094D01*
X124483Y74197D01*
X124511Y74257D01*
X124548Y74313D01*
X124595Y74433D01*
X124650Y74549D01*
X124666Y74614D01*
X124690Y74676D01*
X124702Y74762D01*
X124742Y74928D01*
X124747Y75098D01*
X124759Y75185D01*
X124759Y80695D01*
X126668Y85304D01*
X130196Y88832D01*
X134805Y90741D01*
X139795Y90741D01*
X144404Y88832D01*
X147932Y85304D01*
X149841Y80695D01*
X149841Y55705D01*
X147932Y51096D01*
X147667Y50832D01*
X147646Y50806D01*
X147621Y50784D01*
X147523Y50655D01*
X147421Y50529D01*
X147406Y50500D01*
X147385Y50473D01*
X147316Y50326D01*
X147242Y50183D01*
X147233Y50151D01*
X147218Y50121D01*
X147180Y49964D01*
X147137Y49808D01*
X147134Y49774D01*
X147126Y49742D01*
X147121Y49580D01*
X147110Y49419D01*
X147115Y49386D01*
X147114Y49352D01*
X147141Y49193D01*
X147163Y49033D01*
X147175Y49001D01*
X147180Y48968D01*
X147240Y48818D01*
X147294Y48665D01*
X147312Y48637D01*
X147324Y48606D01*
X147413Y48471D01*
X147497Y48333D01*
X147520Y48308D01*
X147538Y48280D01*
X147653Y48166D01*
X147764Y48048D01*
X147791Y48029D01*
X147814Y48005D01*
X147950Y47917D01*
X148082Y47824D01*
X148113Y47811D01*
X148141Y47792D01*
X148291Y47733D01*
X148440Y47669D01*
X148473Y47662D01*
X148504Y47650D01*
X148586Y47639D01*
X148822Y47590D01*
X148941Y47591D01*
X149013Y47581D01*
X175425Y47581D01*
X175491Y47588D01*
X175558Y47585D01*
X175685Y47607D01*
X175813Y47621D01*
X175876Y47641D01*
X175942Y47652D01*
X176061Y47700D01*
X176184Y47739D01*
X176242Y47771D01*
X176304Y47796D01*
X176411Y47867D01*
X176524Y47930D01*
X176574Y47974D01*
X176630Y48010D01*
X176721Y48101D01*
X176818Y48186D01*
X176858Y48239D01*
X176905Y48286D01*
X176975Y48394D01*
X177053Y48497D01*
X177081Y48557D01*
X177118Y48613D01*
X177165Y48733D01*
X177220Y48849D01*
X177236Y48914D01*
X177260Y48976D01*
X177272Y49062D01*
X177312Y49228D01*
X177317Y49398D01*
X177329Y49485D01*
X177329Y54982D01*
X178818Y56471D01*
X203782Y56471D01*
X205271Y54982D01*
X205271Y30018D01*
X203782Y28529D01*
X178818Y28529D01*
X177329Y30018D01*
X177329Y35515D01*
X177322Y35581D01*
X177325Y35648D01*
X177303Y35775D01*
X177289Y35903D01*
X177269Y35966D01*
X177258Y36032D01*
X177210Y36151D01*
X177171Y36274D01*
X177139Y36332D01*
X177114Y36394D01*
X177043Y36501D01*
X176980Y36614D01*
X176936Y36664D01*
X176900Y36720D01*
X176809Y36811D01*
X176724Y36908D01*
X176671Y36948D01*
X176624Y36995D01*
X176516Y37065D01*
X176413Y37143D01*
X176353Y37171D01*
X176297Y37208D01*
X176177Y37255D01*
X176061Y37310D01*
X175996Y37326D01*
X175934Y37350D01*
X175848Y37362D01*
X175682Y37402D01*
X175512Y37407D01*
X175425Y37419D01*
X147031Y37419D01*
X146916Y37407D01*
X146799Y37405D01*
X146739Y37389D01*
X146643Y37379D01*
X146362Y37290D01*
X146302Y37274D01*
X145083Y36769D01*
X114139Y36769D01*
X112272Y37543D01*
X92091Y57723D01*
X92066Y57744D01*
X92044Y57769D01*
X91915Y57867D01*
X91789Y57969D01*
X91760Y57985D01*
X91733Y58005D01*
X91587Y58074D01*
X91443Y58149D01*
X91411Y58157D01*
X91381Y58172D01*
X91224Y58210D01*
X91068Y58254D01*
X91034Y58256D01*
X91002Y58264D01*
X90840Y58269D01*
X90679Y58280D01*
X90646Y58275D01*
X90612Y58276D01*
X90453Y58249D01*
X90293Y58227D01*
X90261Y58215D01*
X90228Y58210D01*
X90078Y58150D01*
X89925Y58096D01*
X89897Y58078D01*
X89866Y58066D01*
X89731Y57977D01*
X89593Y57893D01*
X89568Y57870D01*
X89540Y57852D01*
X89426Y57737D01*
X89308Y57626D01*
X89289Y57599D01*
X89265Y57576D01*
X89177Y57440D01*
X89084Y57308D01*
X89071Y57277D01*
X89052Y57249D01*
X88993Y57098D01*
X88929Y56950D01*
X88922Y56917D01*
X88910Y56886D01*
X88899Y56804D01*
X88850Y56568D01*
X88851Y56449D01*
X88841Y56377D01*
X88841Y55705D01*
X86932Y51096D01*
X83404Y47568D01*
X78795Y45659D01*
X73805Y45659D01*
X69196Y47568D01*
X65668Y51096D01*
X63759Y55705D01*
X63759Y80695D01*
X65668Y85304D01*
X69196Y88832D01*
X73805Y90741D01*
X78795Y90741D01*
X79816Y90318D01*
X79832Y90313D01*
X79847Y90305D01*
X80019Y90257D01*
X80190Y90206D01*
X80206Y90205D01*
X80222Y90200D01*
X80400Y90188D01*
X80578Y90173D01*
X80595Y90175D01*
X80611Y90174D01*
X80788Y90198D01*
X80965Y90219D01*
X80981Y90225D01*
X80997Y90227D01*
X81165Y90287D01*
X81335Y90344D01*
X81349Y90352D01*
X81365Y90358D01*
X81516Y90451D01*
X81671Y90541D01*
X81683Y90552D01*
X81697Y90561D01*
X81827Y90683D01*
X81960Y90802D01*
X81970Y90816D01*
X81982Y90827D01*
X82085Y90973D01*
X82190Y91117D01*
X82197Y91132D01*
X82206Y91146D01*
X82277Y91309D01*
X82351Y91472D01*
X82354Y91489D01*
X82361Y91504D01*
X82397Y91678D01*
X82436Y91853D01*
X82436Y91869D01*
X82440Y91886D01*
X82439Y92065D01*
X82442Y92242D01*
X82439Y92259D01*
X82439Y92275D01*
X82402Y92450D01*
X82369Y92625D01*
X82362Y92641D01*
X82359Y92657D01*
X82288Y92820D01*
X82219Y92985D01*
X82209Y92999D01*
X82203Y93014D01*
X82165Y93063D01*
X81999Y93307D01*
X81929Y93374D01*
X81891Y93423D01*
X50223Y125092D01*
X50146Y125154D01*
X50075Y125225D01*
X49995Y125277D01*
X49921Y125337D01*
X49833Y125383D01*
X49749Y125438D01*
X49660Y125473D01*
X49575Y125517D01*
X49479Y125544D01*
X49386Y125580D01*
X49314Y125590D01*
X49199Y125622D01*
X48959Y125638D01*
X48877Y125649D01*
X38255Y125649D01*
X38189Y125642D01*
X38122Y125645D01*
X37995Y125623D01*
X37867Y125609D01*
X37804Y125589D01*
X37738Y125578D01*
X37619Y125530D01*
X37496Y125491D01*
X37438Y125459D01*
X37376Y125434D01*
X37269Y125363D01*
X37156Y125300D01*
X37106Y125256D01*
X37050Y125220D01*
X36959Y125129D01*
X36862Y125044D01*
X36822Y124991D01*
X36775Y124944D01*
X36705Y124836D01*
X36627Y124733D01*
X36599Y124673D01*
X36562Y124617D01*
X36515Y124497D01*
X36460Y124381D01*
X36444Y124316D01*
X36420Y124254D01*
X36408Y124168D01*
X36368Y124002D01*
X36363Y123832D01*
X36351Y123745D01*
X36351Y119678D01*
X34862Y118189D01*
X12065Y118189D01*
X11999Y118182D01*
X11932Y118185D01*
X11805Y118163D01*
X11677Y118149D01*
X11614Y118129D01*
X11548Y118118D01*
X11429Y118070D01*
X11306Y118031D01*
X11248Y117999D01*
X11186Y117974D01*
X11079Y117903D01*
X10966Y117840D01*
X10916Y117796D01*
X10860Y117760D01*
X10769Y117669D01*
X10672Y117584D01*
X10632Y117531D01*
X10585Y117484D01*
X10515Y117376D01*
X10437Y117273D01*
X10409Y117213D01*
X10372Y117157D01*
X10325Y117037D01*
X10270Y116921D01*
X10254Y116856D01*
X10230Y116794D01*
X10218Y116708D01*
X10178Y116542D01*
X10173Y116372D01*
X10161Y116285D01*
X10161Y12065D01*
X10168Y11999D01*
X10165Y11932D01*
X10187Y11805D01*
X10201Y11677D01*
X10221Y11614D01*
X10232Y11548D01*
X10280Y11429D01*
X10319Y11306D01*
X10351Y11248D01*
X10376Y11186D01*
X10447Y11079D01*
X10510Y10966D01*
X10554Y10916D01*
X10590Y10860D01*
X10681Y10769D01*
X10766Y10672D01*
X10819Y10632D01*
X10866Y10585D01*
X10974Y10515D01*
X11077Y10437D01*
X11137Y10409D01*
X11193Y10372D01*
X11313Y10325D01*
X11429Y10270D01*
X11494Y10254D01*
X11556Y10230D01*
X11642Y10218D01*
X11808Y10178D01*
X11978Y10173D01*
X12065Y10161D01*
X84035Y10161D01*
X84084Y10166D01*
G37*
%LPC*%
G36*
X246000Y126204D02*
X246000Y126204D01*
X237919Y126204D01*
X237919Y130174D01*
X238127Y130949D01*
X238148Y130997D01*
X238151Y131009D01*
X238156Y131021D01*
X238193Y131199D01*
X238232Y131378D01*
X238232Y131390D01*
X238235Y131403D01*
X238234Y131585D01*
X238236Y131767D01*
X238234Y131780D01*
X238234Y131793D01*
X238196Y131971D01*
X238161Y132150D01*
X238156Y132162D01*
X238154Y132174D01*
X238081Y132341D01*
X238010Y132509D01*
X238003Y132520D01*
X237998Y132531D01*
X237966Y132573D01*
X237919Y132640D01*
X237919Y146151D01*
X237923Y146166D01*
X237950Y146227D01*
X237976Y146353D01*
X238011Y146477D01*
X238015Y146544D01*
X238028Y146609D01*
X238028Y146738D01*
X238037Y146866D01*
X238028Y146932D01*
X238028Y146999D01*
X238001Y147125D01*
X237984Y147252D01*
X237961Y147315D01*
X237948Y147380D01*
X237919Y147445D01*
X237919Y161151D01*
X237923Y161166D01*
X237950Y161227D01*
X237976Y161353D01*
X238011Y161477D01*
X238015Y161544D01*
X238028Y161609D01*
X238028Y161738D01*
X238037Y161866D01*
X238028Y161932D01*
X238028Y161999D01*
X238001Y162125D01*
X237984Y162252D01*
X237961Y162315D01*
X237948Y162380D01*
X237919Y162445D01*
X237919Y176151D01*
X237924Y176166D01*
X237950Y176227D01*
X237976Y176353D01*
X238011Y176477D01*
X238015Y176544D01*
X238029Y176609D01*
X238028Y176738D01*
X238037Y176866D01*
X238028Y176932D01*
X238028Y176999D01*
X238001Y177125D01*
X237984Y177252D01*
X237961Y177315D01*
X237948Y177380D01*
X237919Y177445D01*
X237919Y190946D01*
X237932Y190962D01*
X237938Y190973D01*
X237946Y190983D01*
X238027Y191145D01*
X238112Y191308D01*
X238115Y191320D01*
X238121Y191332D01*
X238167Y191507D01*
X238217Y191683D01*
X238218Y191696D01*
X238221Y191708D01*
X238231Y191890D01*
X238243Y192072D01*
X238241Y192085D01*
X238242Y192098D01*
X238215Y192278D01*
X238190Y192458D01*
X238185Y192470D01*
X238184Y192483D01*
X238164Y192531D01*
X238144Y192587D01*
X237919Y193426D01*
X237919Y197396D01*
X246000Y197396D01*
X254081Y197396D01*
X254081Y193426D01*
X253873Y192651D01*
X253852Y192603D01*
X253849Y192591D01*
X253844Y192579D01*
X253807Y192401D01*
X253768Y192222D01*
X253768Y192210D01*
X253765Y192197D01*
X253766Y192015D01*
X253764Y191833D01*
X253766Y191820D01*
X253766Y191807D01*
X253804Y191629D01*
X253839Y191450D01*
X253844Y191438D01*
X253846Y191426D01*
X253919Y191259D01*
X253990Y191091D01*
X253997Y191080D01*
X254002Y191069D01*
X254034Y191027D01*
X254081Y190960D01*
X254081Y177449D01*
X254077Y177434D01*
X254050Y177373D01*
X254024Y177247D01*
X253989Y177123D01*
X253985Y177056D01*
X253972Y176991D01*
X253972Y176862D01*
X253963Y176734D01*
X253972Y176668D01*
X253972Y176601D01*
X253999Y176475D01*
X254016Y176348D01*
X254039Y176285D01*
X254052Y176220D01*
X254081Y176155D01*
X254081Y162449D01*
X254076Y162434D01*
X254050Y162373D01*
X254024Y162247D01*
X253989Y162123D01*
X253985Y162056D01*
X253971Y161991D01*
X253972Y161862D01*
X253963Y161734D01*
X253972Y161668D01*
X253972Y161601D01*
X253999Y161475D01*
X254016Y161348D01*
X254039Y161285D01*
X254052Y161220D01*
X254088Y161139D01*
X254107Y161025D01*
X254121Y160897D01*
X254141Y160834D01*
X254152Y160768D01*
X254200Y160649D01*
X254239Y160526D01*
X254271Y160468D01*
X254296Y160406D01*
X254367Y160299D01*
X254430Y160186D01*
X254474Y160136D01*
X254510Y160080D01*
X254601Y159989D01*
X254686Y159892D01*
X254739Y159852D01*
X254786Y159805D01*
X254894Y159735D01*
X254997Y159657D01*
X255057Y159629D01*
X255113Y159592D01*
X255233Y159545D01*
X255349Y159490D01*
X255414Y159474D01*
X255476Y159450D01*
X255562Y159438D01*
X255728Y159398D01*
X255898Y159393D01*
X255985Y159381D01*
X262407Y159381D01*
X262506Y159391D01*
X262605Y159391D01*
X262699Y159411D01*
X262794Y159421D01*
X262889Y159451D01*
X262987Y159471D01*
X263075Y159510D01*
X263166Y159539D01*
X263253Y159588D01*
X263344Y159627D01*
X263402Y159672D01*
X263506Y159730D01*
X263687Y159888D01*
X263753Y159938D01*
X277130Y173315D01*
X277203Y173405D01*
X277284Y173489D01*
X277315Y173543D01*
X277376Y173618D01*
X277512Y173879D01*
X277543Y173933D01*
X278640Y176582D01*
X280418Y178360D01*
X282742Y179323D01*
X285258Y179323D01*
X287582Y178360D01*
X289360Y176582D01*
X290330Y174239D01*
X290354Y174195D01*
X290371Y174148D01*
X290446Y174024D01*
X290516Y173896D01*
X290548Y173858D01*
X290574Y173816D01*
X290673Y173710D01*
X290767Y173598D01*
X290806Y173567D01*
X290840Y173531D01*
X290959Y173447D01*
X291073Y173358D01*
X291118Y173335D01*
X291159Y173307D01*
X291292Y173249D01*
X291423Y173184D01*
X291471Y173172D01*
X291517Y173152D01*
X291659Y173123D01*
X291800Y173086D01*
X291850Y173083D01*
X291898Y173073D01*
X292044Y173074D01*
X292189Y173066D01*
X292238Y173074D01*
X292288Y173074D01*
X292431Y173104D01*
X292574Y173126D01*
X292621Y173144D01*
X292670Y173154D01*
X292803Y173212D01*
X292939Y173264D01*
X292981Y173290D01*
X293027Y173310D01*
X293098Y173364D01*
X293268Y173472D01*
X293371Y173572D01*
X293436Y173621D01*
X307762Y187947D01*
X307824Y188024D01*
X307895Y188095D01*
X307947Y188175D01*
X308007Y188249D01*
X308053Y188337D01*
X308108Y188421D01*
X308143Y188510D01*
X308187Y188595D01*
X308214Y188691D01*
X308250Y188784D01*
X308260Y188856D01*
X308292Y188971D01*
X308308Y189211D01*
X308319Y189293D01*
X308319Y356759D01*
X308313Y356819D01*
X308315Y356867D01*
X308309Y356899D01*
X308309Y356958D01*
X308289Y357052D01*
X308279Y357147D01*
X308250Y357241D01*
X308248Y357251D01*
X308247Y357253D01*
X308229Y357339D01*
X308190Y357427D01*
X308161Y357519D01*
X308112Y357605D01*
X308073Y357697D01*
X308028Y357755D01*
X307970Y357858D01*
X307812Y358040D01*
X307762Y358106D01*
X304255Y361612D01*
X304255Y369671D01*
X304245Y369770D01*
X304245Y369869D01*
X304225Y369963D01*
X304215Y370058D01*
X304185Y370153D01*
X304165Y370251D01*
X304126Y370339D01*
X304097Y370430D01*
X304049Y370517D01*
X304009Y370608D01*
X303964Y370666D01*
X303906Y370770D01*
X303748Y370951D01*
X303698Y371017D01*
X294417Y380298D01*
X294340Y380360D01*
X294269Y380431D01*
X294189Y380483D01*
X294115Y380543D01*
X294027Y380589D01*
X293943Y380644D01*
X293854Y380679D01*
X293769Y380723D01*
X293673Y380750D01*
X293580Y380786D01*
X293508Y380796D01*
X293393Y380828D01*
X293153Y380844D01*
X293071Y380855D01*
X283477Y380855D01*
X280116Y382247D01*
X277543Y384820D01*
X276151Y388181D01*
X276151Y391819D01*
X277543Y395180D01*
X280116Y397753D01*
X283477Y399145D01*
X300323Y399145D01*
X303684Y397753D01*
X306257Y395180D01*
X307649Y391819D01*
X307649Y388181D01*
X306160Y384587D01*
X306137Y384508D01*
X306104Y384432D01*
X306081Y384321D01*
X306049Y384214D01*
X306042Y384131D01*
X306025Y384050D01*
X306025Y383938D01*
X306016Y383826D01*
X306025Y383743D01*
X306026Y383660D01*
X306049Y383550D01*
X306062Y383439D01*
X306089Y383360D01*
X306106Y383279D01*
X306151Y383176D01*
X306187Y383069D01*
X306229Y382998D01*
X306262Y382921D01*
X306311Y382856D01*
X306384Y382733D01*
X306519Y382583D01*
X306573Y382512D01*
X313983Y375102D01*
X314060Y375040D01*
X314131Y374969D01*
X314211Y374917D01*
X314285Y374857D01*
X314373Y374811D01*
X314457Y374756D01*
X314546Y374721D01*
X314631Y374677D01*
X314727Y374650D01*
X314820Y374614D01*
X314892Y374604D01*
X315007Y374572D01*
X315247Y374556D01*
X315329Y374545D01*
X317188Y374545D01*
X322545Y369188D01*
X322545Y361612D01*
X319038Y358106D01*
X318976Y358029D01*
X318905Y357958D01*
X318853Y357878D01*
X318793Y357804D01*
X318747Y357715D01*
X318692Y357632D01*
X318657Y357543D01*
X318613Y357457D01*
X318586Y357361D01*
X318550Y357269D01*
X318540Y357196D01*
X318508Y357082D01*
X318504Y357014D01*
X318498Y356991D01*
X318494Y356878D01*
X318492Y356842D01*
X318481Y356759D01*
X318481Y185389D01*
X317707Y183522D01*
X268878Y134693D01*
X267011Y133919D01*
X255985Y133919D01*
X255919Y133912D01*
X255852Y133915D01*
X255725Y133893D01*
X255597Y133879D01*
X255534Y133859D01*
X255468Y133848D01*
X255349Y133800D01*
X255226Y133761D01*
X255168Y133729D01*
X255106Y133704D01*
X254999Y133633D01*
X254886Y133570D01*
X254836Y133526D01*
X254780Y133490D01*
X254689Y133399D01*
X254592Y133314D01*
X254552Y133261D01*
X254505Y133214D01*
X254435Y133106D01*
X254357Y133003D01*
X254340Y132967D01*
X254314Y132940D01*
X254306Y132931D01*
X254296Y132923D01*
X254183Y132779D01*
X254068Y132638D01*
X254062Y132627D01*
X254054Y132617D01*
X253972Y132454D01*
X253888Y132292D01*
X253885Y132280D01*
X253879Y132268D01*
X253833Y132093D01*
X253783Y131917D01*
X253782Y131904D01*
X253779Y131892D01*
X253769Y131710D01*
X253757Y131528D01*
X253759Y131515D01*
X253758Y131502D01*
X253785Y131322D01*
X253810Y131142D01*
X253815Y131130D01*
X253816Y131117D01*
X253836Y131069D01*
X253856Y131013D01*
X254081Y130174D01*
X254081Y126204D01*
X246000Y126204D01*
X246000Y126204D01*
G37*
%LPD*%
%LPC*%
G36*
X288380Y23235D02*
X288380Y23235D01*
X284832Y24705D01*
X282117Y27420D01*
X280647Y30968D01*
X280647Y49032D01*
X282117Y52580D01*
X284778Y55241D01*
X284820Y55293D01*
X284869Y55338D01*
X284943Y55444D01*
X285024Y55544D01*
X285055Y55603D01*
X285093Y55657D01*
X285144Y55775D01*
X285204Y55890D01*
X285221Y55954D01*
X285248Y56015D01*
X285274Y56141D01*
X285309Y56265D01*
X285313Y56332D01*
X285326Y56397D01*
X285326Y56526D01*
X285335Y56654D01*
X285326Y56720D01*
X285326Y56787D01*
X285299Y56913D01*
X285282Y57040D01*
X285259Y57103D01*
X285246Y57168D01*
X285194Y57286D01*
X285151Y57408D01*
X285116Y57464D01*
X285089Y57525D01*
X285036Y57595D01*
X284948Y57740D01*
X284831Y57865D01*
X284778Y57934D01*
X257331Y85381D01*
X257306Y85402D01*
X257284Y85427D01*
X257155Y85525D01*
X257029Y85627D01*
X257000Y85643D01*
X256973Y85663D01*
X256827Y85732D01*
X256683Y85807D01*
X256651Y85815D01*
X256621Y85830D01*
X256464Y85868D01*
X256308Y85912D01*
X256274Y85914D01*
X256242Y85922D01*
X256080Y85927D01*
X255919Y85938D01*
X255886Y85933D01*
X255852Y85934D01*
X255693Y85907D01*
X255533Y85885D01*
X255501Y85873D01*
X255468Y85868D01*
X255318Y85808D01*
X255165Y85754D01*
X255137Y85736D01*
X255106Y85724D01*
X254971Y85635D01*
X254833Y85551D01*
X254808Y85528D01*
X254780Y85510D01*
X254666Y85395D01*
X254548Y85284D01*
X254529Y85257D01*
X254505Y85234D01*
X254417Y85098D01*
X254324Y84966D01*
X254311Y84935D01*
X254292Y84907D01*
X254233Y84756D01*
X254169Y84608D01*
X254162Y84575D01*
X254150Y84544D01*
X254139Y84462D01*
X254090Y84226D01*
X254091Y84107D01*
X254081Y84035D01*
X254081Y72708D01*
X252592Y71219D01*
X239408Y71219D01*
X237919Y72708D01*
X237919Y86151D01*
X237923Y86166D01*
X237950Y86227D01*
X237976Y86353D01*
X238011Y86477D01*
X238015Y86544D01*
X238028Y86609D01*
X238028Y86738D01*
X238037Y86866D01*
X238028Y86932D01*
X238028Y86999D01*
X238001Y87125D01*
X237984Y87252D01*
X237961Y87315D01*
X237948Y87380D01*
X237919Y87445D01*
X237919Y101151D01*
X237923Y101166D01*
X237950Y101227D01*
X237976Y101353D01*
X238011Y101477D01*
X238015Y101544D01*
X238028Y101609D01*
X238028Y101738D01*
X238037Y101866D01*
X238028Y101932D01*
X238028Y101999D01*
X238001Y102125D01*
X237984Y102252D01*
X237961Y102315D01*
X237948Y102380D01*
X237919Y102445D01*
X237919Y115946D01*
X237932Y115962D01*
X237938Y115973D01*
X237946Y115983D01*
X238028Y116146D01*
X238112Y116308D01*
X238115Y116320D01*
X238121Y116332D01*
X238167Y116507D01*
X238217Y116683D01*
X238218Y116696D01*
X238221Y116708D01*
X238231Y116890D01*
X238243Y117072D01*
X238241Y117085D01*
X238242Y117098D01*
X238215Y117278D01*
X238190Y117458D01*
X238185Y117470D01*
X238184Y117483D01*
X238164Y117531D01*
X238144Y117587D01*
X237919Y118426D01*
X237919Y122396D01*
X246000Y122396D01*
X254081Y122396D01*
X254081Y118426D01*
X253873Y117651D01*
X253852Y117603D01*
X253849Y117591D01*
X253844Y117579D01*
X253807Y117401D01*
X253768Y117222D01*
X253768Y117210D01*
X253765Y117197D01*
X253766Y117015D01*
X253764Y116833D01*
X253766Y116820D01*
X253766Y116807D01*
X253804Y116629D01*
X253839Y116450D01*
X253844Y116438D01*
X253846Y116426D01*
X253919Y116259D01*
X253990Y116091D01*
X253997Y116080D01*
X254002Y116069D01*
X254034Y116027D01*
X254081Y115960D01*
X254081Y114812D01*
X254085Y114766D01*
X254085Y114762D01*
X254087Y114754D01*
X254089Y114730D01*
X254088Y114647D01*
X254109Y114536D01*
X254121Y114425D01*
X254146Y114346D01*
X254161Y114264D01*
X254205Y114160D01*
X254239Y114053D01*
X254279Y113981D01*
X254311Y113904D01*
X254375Y113811D01*
X254430Y113714D01*
X254484Y113651D01*
X254531Y113582D01*
X254612Y113505D01*
X254686Y113420D01*
X254752Y113370D01*
X254812Y113312D01*
X254883Y113271D01*
X254997Y113185D01*
X255179Y113098D01*
X255203Y113084D01*
X311284Y57003D01*
X311348Y56951D01*
X311406Y56891D01*
X311499Y56828D01*
X311586Y56757D01*
X311660Y56719D01*
X311729Y56672D01*
X311833Y56630D01*
X311933Y56578D01*
X312012Y56556D01*
X312089Y56524D01*
X312200Y56503D01*
X312308Y56473D01*
X312391Y56467D01*
X312472Y56452D01*
X312585Y56454D01*
X312697Y56447D01*
X312779Y56458D01*
X312862Y56460D01*
X312941Y56480D01*
X313083Y56500D01*
X313273Y56568D01*
X313359Y56590D01*
X313780Y56765D01*
X317620Y56765D01*
X321168Y55295D01*
X323883Y52580D01*
X325353Y49032D01*
X325353Y30968D01*
X323883Y27420D01*
X321168Y24705D01*
X317620Y23235D01*
X313780Y23235D01*
X310232Y24705D01*
X307517Y27420D01*
X306047Y30968D01*
X306047Y48877D01*
X306037Y48976D01*
X306037Y49075D01*
X306017Y49169D01*
X306007Y49265D01*
X305977Y49359D01*
X305957Y49457D01*
X305918Y49545D01*
X305889Y49636D01*
X305840Y49723D01*
X305801Y49814D01*
X305756Y49872D01*
X305698Y49976D01*
X305540Y50157D01*
X305490Y50223D01*
X301965Y53748D01*
X301952Y53759D01*
X301941Y53771D01*
X301801Y53881D01*
X301662Y53994D01*
X301647Y54002D01*
X301634Y54012D01*
X301475Y54091D01*
X301316Y54173D01*
X301300Y54178D01*
X301285Y54185D01*
X301112Y54230D01*
X300941Y54278D01*
X300924Y54279D01*
X300908Y54284D01*
X300729Y54293D01*
X300552Y54305D01*
X300535Y54302D01*
X300519Y54303D01*
X300342Y54276D01*
X300166Y54251D01*
X300150Y54246D01*
X300134Y54243D01*
X299967Y54180D01*
X299799Y54120D01*
X299784Y54112D01*
X299769Y54106D01*
X299617Y54010D01*
X299466Y53918D01*
X299454Y53906D01*
X299439Y53897D01*
X299311Y53773D01*
X299181Y53651D01*
X299172Y53637D01*
X299160Y53626D01*
X299059Y53478D01*
X298957Y53332D01*
X298950Y53317D01*
X298941Y53303D01*
X298873Y53137D01*
X298802Y52975D01*
X298799Y52958D01*
X298792Y52943D01*
X298759Y52767D01*
X298724Y52593D01*
X298724Y52576D01*
X298720Y52560D01*
X298724Y52382D01*
X298724Y52203D01*
X298728Y52187D01*
X298728Y52170D01*
X298744Y52110D01*
X298804Y51822D01*
X298843Y51733D01*
X298859Y51673D01*
X299953Y49032D01*
X299953Y30968D01*
X298483Y27420D01*
X295768Y24705D01*
X292220Y23235D01*
X288380Y23235D01*
G37*
%LPD*%
%LPC*%
G36*
X106738Y118189D02*
X106738Y118189D01*
X105249Y119678D01*
X105249Y141782D01*
X106738Y143271D01*
X128842Y143271D01*
X130331Y141782D01*
X130331Y137715D01*
X130337Y137656D01*
X130335Y137613D01*
X130336Y137608D01*
X130335Y137582D01*
X130357Y137455D01*
X130371Y137327D01*
X130391Y137264D01*
X130402Y137198D01*
X130450Y137079D01*
X130489Y136956D01*
X130521Y136898D01*
X130546Y136836D01*
X130617Y136729D01*
X130680Y136616D01*
X130724Y136566D01*
X130760Y136510D01*
X130851Y136419D01*
X130936Y136322D01*
X130989Y136282D01*
X131036Y136235D01*
X131144Y136165D01*
X131247Y136087D01*
X131307Y136059D01*
X131363Y136022D01*
X131483Y135975D01*
X131599Y135920D01*
X131664Y135904D01*
X131726Y135880D01*
X131812Y135868D01*
X131978Y135828D01*
X132148Y135823D01*
X132235Y135811D01*
X162237Y135811D01*
X162336Y135821D01*
X162435Y135821D01*
X162529Y135841D01*
X162624Y135851D01*
X162719Y135881D01*
X162817Y135901D01*
X162905Y135940D01*
X162996Y135969D01*
X163083Y136018D01*
X163174Y136057D01*
X163232Y136102D01*
X163336Y136160D01*
X163517Y136318D01*
X163583Y136368D01*
X185662Y158447D01*
X185724Y158524D01*
X185795Y158595D01*
X185847Y158675D01*
X185907Y158749D01*
X185953Y158837D01*
X186008Y158921D01*
X186043Y159010D01*
X186087Y159095D01*
X186114Y159191D01*
X186150Y159284D01*
X186160Y159356D01*
X186192Y159471D01*
X186208Y159711D01*
X186219Y159793D01*
X186219Y179025D01*
X186212Y179091D01*
X186215Y179158D01*
X186193Y179285D01*
X186179Y179413D01*
X186159Y179476D01*
X186148Y179542D01*
X186100Y179661D01*
X186061Y179784D01*
X186029Y179842D01*
X186004Y179904D01*
X185933Y180011D01*
X185870Y180124D01*
X185826Y180174D01*
X185790Y180230D01*
X185699Y180321D01*
X185614Y180418D01*
X185561Y180458D01*
X185514Y180505D01*
X185406Y180575D01*
X185303Y180653D01*
X185243Y180681D01*
X185187Y180718D01*
X185067Y180765D01*
X184951Y180820D01*
X184886Y180836D01*
X184824Y180860D01*
X184738Y180872D01*
X184572Y180912D01*
X184402Y180917D01*
X184315Y180929D01*
X178818Y180929D01*
X177329Y182418D01*
X177329Y207382D01*
X178818Y208871D01*
X203782Y208871D01*
X205271Y207382D01*
X205271Y182418D01*
X203782Y180929D01*
X198285Y180929D01*
X198219Y180922D01*
X198152Y180925D01*
X198025Y180903D01*
X197897Y180889D01*
X197834Y180869D01*
X197768Y180858D01*
X197649Y180810D01*
X197526Y180771D01*
X197468Y180739D01*
X197406Y180714D01*
X197299Y180643D01*
X197186Y180580D01*
X197136Y180536D01*
X197080Y180500D01*
X196989Y180409D01*
X196892Y180324D01*
X196852Y180271D01*
X196805Y180224D01*
X196735Y180116D01*
X196657Y180013D01*
X196629Y179953D01*
X196592Y179897D01*
X196545Y179777D01*
X196490Y179661D01*
X196474Y179596D01*
X196450Y179534D01*
X196438Y179448D01*
X196398Y179282D01*
X196393Y179112D01*
X196381Y179025D01*
X196381Y155889D01*
X195607Y154022D01*
X168008Y126423D01*
X166141Y125649D01*
X132235Y125649D01*
X132169Y125642D01*
X132102Y125645D01*
X131975Y125623D01*
X131847Y125609D01*
X131784Y125589D01*
X131718Y125578D01*
X131599Y125530D01*
X131476Y125491D01*
X131418Y125459D01*
X131356Y125434D01*
X131249Y125363D01*
X131136Y125300D01*
X131086Y125256D01*
X131030Y125220D01*
X130939Y125129D01*
X130842Y125044D01*
X130802Y124991D01*
X130755Y124944D01*
X130685Y124836D01*
X130607Y124733D01*
X130579Y124673D01*
X130542Y124617D01*
X130495Y124497D01*
X130440Y124381D01*
X130424Y124316D01*
X130400Y124254D01*
X130388Y124168D01*
X130348Y124002D01*
X130343Y123832D01*
X130331Y123745D01*
X130331Y119678D01*
X128842Y118189D01*
X106738Y118189D01*
G37*
%LPD*%
%LPC*%
G36*
X734612Y329655D02*
X734612Y329655D01*
X729255Y335012D01*
X729255Y342588D01*
X734612Y347945D01*
X740469Y347945D01*
X740568Y347955D01*
X740667Y347955D01*
X740761Y347975D01*
X740856Y347985D01*
X740951Y348015D01*
X741049Y348035D01*
X741137Y348074D01*
X741228Y348103D01*
X741315Y348152D01*
X741406Y348191D01*
X741464Y348236D01*
X741568Y348294D01*
X741749Y348452D01*
X741815Y348502D01*
X756027Y362714D01*
X756079Y362778D01*
X756139Y362836D01*
X756202Y362929D01*
X756273Y363017D01*
X756311Y363090D01*
X756358Y363159D01*
X756401Y363263D01*
X756452Y363363D01*
X756474Y363442D01*
X756506Y363519D01*
X756527Y363630D01*
X756557Y363738D01*
X756563Y363821D01*
X756578Y363902D01*
X756576Y364015D01*
X756583Y364127D01*
X756572Y364209D01*
X756571Y364292D01*
X756550Y364371D01*
X756530Y364513D01*
X756462Y364703D01*
X756440Y364789D01*
X755035Y368180D01*
X755035Y372020D01*
X756505Y375568D01*
X759220Y378283D01*
X762768Y379753D01*
X780832Y379753D01*
X784380Y378283D01*
X787095Y375568D01*
X788565Y372020D01*
X788565Y368180D01*
X787095Y364632D01*
X784380Y361917D01*
X780832Y360447D01*
X767123Y360447D01*
X767024Y360437D01*
X766925Y360437D01*
X766831Y360417D01*
X766736Y360407D01*
X766641Y360377D01*
X766543Y360357D01*
X766455Y360318D01*
X766364Y360289D01*
X766277Y360241D01*
X766186Y360201D01*
X766128Y360156D01*
X766024Y360098D01*
X765843Y359940D01*
X765777Y359890D01*
X763491Y357604D01*
X763470Y357578D01*
X763445Y357556D01*
X763347Y357427D01*
X763245Y357301D01*
X763229Y357272D01*
X763209Y357245D01*
X763140Y357099D01*
X763065Y356955D01*
X763057Y356923D01*
X763042Y356893D01*
X763004Y356736D01*
X762960Y356580D01*
X762958Y356546D01*
X762950Y356514D01*
X762945Y356352D01*
X762934Y356191D01*
X762939Y356158D01*
X762938Y356124D01*
X762965Y355965D01*
X762987Y355805D01*
X762999Y355773D01*
X763004Y355740D01*
X763064Y355590D01*
X763118Y355437D01*
X763136Y355409D01*
X763148Y355378D01*
X763237Y355243D01*
X763321Y355105D01*
X763344Y355080D01*
X763362Y355052D01*
X763477Y354938D01*
X763588Y354820D01*
X763615Y354801D01*
X763638Y354777D01*
X763774Y354689D01*
X763906Y354596D01*
X763937Y354583D01*
X763965Y354564D01*
X764116Y354505D01*
X764264Y354441D01*
X764297Y354434D01*
X764328Y354422D01*
X764410Y354411D01*
X764646Y354362D01*
X764765Y354363D01*
X764837Y354353D01*
X769515Y354353D01*
X769515Y346985D01*
X753661Y346985D01*
X753562Y346975D01*
X753463Y346975D01*
X753369Y346955D01*
X753274Y346945D01*
X753179Y346915D01*
X753081Y346895D01*
X752993Y346856D01*
X752902Y346827D01*
X752815Y346778D01*
X752724Y346739D01*
X752666Y346694D01*
X752562Y346636D01*
X752381Y346478D01*
X752315Y346428D01*
X748102Y342215D01*
X748040Y342138D01*
X747969Y342067D01*
X747917Y341987D01*
X747857Y341913D01*
X747811Y341825D01*
X747756Y341741D01*
X747721Y341652D01*
X747677Y341567D01*
X747650Y341471D01*
X747614Y341378D01*
X747604Y341306D01*
X747572Y341191D01*
X747556Y340951D01*
X747545Y340869D01*
X747545Y335012D01*
X742188Y329655D01*
X734612Y329655D01*
G37*
%LPD*%
%LPC*%
G36*
X225212Y240255D02*
X225212Y240255D01*
X219855Y245612D01*
X219855Y253188D01*
X221745Y255077D01*
X221787Y255129D01*
X221835Y255174D01*
X221909Y255280D01*
X221991Y255380D01*
X222021Y255439D01*
X222059Y255493D01*
X222110Y255611D01*
X222170Y255726D01*
X222188Y255790D01*
X222214Y255851D01*
X222240Y255977D01*
X222275Y256101D01*
X222279Y256167D01*
X222293Y256232D01*
X222292Y256361D01*
X222301Y256490D01*
X222292Y256556D01*
X222292Y256622D01*
X222265Y256749D01*
X222248Y256876D01*
X222226Y256939D01*
X222212Y257004D01*
X222160Y257122D01*
X222117Y257243D01*
X222082Y257300D01*
X222056Y257361D01*
X222003Y257431D01*
X221914Y257576D01*
X221798Y257700D01*
X221745Y257770D01*
X199117Y280398D01*
X199040Y280460D01*
X198970Y280531D01*
X198889Y280583D01*
X198815Y280643D01*
X198727Y280689D01*
X198643Y280744D01*
X198554Y280779D01*
X198469Y280823D01*
X198373Y280850D01*
X198280Y280886D01*
X198208Y280896D01*
X198093Y280928D01*
X197853Y280944D01*
X197771Y280955D01*
X192812Y280955D01*
X187455Y286312D01*
X187455Y293888D01*
X192812Y299245D01*
X200388Y299245D01*
X205745Y293888D01*
X205745Y288929D01*
X205755Y288830D01*
X205755Y288731D01*
X205775Y288637D01*
X205785Y288541D01*
X205815Y288447D01*
X205835Y288349D01*
X205874Y288261D01*
X205903Y288170D01*
X205952Y288083D01*
X205991Y287992D01*
X206036Y287934D01*
X206094Y287830D01*
X206252Y287649D01*
X206302Y287583D01*
X231610Y262275D01*
X233307Y260578D01*
X234081Y258711D01*
X234081Y258041D01*
X234091Y257942D01*
X234091Y257842D01*
X234111Y257748D01*
X234121Y257653D01*
X234151Y257558D01*
X234171Y257461D01*
X234210Y257373D01*
X234239Y257281D01*
X234288Y257195D01*
X234327Y257103D01*
X234372Y257045D01*
X234430Y256942D01*
X234588Y256760D01*
X234638Y256694D01*
X238145Y253188D01*
X238145Y245612D01*
X232788Y240255D01*
X225212Y240255D01*
G37*
%LPD*%
%LPC*%
G36*
X918302Y425647D02*
X918302Y425647D01*
X914292Y429657D01*
X914240Y429699D01*
X914195Y429748D01*
X914089Y429822D01*
X913989Y429903D01*
X913930Y429934D01*
X913876Y429972D01*
X913758Y430023D01*
X913643Y430082D01*
X913579Y430100D01*
X913518Y430127D01*
X913392Y430153D01*
X913268Y430187D01*
X913202Y430192D01*
X913136Y430205D01*
X913008Y430205D01*
X912879Y430214D01*
X912813Y430205D01*
X912747Y430204D01*
X912621Y430178D01*
X912493Y430160D01*
X912430Y430138D01*
X912365Y430124D01*
X912247Y430073D01*
X912126Y430029D01*
X912069Y429995D01*
X912008Y429968D01*
X911938Y429915D01*
X911793Y429827D01*
X911669Y429710D01*
X911599Y429657D01*
X911582Y429640D01*
X909258Y428677D01*
X906742Y428677D01*
X904418Y429640D01*
X902640Y431418D01*
X901677Y433742D01*
X901677Y436258D01*
X902640Y438582D01*
X904418Y440360D01*
X906742Y441323D01*
X909258Y441323D01*
X911910Y440224D01*
X911990Y440200D01*
X912066Y440167D01*
X912176Y440145D01*
X912284Y440112D01*
X912367Y440105D01*
X912448Y440089D01*
X912560Y440089D01*
X912672Y440079D01*
X912755Y440089D01*
X912838Y440089D01*
X912948Y440112D01*
X913059Y440126D01*
X913138Y440152D01*
X913219Y440169D01*
X913322Y440215D01*
X913429Y440250D01*
X913500Y440292D01*
X913576Y440326D01*
X913642Y440375D01*
X913765Y440447D01*
X913915Y440583D01*
X913986Y440637D01*
X918302Y444953D01*
X926298Y444953D01*
X930948Y440303D01*
X931025Y440241D01*
X931095Y440170D01*
X931176Y440118D01*
X931250Y440058D01*
X931338Y440012D01*
X931422Y439957D01*
X931511Y439922D01*
X931596Y439878D01*
X931692Y439851D01*
X931785Y439815D01*
X931857Y439805D01*
X931971Y439773D01*
X932211Y439757D01*
X932294Y439746D01*
X937706Y439746D01*
X937805Y439756D01*
X937905Y439756D01*
X937999Y439776D01*
X938094Y439786D01*
X938189Y439816D01*
X938286Y439836D01*
X938374Y439875D01*
X938465Y439904D01*
X938552Y439953D01*
X938643Y439992D01*
X938701Y440037D01*
X938805Y440095D01*
X938986Y440253D01*
X939052Y440303D01*
X943702Y444953D01*
X951698Y444953D01*
X957353Y439298D01*
X957353Y431302D01*
X951698Y425647D01*
X943702Y425647D01*
X939052Y430297D01*
X938975Y430359D01*
X938905Y430430D01*
X938824Y430482D01*
X938750Y430542D01*
X938662Y430588D01*
X938578Y430643D01*
X938489Y430678D01*
X938404Y430722D01*
X938308Y430749D01*
X938215Y430785D01*
X938143Y430795D01*
X938029Y430827D01*
X937789Y430843D01*
X937706Y430854D01*
X932294Y430854D01*
X932195Y430844D01*
X932095Y430844D01*
X932001Y430824D01*
X931906Y430814D01*
X931811Y430784D01*
X931714Y430764D01*
X931626Y430725D01*
X931535Y430696D01*
X931448Y430647D01*
X931357Y430608D01*
X931299Y430563D01*
X931195Y430505D01*
X931014Y430347D01*
X930948Y430297D01*
X926298Y425647D01*
X918302Y425647D01*
G37*
%LPD*%
%LPC*%
G36*
X145984Y143839D02*
X145984Y143839D01*
X140412Y146147D01*
X136147Y150412D01*
X133839Y155984D01*
X133839Y162016D01*
X136147Y167588D01*
X140412Y171853D01*
X145984Y174161D01*
X152016Y174161D01*
X157588Y171853D01*
X161853Y167588D01*
X164161Y162016D01*
X164161Y155984D01*
X161853Y150412D01*
X157588Y146147D01*
X152016Y143839D01*
X145984Y143839D01*
G37*
%LPD*%
%LPC*%
G36*
X395742Y331677D02*
X395742Y331677D01*
X393418Y332640D01*
X392806Y333253D01*
X392716Y333326D01*
X392632Y333406D01*
X392578Y333438D01*
X392503Y333499D01*
X392241Y333634D01*
X392188Y333666D01*
X392122Y333693D01*
X385293Y340522D01*
X384519Y342389D01*
X384519Y356759D01*
X384513Y356819D01*
X384515Y356867D01*
X384509Y356899D01*
X384509Y356958D01*
X384489Y357052D01*
X384479Y357147D01*
X384450Y357241D01*
X384448Y357251D01*
X384447Y357253D01*
X384429Y357339D01*
X384390Y357427D01*
X384361Y357519D01*
X384312Y357605D01*
X384273Y357697D01*
X384228Y357755D01*
X384170Y357858D01*
X384012Y358040D01*
X383962Y358106D01*
X380455Y361612D01*
X380455Y369188D01*
X385812Y374545D01*
X393388Y374545D01*
X398745Y369188D01*
X398745Y361612D01*
X395238Y358106D01*
X395176Y358029D01*
X395105Y357958D01*
X395053Y357878D01*
X394993Y357804D01*
X394947Y357715D01*
X394892Y357632D01*
X394857Y357543D01*
X394813Y357457D01*
X394786Y357361D01*
X394750Y357269D01*
X394740Y357196D01*
X394708Y357082D01*
X394704Y357014D01*
X394698Y356991D01*
X394694Y356878D01*
X394692Y356842D01*
X394681Y356759D01*
X394681Y346293D01*
X394691Y346194D01*
X394691Y346095D01*
X394711Y346001D01*
X394721Y345906D01*
X394751Y345811D01*
X394771Y345713D01*
X394810Y345625D01*
X394839Y345534D01*
X394888Y345447D01*
X394927Y345356D01*
X394972Y345298D01*
X395030Y345194D01*
X395166Y345039D01*
X395176Y345022D01*
X395195Y345004D01*
X395238Y344947D01*
X395305Y344880D01*
X395382Y344818D01*
X395453Y344747D01*
X395533Y344695D01*
X395607Y344635D01*
X395695Y344589D01*
X395779Y344534D01*
X395868Y344499D01*
X395953Y344455D01*
X396049Y344428D01*
X396142Y344392D01*
X396214Y344382D01*
X396329Y344350D01*
X396569Y344334D01*
X396651Y344323D01*
X398258Y344323D01*
X400582Y343360D01*
X402360Y341582D01*
X403323Y339258D01*
X403323Y336742D01*
X402360Y334418D01*
X400582Y332640D01*
X398258Y331677D01*
X395742Y331677D01*
G37*
%LPD*%
%LPC*%
G36*
X510980Y442535D02*
X510980Y442535D01*
X507432Y444005D01*
X504717Y446720D01*
X503247Y450268D01*
X503247Y468332D01*
X504717Y471880D01*
X507432Y474595D01*
X510980Y476065D01*
X514820Y476065D01*
X518368Y474595D01*
X521083Y471880D01*
X522553Y468332D01*
X522553Y450268D01*
X521083Y446720D01*
X518368Y444005D01*
X514820Y442535D01*
X510980Y442535D01*
G37*
%LPD*%
%LPC*%
G36*
X536380Y442535D02*
X536380Y442535D01*
X532832Y444005D01*
X530117Y446720D01*
X528647Y450268D01*
X528647Y468332D01*
X530117Y471880D01*
X532832Y474595D01*
X536380Y476065D01*
X540220Y476065D01*
X543768Y474595D01*
X546483Y471880D01*
X547953Y468332D01*
X547953Y450268D01*
X546483Y446720D01*
X543768Y444005D01*
X540220Y442535D01*
X536380Y442535D01*
G37*
%LPD*%
%LPC*%
G36*
X561780Y442535D02*
X561780Y442535D01*
X558232Y444005D01*
X555517Y446720D01*
X554047Y450268D01*
X554047Y468332D01*
X555517Y471880D01*
X558232Y474595D01*
X561780Y476065D01*
X565620Y476065D01*
X569168Y474595D01*
X571883Y471880D01*
X573353Y468332D01*
X573353Y450268D01*
X571883Y446720D01*
X569168Y444005D01*
X565620Y442535D01*
X561780Y442535D01*
G37*
%LPD*%
%LPC*%
G36*
X943702Y451047D02*
X943702Y451047D01*
X938047Y456702D01*
X938047Y463277D01*
X938037Y463376D01*
X938037Y463475D01*
X938017Y463569D01*
X938007Y463664D01*
X937977Y463759D01*
X937957Y463857D01*
X937918Y463945D01*
X937889Y464036D01*
X937840Y464123D01*
X937801Y464214D01*
X937757Y464272D01*
X937698Y464376D01*
X937540Y464557D01*
X937490Y464623D01*
X933749Y468363D01*
X933749Y468364D01*
X932870Y469243D01*
X932779Y469334D01*
X932689Y469407D01*
X932606Y469487D01*
X932551Y469519D01*
X932487Y469571D01*
X930640Y471418D01*
X929677Y473742D01*
X929677Y476258D01*
X930640Y478582D01*
X932418Y480360D01*
X934742Y481323D01*
X937258Y481323D01*
X939582Y480360D01*
X941360Y478582D01*
X942323Y476258D01*
X942323Y473664D01*
X942295Y473570D01*
X942288Y473487D01*
X942271Y473406D01*
X942271Y473294D01*
X942261Y473182D01*
X942271Y473099D01*
X942272Y473016D01*
X942295Y472906D01*
X942308Y472795D01*
X942335Y472716D01*
X942352Y472635D01*
X942397Y472532D01*
X942433Y472425D01*
X942475Y472354D01*
X942508Y472278D01*
X942557Y472213D01*
X942630Y472089D01*
X942765Y471939D01*
X942819Y471868D01*
X943777Y470910D01*
X943854Y470848D01*
X943925Y470777D01*
X944005Y470725D01*
X944079Y470665D01*
X944167Y470619D01*
X944251Y470564D01*
X944340Y470529D01*
X944425Y470485D01*
X944521Y470458D01*
X944614Y470422D01*
X944686Y470412D01*
X944801Y470380D01*
X945041Y470364D01*
X945123Y470353D01*
X951698Y470353D01*
X957353Y464698D01*
X957353Y456702D01*
X951698Y451047D01*
X943702Y451047D01*
G37*
%LPD*%
%LPC*%
G36*
X918302Y451047D02*
X918302Y451047D01*
X913652Y455697D01*
X913575Y455759D01*
X913505Y455830D01*
X913424Y455882D01*
X913350Y455942D01*
X913262Y455988D01*
X913178Y456043D01*
X913089Y456078D01*
X913004Y456122D01*
X912908Y456149D01*
X912815Y456185D01*
X912743Y456195D01*
X912629Y456227D01*
X912389Y456243D01*
X912306Y456254D01*
X910985Y456254D01*
X910886Y456244D01*
X910786Y456244D01*
X910692Y456224D01*
X910597Y456214D01*
X910502Y456184D01*
X910405Y456164D01*
X910317Y456125D01*
X910226Y456096D01*
X910139Y456047D01*
X910048Y456008D01*
X909989Y455963D01*
X909886Y455905D01*
X909705Y455747D01*
X909638Y455697D01*
X908582Y454640D01*
X906258Y453677D01*
X903742Y453677D01*
X901418Y454640D01*
X899640Y456418D01*
X898677Y458742D01*
X898677Y461258D01*
X899640Y463582D01*
X901418Y465360D01*
X903742Y466323D01*
X906258Y466323D01*
X908749Y465291D01*
X908861Y465257D01*
X908969Y465215D01*
X909031Y465207D01*
X909123Y465179D01*
X909417Y465154D01*
X909478Y465146D01*
X912306Y465146D01*
X912405Y465156D01*
X912505Y465156D01*
X912599Y465176D01*
X912694Y465186D01*
X912789Y465216D01*
X912886Y465236D01*
X912974Y465275D01*
X913065Y465304D01*
X913152Y465353D01*
X913243Y465392D01*
X913301Y465437D01*
X913405Y465495D01*
X913586Y465653D01*
X913652Y465703D01*
X918302Y470353D01*
X926298Y470353D01*
X931953Y464698D01*
X931953Y456702D01*
X926298Y451047D01*
X918302Y451047D01*
G37*
%LPD*%
%LPC*%
G36*
X480595Y243919D02*
X480595Y243919D01*
X476890Y245454D01*
X474054Y248290D01*
X472519Y251995D01*
X472519Y256005D01*
X474054Y259710D01*
X476890Y262546D01*
X480595Y264081D01*
X484605Y264081D01*
X488310Y262546D01*
X491146Y259710D01*
X492681Y256005D01*
X492681Y251995D01*
X491146Y248290D01*
X488310Y245454D01*
X484605Y243919D01*
X480595Y243919D01*
G37*
%LPD*%
%LPC*%
G36*
X455195Y142319D02*
X455195Y142319D01*
X451490Y143854D01*
X448654Y146690D01*
X447119Y150395D01*
X447119Y154405D01*
X448654Y158110D01*
X451490Y160946D01*
X455195Y162481D01*
X459205Y162481D01*
X462910Y160946D01*
X465746Y158110D01*
X467281Y154405D01*
X467281Y150395D01*
X465746Y146690D01*
X462910Y143854D01*
X459205Y142319D01*
X455195Y142319D01*
G37*
%LPD*%
%LPC*%
G36*
X480595Y142319D02*
X480595Y142319D01*
X476890Y143854D01*
X474054Y146690D01*
X472519Y150395D01*
X472519Y154405D01*
X474054Y158110D01*
X476890Y160946D01*
X480595Y162481D01*
X484605Y162481D01*
X488310Y160946D01*
X491146Y158110D01*
X492681Y154405D01*
X492681Y150395D01*
X491146Y146690D01*
X488310Y143854D01*
X484605Y142319D01*
X480595Y142319D01*
G37*
%LPD*%
%LPC*%
G36*
X455195Y167719D02*
X455195Y167719D01*
X451490Y169254D01*
X448654Y172090D01*
X447119Y175795D01*
X447119Y179805D01*
X448654Y183510D01*
X451490Y186346D01*
X455195Y187881D01*
X459205Y187881D01*
X462910Y186346D01*
X465746Y183510D01*
X467281Y179805D01*
X467281Y175795D01*
X465746Y172090D01*
X462910Y169254D01*
X459205Y167719D01*
X455195Y167719D01*
G37*
%LPD*%
%LPC*%
G36*
X480595Y167719D02*
X480595Y167719D01*
X476890Y169254D01*
X474054Y172090D01*
X472519Y175795D01*
X472519Y179805D01*
X474054Y183510D01*
X476890Y186346D01*
X480595Y187881D01*
X484605Y187881D01*
X488310Y186346D01*
X491146Y183510D01*
X492681Y179805D01*
X492681Y175795D01*
X491146Y172090D01*
X488310Y169254D01*
X484605Y167719D01*
X480595Y167719D01*
G37*
%LPD*%
%LPC*%
G36*
X480595Y193119D02*
X480595Y193119D01*
X476890Y194654D01*
X474054Y197490D01*
X472519Y201195D01*
X472519Y205205D01*
X474054Y208910D01*
X476890Y211746D01*
X480595Y213281D01*
X484605Y213281D01*
X488310Y211746D01*
X491146Y208910D01*
X492681Y205205D01*
X492681Y201195D01*
X491146Y197490D01*
X488310Y194654D01*
X484605Y193119D01*
X480595Y193119D01*
G37*
%LPD*%
%LPC*%
G36*
X480595Y218519D02*
X480595Y218519D01*
X476890Y220054D01*
X474054Y222890D01*
X472519Y226595D01*
X472519Y230605D01*
X474054Y234310D01*
X476890Y237146D01*
X480595Y238681D01*
X484605Y238681D01*
X488310Y237146D01*
X491146Y234310D01*
X492681Y230605D01*
X492681Y226595D01*
X491146Y222890D01*
X488310Y220054D01*
X484605Y218519D01*
X480595Y218519D01*
G37*
%LPD*%
%LPC*%
G36*
X480595Y66119D02*
X480595Y66119D01*
X476890Y67654D01*
X474054Y70490D01*
X472519Y74195D01*
X472519Y78205D01*
X474054Y81910D01*
X476890Y84746D01*
X480595Y86281D01*
X484605Y86281D01*
X488310Y84746D01*
X491146Y81910D01*
X492681Y78205D01*
X492681Y74195D01*
X491146Y70490D01*
X488310Y67654D01*
X484605Y66119D01*
X480595Y66119D01*
G37*
%LPD*%
%LPC*%
G36*
X480595Y91519D02*
X480595Y91519D01*
X476890Y93054D01*
X474054Y95890D01*
X472519Y99595D01*
X472519Y103605D01*
X474054Y107310D01*
X476890Y110146D01*
X480595Y111681D01*
X484605Y111681D01*
X488310Y110146D01*
X491146Y107310D01*
X492681Y103605D01*
X492681Y99595D01*
X491146Y95890D01*
X488310Y93054D01*
X484605Y91519D01*
X480595Y91519D01*
G37*
%LPD*%
%LPC*%
G36*
X480595Y116919D02*
X480595Y116919D01*
X476890Y118454D01*
X474054Y121290D01*
X472519Y124995D01*
X472519Y129005D01*
X474054Y132710D01*
X476890Y135546D01*
X480595Y137081D01*
X484605Y137081D01*
X488310Y135546D01*
X491146Y132710D01*
X492681Y129005D01*
X492681Y124995D01*
X491146Y121290D01*
X488310Y118454D01*
X484605Y116919D01*
X480595Y116919D01*
G37*
%LPD*%
%LPC*%
G36*
X918302Y400247D02*
X918302Y400247D01*
X912647Y405902D01*
X912647Y413898D01*
X918302Y419553D01*
X926298Y419553D01*
X931953Y413898D01*
X931953Y405902D01*
X926298Y400247D01*
X918302Y400247D01*
G37*
%LPD*%
%LPC*%
G36*
X943702Y400247D02*
X943702Y400247D01*
X938047Y405902D01*
X938047Y413898D01*
X943702Y419553D01*
X951698Y419553D01*
X957353Y413898D01*
X957353Y405902D01*
X951698Y400247D01*
X943702Y400247D01*
G37*
%LPD*%
%LPC*%
G36*
X26809Y288669D02*
X26809Y288669D01*
X26809Y298211D01*
X34144Y298211D01*
X34791Y298038D01*
X35370Y297703D01*
X35843Y297230D01*
X36178Y296651D01*
X36351Y296004D01*
X36351Y288669D01*
X26809Y288669D01*
G37*
%LPD*%
%LPC*%
G36*
X26809Y273129D02*
X26809Y273129D01*
X26809Y282671D01*
X36351Y282671D01*
X36351Y275336D01*
X36178Y274689D01*
X35843Y274110D01*
X35370Y273637D01*
X34791Y273302D01*
X34144Y273129D01*
X26809Y273129D01*
G37*
%LPD*%
%LPC*%
G36*
X775385Y463385D02*
X775385Y463385D01*
X775385Y470753D01*
X780972Y470753D01*
X782472Y470515D01*
X783917Y470046D01*
X785271Y469356D01*
X786500Y468463D01*
X787575Y467388D01*
X788468Y466159D01*
X789158Y464805D01*
X789619Y463385D01*
X775385Y463385D01*
G37*
%LPD*%
%LPC*%
G36*
X267185Y42285D02*
X267185Y42285D01*
X267185Y56519D01*
X268605Y56058D01*
X269959Y55368D01*
X271188Y54475D01*
X272263Y53400D01*
X273156Y52171D01*
X273846Y50817D01*
X274315Y49372D01*
X274553Y47872D01*
X274553Y42285D01*
X267185Y42285D01*
G37*
%LPD*%
%LPC*%
G36*
X630285Y449385D02*
X630285Y449385D01*
X630285Y456753D01*
X635872Y456753D01*
X637372Y456515D01*
X638817Y456046D01*
X640171Y455356D01*
X641400Y454463D01*
X642475Y453388D01*
X643368Y452159D01*
X644058Y450805D01*
X644519Y449385D01*
X630285Y449385D01*
G37*
%LPD*%
%LPC*%
G36*
X421585Y42585D02*
X421585Y42585D01*
X421585Y56819D01*
X423005Y56358D01*
X424359Y55668D01*
X425588Y54775D01*
X426663Y53700D01*
X427556Y52471D01*
X428246Y51117D01*
X428715Y49672D01*
X428953Y48172D01*
X428953Y42585D01*
X421585Y42585D01*
G37*
%LPD*%
%LPC*%
G36*
X774085Y346985D02*
X774085Y346985D01*
X774085Y354353D01*
X779672Y354353D01*
X781172Y354115D01*
X782617Y353646D01*
X783971Y352956D01*
X785200Y352063D01*
X786275Y350988D01*
X787168Y349759D01*
X787858Y348405D01*
X788319Y346985D01*
X774085Y346985D01*
G37*
%LPD*%
%LPC*%
G36*
X756581Y463385D02*
X756581Y463385D01*
X757042Y464805D01*
X757732Y466159D01*
X758625Y467388D01*
X759700Y468463D01*
X760929Y469356D01*
X762283Y470046D01*
X763728Y470515D01*
X765228Y470753D01*
X770815Y470753D01*
X770815Y463385D01*
X756581Y463385D01*
G37*
%LPD*%
%LPC*%
G36*
X267185Y37715D02*
X267185Y37715D01*
X274553Y37715D01*
X274553Y32128D01*
X274315Y30628D01*
X273846Y29183D01*
X273156Y27829D01*
X272263Y26600D01*
X271188Y25525D01*
X269959Y24632D01*
X268605Y23942D01*
X267185Y23481D01*
X267185Y37715D01*
G37*
%LPD*%
%LPC*%
G36*
X421585Y38015D02*
X421585Y38015D01*
X428953Y38015D01*
X428953Y32428D01*
X428715Y30928D01*
X428246Y29483D01*
X427556Y28129D01*
X426663Y26900D01*
X425588Y25825D01*
X424359Y24932D01*
X423005Y24242D01*
X421585Y23781D01*
X421585Y38015D01*
G37*
%LPD*%
%LPC*%
G36*
X611481Y449385D02*
X611481Y449385D01*
X611942Y450805D01*
X612632Y452159D01*
X613525Y453388D01*
X614600Y454463D01*
X615829Y455356D01*
X617183Y456046D01*
X618628Y456515D01*
X620128Y456753D01*
X625715Y456753D01*
X625715Y449385D01*
X611481Y449385D01*
G37*
%LPD*%
%LPC*%
G36*
X774085Y335047D02*
X774085Y335047D01*
X774085Y342415D01*
X788319Y342415D01*
X787858Y340995D01*
X787168Y339641D01*
X786275Y338412D01*
X785200Y337337D01*
X783971Y336444D01*
X782617Y335754D01*
X781172Y335285D01*
X779672Y335047D01*
X774085Y335047D01*
G37*
%LPD*%
%LPC*%
G36*
X255247Y42285D02*
X255247Y42285D01*
X255247Y47872D01*
X255485Y49372D01*
X255954Y50817D01*
X256644Y52171D01*
X257537Y53400D01*
X258612Y54475D01*
X259841Y55368D01*
X261195Y56058D01*
X262615Y56519D01*
X262615Y42285D01*
X255247Y42285D01*
G37*
%LPD*%
%LPC*%
G36*
X409647Y42585D02*
X409647Y42585D01*
X409647Y48172D01*
X409885Y49672D01*
X410354Y51117D01*
X411044Y52471D01*
X411937Y53700D01*
X413012Y54775D01*
X414241Y55668D01*
X415595Y56358D01*
X417015Y56819D01*
X417015Y42585D01*
X409647Y42585D01*
G37*
%LPD*%
%LPC*%
G36*
X775385Y451447D02*
X775385Y451447D01*
X775385Y458815D01*
X789619Y458815D01*
X789158Y457395D01*
X788468Y456041D01*
X787575Y454812D01*
X786500Y453737D01*
X785271Y452844D01*
X783917Y452154D01*
X782472Y451685D01*
X780972Y451447D01*
X775385Y451447D01*
G37*
%LPD*%
%LPC*%
G36*
X763928Y335047D02*
X763928Y335047D01*
X762428Y335285D01*
X760983Y335754D01*
X759629Y336444D01*
X758400Y337337D01*
X757325Y338412D01*
X756432Y339641D01*
X755742Y340995D01*
X755281Y342415D01*
X769515Y342415D01*
X769515Y335047D01*
X763928Y335047D01*
G37*
%LPD*%
%LPC*%
G36*
X415595Y24242D02*
X415595Y24242D01*
X414241Y24932D01*
X413012Y25825D01*
X411937Y26900D01*
X411044Y28129D01*
X410354Y29483D01*
X409885Y30928D01*
X409647Y32428D01*
X409647Y38015D01*
X417015Y38015D01*
X417015Y23781D01*
X415595Y24242D01*
G37*
%LPD*%
%LPC*%
G36*
X261195Y23942D02*
X261195Y23942D01*
X259841Y24632D01*
X258612Y25525D01*
X257537Y26600D01*
X256644Y27829D01*
X255954Y29183D01*
X255485Y30628D01*
X255247Y32128D01*
X255247Y37715D01*
X262615Y37715D01*
X262615Y23481D01*
X261195Y23942D01*
G37*
%LPD*%
%LPC*%
G36*
X765228Y451447D02*
X765228Y451447D01*
X763728Y451685D01*
X762283Y452154D01*
X760929Y452844D01*
X759700Y453737D01*
X758625Y454812D01*
X757732Y456041D01*
X757042Y457395D01*
X756581Y458815D01*
X770815Y458815D01*
X770815Y451447D01*
X765228Y451447D01*
G37*
%LPD*%
%LPC*%
G36*
X370131Y392031D02*
X370131Y392031D01*
X370131Y399145D01*
X375424Y399145D01*
X376846Y398920D01*
X378214Y398475D01*
X379497Y397821D01*
X380661Y396975D01*
X381679Y395957D01*
X382525Y394793D01*
X383179Y393510D01*
X383624Y392142D01*
X383641Y392031D01*
X370131Y392031D01*
G37*
%LPD*%
%LPC*%
G36*
X358931Y297031D02*
X358931Y297031D01*
X358931Y304145D01*
X364224Y304145D01*
X365646Y303920D01*
X367014Y303475D01*
X368297Y302821D01*
X369461Y301975D01*
X370479Y300957D01*
X371325Y299793D01*
X371979Y298510D01*
X372424Y297142D01*
X372441Y297031D01*
X358931Y297031D01*
G37*
%LPD*%
%LPC*%
G36*
X352559Y392031D02*
X352559Y392031D01*
X352576Y392142D01*
X353021Y393510D01*
X353675Y394793D01*
X354521Y395957D01*
X355539Y396975D01*
X356703Y397821D01*
X357986Y398475D01*
X359354Y398920D01*
X360776Y399145D01*
X366069Y399145D01*
X366069Y392031D01*
X352559Y392031D01*
G37*
%LPD*%
%LPC*%
G36*
X341359Y297031D02*
X341359Y297031D01*
X341376Y297142D01*
X341821Y298510D01*
X342475Y299793D01*
X343321Y300957D01*
X344339Y301975D01*
X345503Y302821D01*
X346786Y303475D01*
X348154Y303920D01*
X349576Y304145D01*
X354869Y304145D01*
X354869Y297031D01*
X341359Y297031D01*
G37*
%LPD*%
%LPC*%
G36*
X358931Y285855D02*
X358931Y285855D01*
X358931Y292969D01*
X372441Y292969D01*
X372424Y292858D01*
X371979Y291490D01*
X371325Y290207D01*
X370479Y289043D01*
X369461Y288025D01*
X368297Y287179D01*
X367014Y286525D01*
X365646Y286080D01*
X364224Y285855D01*
X358931Y285855D01*
G37*
%LPD*%
%LPC*%
G36*
X370131Y380855D02*
X370131Y380855D01*
X370131Y387969D01*
X383641Y387969D01*
X383624Y387858D01*
X383179Y386490D01*
X382525Y385207D01*
X381679Y384043D01*
X380661Y383025D01*
X379497Y382179D01*
X378214Y381525D01*
X376846Y381080D01*
X375424Y380855D01*
X370131Y380855D01*
G37*
%LPD*%
%LPC*%
G36*
X349576Y285855D02*
X349576Y285855D01*
X348154Y286080D01*
X346786Y286525D01*
X345503Y287179D01*
X344339Y288025D01*
X343321Y289043D01*
X342475Y290207D01*
X341821Y291490D01*
X341376Y292858D01*
X341359Y292969D01*
X354869Y292969D01*
X354869Y285855D01*
X349576Y285855D01*
G37*
%LPD*%
%LPC*%
G36*
X360776Y380855D02*
X360776Y380855D01*
X359354Y381080D01*
X357986Y381525D01*
X356703Y382179D01*
X355539Y383025D01*
X354521Y384043D01*
X353675Y385207D01*
X353021Y386490D01*
X352576Y387858D01*
X352559Y387969D01*
X366069Y387969D01*
X366069Y380855D01*
X360776Y380855D01*
G37*
%LPD*%
%LPC*%
G36*
X459699Y256499D02*
X459699Y256499D01*
X459699Y264081D01*
X463927Y264081D01*
X463944Y264082D01*
X463961Y264081D01*
X464138Y264102D01*
X464315Y264121D01*
X464331Y264126D01*
X464348Y264128D01*
X464516Y264185D01*
X464687Y264239D01*
X464701Y264247D01*
X464717Y264252D01*
X464871Y264342D01*
X465026Y264430D01*
X465039Y264441D01*
X465053Y264449D01*
X465111Y264502D01*
X465176Y264421D01*
X465235Y264331D01*
X465297Y264269D01*
X465352Y264201D01*
X465415Y264152D01*
X465512Y264055D01*
X465688Y263940D01*
X465758Y263886D01*
X466300Y263573D01*
X466773Y263100D01*
X467108Y262521D01*
X467281Y261874D01*
X467281Y256499D01*
X459699Y256499D01*
G37*
%LPD*%
%LPC*%
G36*
X459699Y243919D02*
X459699Y243919D01*
X459699Y251501D01*
X467281Y251501D01*
X467281Y246126D01*
X467108Y245479D01*
X466773Y244900D01*
X466300Y244427D01*
X465721Y244092D01*
X465074Y243919D01*
X459699Y243919D01*
G37*
%LPD*%
%LPC*%
G36*
X114485Y381985D02*
X114485Y381985D01*
X114485Y389353D01*
X116198Y389353D01*
X121853Y383698D01*
X121853Y381985D01*
X114485Y381985D01*
G37*
%LPD*%
%LPC*%
G36*
X63685Y381985D02*
X63685Y381985D01*
X63685Y389353D01*
X65398Y389353D01*
X71053Y383698D01*
X71053Y381985D01*
X63685Y381985D01*
G37*
%LPD*%
%LPC*%
G36*
X89085Y381985D02*
X89085Y381985D01*
X89085Y389353D01*
X90798Y389353D01*
X96453Y383698D01*
X96453Y381985D01*
X89085Y381985D01*
G37*
%LPD*%
%LPC*%
G36*
X949985Y386785D02*
X949985Y386785D01*
X949985Y394153D01*
X951698Y394153D01*
X957353Y388498D01*
X957353Y386785D01*
X949985Y386785D01*
G37*
%LPD*%
%LPC*%
G36*
X38285Y381985D02*
X38285Y381985D01*
X38285Y389353D01*
X39998Y389353D01*
X45653Y383698D01*
X45653Y381985D01*
X38285Y381985D01*
G37*
%LPD*%
%LPC*%
G36*
X77147Y381985D02*
X77147Y381985D01*
X77147Y383698D01*
X82802Y389353D01*
X84515Y389353D01*
X84515Y381985D01*
X77147Y381985D01*
G37*
%LPD*%
%LPC*%
G36*
X51747Y381985D02*
X51747Y381985D01*
X51747Y383698D01*
X57402Y389353D01*
X59115Y389353D01*
X59115Y381985D01*
X51747Y381985D01*
G37*
%LPD*%
%LPC*%
G36*
X949985Y374847D02*
X949985Y374847D01*
X949985Y382215D01*
X957353Y382215D01*
X957353Y380502D01*
X951698Y374847D01*
X949985Y374847D01*
G37*
%LPD*%
%LPC*%
G36*
X63685Y370047D02*
X63685Y370047D01*
X63685Y377415D01*
X71053Y377415D01*
X71053Y375702D01*
X65398Y370047D01*
X63685Y370047D01*
G37*
%LPD*%
%LPC*%
G36*
X114485Y370047D02*
X114485Y370047D01*
X114485Y377415D01*
X121853Y377415D01*
X121853Y375702D01*
X116198Y370047D01*
X114485Y370047D01*
G37*
%LPD*%
%LPC*%
G36*
X89085Y370047D02*
X89085Y370047D01*
X89085Y377415D01*
X96453Y377415D01*
X96453Y375702D01*
X90798Y370047D01*
X89085Y370047D01*
G37*
%LPD*%
%LPC*%
G36*
X102547Y381985D02*
X102547Y381985D01*
X102547Y383698D01*
X108202Y389353D01*
X109915Y389353D01*
X109915Y381985D01*
X102547Y381985D01*
G37*
%LPD*%
%LPC*%
G36*
X26347Y381985D02*
X26347Y381985D01*
X26347Y383698D01*
X32002Y389353D01*
X33715Y389353D01*
X33715Y381985D01*
X26347Y381985D01*
G37*
%LPD*%
%LPC*%
G36*
X938047Y386785D02*
X938047Y386785D01*
X938047Y388498D01*
X943702Y394153D01*
X945415Y394153D01*
X945415Y386785D01*
X938047Y386785D01*
G37*
%LPD*%
%LPC*%
G36*
X38285Y370047D02*
X38285Y370047D01*
X38285Y377415D01*
X45653Y377415D01*
X45653Y375702D01*
X39998Y370047D01*
X38285Y370047D01*
G37*
%LPD*%
%LPC*%
G36*
X32002Y370047D02*
X32002Y370047D01*
X26347Y375702D01*
X26347Y377415D01*
X33715Y377415D01*
X33715Y370047D01*
X32002Y370047D01*
G37*
%LPD*%
%LPC*%
G36*
X57402Y370047D02*
X57402Y370047D01*
X51747Y375702D01*
X51747Y377415D01*
X59115Y377415D01*
X59115Y370047D01*
X57402Y370047D01*
G37*
%LPD*%
%LPC*%
G36*
X82802Y370047D02*
X82802Y370047D01*
X77147Y375702D01*
X77147Y377415D01*
X84515Y377415D01*
X84515Y370047D01*
X82802Y370047D01*
G37*
%LPD*%
%LPC*%
G36*
X108202Y370047D02*
X108202Y370047D01*
X102547Y375702D01*
X102547Y377415D01*
X109915Y377415D01*
X109915Y370047D01*
X108202Y370047D01*
G37*
%LPD*%
%LPC*%
G36*
X943702Y374847D02*
X943702Y374847D01*
X938047Y380502D01*
X938047Y382215D01*
X945415Y382215D01*
X945415Y374847D01*
X943702Y374847D01*
G37*
%LPD*%
%LPC*%
G36*
X247904Y201204D02*
X247904Y201204D01*
X247904Y207381D01*
X251874Y207381D01*
X252521Y207208D01*
X253100Y206873D01*
X253573Y206400D01*
X253908Y205821D01*
X254081Y205174D01*
X254081Y201204D01*
X247904Y201204D01*
G37*
%LPD*%
%LPC*%
G36*
X422904Y71219D02*
X422904Y71219D01*
X422904Y77396D01*
X429081Y77396D01*
X429081Y73426D01*
X428908Y72779D01*
X428573Y72200D01*
X428100Y71727D01*
X427521Y71392D01*
X426874Y71219D01*
X422904Y71219D01*
G37*
%LPD*%
%LPC*%
G36*
X237919Y201204D02*
X237919Y201204D01*
X237919Y205174D01*
X238092Y205821D01*
X238427Y206400D01*
X238900Y206873D01*
X239479Y207208D01*
X240126Y207381D01*
X244096Y207381D01*
X244096Y201204D01*
X237919Y201204D01*
G37*
%LPD*%
%LPC*%
G36*
X415126Y71219D02*
X415126Y71219D01*
X414479Y71392D01*
X413900Y71727D01*
X413427Y72200D01*
X413092Y72779D01*
X412919Y73426D01*
X412919Y77396D01*
X419096Y77396D01*
X419096Y71219D01*
X415126Y71219D01*
G37*
%LPD*%
%LPC*%
G36*
X459699Y78699D02*
X459699Y78699D01*
X459699Y85987D01*
X461070Y85542D01*
X462484Y84822D01*
X463767Y83889D01*
X464889Y82767D01*
X465822Y81484D01*
X466542Y80070D01*
X466987Y78699D01*
X459699Y78699D01*
G37*
%LPD*%
%LPC*%
G36*
X447413Y78699D02*
X447413Y78699D01*
X447858Y80070D01*
X448578Y81484D01*
X449511Y82767D01*
X450633Y83889D01*
X451916Y84822D01*
X453330Y85542D01*
X454701Y85987D01*
X454701Y78699D01*
X447413Y78699D01*
G37*
%LPD*%
%LPC*%
G36*
X459699Y73701D02*
X459699Y73701D01*
X466987Y73701D01*
X466542Y72330D01*
X465822Y70916D01*
X464889Y69633D01*
X463767Y68511D01*
X462484Y67578D01*
X461070Y66858D01*
X459699Y66413D01*
X459699Y73701D01*
G37*
%LPD*%
%LPC*%
G36*
X453330Y66858D02*
X453330Y66858D01*
X451916Y67578D01*
X450633Y68511D01*
X449511Y69633D01*
X448578Y70916D01*
X447858Y72330D01*
X447413Y73701D01*
X454701Y73701D01*
X454701Y66413D01*
X453330Y66858D01*
G37*
%LPD*%
%LPC*%
G36*
X173231Y292131D02*
X173231Y292131D01*
X173231Y299245D01*
X174988Y299245D01*
X180345Y293888D01*
X180345Y292131D01*
X173231Y292131D01*
G37*
%LPD*%
%LPC*%
G36*
X578031Y106831D02*
X578031Y106831D01*
X578031Y113945D01*
X579788Y113945D01*
X585145Y108588D01*
X585145Y106831D01*
X578031Y106831D01*
G37*
%LPD*%
%LPC*%
G36*
X578031Y102769D02*
X578031Y102769D01*
X585145Y102769D01*
X585145Y101012D01*
X579788Y95655D01*
X578031Y95655D01*
X578031Y102769D01*
G37*
%LPD*%
%LPC*%
G36*
X162055Y292131D02*
X162055Y292131D01*
X162055Y293888D01*
X167412Y299245D01*
X169169Y299245D01*
X169169Y292131D01*
X162055Y292131D01*
G37*
%LPD*%
%LPC*%
G36*
X566855Y106831D02*
X566855Y106831D01*
X566855Y108588D01*
X572212Y113945D01*
X573969Y113945D01*
X573969Y106831D01*
X566855Y106831D01*
G37*
%LPD*%
%LPC*%
G36*
X173231Y280955D02*
X173231Y280955D01*
X173231Y288069D01*
X180345Y288069D01*
X180345Y286312D01*
X174988Y280955D01*
X173231Y280955D01*
G37*
%LPD*%
%LPC*%
G36*
X167412Y280955D02*
X167412Y280955D01*
X162055Y286312D01*
X162055Y288069D01*
X169169Y288069D01*
X169169Y280955D01*
X167412Y280955D01*
G37*
%LPD*%
%LPC*%
G36*
X572212Y95655D02*
X572212Y95655D01*
X566855Y101012D01*
X566855Y102769D01*
X573969Y102769D01*
X573969Y95655D01*
X572212Y95655D01*
G37*
%LPD*%
%LPC*%
G36*
X686204Y468304D02*
X686204Y468304D01*
X686204Y474309D01*
X686671Y474216D01*
X688150Y473604D01*
X689482Y472714D01*
X690614Y471582D01*
X691504Y470250D01*
X692116Y468771D01*
X692209Y468304D01*
X686204Y468304D01*
G37*
%LPD*%
%LPC*%
G36*
X676391Y468304D02*
X676391Y468304D01*
X676484Y468771D01*
X677096Y470250D01*
X677986Y471582D01*
X679118Y472714D01*
X680450Y473604D01*
X681929Y474216D01*
X682396Y474309D01*
X682396Y468304D01*
X676391Y468304D01*
G37*
%LPD*%
%LPC*%
G36*
X686204Y464496D02*
X686204Y464496D01*
X692209Y464496D01*
X692116Y464029D01*
X691504Y462550D01*
X690614Y461218D01*
X689482Y460086D01*
X688150Y459196D01*
X686671Y458584D01*
X686204Y458491D01*
X686204Y464496D01*
G37*
%LPD*%
%LPC*%
G36*
X681929Y458584D02*
X681929Y458584D01*
X680450Y459196D01*
X679118Y460086D01*
X677986Y461218D01*
X677096Y462550D01*
X676484Y464029D01*
X676391Y464496D01*
X682396Y464496D01*
X682396Y458491D01*
X681929Y458584D01*
G37*
%LPD*%
D10*
X635112Y370900D02*
X620888Y370900D01*
X620888Y396300D02*
X635112Y396300D01*
X635112Y421700D02*
X620888Y421700D01*
X620888Y447100D02*
X635112Y447100D01*
D11*
X922300Y460700D03*
X947700Y460700D03*
X922300Y435300D03*
X947700Y435300D03*
X922300Y409900D03*
X947700Y409900D03*
X947700Y384500D03*
X922300Y384500D03*
D12*
X576000Y79400D03*
X576000Y104800D03*
D10*
X393900Y47412D02*
X393900Y33188D01*
X419300Y33188D02*
X419300Y47412D01*
X341100Y47112D02*
X341100Y32888D01*
X315700Y32888D02*
X315700Y47112D01*
X290300Y47112D02*
X290300Y32888D01*
X264900Y32888D02*
X264900Y47112D01*
D13*
X191300Y42500D03*
X191300Y194900D03*
D10*
X765988Y461100D02*
X780212Y461100D01*
X780212Y435700D02*
X765988Y435700D01*
D14*
X137300Y78200D02*
X137300Y58200D01*
X76300Y58200D02*
X76300Y78200D01*
X96300Y20200D02*
X116300Y20200D01*
D15*
X196600Y290100D03*
X171200Y290100D03*
D10*
X764688Y344700D02*
X778912Y344700D01*
X778912Y370100D02*
X764688Y370100D01*
D16*
X349500Y259700D03*
X425700Y259700D03*
D17*
X738400Y415000D03*
X738400Y338800D03*
D16*
X313400Y365400D03*
X389600Y365400D03*
D18*
X684300Y466400D03*
X684300Y441000D03*
X684300Y415600D03*
D15*
X229000Y249400D03*
X152800Y249400D03*
D16*
X775200Y403400D03*
X851400Y403400D03*
D17*
X616900Y148500D03*
X616900Y72300D03*
D19*
X112200Y379700D03*
X112200Y354300D03*
X86800Y379700D03*
X86800Y354300D03*
X61400Y379700D03*
X61400Y354300D03*
X36000Y354300D03*
X36000Y379700D03*
D10*
X589100Y452188D02*
X589100Y466412D01*
X563700Y466412D02*
X563700Y452188D01*
X538300Y452188D02*
X538300Y466412D01*
X512900Y466412D02*
X512900Y452188D01*
D20*
X23810Y130730D03*
X117790Y130730D03*
X117790Y285670D03*
X23810Y285670D03*
D21*
X246000Y79300D03*
X246000Y94300D03*
X246000Y109300D03*
X246000Y124300D03*
X246000Y139300D03*
X246000Y154300D03*
X246000Y184300D03*
X246000Y169300D03*
X246000Y199300D03*
X421000Y79300D03*
X421000Y94300D03*
X421000Y109300D03*
X421000Y124300D03*
X421000Y139300D03*
X421000Y154300D03*
X421000Y184300D03*
X421000Y169300D03*
X421000Y199300D03*
D22*
X457200Y254000D03*
D23*
X482600Y254000D03*
X457200Y228600D03*
X482600Y228600D03*
X457200Y203200D03*
X482600Y203200D03*
X457200Y177800D03*
X482600Y177800D03*
X457200Y152400D03*
X482600Y152400D03*
X457200Y127000D03*
X482600Y127000D03*
X457200Y101600D03*
X482600Y101600D03*
X457200Y76200D03*
X482600Y76200D03*
D24*
X439704Y295000D02*
X426496Y295000D01*
X363504Y295000D02*
X350296Y295000D01*
X298504Y390000D02*
X285296Y390000D01*
X361496Y390000D02*
X374704Y390000D01*
D25*
X907900Y344700D02*
X947700Y384500D01*
X907900Y344700D02*
X771800Y344700D01*
X647300Y466400D02*
X628000Y447100D01*
X647300Y466400D02*
X684300Y466400D01*
X767800Y466400D01*
X773100Y461100D01*
X799300Y487300D01*
X955700Y487300D02*
X979000Y464000D01*
X979000Y415800D01*
X947700Y384500D01*
X955700Y487300D02*
X799300Y487300D01*
X112200Y379700D02*
X36000Y379700D01*
X112200Y379700D02*
X143000Y348900D01*
X143000Y312000D01*
X164900Y290100D01*
X171200Y290100D01*
X419300Y40300D02*
X421000Y42000D01*
X421000Y79300D01*
X264900Y40000D02*
X229000Y75900D01*
X229000Y112360D02*
X240940Y124300D01*
X246000Y124300D01*
X229000Y112360D02*
X229000Y75900D01*
X242890Y196190D02*
X246000Y199300D01*
X242890Y196190D02*
X234830Y196190D01*
X229000Y190360D01*
X229000Y112360D01*
X246000Y199300D02*
X215300Y230000D01*
X138000Y230000D01*
X82330Y285670D01*
X23810Y285670D01*
D26*
X171000Y320000D03*
D25*
X171000Y290300D02*
X171200Y290100D01*
X171000Y290300D02*
X171000Y320000D01*
X354100Y404000D02*
X368100Y390000D01*
D26*
X262750Y404000D03*
D25*
X354100Y404000D01*
X171200Y290100D02*
X171200Y274100D01*
X215300Y230000D01*
D27*
X419300Y40300D02*
X419300Y30300D01*
X368100Y390000D02*
X389000Y410900D01*
X389000Y411000D01*
X393000Y415000D01*
D26*
X393000Y415000D03*
D27*
X457200Y76200D02*
X468735Y64665D01*
X322000Y260100D02*
X356900Y295000D01*
X322000Y179000D02*
X267000Y124000D01*
X246300Y124000D01*
X246000Y124300D01*
X322000Y179000D02*
X322000Y260100D01*
X576000Y131000D02*
X576000Y104800D01*
X535865Y64665D02*
X468735Y64665D01*
X457200Y254000D02*
X457200Y254735D01*
X468000Y265535D01*
X502465Y265535D01*
D26*
X513000Y286000D03*
X508000Y332000D03*
X321000Y420000D03*
X487000Y353000D03*
X76000Y468000D03*
X65000Y310000D03*
X55000Y225000D03*
X95000Y182000D03*
X703000Y186000D03*
X356000Y340000D03*
X592000Y348000D03*
X681000Y354000D03*
X736000Y471000D03*
X853000Y258000D03*
X948000Y323000D03*
X698000Y41000D03*
X804000Y101000D03*
X946000Y36000D03*
D27*
X576000Y104800D02*
X535865Y64665D01*
X576000Y104800D02*
X576000Y192000D01*
X502465Y265535D01*
D25*
X738400Y415000D02*
X763600Y415000D01*
X775200Y403400D01*
X811600Y403400D01*
X832000Y383000D01*
X920800Y383000D01*
X922300Y384500D01*
X738400Y415000D02*
X737800Y415600D01*
X684300Y415600D01*
X639900Y370900D02*
X628000Y370900D01*
X684300Y415300D02*
X684300Y415600D01*
X684300Y415300D02*
X639900Y370900D01*
X112200Y354300D02*
X65000Y354300D01*
X117790Y284410D02*
X152800Y249400D01*
X117790Y284410D02*
X117790Y285670D01*
X117790Y348710D02*
X112200Y354300D01*
X117790Y348710D02*
X117790Y285670D01*
X36000Y354300D02*
X24700Y354300D01*
X13000Y366000D01*
X13000Y405000D01*
X55000Y447000D01*
X222000Y447000D01*
D26*
X222000Y447000D03*
D25*
X376000Y447000D01*
D26*
X481000Y440000D03*
D27*
X425700Y259700D02*
X425700Y229300D01*
X451800Y203200D02*
X457200Y203200D01*
X451800Y203200D02*
X425700Y229300D01*
X65000Y354300D02*
X61400Y354300D01*
X86800Y354300D02*
X112200Y354300D01*
X61400Y354300D02*
X36000Y354300D01*
D25*
X376000Y447000D02*
X387000Y458000D01*
X480000Y440000D02*
X481000Y440000D01*
X480000Y440000D02*
X462000Y458000D01*
X387000Y458000D01*
X196600Y290100D02*
X229000Y257700D01*
X229000Y249400D01*
X165130Y130730D02*
X117790Y130730D01*
X191300Y156900D02*
X191300Y194900D01*
X191300Y156900D02*
X165130Y130730D01*
X51770Y130730D02*
X23810Y130730D01*
X114300Y68200D02*
X137300Y68200D01*
X114300Y68200D02*
X51770Y130730D01*
X76300Y68200D02*
X88800Y68200D01*
X144072Y41850D02*
X144722Y42500D01*
X191300Y42500D01*
X144072Y41850D02*
X115150Y41850D01*
X88800Y68200D01*
D27*
X677300Y434000D02*
X684300Y441000D01*
X677300Y434000D02*
X604000Y434000D01*
X552350Y382350D01*
X453000Y382350D01*
X441000Y394350D01*
X441000Y406000D01*
D26*
X441000Y406000D03*
X469000Y360000D03*
D27*
X472300Y363300D01*
X560755Y363300D01*
X773100Y435700D02*
X797800Y411000D01*
X843800Y411000D02*
X851400Y403400D01*
X843800Y411000D02*
X797800Y411000D01*
X581455Y384000D02*
X560755Y363300D01*
X581455Y384000D02*
X642000Y384000D01*
X652000Y394000D01*
X652000Y402000D01*
X677000Y427000D01*
X764400Y427000D01*
X773100Y435700D01*
X628000Y396300D02*
X584300Y396300D01*
X557650Y369650D01*
X458650Y369650D02*
X456000Y367000D01*
D26*
X456000Y367000D03*
D27*
X458650Y369650D02*
X557650Y369650D01*
D26*
X434000Y376000D03*
D27*
X555000Y376000D01*
X600700Y421700D01*
X628000Y421700D01*
X589100Y428100D02*
X589100Y459300D01*
X589100Y428100D02*
X549700Y388700D01*
X459300Y388700D01*
X453000Y434000D02*
X441000Y446000D01*
X430000Y446000D01*
D26*
X430000Y446000D03*
D27*
X453000Y395000D02*
X459300Y388700D01*
X453000Y395000D02*
X453000Y434000D01*
X563700Y459300D02*
X565000Y458000D01*
X539000Y458600D02*
X538300Y459300D01*
X513000Y459200D02*
X512900Y459300D01*
D25*
X341100Y130100D02*
X341100Y40000D01*
X410300Y199300D02*
X421000Y199300D01*
X410300Y199300D02*
X341100Y130100D01*
D26*
X394000Y199000D03*
D27*
X394300Y199300D01*
X421000Y199300D01*
X440000Y240000D02*
X440000Y288000D01*
X440000Y240000D02*
X451400Y228600D01*
X457200Y228600D01*
X440000Y288000D02*
X433100Y294900D01*
X364800Y275000D02*
X349500Y259700D01*
X364800Y275000D02*
X416000Y275000D01*
X433100Y292100D01*
X433100Y294900D01*
X433100Y295000D01*
X349500Y259700D02*
X349500Y244100D01*
X394300Y199300D01*
X433100Y294900D02*
X452865Y314665D01*
X616900Y224100D02*
X616900Y148500D01*
X526335Y314665D02*
X452865Y314665D01*
X526335Y314665D02*
X616900Y224100D01*
D25*
X313400Y368500D02*
X291900Y390000D01*
X313400Y368500D02*
X313400Y365400D01*
X313400Y186400D01*
X266000Y139000D01*
X246300Y139000D01*
X246000Y139300D01*
X389600Y343400D02*
X389600Y365400D01*
X389600Y343400D02*
X395000Y338000D01*
X397000Y338000D01*
D26*
X397000Y338000D03*
X905000Y460000D03*
D27*
X905700Y460700D01*
X922300Y460700D01*
D26*
X936000Y475000D03*
D27*
X936000Y472400D01*
X947700Y460700D01*
D26*
X908000Y435000D03*
D27*
X922000Y435000D01*
X922300Y435300D01*
X947700Y435300D01*
X769700Y370100D02*
X738400Y338800D01*
D25*
X769700Y370100D02*
X771800Y370100D01*
D27*
X315700Y46300D02*
X315700Y40000D01*
X252700Y109300D02*
X246000Y109300D01*
X252700Y109300D02*
X315700Y46300D01*
X290300Y40000D02*
X290300Y58700D01*
X254700Y94300D02*
X246000Y94300D01*
X254700Y94300D02*
X290300Y58700D01*
X421000Y169300D02*
X427700Y169300D01*
X438350Y158650D02*
X438350Y140000D01*
X451350Y127000D01*
X457200Y127000D01*
X438350Y158650D02*
X427700Y169300D01*
X425700Y154300D02*
X421000Y154300D01*
X432000Y148000D02*
X432000Y125000D01*
X455400Y101600D01*
X457200Y101600D01*
X432000Y148000D02*
X425700Y154300D01*
D25*
X420890Y94190D02*
X408830Y94190D01*
X420890Y94190D02*
X421000Y94300D01*
X393900Y79260D02*
X393900Y40300D01*
X393900Y79260D02*
X408830Y94190D01*
D27*
X576000Y79400D02*
X609800Y79400D01*
X616900Y72300D01*
X421000Y184300D02*
X408300Y184300D01*
X369000Y145000D02*
X369000Y25000D01*
X381935Y12065D01*
X509065Y12065D01*
X369000Y145000D02*
X408300Y184300D01*
X576000Y79400D02*
X576000Y79000D01*
X509065Y12065D01*
D26*
X284000Y173000D03*
D25*
X265300Y154300D01*
X246000Y154300D01*
M02*
