G04 EAGLE Gerber RS-274X export*
G75*
%MOMM*%
%FSLAX34Y34*%
%LPD*%
%INSoldermask Bottom*%
%IPPOS*%
%AMOC8*
5,1,8,0,0,1.08239X$1,22.5*%
G01*
%ADD10C,1.203200*%
%ADD11C,1.625600*%
%ADD12P,1.759533X8X292.500000*%
%ADD13P,1.649562X8X112.500000*%
%ADD14R,2.489200X2.489200*%
%ADD15C,2.203200*%
%ADD16P,1.649562X8X202.500000*%
%ADD17P,1.649562X8X22.500000*%
%ADD18P,1.649562X8X292.500000*%
%ADD19C,1.320800*%
%ADD20P,1.759533X8X202.500000*%
%ADD21R,2.203200X2.203200*%
%ADD22R,1.311200X1.311200*%
%ADD23R,1.711200X1.711200*%
%ADD24C,1.711200*%
%ADD25C,2.703200*%
%ADD26C,1.524000*%
%ADD27C,0.959600*%


D10*
X980000Y18000D03*
X982000Y486000D03*
X13000Y485000D03*
X149000Y159000D03*
D11*
X620888Y370900D02*
X635112Y370900D01*
X635112Y396300D02*
X620888Y396300D01*
X620888Y421700D02*
X635112Y421700D01*
X635112Y447100D02*
X620888Y447100D01*
D12*
X922300Y460700D03*
X947700Y460700D03*
X922300Y435300D03*
X947700Y435300D03*
X922300Y409900D03*
X947700Y409900D03*
X947700Y384500D03*
X922300Y384500D03*
D13*
X576000Y79400D03*
X576000Y104800D03*
D11*
X393900Y47412D02*
X393900Y33188D01*
X419300Y33188D02*
X419300Y47412D01*
X341100Y47112D02*
X341100Y32888D01*
X315700Y32888D02*
X315700Y47112D01*
X290300Y47112D02*
X290300Y32888D01*
X264900Y32888D02*
X264900Y47112D01*
D14*
X191300Y42500D03*
X191300Y194900D03*
D11*
X765988Y461100D02*
X780212Y461100D01*
X780212Y435700D02*
X765988Y435700D01*
D15*
X137300Y78200D02*
X137300Y58200D01*
X76300Y58200D02*
X76300Y78200D01*
X96300Y20200D02*
X116300Y20200D01*
D16*
X196600Y290100D03*
X171200Y290100D03*
D11*
X764688Y344700D02*
X778912Y344700D01*
X778912Y370100D02*
X764688Y370100D01*
D17*
X349500Y259700D03*
X425700Y259700D03*
D18*
X738400Y415000D03*
X738400Y338800D03*
D17*
X313400Y365400D03*
X389600Y365400D03*
D19*
X684300Y466400D03*
X684300Y441000D03*
X684300Y415600D03*
D16*
X229000Y249400D03*
X152800Y249400D03*
D17*
X775200Y403400D03*
X851400Y403400D03*
D18*
X533900Y147900D03*
X533900Y71700D03*
X616900Y148500D03*
X616900Y72300D03*
D20*
X112200Y379700D03*
X112200Y354300D03*
X86800Y379700D03*
X86800Y354300D03*
X61400Y379700D03*
X61400Y354300D03*
X36000Y354300D03*
X36000Y379700D03*
D11*
X589100Y452188D02*
X589100Y466412D01*
X563700Y466412D02*
X563700Y452188D01*
X538300Y452188D02*
X538300Y466412D01*
X512900Y466412D02*
X512900Y452188D01*
D21*
X23810Y130730D03*
X117790Y130730D03*
X117790Y285670D03*
X23810Y285670D03*
D22*
X246000Y79300D03*
X246000Y94300D03*
X246000Y109300D03*
X246000Y124300D03*
X246000Y139300D03*
X246000Y154300D03*
X246000Y184300D03*
X246000Y169300D03*
X246000Y199300D03*
X421000Y79300D03*
X421000Y94300D03*
X421000Y109300D03*
X421000Y124300D03*
X421000Y139300D03*
X421000Y154300D03*
X421000Y184300D03*
X421000Y169300D03*
X421000Y199300D03*
D23*
X457200Y254000D03*
D24*
X482600Y254000D03*
X457200Y228600D03*
X482600Y228600D03*
X457200Y203200D03*
X482600Y203200D03*
X457200Y177800D03*
X482600Y177800D03*
X457200Y152400D03*
X482600Y152400D03*
X457200Y127000D03*
X482600Y127000D03*
X457200Y101600D03*
X482600Y101600D03*
X457200Y76200D03*
X482600Y76200D03*
D25*
X469900Y290100D03*
X469900Y40100D03*
D26*
X439704Y295000D02*
X426496Y295000D01*
X363504Y295000D02*
X350296Y295000D01*
X298504Y390000D02*
X285296Y390000D01*
X361496Y390000D02*
X374704Y390000D01*
D27*
X171000Y320000D03*
X262750Y404000D03*
X393000Y415000D03*
X513000Y286000D03*
X508000Y332000D03*
X321000Y420000D03*
X487000Y353000D03*
X76000Y468000D03*
X65000Y310000D03*
X55000Y225000D03*
X95000Y182000D03*
X703000Y186000D03*
X356000Y340000D03*
X592000Y348000D03*
X681000Y354000D03*
X736000Y471000D03*
X853000Y258000D03*
X948000Y323000D03*
X698000Y41000D03*
X804000Y101000D03*
X946000Y36000D03*
X222000Y447000D03*
X481000Y440000D03*
X441000Y406000D03*
X469000Y360000D03*
X456000Y367000D03*
X434000Y376000D03*
X430000Y446000D03*
X394000Y199000D03*
X397000Y338000D03*
X905000Y460000D03*
X936000Y475000D03*
X908000Y435000D03*
X284000Y173000D03*
M02*
