M48
;GenerationSoftware,Autodesk,EAGLE,9.6.1*%
;CreationDate,2020-05-18T05:28:54Z*%
FMAT,2
ICI,OFF
METRIC,TZ,000.000
T9C0.350
T8C0.600
T7C0.610
T6C0.813
T5C0.914
T4C1.000
T3C1.200
T2C1.422
T1C2.500
%
G90
M71
T1
X46990Y29010
X46990Y4010
T2
X19130Y4250
X19130Y19490
T3
X2381Y13073
X2381Y28567
X11779Y28567
X11779Y13073
T4
X7630Y6820
X10630Y2020
X48260Y7620
X45720Y7620
X48260Y10160
X45720Y10160
X48260Y12700
X45720Y12700
X48260Y15240
X45720Y15240
X48260Y17780
X45720Y17780
X48260Y20320
X45720Y20320
X48260Y22860
X48260Y25400
X45720Y25400
X45720Y22860
X98000Y1800
X98200Y48600
X1300Y48500
X14900Y15900
X13730Y6820
T5
X6140Y37970
X8680Y35430
X8680Y37970
X11220Y37970
X11220Y35430
X51290Y45930
X53830Y45930
X56370Y45930
X58910Y45930
X62800Y37090
X62800Y39630
X62800Y42170
X62800Y44710
X92230Y46070
X94770Y46070
X92230Y43530
X94770Y43530
X3600Y37970
X94770Y40990
X94770Y38450
X92230Y38450
X77180Y34470
X77180Y37010
X39390Y4030
X41930Y4030
X92230Y40990
X31570Y4000
X29030Y4000
X26490Y4000
X3600Y35430
X6140Y35430
X77310Y46110
X77310Y43570
X34110Y4000
T6
X35690Y29500
X29190Y39000
X57600Y7940
X19660Y29010
X17120Y29010
X36810Y39000
X34950Y25970
X42570Y25970
X73840Y41500
X73840Y33880
X31340Y36540
X38960Y36540
X22900Y24940
X15280Y24940
X77520Y40340
X85140Y40340
X61690Y14850
X61690Y7230
X57600Y10480
X43310Y29500
T7
X68430Y46640
X68430Y44100
X68430Y41560
T8
X42100Y7930
X24600Y13930
X24600Y15430
X24600Y18430
X24600Y16930
X42100Y9430
X24600Y19930
X24600Y7930
X24600Y9430
X24600Y10930
X42100Y10930
X42100Y12430
X42100Y13930
X42100Y15430
X42100Y18430
X42100Y16930
X42100Y19930
X24600Y12430
T9
X46900Y36000
X44100Y40600
X48100Y44000
X22200Y44700
X94600Y3600
X80400Y10100
X90500Y46000
X26275Y40400
X39300Y41500
X28400Y17300
X90800Y43500
X93600Y47500
X39700Y33800
X39400Y19900
X69800Y4100
X85300Y25800
X17100Y32000
X73600Y47100
X68100Y35400
X59200Y34800
X35600Y34000
X43000Y44600
X9500Y18200
X5500Y22500
X6500Y31000
X7600Y46800
X48700Y35300
X70300Y18600
X50800Y33200
X51300Y28600
X43400Y37600
X45600Y36700
X94800Y32300
X32100Y42000
M30